<svg xmlns="http://www.w3.org/2000/svg" xmlns:xlink="http://www.w3.org/1999/xlink" width="400" height="283" viewBox="0 0 400 283">
  <defs>
    <clipPath id="clip-path">
      <rect id="Rect치ngulo_421641" data-name="Rect치ngulo 421641" width="400" height="283" transform="translate(1020 4025)" fill="#fff" stroke="#707070" stroke-width="1"/>
    </clipPath>
  </defs>
  <g id="Enmascarar_grupo_1153340" data-name="Enmascarar grupo 1153340" transform="translate(-1020 -4025)" clip-path="url(#clip-path)">
    <g id="Grupo_1223907" data-name="Grupo 1223907" transform="translate(10.949)">
      <rect id="Rect치ngulo_421640" data-name="Rect치ngulo 421640" width="214" height="264" transform="translate(1145 4044)" fill="#248abf"/>
      <g id="Grupo_1223906" data-name="Grupo 1223906" transform="translate(2950.388 75.861)">
        <path id="Trazado_1170624" data-name="Trazado 1170624" d="M439.393,279.846c.724,4.231,1.544,8.448,2.141,12.7.49,3.489,2.122,6.579,3.1,9.89,2.878,9.7,6.265,19.244,8.874,29.027.351,1.314.2,2.232-1.075,2.793-.925.408-1.015,1-.859,1.97,1.946,12.054,1.476,24.165.72,36.275-.251,4.025-.644,8.04-.972,12.06-.385,1.246-1.073,1.923-2.5,1.488a5.484,5.484,0,0,0-1.549-.03q-16.8,0-33.6,0c-7.561.012-15.124-.093-22.684.021-4.136.063-8.27-.1-12.411.066-2.728.106-5.485-.078-8.229-.093a1.317,1.317,0,0,1-1.484-1.4c-.373-4.94-1.209-9.842-1.162-14.818.038-4.034-.58-8.037-.627-12.073a136.664,136.664,0,0,1,1.347-21.341c.158-1.085-.033-1.841-1.146-2.184-1.606-.678-1.939-1.253-1.459-3.018.857-3.149,1.792-6.277,2.764-9.391,1.821-5.831,3.958-11.561,5.593-17.453a45.59,45.59,0,0,1,1.922-4.919c.4-.976.07-1.428-.964-1.575a2.926,2.926,0,0,0-3.164,1.26c-6.7,8.9-13.664,17.586-21.014,25.96a14.555,14.555,0,0,1-2.466,2.573,4.939,4.939,0,0,1-1.338.775c-1.375.42-2.078-.2-1.883-1.609a21.476,21.476,0,0,0-3.864-15.578,13.194,13.194,0,0,0-3.836-3.583,3.223,3.223,0,0,1-1.565-1.661,30.2,30.2,0,0,1-.224-5.566c.063-17.414.1-34.828-.015-52.241-.023-3.677.212-7.349.05-11.025a9.509,9.509,0,0,0-.921-4.206,6.065,6.065,0,0,0-5.743-3.525c-4.805.024-9.61-.124-14.416-.149a26.634,26.634,0,0,0-7.056-.455c-.718.02-1.484.116-1.8-.792a8.042,8.042,0,0,1,.234-3.069c1.733-9.662,3.348-19.344,4.974-29.025a20.327,20.327,0,0,0,.6-3.554c.776-3.846,1.248-7.754,2.336-11.536a1.457,1.457,0,0,1,.911-1.169c9.641,4.6,19.954,7.344,29.991,10.849,1.9.664,3.823,1.271,5.73,1.917a8.767,8.767,0,0,1,4.861,4.56c2.365,4.407,3.648,9.22,5.19,13.935.041.125.1.247.18.453.792-1.595,1.5-3.132,2.3-4.615a9.381,9.381,0,0,1,6.606-5.138c2.919-.6,5.754-1.6,8.641-2.369a2.379,2.379,0,0,0,1.91-1.9c1.83-6.685,2.5-13.534,3.069-20.4.8-9.612.712-19.271,1.554-28.88.528-6.025,1.789-11.864,5.746-16.625,6.583-7.922,15.154-10.922,25.149-8.652,9.6,2.179,15.46,8.537,17.951,18.019,1.168,4.446,1.324,9.016,1.526,13.567.348,7.872.368,15.755.957,23.62a125.631,125.631,0,0,0,2.919,19.645,1.918,1.918,0,0,0,1.611,1.592c2.809.689,5.583,1.525,8.4,2.158a9.958,9.958,0,0,1,7.419,6.2,98.184,98.184,0,0,1,5.616,18.362c-.327.483-.839.289-1.281.346-.577.074-1.157.13-1.27.875-.893,1.008-.78,2.577-1.92,3.446-2.04.619-3.882-.015-5.666-.929a37.492,37.492,0,0,1-3.456-2.377c-2.416-1.6-4.32-1.276-6.074,1.016-.315.412-.586.856-.931,1.244-1.095,1.233-1.557,1.22-2.635-.067-.413-.493-.86-1.015-1.562-.6a1.168,1.168,0,0,0-.346,1.77c1.1,1.573.991,3.331.986,5.092-.007,2.955.021,5.91-.011,8.864-.021,1.979-.26,2.439-2.169,2.446-4.509.016-7.289,2.288-9.186,6.183-1.063,2.181-2.429,4.221-3.617,6.347-1.179,2.11-.942,3.14.859,4.763a9.378,9.378,0,0,0,6.16,2.555c2.17.084,4.337.3,6.516.276a2.487,2.487,0,0,1,1.495.331c.539.6.226,1.183-.1,1.7-2.407,3.777-4.846,7.533-7.378,11.229a2.141,2.141,0,0,1-1.926,1.073,37.79,37.79,0,0,1-3.773-.9c-.466-.1-.924-.294-.968-.86-.05-.636.427-.894.914-1.11a13.271,13.271,0,0,1,1.479-.474,6.623,6.623,0,0,0,2.111-.962c.647-.494,1.653-1.06,1.291-1.887-.308-.7-1.3-.083-1.981.016a18.953,18.953,0,0,0-9,3.546c-1.147.874-2.435,1.573-3.651,2.363a9.285,9.285,0,0,1-6.815,1.44c-2.323-.377-2.471-.234-2.794,2.058-.282,2-.6,3.992-.793,6.007a1.765,1.765,0,0,0,1.6,2.181c3.382.772,6.672,1.916,10.093,2.542a5.176,5.176,0,0,1,2.063.638c.788,1.214-.156,2.108-.723,2.9-1.226,1.72-2.383,3.48-3.556,5.233-1.249,1.865-2.134,4.01-4.04,5.4a2.154,2.154,0,0,0-.563,1.087c-.624,1.515-1.878,2.576-2.8,3.879-1.111,1.575-1.039,2.841.234,3.993,1.725,1.562,2.981,1.417,4.373-.475.889-1.209,1.892-2.341,1.559-4.042-.119-.607.365-1.026.782-1.434a19.047,19.047,0,0,1,2.556-1.733c2.1-2.7,3.827-5.645,5.7-8.5a29.361,29.361,0,0,0,2.617-3.854,2.269,2.269,0,0,1,1.66-.829c1.4-.017,2.844.065,3.622-1.482.508-.437,1.288-.373,1.722-.944.8-1.451.828-3.369,2.677-4.2.367-.166.219-.949.356-1.437.2-.821,1-.845,1.564-1.19,1.283-1.115,1.337-1.968.187-3.143-.344-.351-.861-.566-.9-1.156.871-.794.871-.794,2.284.014-.028-.328-.309-.377-.527-.452-1.7-.584-1.757-.733-.693-2.265a21.667,21.667,0,0,1,1.514-2.133C438.922,278.5,439.286,278.856,439.393,279.846Z" transform="translate(-2098.967 3845.783)" fill="#002339"/>
        <path id="Trazado_1170625" data-name="Trazado 1170625" d="M85.385,426.2a10.747,10.747,0,0,1-3.294-2.786q-13.783-14.784-26.621-30.4c-4.3-5.226-4.789-10.74-3-17.022,5.773-20.242,11.582-40.473,17.624-60.636,1.856-6.192,3.539-12.444,5.953-18.45a11.409,11.409,0,0,1,7.355-7.193c9.62-3.113,19.144-6.524,28.693-9.855,1.458-.509,2.841-1.233,4.266-1.839.433-.185.906-.646,1.321.047a1.938,1.938,0,0,1,.858,1.564c.674,3.539,1.458,7.06,1.885,10.643a3.449,3.449,0,0,0,.216,1.542c.676,4.292,1.514,8.555,2.25,12.836,1.114,6.48,2.3,12.947,3.329,19.441a4.264,4.264,0,0,1,.027,1.849c-.216.758-.825.878-1.472.852a20.718,20.718,0,0,0-6.606.642c-4.024-.178-8.051-.288-12.076-.256-2.912.024-5.378,1.043-6.788,3.83a10.223,10.223,0,0,0-.851,4.692c-.033,8.6-.014,17.207-.015,25.811q0,19.98-.006,39.96a5.074,5.074,0,0,1-.44,2.874,2.513,2.513,0,0,1-1.149.759c-4.475,1.615-6.872,5.139-8.484,9.329a17.719,17.719,0,0,0-1.2,10.478C87.453,426.19,87.135,426.367,85.385,426.2Z" transform="translate(-1938.79 3747.756)" fill="#002339"/>
        <path id="Trazado_1170626" data-name="Trazado 1170626" d="M149.8,709.675c-3.161-.7-3.558-2.854-3.381-5.7.475-7.646.617-15.311,1.227-22.952a.8.8,0,0,1,.3-.675.483.483,0,0,1,.387-.123c.512.128,1.056.5,1.458-.2,1.229-.938,1.689-.885,2.353.48.928,1.907,1.608,3.923,2.416,5.883,1.187,2.884,1.9,3.412,5,3.371a171.527,171.527,0,0,0,17.169-.921c1.288-.147,2.51-.627,3.814-.683q13.762,0,27.52-.01a31.093,31.093,0,0,1,3.719.154c1.867.069,3.666.634,5.522.8,4.9.428,9.8.648,14.716.691,2.5.021,4.129-.954,4.967-3.345.684-1.953,1.476-3.869,2.285-5.774.348-.819.748-1.692,1.94-1.158.83,1.034,2.049.819,3.158.974.973,1.306.805,2.888.9,4.342.424,6.768.706,13.543.725,20.329.006,2.114-.459,3.786-2.594,4.621-.853.333-.877,1.09-.84,1.826.142,2.8-.379,5.579-.349,8.378a4.19,4.19,0,0,1-.242,1.529,2.8,2.8,0,0,0-.492,1.606c.28,2.735-.375,5.437-.222,8.188a15.58,15.58,0,0,1-.395,4.763c-.232.891-.6,1.076-1.507,1.051-7.394-.2-14.791-.081-22.186-.076-.36,0-.707.157-1.075.131-5.011,0-10.022-.028-15.033.022-1.143.011-1.58-.4-1.6-1.512-.1-6.233-.926-12.418-1.251-18.636-.024-.464,0-.953-.574-1.139-2.406-.215-2.871-.041-2.933,1.793-.195,5.766-.919,11.491-1.167,17.251-.029.657.157,1.357-.412,1.9a3.766,3.766,0,0,1-1.967.328q-19.5-.011-38.995.021c-1.136,0-1.781-.2-1.662-1.481.027-.3-.063-.615-.063-.926.009-6.939-.516-13.87-.325-20.813A20.784,20.784,0,0,0,149.8,709.675Z" transform="translate(-1998.553 3494.783)" fill="#002339"/>
        <path id="Trazado_1170627" data-name="Trazado 1170627" d="M223.045,170c-.527-1.672-.153-3.391-.243-5.086a5.972,5.972,0,0,0-.842-3.351,20.011,20.011,0,0,1-2.6-7.241c-.208-.971-.567-1.5-1.726-1.505-2.257-.007-3.7-1.332-4.635-3.3a9.526,9.526,0,0,1-1.159-3.967,4.608,4.608,0,0,1,3.191-4.861c1.093-.388,1.709.347,2.412,1.055.562-5.16,2.605-9.957,3.187-15.07a4.569,4.569,0,0,1,.307-1.043c1.06-2.869,2.05-3.209,4.767-1.8,7.53,3.9,15.372,4.212,23.4,1.866,2.548-.745,3.537-.412,4.265,2.177a117.975,117.975,0,0,1,3.366,13.5c1.008-.082,1.4-1.284,2.4-1.243.061.2.06.489.191.572,3.018,1.9,3.588,2.937,2.929,6.282a8.672,8.672,0,0,1-3.111,5.056,3.839,3.839,0,0,1-2.918.82c-.835-.09-1.371.134-1.5,1.1a24.415,24.415,0,0,1-3,8.237,4.584,4.584,0,0,0-.314,1.967c-.176,2.566.342,5.157-.275,7.706-.63-.486-.537-1.2-.546-1.857-.023-1.812-.035-3.624.017-5.5-3.718,3.976-7.8,7.18-13.59,6.916a17.7,17.7,0,0,1-13.486-7.077C223.456,166.228,224.182,168.17,223.045,170Z" transform="translate(-2039.781 3845.178)" fill="#feaf92"/>
        <path id="Trazado_1170628" data-name="Trazado 1170628" d="M734.761,460.806c-.877,3.117-2.775,4.652-6.037,4.761-6.365.212-12.73.13-19.286-.045.265.857.553,1.646.75,2.458.235.969.778,1.238,1.77,1.227,5.177-.058,10.355-.038,15.532-.036,2.173,0,2.724.41,3.214,2.623.156.7.554.442.905.45,2.829.066,3.236.4,3.652,3.154a.67.67,0,0,0,.53.622,3.314,3.314,0,0,1,1.969,2.43c.709,2.287-.3,3.622-2.673,3.6-.931-.008-1.862-.068-2.793-.1a9.836,9.836,0,0,1-2.027-1.055,3.042,3.042,0,0,0-4.436,1.18c-1.1,1.047-2.485.646-3.77.748a12.526,12.526,0,0,1-1.821-.133,2.063,2.063,0,0,1-1.152-.338,2.855,2.855,0,0,0-3.641.19,2.512,2.512,0,0,1-1.143.129,3.942,3.942,0,0,1-2.007-1.1c-.943-.7-1.867-.887-2.765.056a1.352,1.352,0,0,1-1.947.12,1.946,1.946,0,0,0-2.565.089,2.8,2.8,0,0,1-1.9.492c-1.176.016-1.492.422-.977,1.4,1.085,2.064,2.376,3.951,5.082,3.953,1.234,0,2.036.958,3.1,1.331a23.3,23.3,0,0,1,6.1,1.419,6.981,6.981,0,0,0,2.606-.051c.539-.031,1.278-.318,1.482.59a33.56,33.56,0,0,1-1.355,3.943c-2.866,5.976-9.746,7.263-14.6,2.717a31.773,31.773,0,0,1-5.263-7.273q-1.943-3.265-3.673-6.656a2.686,2.686,0,0,0-2.853-1.741c-2.635.132-5.283.019-7.925.022-1.165,0-2.342.04-2.786-1.377-.429-1.369-.415-2.75.743-3.716a4.2,4.2,0,0,0,1.566-2.709c.273-1.547,1.538-1.94,2.953-1.886.686.027,1.11-.024,1.119-.946a2.675,2.675,0,0,1,1.917-2.413c.93-.357.83-.786.565-1.5a59.54,59.54,0,0,1-2.662-8.893,4.415,4.415,0,0,1-.116-1.841,1.866,1.866,0,0,1,.333-1.051c1.967-2.714,3.584-5.653,5.438-8.438.333-.5.654-1.4,1.413-.345a7.034,7.034,0,0,1,.226,2.463c.007,5.49,0,10.98.008,16.47a4.7,4.7,0,0,0,.173,1.847,46.017,46.017,0,0,0,.373-5.853c-.276-5.938-.612-11.891.244-17.818a54.292,54.292,0,0,1,3.924-8.314c.589-1.014,1.394-.884,2.259.191a5.389,5.389,0,0,0,.139,3.765c1.389,4.75,2.633,9.538,3.606,14.392a4.558,4.558,0,0,1-.871,2.571,12.8,12.8,0,0,0-1.5,3.434,12.891,12.891,0,0,0,1.3-2.375c.357-.558.65-1.424,1.617-.754a3.386,3.386,0,0,1,.592,1.085c.877,2.217.878,2.215,3.311,2.223s4.858-.035,7.286.047a7.462,7.462,0,0,1,1.688.011c4.569-.148,9.138-.209,13.706.025A1.72,1.72,0,0,1,734.761,460.806Z" transform="translate(-2335.779 3648.702)" fill="#022339"/>
        <path id="Trazado_1170629" data-name="Trazado 1170629" d="M263.557,108.377c-.478,1.3-2.031,1.518-2.749,3.153-.423-4.644-1.789-8.6-2.763-12.638-.181-.753-.376-1.505-.613-2.242-.933-2.9-1.208-2.892-4.121-2.08-8.338,2.325-16.462,1.919-24.161-2.4-1.542-.865-1.913-.827-2.819.707-.782,1.325-.8,2.855-1.112,4.317-.745,3.534-1.651,7.032-2.465,10.551-.232,1-.371,2.028-.587,3.234a5.915,5.915,0,0,0-2.711-2.037c-.182-5.907-.3-11.817-.572-17.719-.168-3.632.737-6.552,4.339-8.1a1.822,1.822,0,0,0,1.018-1.11c1.756-4.953,5.68-7.229,10.43-8.583,5.2-1.482,10.22-.767,15.225.89a34.392,34.392,0,0,0,5.707,1.437,7.51,7.51,0,0,0,6.347-1.77c.871-.76,1.3-.557,1.8.277,2.88,4.847,2.27,9.607-.439,14.259-.532.914-.892,1.53-.119,2.555s.607,2.378.59,3.621C263.718,99.255,263.634,103.816,263.557,108.377Z" transform="translate(-2044.208 3876.925)" fill="#002437"/>
        <path id="Trazado_1170630" data-name="Trazado 1170630" d="M67.423,711.98a8.472,8.472,0,0,1-3.411-3.252,35.093,35.093,0,0,1-6.58-16.775c-1.016-8.608.428-16.874,2.971-25.04.862-2.768,1.892-5.47,2.941-8.168.661-1.7.889-1.784,2.033-.3a54.169,54.169,0,0,1,6.434,10.2,44.352,44.352,0,0,1,4.2,14.024,58.583,58.583,0,0,1-.015,10.7,39.945,39.945,0,0,1-2.713,10.778,23.879,23.879,0,0,1-3.649,6.435,5.5,5.5,0,0,0-1.221,4.131,6.175,6.175,0,0,1-.1,1.078c-.846-.513-.551-1.366-.556-2.081-.031-4.564.079-9.132-.046-13.693-.1-3.6-.16-7.208-.562-10.8a3.488,3.488,0,0,1,1.142-3.437c1.365-1.189,2.114-3,2.962-4.264-.671,1.09-1.582,2.412-2.468,3.75-.3.459-.615,1.081-1.307.857-.564-.183-.6-.787-.66-1.307-.741-6.5-1.551-12.991-2.772-19.422-.078-.409-.011-.83-.1-1.238.41,3.183,1.046,6.331,1.454,9.515.466,3.631,1.011,7.251,1.412,10.891a75.065,75.065,0,0,1,.607,9.255c-.007.483.208,1.159-.445,1.338-.517.142-.751-.449-1.053-.787-1.067-1.2-1.894-2.578-2.947-3.785,1.444,1.615,2.452,3.58,4.115,5.025a2.16,2.16,0,0,1,.643,1.692q.012,6.925,0,13.85A.918.918,0,0,1,67.423,711.98Z" transform="translate(-1942.323 3508.607)" fill="#ddc1a8"/>
        <path id="Trazado_1170631" data-name="Trazado 1170631" d="M677.77,393.828c-1.071-.733-1.6-.465-2.13.769-1.049,2.444-2.339,4.784-3.53,7.167-.61.71-1.035,1.555-1.645,2.265-1.251,1.052-1.844,2.557-2.68,3.894-1.059,1.7-2.089,3.41-3.251,5.042-.229.321-.7.645-.456,1.188l-.589.569c-.475.112-.553.542-.723.9-.463,2.02-1.9,3.437-3.092,5.007-2.623,4-5.2,8.032-7.9,11.976-.591.862-.017,1.585-.213,2.346-.324,0-.167-1.3-.845-.322-.788,1.139-1.552,2.294-2.332,3.45.472.539,1.029.241,1.5.338a1.311,1.311,0,0,1,.989,1.078.66.66,0,0,1-.4.769c-.637.319-.786-.29-1.031-.634-.431-.6-.9-.838-1.55-.323-2.084-.008-3.641-1.149-5.149-2.4-.265-.794.175-1.381.559-2,1.627-2.645,3.452-5.156,5.29-7.652,1.626-2.208,2.55-4.84,4.327-6.943,2.393-3.78,5.067-7.377,7.364-11.221,1.532-2.563,2.623-5.478,4.684-7.615,2.874-2.981,4.022-6.976,6.534-10.134.227-.285,1.083-1-.013-1.465a14.763,14.763,0,0,0-.981-3.762,1.759,1.759,0,0,1-.024-.429,4.2,4.2,0,0,1,1.055-2.8.508.508,0,0,0,.025-.8c.363-2.011,1.8-1,2.876-1.028.414-.651.841-1.294,1.237-1.956.171-.286.555-.552.24-.957a1.472,1.472,0,0,1,.073-2.1c.718-.782,1.568-.613,2.555-.181-.308-1.978-.406-3.9.943-5.451a6.052,6.052,0,0,1,4.054-2.059,7.346,7.346,0,0,1,8.132,5.854c.708,3.177-.961,5.805-4.514,6.989l.658,1.44a1,1,0,0,1,.214.949c-.255.738-.908.913-1.556,1.118-1.84.581-2.465,1.547-2.245,3.425A4.593,4.593,0,0,1,680,393.447C679.225,393.5,678.576,394.111,677.77,393.828Z" transform="translate(-2311.132 3690.679)" fill="#092c43"/>
        <path id="Trazado_1170632" data-name="Trazado 1170632" d="M232.6,283.413q-1.147-6.169-2.293-12.338c.97-1.3,1.96-2.583,2.9-3.9a1.417,1.417,0,0,1,1.48-.525c.83.023,1.254.675,1.742,1.18,3.321,3.442,7.29,6.094,11.011,9.047a1.825,1.825,0,0,0,2.42-.072,129.778,129.778,0,0,0,10.693-8.469c.738-.669,1.364-1.561,2.47-1.729,1.539-.138,1.846,1.29,2.492,2.137a7.457,7.457,0,0,0,1.869,1.962c-1.427,4.131-1.723,8.508-2.782,12.719a44.447,44.447,0,0,1-6.858,5.746c-.831.54-1.416.3-1.862-.588-.466-.927-.742-1.934-1.263-2.832a24.607,24.607,0,0,0-3.394-5.727c-1.506-1.89-3.2-1.894-4.8-.09a16.669,16.669,0,0,0-3.615,6.095c-.414.831-.971,1.578-1.351,2.432a1.306,1.306,0,0,1-2.154.583,11.484,11.484,0,0,1-2.492-1.82C235.547,285.792,233.692,285.027,232.6,283.413Z" transform="translate(-2051.416 3754.751)" fill="#fefefe"/>
        <path id="Trazado_1170633" data-name="Trazado 1170633" d="M270.483,259.376a78.864,78.864,0,0,1-8.64,7.476c-1.442,1.169-2.955,2.249-4.442,3.361a1.96,1.96,0,0,1-2.563.038c-3.958-3.224-8.246-6.053-11.783-9.783-.318-.335-.605-.7-.907-1.049q.019-1.878.039-3.756c.684-.27,1.2.18,1.734.443,1.584.775,3.238,1.367,4.877,2.008,5.443,2.129,10.662,1.414,15.783-1.022,1.169-.556,2.344-1.1,3.532-1.612.681-.292,1.459-.718,2.076.178C270.795,256.858,270.374,258.138,270.483,259.376Z" transform="translate(-2058.871 3761.978)" fill="#feaf92"/>
        <path id="Trazado_1170634" data-name="Trazado 1170634" d="M270.168,240.8c-1.66-.434-2.854.748-4.134,1.361a33.79,33.79,0,0,1-9.244,2.936,13.936,13.936,0,0,1-5.807-.639,28.54,28.54,0,0,1-8.818-3.654q-.025-1.231-.05-2.462,0-3.142,0-6.283l.35-.244c3.615,4.437,8.043,7.286,13.863,7.431,5.985.149,9.918-3.449,13.872-7.719,0,3.069,0,5.871,0,8.673Q270.184,240.5,270.168,240.8Z" transform="translate(-2058.851 3776.838)" fill="#f8866f"/>
        <path id="Trazado_1170635" data-name="Trazado 1170635" d="M106.71,758.959a27.035,27.035,0,0,1,6.949-8.78c1.436-1.28,1.966-1.075,2.505.87a17.293,17.293,0,0,1-.668,11.238,24.232,24.232,0,0,1-9.59,11.64c-.408.266-.818.713-1.393.308-.514-.579-.207-1.16-.01-1.746.661-1.963,1.512-3.85,2.279-5.771.48-1.2,1.085-2.184,2.569-2.365a9.66,9.66,0,0,0,2.282-.818c-.823.3-1.637.632-2.472.9a.729.729,0,0,1-.861-.125.806.806,0,0,1-.032-1.015c1.619-2.465,2.17-5.435,3.48-7.415-.972,1.659-1.778,4.018-2.805,6.277-.143.314-.18.759-.675.72-.421-.033-.589-.375-.738-.713a10.265,10.265,0,0,1-.784-2.989C106.732,759.1,106.721,759.032,106.71,758.959Z" transform="translate(-1972.005 3450.677)" fill="#dec2aa"/>
        <path id="Trazado_1170636" data-name="Trazado 1170636" d="M748.481,407.936q.017-.489.035-.978c1-.238,1.435.61,2.027,1.1a10.222,10.222,0,0,0,2.522,2.028c1.038.426,2.125.59,2.867-.311.848-1.03-.106-1.763-.925-2.509a2.154,2.154,0,0,1,3,.8,2.043,2.043,0,0,1-.548,3.013c-2.311,1.2-1.866,3.157-1.873,5.054-.01,2.849.007,5.7-.006,8.546,0,.743.047,1.358,1.044,1.3,4.13-.235,6.555,2.145,8.381,5.468,1.713,3.117,3.468,6.212,5.2,9.321a5.353,5.353,0,0,1,.615,2.369l-1.223-.1a6.729,6.729,0,0,1-1.407-2.2c-1.831-3.3-3.637-6.612-5.655-9.8a5.428,5.428,0,0,0-4.471-2.938c-1.694-.062-1.914.088-1.926,1.756-.024,3.67,0,7.341-.015,11.011a2.735,2.735,0,0,1-.528,2.19l-1.579,0c-.7-.291-.769-.917-.808-1.546a10.837,10.837,0,0,1,0-2.478c.531-3.1-.165-6.186-.053-9.281.056-1.54-.292-1.765-1.865-1.622A4.183,4.183,0,0,0,748,430.178c-1.567,2.438-2.925,4.995-4.374,7.5-.3.526-.5,1.153-1.14,1.419-.862.393-.888,1.313-1.251,2.015-.282.545-.483,1.131-.729,1.7a.845.845,0,0,1-1.16.456c-.6-.237-.182-.673-.05-1.021a21.937,21.937,0,0,1,1.968-4,3.42,3.42,0,0,0,.683-1.69,41.436,41.436,0,0,1,4.647-8.535c1.117-1.705,2.9-2.2,4.8-2.453,1.772-.24,2-.459,2.058-2.242.108-3.1.031-6.2.037-9.3a2.065,2.065,0,0,0-1.184-1.848,13.96,13.96,0,0,1-2.874-2.345A3.1,3.1,0,0,1,748.481,407.936Z" transform="translate(-2371.833 3666.37)" fill="#d5bca5"/>
        <path id="Trazado_1170637" data-name="Trazado 1170637" d="M57.1,720.219c.177-4.974-.014-9.945-.115-14.916a2.172,2.172,0,0,0-.688-1.45c-1.7-1.946-3.284-4-4.906-6.017-.2-.25-.408-.593-.1-.817.42-.31.626.148.824.412,1.448,1.933,2.884,3.875,4.518,5.752-.04-11.038-2.032-21.833-3.372-32.7a241.682,241.682,0,0,1,3.829,24.048c1.823-1.667,2.651-3.787,3.988-5.528.156-.2.248-.456.406-.657.192-.244.227-.857.712-.543s0,.654-.19.9c-1.6,2.088-2.538,4.655-4.623,6.386a1.013,1.013,0,0,0-.262,1c.768,9.253.615,18.533.825,27.8a.483.483,0,0,0,.053.145c-.006,2.053.017,4.107-.033,6.159-.018.754.245.978.972.938,1.127-.062,2.259-.038,3.389-.05a.314.314,0,0,1,.463,0c6.625.012,13.25.011,19.874.053.859.005,1.112-.16,1.071-1.112-.371-8.636-.624-17.277-.487-25.923a12.027,12.027,0,0,1,.611,3.853,27.287,27.287,0,0,1,.013,3.414c-.212,6.259.478,12.5.314,18.758-.027,1.034.373,1.326,1.364,1.323,8.074-.029,16.15.074,24.222-.05,4.776-.073,9.546.077,14.32.045a8.23,8.23,0,0,0,2.442-.328c1.421-1.1,3.032-.3,4.545-.455a7.11,7.11,0,0,1,.715-.041.855.855,0,0,0,.593-.183c.5-.955.1-1.883-.073-2.82-.682-5.015-.944-10.062-1.294-15.1-.067-.965-.325-1.969.468-2.793.6.344.619.343.638.964.194,6.534,1.241,13.014,1.22,19.559,0,1.155.622,1.2,1.484,1.2,4.909-.017,9.818-.007,14.727-.006.112.053.15.107.113.161s-.073.082-.111.082c-7.566.02-15.131.055-22.7.058q-42.213.013-84.427,0a2.747,2.747,0,0,1-1.715-.2c.378-.657,1-.405,1.494-.408,4.561-.029,9.123-.082,13.681,0,1.3.023,1.527-.4,1.467-1.581C57.2,726.434,57.176,723.325,57.1,720.219Z" transform="translate(-1932 3500.368)" fill="#131311"/>
        <path id="Trazado_1170638" data-name="Trazado 1170638" d="M334.744,746.419c0-.081,0-.162,0-.244a8.554,8.554,0,0,1,2.448-.313q9.477.024,18.954.008c.207,0,.414,0,.621,0,2.289.044,2.447-.055,2.541-2.376.15-3.691.225-7.386.336-11.079.02-.656-.157-1.381.591-1.8a1.584,1.584,0,0,1,.445,1.569,10.432,10.432,0,0,0-.157,4.1,34.305,34.305,0,0,1-.1,5.048,8,8,0,0,0-.3,3.063c.078.366.052.768.367,1.053a3.045,3.045,0,0,0,1.818.263q11.16.008,22.32-.007c.584,0,1.264.251,1.7-.408-.536-5.784-1.092-11.56-1.367-17.35-.384-8.071-.69-16.147.154-24.219a48.588,48.588,0,0,1,.71-6.012c.338-1.449-.367-2.572-.7-3.824,1.863.131,2.319.946,2.014,2.815a46.671,46.671,0,0,0-.754,5.669c-.189,4.746-.7,9.472-.616,14.239.106,5.84.57,11.663.773,17.5.125,3.616.579,7.275,1,10.9.117,1.013.874.852,1.525.853q6.885.012,13.771,0H465.5a4.635,4.635,0,0,1,1.392.03c1.287.424,2.077.061,2.392-1.273,0-.014.1-.022.146-.006s.079.065.118.1l.02,1.125c.52.359,1.107.168,1.658.169q22.83.019,45.66.017a3.438,3.438,0,0,1,1.679.14c-.738.556-1.593.277-2.384.277q-53.53.027-107.06.015-36.491,0-72.981,0C335.675,746.467,335.209,746.435,334.744,746.419Z" transform="translate(-2117.191 3485.62)" fill="#11181c"/>
        <path id="Trazado_1170639" data-name="Trazado 1170639" d="M782.547,558.111c-.094-1.12.747-1.4,1.547-1.587a4.762,4.762,0,0,1,5.059,1.9c-.568,4.486-4.028,6.169-7.575,7.691-.707.3-1.384.67-2.1.949-.56.22-1.149.555-1.76.093-2.161-.672-2.772-2.777-3.948-4.341a10.459,10.459,0,0,1-1.438-2.365,1.845,1.845,0,0,1-.052-1.776c1.391-1.454,2-1.44,4.424.1a6.762,6.762,0,0,0,4.757.544C782.342,559.149,782.488,558.785,782.547,558.111Z" transform="translate(-2392.639 3572.232)" fill="#fdae91"/>
        <path id="Trazado_1170640" data-name="Trazado 1170640" d="M146.13,643.091a.918.918,0,0,1-.284-.107c-.559-1.28-1.971-.524-2.8-1.173,1.387.2,1.887-.166,1.188-1.61a7.067,7.067,0,0,1-.252-3.978A21.932,21.932,0,0,1,149.82,623a11.78,11.78,0,0,1,5.305-2.978c1.168.655.483,1.591.376,2.442a3.278,3.278,0,0,1-1.519,1.482c-5.356,3.35-7.669,8.428-8.2,14.5a9.906,9.906,0,0,0,.447,2.74C146.348,641.821,146.7,642.486,146.13,643.091Z" transform="translate(-1996.456 3532.148)" fill="#e8d9c4"/>
        <path id="Trazado_1170641" data-name="Trazado 1170641" d="M101.23,790.907c-.986-.57-.914-1.692-.884-2.475.18-4.7,1.082-9.225,3.909-13.156.044.047.086.1.127.147a16.691,16.691,0,0,0,1,3.392,2.888,2.888,0,0,1-.08,2.5,69.361,69.361,0,0,0-3.627,9.307A.353.353,0,0,1,101.23,790.907Z" transform="translate(-1969.55 3434.361)" fill="#d9c0a8"/>
        <path id="Trazado_1170642" data-name="Trazado 1170642" d="M761.65,562.571a18.222,18.222,0,0,0,5.256,8.066c.1.091.123.275.182.416l-.35.289c-.175-.4-.478-.255-.778-.2a7.655,7.655,0,0,1-5.254-.5c-1.47-.816-3.148-.191-4.6-.894,1.2-.743,1.055-1.735.509-2.792-.308-.6-.748-1.116-1.052-1.714-.279-.55-.686-1.251-.016-1.657.565-.342,1.049.268,1.366.731.847,1.234,1.713,2.454,2.546,3.7a3.429,3.429,0,0,0,2.687,1.864c.5.023,1.139.221,1.46-.234.35-.5-.153-.97-.423-1.375-.8-1.2-1.642-2.378-2.454-3.573a1.716,1.716,0,0,1-.3-2Z" transform="translate(-2382.007 3568.332)" fill="#ed816c"/>
        <path id="Trazado_1170643" data-name="Trazado 1170643" d="M100.45,781.936a77.324,77.324,0,0,1,3.464-8.94,4.908,4.908,0,0,0,.141-4.158,3.352,3.352,0,0,1-.453-2.386c.8,1.075.822,2.424,1.413,3.857l4.13-9.277.475.206L105.047,771.7c1.73-.223,3.11-1.135,4.657-1.579-.869,1.148-2.246,1.394-3.474,1.78a2.905,2.905,0,0,0-2.1,1.991c-.919,2.576-2.275,4.99-2.854,7.694-.84,2.106-1.092,4.367-1.721,6.529h-.463C99.255,785.986,100.087,784.012,100.45,781.936Z" transform="translate(-1968.77 3443.333)" fill="#2d2215"/>
        <path id="Trazado_1170644" data-name="Trazado 1170644" d="M747.9,834.432q-23.722,0-47.444,0c-.511,0-1.023-.039-1.534-.067-.027,0-.068-.077-.07-.119a.408.408,0,0,1,.051-.145q23.692,0,47.384.016C746.812,834.122,747.476,833.752,747.9,834.432Z" transform="translate(-2346.521 3397.361)" fill="#0b0503"/>
        <path id="Trazado_1170645" data-name="Trazado 1170645" d="M688.625,501.114a26.5,26.5,0,0,1,3.092-5.007c.477.613.16,1.165-.137,1.713A9.423,9.423,0,0,1,688.625,501.114Z" transform="translate(-2340.082 3610.194)" fill="#a9a191"/>
        <path id="Trazado_1170647" data-name="Trazado 1170647" d="M534.2,201.792a23.438,23.438,0,0,1-6.109-10.3c-.175-.663-.484-.861-1.185-.879-4.23-.107-7.56-5.1-6.142-9.142.821-2.342,3.293-3.017,5.01-1.246.656.676.881.392,1.414,0,3.563-2.633,5.73-6.346,7.874-10.078a70.029,70.029,0,0,0,3.549-7.241c.341-.794.737-1.563,1.27-2.683a27.306,27.306,0,0,0,11.655,15.5,2.908,2.908,0,0,1-.239.281c-.6.516-2.073.581-1.5,1.718.449.89,1.469.059,2.19-.178a4.833,4.833,0,0,1,3.328.237,44.358,44.358,0,0,0,7.91,2.187,2.409,2.409,0,0,0,1.748-.208,3.014,3.014,0,0,1,4.549,1.874,6.963,6.963,0,0,1-6.158,8.952c-.982.029-1.091.633-1.293,1.228a28.175,28.175,0,0,1-3.806,7.431c-.724,1.009-1.831,1.7-2.353,2.864a14.586,14.586,0,0,1-20.3,1.33A9.764,9.764,0,0,1,534.2,201.792Z" transform="translate(-2234.148 3821.748)" fill="#feb093"/>
        <path id="Trazado_1170648" data-name="Trazado 1170648" d="M560.431,365.556c-1.761-6.8-3.539-13.592-5.277-20.4-1.2-4.7-2.492-9.385-3.415-14.154a16.841,16.841,0,0,1,2.7-3.145,1.781,1.781,0,0,0,.526-2.2c.093-.645.33-1.17,1.064-1.28.341.018.528.689.884.346.525-.505-.16-1.026-.144-1.562a2.009,2.009,0,0,1,.4-1.163c1.815-2.527,3.272-5.291,5.139-7.783a3.178,3.178,0,0,1,1.944-1.446,70.4,70.4,0,0,0,6.425-5.025c.846-.658,1.589-1.456,2.431-2.135,1.261-1.017,2.389-2.13,2.514-3.892a.746.746,0,0,1,.419-.61c1.842,1.942,3.663,3.9,5.542,5.81a1.27,1.27,0,0,1,.276,1.268c-.948,5.9-1.779,11.824-3.052,17.668a21.108,21.108,0,0,1-.651,2.021c-.581,1.437-1.33.544-1.841.031a19.955,19.955,0,0,1-2.925-4.014c-1.853-3.124-3.915-6.114-5.831-9.2-.229-.369-.447-1.011-.985-.813-.559.205-.272.82-.19,1.248a34.01,34.01,0,0,1,.134,6.63c-.04,12.4-.018,24.8-.021,37.2a17.376,17.376,0,0,1-.071,2.487,13.447,13.447,0,0,0-.551,1.78,1.547,1.547,0,0,1-1.663,1.5,1.111,1.111,0,0,1-.894-1.741c.972-1.971.461-3.973.14-5.954a29.223,29.223,0,0,1-.505-3.164,6.054,6.054,0,0,0,.22,2.682,12.88,12.88,0,0,1-.5,7.347A2.7,2.7,0,0,1,560.431,365.556Z" transform="translate(-2253.865 3733.014)" fill="#fdfefe"/>
        <path id="Trazado_1170649" data-name="Trazado 1170649" d="M598.011,540.852l5,2.48c.368.263.753.506,1.1.793,1.463,1.2,1.374,2.609-.23,3.875a2.155,2.155,0,0,1-2.154-.3c-2.044-1.065-4.131-2.045-6.181-3.1,1.851.952,3.71,1.89,5.591,2.778a2.106,2.106,0,0,1,1.243,1.6c.258,1.359-.177,2.351-1.594,2.648-.765.16-.839.482-.687,1.16a1.748,1.748,0,0,1-.905,2.076,2.58,2.58,0,0,1-2.879-.3,27.993,27.993,0,0,0-3.946-2.111,33.353,33.353,0,0,1,4.16,2.229c.338.22.743.388.836.854.046,1.291-.7,1.827-1.869,1.887a17.086,17.086,0,0,1-1.822-.091c-2.229.046-4.286-.88-6.463-1.137a3.94,3.94,0,0,1-1.315-.634c-4.61-.733-9.039-2.215-13.572-3.264-.62-.143-1.005-.424-.906-1.18.392-2.978.749-5.96,1.11-8.942.074-.609.345-.959,1-.9.154.013.315-.017.466.01,4.359.8,8.069-.641,11.346-3.386,3.331-2.79,7.431-3.467,11.46-4.36,1.308-.29,1.262.607,1.029,1.4a3.948,3.948,0,0,1-2.636,2.446c-.961.379-1.972.628-2.957.946-.278.09-.681.094-.677.5s.4.379.69.45q1.949.484,3.9.972C596.725,540.614,597.587,540.052,598.011,540.852Z" transform="translate(-2266.255 3586.655)" fill="#fdaf92"/>
        <path id="Trazado_1170650" data-name="Trazado 1170650" d="M351.623,487.883q.01,1.655.02,3.31a3.584,3.584,0,0,1,.463,2.586,3.625,3.625,0,0,1-1.253,2.894,27.148,27.148,0,0,0-2.642,3.047c-.224.285-.542.582-.922.447s-.442-.54-.482-.91a13.038,13.038,0,0,1-.039-1.4q0-32.552,0-65.1c-.024-1.494,1.061-2.405,1.854-3.461,1.377-1.831,1.446-1.9-.426-3.234-1.6-1.14-1.619-2.756-1.7-4.4-.021-.41.136-.819.127-1.23-.088-4.17-1.2-5.591-5.194-5.608-1.443-.006-2.888.07-4.332-.03a23.714,23.714,0,0,0-4.683.135,1.3,1.3,0,0,1-.75-.172c-.561-.482-.444-1.2-.634-1.813-.022-1.057-1.247-1.6-1.166-2.7,5.2-.267,10.393-.028,15.587.04,2.7.035,5.415,2.838,5.834,5.61a49.631,49.631,0,0,1,.071,10.964c-.067.953.247,1.819.245,2.757-.036,17.212,0,34.424-.057,51.635C351.539,483.464,351.549,485.672,351.623,487.883Z" transform="translate(-2114.117 3664.352)" fill="#1d4663"/>
        <path id="Trazado_1170651" data-name="Trazado 1170651" d="M602.425,357.02c-.708,3.576-1.55,7.121-2.472,10.649q-4.25,16.275-8.463,32.559c-1.052-.261-.716-1.143-.723-1.785-.041-3.627.08-7.254.1-10.88.073-12.394.033-24.788.021-37.182,0-1.4.111-2.792.132-4.187.015-.974.492-1.046,1.2-.728a3.634,3.634,0,0,1,1.418,1.407,90.981,90.981,0,0,0,6.869,8.634C601.094,356.171,602.179,356.047,602.425,357.02Z" transform="translate(-2278.419 3705.181)" fill="#fefefc"/>
        <path id="Trazado_1170652" data-name="Trazado 1170652" d="M300.729,319.516c-1,6.061-1.993,12.124-3.014,18.183-.771,4.577-1.582,9.148-2.376,13.721a2.771,2.771,0,0,1-3.866-.106c-.988-2.277-.956-4.729-1.2-7.127-.592-5.846-1.075-11.7-1.664-17.548a10.186,10.186,0,0,1-.014-1.544c.15-.635-.09-1.562.517-1.855a26,26,0,0,1,3.056-1.733.562.562,0,0,1,.585.1c.974,1.117,1.824.406,2.7-.149,1.35-.855,2.54-1.927,3.853-2.83.378-.26.832-.534,1.286-.238C301.021,318.668,300.818,319.121,300.729,319.516Z" transform="translate(-2088.113 3722.208)" fill="#fdfefd"/>
        <path id="Trazado_1170653" data-name="Trazado 1170653" d="M548.183,325.739a1.052,1.052,0,0,1,.312,1.7,43.139,43.139,0,0,0-3.153,3.484c-.076.113-.386.07-.587.1a108.868,108.868,0,0,1-3.12-15.328c-.374-2.506-.825-5-.978-7.539a2.2,2.2,0,0,1,.751-1.894c1.756-1.672,3.287-3.571,5.162-5.126a.716.716,0,0,1,.4.62c-.082,1.83,1.145,2.9,2.318,3.971,1.743,1.6,3.471,3.218,5.354,4.66a3.384,3.384,0,0,1,1.406,1.591c-1.229,2.263-2.784,4.318-4.168,6.481-2.06,3.221-4.008,6.513-6.326,9.57A9.348,9.348,0,0,0,547,326.489C547.3,326.124,547.5,325.523,548.183,325.739Z" transform="translate(-2246.882 3732.993)" fill="#fdfefe"/>
        <path id="Trazado_1170654" data-name="Trazado 1170654" d="M565.958,295.694c-2.776-2.395-5.6-4.719-8.263-7.261-1.249-1.195-.855-2.412-1.054-3.665a46.456,46.456,0,0,0,.311-7.789c.005-.611.056-1.221.086-1.832.485-.014.574.366.676.706a5.155,5.155,0,0,1,.127,1.387c.075,3.658.191,3.772,3.7,5a19.844,19.844,0,0,0,14.677-.607,2.271,2.271,0,0,0,1.7-2.553,10.432,10.432,0,0,1,.031-2.324c.068-.523-.024-1.2.778-1.307.262,3.1-.134,6.223.392,9.31a4.776,4.776,0,0,1-1.96,4.271,121.369,121.369,0,0,1-9.571,7.865C566.99,296.567,566.181,296.53,565.958,295.694Z" transform="translate(-2256.953 3749.364)" fill="#feb093"/>
        <path id="Trazado_1170655" data-name="Trazado 1170655" d="M656.051,407.158a.43.43,0,0,0,0,.206c-.3,1-1.138,1.092-1.974,1.185a9.082,9.082,0,0,1-6.255-1.854,27.6,27.6,0,0,0-2.83-1.9c-1.569-.81-2.661-.641-3.663.759a9.815,9.815,0,0,1-3.73,3.622c-.563.257-.57.829-.574,1.346-.032,3.518-.012,7.035-.014,10.552a1.257,1.257,0,0,0,1.224,1.463,15.021,15.021,0,0,1,1.512.344c3.418.779,5.226,3.1,6.1,6.333-.142.864-.309,1.694-1.5,1.041a17.54,17.54,0,0,1-1.62-2.815c-1.11-1.8-2.848-2.269-4.764-2.454-.727-.07-.9.368-.909.946-.049,4.4-.057,8.8,0,13.2a1.706,1.706,0,0,0,.894,1.358,3.673,3.673,0,0,1-2.421,3.737c-2.847-.117-5.693-.283-8.541-.339-3-.059-5.141-1.668-7.069-3.708a2.683,2.683,0,0,1-.432-3.31A105.011,105.011,0,0,1,625.823,426c1.817-2.611,4.7-2.851,7.512-2.931,1.251-.036,1.539-.387,1.514-1.583-.08-3.835-.035-7.673-.04-11.509a2.56,2.56,0,0,0-.56-2.023,2.073,2.073,0,0,1-.416-2.693,1.519,1.519,0,0,1,1.717-.773,2,2,0,0,1,1.542,2.071c.007.083.1.158.2.3a4.038,4.038,0,0,0,1.719-1.686c2.556-3.6,4.823-3.951,8.291-1.132,2.308,1.876,4.784,3.066,7.832,2.69C655.606,406.513,655.878,406.728,656.051,407.158Z" transform="translate(-2296.294 3669.36)" fill="#cbb1a0"/>
        <path id="Trazado_1170656" data-name="Trazado 1170656" d="M254.2,399.562a5.75,5.75,0,0,0,3.4,0c.125.865.772.43,1.207.464,2.436.187,4.927-.429,7.314.5a3.729,3.729,0,0,1,1.539,2.449c-.03.808-.694.8-1.222.9a10.372,10.372,0,0,1-2.012.073q-15.9.006-31.806-.013c-1.212,0-2.476.47-3.646-.249-.582-1.477-.43-1.948.926-2.872,1.97-1.372,4.206-.731,6.343-.854.427-.024,1.064.431,1.237-.409,1.142-.422,2.324-.093,3.482-.193.616.13.931-.237,1.236-.7a20.173,20.173,0,0,1,1.337-1.892c2.7-3.183,7.485-2.738,9.869,1.522C253.645,398.737,253.622,399.336,254.2,399.562Z" transform="translate(-2050.37 3674.063)" fill="#e1ccb6"/>
        <path id="Trazado_1170657" data-name="Trazado 1170657" d="M589.544,593.524a21.829,21.829,0,0,1,6.524,1.568,1.681,1.681,0,0,0-1.4.649c-.928,1.1-1.675,2.327-2.539,3.471-1.694,2.482-3.29,5.029-5.016,7.489-.313.446-.745.844-.718,1.461a31.212,31.212,0,0,0-2.729,1.832c-.489.45-.753.788-.493,1.437a1.962,1.962,0,0,1-.292,1.923,14.684,14.684,0,0,1-2.394,3.15,2.464,2.464,0,0,1-3.494-.137c-1.756-1.452-2.15-2.547-1.508-4.07a12.364,12.364,0,0,1,2.108-2.859,16.543,16.543,0,0,0,1.336-1.866c2.544-2.083,4.011-4.986,5.771-7.656,1.3-1.974,2.716-3.877,3.882-5.94C588.808,593.582,589.032,593.269,589.544,593.524Z" transform="translate(-2268.641 3548.895)" fill="#0c2d44"/>
        <path id="Trazado_1170658" data-name="Trazado 1170658" d="M579.349,273.794c-.543,1.454-.178,2.962-.242,4.443a1.831,1.831,0,0,1-1.271,1.917,21.8,21.8,0,0,1-9.254,2.181,19.63,19.63,0,0,1-10.162-2.871c-.567-.332-.466-.857-.5-1.364-.113-1.533.271-3.094-.257-4.6q-.016-.486-.031-.971a49.448,49.448,0,0,0,4.312,2.924,12.864,12.864,0,0,0,12.556.248,14.573,14.573,0,0,0,3.716-2.457,1.434,1.434,0,0,1,1.128-.4Q579.344,273.316,579.349,273.794Z" transform="translate(-2257.575 3751.015)" fill="#f8856f"/>
        <path id="Trazado_1170660" data-name="Trazado 1170660" d="M600.544,349.011a3.768,3.768,0,0,1-2.615-1.544A53.488,53.488,0,0,1,591.176,339a1.3,1.3,0,0,0-.162-.264c-.439-.4-.741-1.256-1.385-1.046-.6.2-.293,1.013-.293,1.546q0,25.747.032,51.494c0,.505-.145,1.045.241,1.493a19.244,19.244,0,0,1-1.2,4.427,1.287,1.287,0,0,1-.667-1.308c.491-4.657-.027-9.382.95-14,0-12.382.051-24.764-.017-37.146-.018-3.371.724-6.792-.506-10.122-.26-.7.393-1.2.944-1.421.715-.283.93.456,1.219.908,2.64,4.129,5.262,8.269,7.908,12.394a12.314,12.314,0,0,0,1.326,1.709c.352.379.814.7,1.252.042A1.725,1.725,0,0,1,600.544,349.011Z" transform="translate(-2276.537 3713.189)" fill="#eaddc7"/>
        <path id="Trazado_1170661" data-name="Trazado 1170661" d="M580.811,449.207a110.834,110.834,0,0,1-.466,14.1,4.566,4.566,0,0,0,.184,1.213c-.494.4-.219.989-.366,1.474-.581-.291-1,.2-1.491.319-1.068-3.147-1.755-6.4-2.592-9.606.345-.865.991-1.806-.548-2.2a1.773,1.773,0,0,1-.311-1.249c.415-.357.343-1.272,1.273-1.061.252.057.473-.227.516-.493.413-2.566,1.324-5.112.275-7.734a7.289,7.289,0,0,1-.165-2.914c.006-.377.176-.75.641-.7.448.045.563.443.55.81-.078,2.239.764,4.342.943,6.542a4.444,4.444,0,0,1-.5,2.7,2.651,2.651,0,0,0-.424,1.606c.042.513-.268,1.092.24,1.565.694-.435.019-1.1.36-1.544.774.013,1.24-.28,1.278-1.137A2.756,2.756,0,0,1,580.811,449.207Z" transform="translate(-2268.655 3645.316)" fill="#fbf4e8"/>
        <path id="Trazado_1170663" data-name="Trazado 1170663" d="M300.168,315.606c-.08-.729-.211-1.235-1.085-.563-1.542,1.187-3.11,2.342-4.717,3.439-.641.438-1.476,1.249-1.973-.236-.053-.157-.339-.375-.465-.345-.894.21-1.366,1.307-2.065,1.437-1.04.194-1.318.593-1.294,1.492-1.283-.787-.915-2.005-.494-2.944a8.263,8.263,0,0,1,3.074-3.676,28.187,28.187,0,0,1,1.289,2.8c.318.932.669.722,1.328.349,1.827-1.035,3.127-2.691,4.785-3.922a14.663,14.663,0,0,1,2.191-1.386A12.014,12.014,0,0,1,300.168,315.606Z" transform="translate(-2087.552 3726.118)" fill="#ecdbc8"/>
        <path id="Trazado_1170664" data-name="Trazado 1170664" d="M647.6,509.1c1.184-.906,1.664-2.316,2.489-3.478-.066-.32.115-.423.39-.445.77.495.189.937-.054,1.392-.021.257.054.588-.078.76-2.684,3.494-4.536,7.542-7.39,10.935a13.933,13.933,0,0,0-2.833,4.763l-1.853-.6c.459-.051.9-.06,1.207-.54,2.663-4.12,5.35-8.225,8.022-12.34A1.371,1.371,0,0,0,647.6,509.1Z" transform="translate(-2308.365 3604.483)" fill="#334e64"/>
        <path id="Trazado_1170665" data-name="Trazado 1170665" d="M595.9,593.27a50.331,50.331,0,0,0-4.174,6.238c-1.329,2.053-3.08,3.858-3.8,6.285-.039.132-.325.266-.5.269-.851.011-1.207.44-1.217,1.262-.006.409-.258.73-.679.664-.3-.046-.2-.426-.241-.67.28-1.856,2.176-2.472,3.014-3.995,1.639-2.976,3.711-5.714,5.572-8.57a12.138,12.138,0,0,0,.771-1.686A1.574,1.574,0,0,1,595.9,593.27Z" transform="translate(-2274.995 3549.149)" fill="#324f64"/>
        <path id="Trazado_1170666" data-name="Trazado 1170666" d="M629.5,586.007c-2.19-1.5-4.795-2.272-7.082-3.978a1.526,1.526,0,0,1,1.652.2c1.581.857,3.176,1.69,4.728,2.6a4.561,4.561,0,0,0,2.53.511C630.895,586.048,630.111,585.795,629.5,586.007Z" transform="translate(-2298.381 3556.184)" fill="#e17e63"/>
        <path id="Trazado_1170667" data-name="Trazado 1170667" d="M640.909,566.347c-1.532-2.014-4.056-2.383-6.048-3.637-.725-.456-1.524-.795-2.289-1.187l.218-.476q2.4,1.167,4.81,2.332c1.565.754,3.019,1.776,4.809,1.984C642.149,566.058,641,565.395,640.909,566.347Z" transform="translate(-2304.777 3569.292)" fill="#e5755c"/>
        <path id="Trazado_1170668" data-name="Trazado 1170668" d="M605.054,617.893c-.509-.414-.055-.773.132-1.049,1.805-2.667,3.643-5.311,5.472-7.962a.261.261,0,0,1,.036.426C609.011,612.3,606.987,615.067,605.054,617.893Z" transform="translate(-2287.298 3539.164)" fill="#476273"/>
        <path id="Trazado_1170669" data-name="Trazado 1170669" d="M584.545,507.818c.5-.416.127-1.062.4-1.574.721.127.416,1.13,1.093,1.256-.224.987-.448,1.973-.722,3.181A8.3,8.3,0,0,1,584.545,507.818Z" transform="translate(-2274.528 3603.809)" fill="#eaddc7"/>
        <path id="Trazado_1170670" data-name="Trazado 1170670" d="M576.039,477.84c.679-1.136.985.268,1.536.277.364.006.388.678.058,1.029a11.861,11.861,0,0,1-1.047.9A5.089,5.089,0,0,1,576.039,477.84Z" transform="translate(-2269.162 3621.979)" fill="#fdfefe"/>
        <path id="Trazado_1170671" data-name="Trazado 1170671" d="M717.356,409.265l-.919-.426c.616-1.065.6-2.433,1.591-3.317.3.022.721-.07.869.09.282.306-.147.523-.331.7A3.427,3.427,0,0,0,717.356,409.265Z" transform="translate(-2357.599 3667.253)" fill="#375766"/>
        <path id="Trazado_1170672" data-name="Trazado 1170672" d="M620.628,603.507q-.018-.213-.036-.426c.885-1.141,1.328-2.626,2.668-3.41A17.345,17.345,0,0,1,620.628,603.507Z" transform="translate(-2297.232 3544.965)" fill="#546c7c"/>
        <path id="Trazado_1170673" data-name="Trazado 1170673" d="M195.756,410.243c-.269.827-1.166,1.415-.926,2.435-.044,1.6-.172,1.751-1.766,1.776-2.363.037-4.728.025-7.092,0a6.431,6.431,0,0,0-2.564.419c-2.056.815-2.535,1.562-2.536,4.078q-.011,35.849,0,71.7,0,5.832,0,11.665a5.772,5.772,0,0,1-.227,2.148c-.444.859-.978.48-1.244-.05-1.452-2.9-3.374-5.533-4.676-8.505-.56-1.279-.063-2.651-.219-3.974a3.438,3.438,0,0,1,.481-1.99,4.153,4.153,0,0,0-.082-2.423c.615-.6.357-1.371.358-2.065q.027-33.331.045-66.661a9.821,9.821,0,0,1,1.333-5.773c1.63-2.436,3.974-3.126,6.63-3.363.154-.014.311,0,.466,0,3.692-.014,7.38.329,11.077.121C195.113,409.764,195.439,410.081,195.756,410.243Z" transform="translate(-2016.229 3664.645)" fill="#214866"/>
        <path id="Trazado_1170674" data-name="Trazado 1170674" d="M246.511,349.262c-1.236-.1-2.517.36-3.709-.3-1.306-7.729-2.65-15.451-3.9-23.189-.592-3.653-1.558-7.245-1.8-10.956.023-.79.471-.345.593-.139,1.379,2.338,4.083,3.1,5.855,4.97a.95.95,0,0,0,1.588-.034.9.9,0,0,1,.974-.346,20.292,20.292,0,0,1,3.547,1.531,5.834,5.834,0,0,1,.175,2.458q-.667,7.008-1.314,14.017c-.276,2.926-.55,5.853-.876,8.773C247.52,347.183,247.7,348.481,246.511,349.262Z" transform="translate(-2055.695 3724.662)" fill="#fcfdfd"/>
        <path id="Trazado_1170676" data-name="Trazado 1170676" d="M248.867,318.908c-.666,1-1.292.407-1.927-.044-.828-.588-1.662-1.536-2.3.234-.194.536-.661.289-1.027.016-1.943-1.447-3.882-2.9-5.85-4.313-.535-.384-.347-1.25-1.076-1.455a1.864,1.864,0,0,1-.223-1.316c2.6,1.134,4.273,3.5,6.6,5.018,1.04.678,1.613.882,1.961-.5a5.329,5.329,0,0,1,1.358-2.025C248.035,315.338,249.331,317.624,248.867,318.908Z" transform="translate(-2055.275 3726.134)" fill="#eedecd"/>
        <path id="Trazado_1170677" data-name="Trazado 1170677" d="M340.97,470.388c.022,4.97.06,9.939.062,14.909q.01,25.481,0,50.961v1.548a49.149,49.149,0,0,1,4.164-4.651,1.829,1.829,0,0,0,.3-1.468c.465-.2.8.073,1.115.334a17.4,17.4,0,0,1,4.969,7.895,1.279,1.279,0,0,1-.021.764c-.666,1.66-.415,3.459-.769,5.173-.193.934.961-.108,1.092.564.356,1.075.33,1.934-1.12,1.986-.7-.6-1.1-.549-1.447.427-.829,2.333-1.8,4.614-2.678,6.93a4.162,4.162,0,0,1-4.4,2.926c-6.406-.136-12.82-.058-19.166-1.2-.56-.1-1.072-.305-1.618-.415a1.713,1.713,0,0,1-1.358-1.824,2.162,2.162,0,0,1,1.456-2,9.968,9.968,0,0,1,2.876-.572c2.2-.264,4.395-.5,6.6-.648,2.635-.45,5.374-.09,7.945-1.014a4.416,4.416,0,0,0,2.057-1.982,5.51,5.51,0,0,1,1.484-1.718,28.952,28.952,0,0,0-2.933,2.471c-1.66,1-3.339,1.947-5.394,1.718a6.581,6.581,0,0,1-1.535-.741c-1.521-1.18-1.591-2.62-.193-3.937a15.93,15.93,0,0,1,3.5-2.289c3.013-1.621,4.018-4.433,4.141-7.508.2-5.019.056-10.049.057-15.075q0-24.4.023-48.807C340.178,472.194,339.782,471.036,340.97,470.388Z" transform="translate(-2107.96 3626.393)" fill="#fdb193"/>
        <path id="Trazado_1170678" data-name="Trazado 1170678" d="M161.562,632.622c-.458,2.79.746,5.027,2.235,7.249,1.137,1.7,2.012,3.569,3,5.364a21.042,21.042,0,0,1,6.717,4.48,1.5,1.5,0,0,1,.059,2.109,4.671,4.671,0,0,1-2.372,1.891c-2.116.11-3.7-1.162-5.413-2.093-1.117-.842-2.147-1.793-3.25-2.656,1.226,1.472,1.96,3.376,3.8,4.306,2.807.506,5.648.659,8.474.951a57.6,57.6,0,0,1,8.295,1.136c2.091.531,2.7,2.157,1.449,3.619a6.073,6.073,0,0,1-3.226.92,150.139,150.139,0,0,1-18.725.971,3.823,3.823,0,0,1-3.847-2.584c-.9-2.2-1.72-4.43-2.618-6.629-.74-1.812-.767-1.8-2.066-.408-.784-.412-.711-1.2-.792-1.893-.741-6.354,1.567-11.5,6.286-15.661A2.969,2.969,0,0,1,161.562,632.622Z" transform="translate(-2002.819 3524.211)" fill="#fdb192"/>
        <path id="Trazado_1170679" data-name="Trazado 1170679" d="M205.021,690.537c.62-1.941.171-2.8-1.859-3.16a145.538,145.538,0,0,0-15.383-1.739,4.781,4.781,0,0,1-1.647-.351c-.214-.88-1.126-1.822.227-2.562,1.7.9,3.281,2.113,5.319,2.215,2.369-.641,4.73.055,7.1.052q22.208-.029,44.417-.008c.776,0,1.553-.03,2.328.029a2.953,2.953,0,0,1,1.136.3c.876.542.2.69-.258.875-2.748.332-5.5.654-8.245,1-.931.118-1.879.319-2.265,1.322-.379.983.325,1.632.875,2.3-5.009.03-10.016.071-15.024.09-5.216.02-10.432.005-15.647.052A1.3,1.3,0,0,1,205.021,690.537Z" transform="translate(-2023.276 3492.655)" fill="#204866"/>
        <path id="Trazado_1170680" data-name="Trazado 1170680" d="M277.479,776.328c.282,6.112.663,12.216,1.314,18.3a7.093,7.093,0,0,1-.078,3.087l-.6-.042a1.418,1.418,0,0,1-.478-1.264c.307-3.639-1.541-6.961-1.474-10.562a7.374,7.374,0,0,0,.225,2.4,4.058,4.058,0,0,1-.105,2.294c-.272.992-.891,1.076-1.778.913-.361-.066-.516.46-.58.815a7.609,7.609,0,0,0-.3,2.593,4.162,4.162,0,0,1,.052-1.2,1.278,1.278,0,0,1,1.588-1.109,1.036,1.036,0,0,1,.687,1.5c-.453,1.249-.207,2.067,1.068,2.583a.83.83,0,0,1,.464,1.045l-4.963.046c-.108-4.83.552-9.62.761-14.435.083-1.916.3-3.827.359-5.743.028-.984.324-1.4,1.35-1.281C275.816,776.355,276.651,776.311,277.479,776.328Z" transform="translate(-2077.998 3433.753)" fill="#f8e2c8"/>
        <path id="Trazado_1170681" data-name="Trazado 1170681" d="M159.06,628.808a44.945,44.945,0,0,0-4.5,4.427c-3.24,4.3-3.987,9.047-2.98,14.2-.68,1-1.091.078-1.589-.222-1.569-4.462-.707-8.685,1.3-12.779a15.706,15.706,0,0,1,6.3-6.794,5.506,5.506,0,0,0,1.483-1.074Q159.064,627.687,159.06,628.808Z" transform="translate(-2000.316 3528.025)" fill="#fcfbf6"/>
        <path id="Trazado_1170682" data-name="Trazado 1170682" d="M394.542,640.647a17.446,17.446,0,0,0-5.83-8.971q0-1.267-.007-2.536a18.906,18.906,0,0,1,8.518,14.983c.107,1.512-.521,3.076-.811,4.616-.987,1.286-1.042,1.278-2.435-.346,1.017-.422.985-1.266.863-2.147a2.254,2.254,0,0,1-.508-2.125A29.852,29.852,0,0,1,394.542,640.647Z" transform="translate(-2151.179 3526.404)" fill="#fcfaf5"/>
        <path id="Trazado_1170683" data-name="Trazado 1170683" d="M297.505,161.671c-1.341,0-2.683.006-4.024,0-.449,0-.99.11-1.108-.539a1.124,1.124,0,0,1,.589-1.307,3.439,3.439,0,0,1,1.156-.379,28.639,28.639,0,0,1,6.64-.01,4.2,4.2,0,0,1,1.314.4c.457.229.928.542.735,1.191-.165.553-.637.611-1.121.612H297.5C297.5,161.649,297.505,161.66,297.505,161.671Z" transform="translate(-2090.488 3822.365)" fill="#0b1f39"/>
        <path id="Trazado_1170684" data-name="Trazado 1170684" d="M245.84,161.727h-4.034c-.543,0-1.09-.055-1.209-.7-.11-.6.333-.933.79-1.21a3.606,3.606,0,0,1,1.945-.421c1.86.017,3.72.1,5.58.155a2.872,2.872,0,0,1,1.469.44,1.08,1.08,0,0,1,.582,1.168c-.121.609-.612.612-1.089.612H245.84Z" transform="translate(-2057.884 3822.271)" fill="#0a1e3d"/>
        <path id="Trazado_1170685" data-name="Trazado 1170685" d="M277.307,183.722c0-1.19-.005-2.38,0-3.57,0-.319.07-.676.46-.686s.451.354.464.67c.105,2.681.247,5.362.288,8.045a2.027,2.027,0,0,1-1.627,2.3,2.6,2.6,0,0,1-2.819-1.152c-.212-.272-.514-.639-.3-.979.261-.42.743-.265,1.128-.149,2.185.657,2.357.533,2.38-1.836.009-.879,0-1.759,0-2.639Z" transform="translate(-2078.746 3809.628)" fill="#ed7661"/>
        <path id="Trazado_1170686" data-name="Trazado 1170686" d="M251.568,172.752l-2.01-.644c-.044.624-.089,1.167-.119,1.712-.051.956-.555,1.361-1.5,1.348-.854-.011-1.574-.19-1.717-1.162-.177-1.2-.225-2.48-1.99-1.385a.573.573,0,0,1-.534-.143c-.13-.165.013-.363.18-.511,1.169-1.038,6.377-1.039,7.571.024A.529.529,0,0,1,251.568,172.752Z" transform="translate(-2059.813 3814.84)" fill="#141c25"/>
        <path id="Trazado_1170687" data-name="Trazado 1170687" d="M294.623,172.645c2.392-1.938,5.026-1.781,7.718-1.018a.542.542,0,0,1,.442.688c-.09.265-.421.247-.676.175a7.175,7.175,0,0,1-.725-.262c-.864-.349-1.318-.244-1.265.871a1.694,1.694,0,0,1-1.892,1.931c-1.019.017-1.584-.491-1.531-1.5.068-1.279-.326-1.7-1.527-1.015A2,2,0,0,1,294.623,172.645Z" transform="translate(-2091.923 3814.899)" fill="#101b24"/>
        <path id="Trazado_1170688" data-name="Trazado 1170688" d="M276.62,219.027c-.291.942-.932,1.039-1.632,1.038-2.383,0-4.765,0-7.148-.007a2.482,2.482,0,0,1-.767-.085c-.4-.132-.867-.358-.745-.834.134-.525.578-.152.905-.13A81.633,81.633,0,0,0,276.62,219.027Z" transform="translate(-2074.09 3784.815)" fill="#ee7f6b"/>
        <path id="Trazado_1170689" data-name="Trazado 1170689" d="M218.7,178.57a1.807,1.807,0,0,1,1.1,1.5,3.89,3.89,0,0,0,1.411,2.8.667.667,0,0,1,.213.954.838.838,0,0,1-1,.17c-.912-.308-2.663-4.3-2.285-5.193C218.228,178.59,218.4,178.506,218.7,178.57Z" transform="translate(-2043.715 3810.206)" fill="#f08872"/>
        <path id="Trazado_1170690" data-name="Trazado 1170690" d="M333.833,180.919a2.091,2.091,0,0,1,.594-1.728c.328-.365.692-.98,1.242-.631.508.322-.2.673-.232,1.04-.052.663-.09,1.329-.105,1.994-.018.817-.632,1.269-1.112,1.771-.328.343-.839.84-1.32.418-.5-.443.18-.808.378-1.151C333.6,182.073,334.277,181.668,333.833,180.919Z" transform="translate(-2115.916 3810.264)" fill="#ee8464"/>
        <path id="Trazado_1170694" data-name="Trazado 1170694" d="M747.274,559.5c.224,1.726,1.638,2.783,2.38,4.218.14.27.473.456.564.731.28.849,1.611,1.655.905,2.414-.75.806-2.136.476-3.219.131a3.919,3.919,0,0,1-1.9-1.76c-1.1-1.6-2.212-3.2-3.5-5.05-.254,1.237.423,1.742.76,2.373a8.188,8.188,0,0,1,1.106,2.318c.282,1.4-.1,1.84-1.426,1.682a6.465,6.465,0,0,0-3.825-1.274c-1.747-.008-4.873-3.633-4.833-5.344.027-1.174.959-1.108,1.7-.972a1.925,1.925,0,0,0,2.149-.6c.827-.954,1.857-.547,2.768.122.346.254.572.864,1.186.1,1.119-1.387,1.974-1.386,3.427-.323A6.075,6.075,0,0,0,747.274,559.5Z" transform="translate(-2368.843 3571.523)" fill="#faad91"/>
        <path id="Trazado_1170695" data-name="Trazado 1170695" d="M716.935,460.7c.549-.762.732-1.869,1.915-2.033-.364,5.9-.083,11.8-.118,17.7-.013,2.122-.04,4.243-.07,6.365-.008.613.1,1.3-.9,1.248-.962-.05-.673-.757-.675-1.256q-.038-10.171-.046-20.343a9.054,9.054,0,0,0-.094-.923A1.041,1.041,0,0,1,716.935,460.7Z" transform="translate(-2357.873 3633.774)" fill="#c0a99b"/>
        <path id="Trazado_1170696" data-name="Trazado 1170696" d="M790.434,561.058c.015.651.487,1.094.919,1.884a3.664,3.664,0,0,0-2.992-.056,3.106,3.106,0,0,1-3.769-1.172c1.517-.032,3.035-.069,4.552-.094C789.659,561.613,790.159,561.6,790.434,561.058Z" transform="translate(-2400.526 3569.285)" fill="#e47563"/>
        <path id="Trazado_1170697" data-name="Trazado 1170697" d="M706.121,464.16l.016.754-6.131,9.6c-.347-.1-.372-.341-.2-.584C702.075,470.781,703.7,467.213,706.121,464.16Z" transform="translate(-2347.059 3630.316)" fill="#5c717f"/>
        <path id="Trazado_1170698" data-name="Trazado 1170698" d="M675.041,431.735c-1.441-3.86-4.025-6.2-8.327-6.2-.678,0-.735-.36-.734-.88.012-4.2.011-8.392.02-12.588,0-.414-.008-.781.6-.881a4.642,4.642,0,0,0,3.082-2.4c2.037-3.118,3.377-3.351,6.441-1.125,2.193,1.593,4.377,3.153,7.31,2.939a3.48,3.48,0,0,0,2.147-.708c.426,1.233,1.477,2.358.656,3.806.393.861-.161,1.489-.556,2.133-3.1,5.059-6.6,9.864-9.5,15.052C675.936,431.319,675.713,431.849,675.041,431.735Z" transform="translate(-2325.819 3666.826)" fill="#002339"/>
        <path id="Trazado_1170699" data-name="Trazado 1170699" d="M677.906,442.972c1.786-2.171,2.82-4.806,4.4-7.112,2.048-2.983,3.939-6.074,5.876-9.131.357-.563.612-1.191.914-1.789l1.047-.907a2.984,2.984,0,0,1-.571,2.514c-2.075,2.422-2.78,5.68-4.878,8.019-3.007,3.354-4.787,7.458-7.274,11.112-1.328,1.953-2.25,4.154-4,5.931a45.624,45.624,0,0,0-2.687,3.851c-.1-.425.513-.874-.044-1.284a.882.882,0,0,1,.1-1.133c1.943-2.837,3.592-5.864,5.588-8.667a1.2,1.2,0,0,1,.585-.477C677.954,444.268,677.705,443.393,677.906,442.972Z" transform="translate(-2328.684 3655.589)" fill="#2e4b61"/>
        <path id="Trazado_1170700" data-name="Trazado 1170700" d="M265.293,309.7a1.121,1.121,0,0,0-.3-1.259,19.8,19.8,0,0,1-2.182-3.123c.562-3.1,2.473-5.4,4.7-7.414.972-.882,2.86-.506,3.784.531a20.4,20.4,0,0,1,4.012,6.553,5.5,5.5,0,0,1-1.559,2.281,3.68,3.68,0,0,0-1.02,4.339c.586,6.548,1.155,13.1,1.766,19.644.221,2.361.186,4.765,1.041,7.033-1.1-.2-1.213-1.3-1.766-1.987-2.347-2.9-5.946-3.267-8.273-.726a23.129,23.129,0,0,0-1.522,2.124c-.356.492-.66,1.089-1.447.887.764-2.609.724-5.323,1.008-7.991.657-6.181,1.2-12.375,1.763-18.566C265.359,311.257,265.3,310.476,265.293,309.7Z" transform="translate(-2071.702 3735.342)" fill="#002439"/>
        <path id="Trazado_1170701" data-name="Trazado 1170701" d="M278.536,811.445c-.312-.411-.589-.946-1.136-.992-1.685-.143-1.477-1.08-.984-2.171a1.5,1.5,0,0,0,.1-1.479c-.2-.332-.539-.2-.832-.07-.678.306-.568.918-.557,1.478a3.079,3.079,0,0,0,.128.762.763.763,0,0,1-.589,1.072c-.65.083-.471-.541-.472-.895a9.2,9.2,0,0,1,.493-3.923c.62-1.36.665-1.348,1.767-.145,1.488-2.3-.525-4.74.393-6.976,1.088,1.045,2.312,8.057,2.313,13.339Z" transform="translate(-2079.044 3419.982)" fill="#fbe1c6"/>
        <path id="Trazado_1170702" data-name="Trazado 1170702" d="M289.264,829q.039-1.544.078-3.087A3.544,3.544,0,0,1,289.264,829Z" transform="translate(-2088.547 3402.466)" fill="#002339"/>
        <path id="Trazado_1170703" data-name="Trazado 1170703" d="M402.174,834.164l27.217.027c.043.593-.42.308-.624.308q-12.94.029-25.879.018a5.076,5.076,0,0,1-.741-.085c-.022,0-.048-.087-.043-.131A.434.434,0,0,1,402.174,834.164Z" transform="translate(-2159.619 3397.271)" fill="#070100"/>
        <path id="Trazado_1170704" data-name="Trazado 1170704" d="M403.044,797.327a16.164,16.164,0,0,1-.238,4.216C402.889,800.138,402.511,798.707,403.044,797.327Z" transform="translate(-2160.027 3420.473)" fill="#002339"/>
        <path id="Trazado_1170705" data-name="Trazado 1170705" d="M402.169,822.588a11.753,11.753,0,0,1-.184,3.263A9.8,9.8,0,0,1,402.169,822.588Z" transform="translate(-2159.514 3404.562)" fill="#002339"/>
        <path id="Trazado_1170706" data-name="Trazado 1170706" d="M585.451,223.966c0,1.291-.008,2.582,0,3.873a1.824,1.824,0,0,1-1.938,1.962c-1.156.076-2.3-.125-2.767-1.46-.093-.267-.328-.587,0-.846.228-.182.489-.056.727.045a6.321,6.321,0,0,0,.857.355c1.443.37,1.835.04,1.885-1.45.074-2.21-.256-4.437.267-6.631.082-.343.036-.817.545-.754.478.06.406.532.409.878.012,1.342,0,2.685,0,4.027Z" transform="translate(-2272.03 3784.693)" fill="#f0826b"/>
        <path id="Trazado_1170707" data-name="Trazado 1170707" d="M601.131,214.668c1.795-2.317,5.827-2.108,7.515-1.2.261.141.414.351.321.618-.154.445-.457.247-.74.117a3.191,3.191,0,0,0-1.624-.6,7.639,7.639,0,0,1,.036,1.783,1.608,1.608,0,0,1-1.778,1.363,1.588,1.588,0,0,1-1.672-1.291c-.161-.553.255-1.407-.451-1.606C602.37,213.755,601.819,214.3,601.131,214.668Z" transform="translate(-2284.974 3788.614)" fill="#111e24"/>
        <path id="Trazado_1170708" data-name="Trazado 1170708" d="M555.083,201.529a8.674,8.674,0,0,1,3.926.728c.41.217.844.5.7,1.069-.168.675-.718.694-1.245.552a19.351,19.351,0,0,0-6.62-.46c-.392.031-.937.111-1.053-.4-.121-.532.314-.813.775-1.006A9.857,9.857,0,0,1,555.083,201.529Z" transform="translate(-2253.257 3795.732)" fill="#0b1e34"/>
        <path id="Trazado_1170709" data-name="Trazado 1170709" d="M559.033,214.334c-.781.389-1.17-.552-1.963-.517-.026.451-.041.932-.084,1.411a1.4,1.4,0,0,1-1.513,1.425c-.855.026-1.524-.137-1.678-1.166-.178-1.186-.512-2.236-2.06-1.291a.359.359,0,0,1-.534-.116c-.121-.215.038-.388.205-.514C553.158,212.249,557.488,212.678,559.033,214.334Z" transform="translate(-2253.5 3788.639)" fill="#101e2c"/>
        <path id="Trazado_1170710" data-name="Trazado 1170710" d="M527.782,220.8c.08-.346.017-.855.472-1.016.555-.2.833.274,1.1.652a2.877,2.877,0,0,1,.437,1.306c.1.707.184,1.418.976,1.8a.729.729,0,0,1,.354,1.051c-.292.48-.738.206-1.114.085C529.047,224.367,527.768,222.144,527.782,220.8Z" transform="translate(-2238.776 3784.265)" fill="#f4896d"/>
        <path id="Trazado_1170711" data-name="Trazado 1170711" d="M584.718,255.773c-.492,1.23-1.106,1.471-1.7,1.485-2.111.049-4.226.045-6.337-.031-.415-.015-1.259-.02-1.147-.712.116-.72.77-.167,1.144-.132C579.269,256.631,581.861,257.129,584.718,255.773Z" transform="translate(-2268.844 3761.567)" fill="#ed7d66"/>
        <path id="Trazado_1170712" data-name="Trazado 1170712" d="M640.592,221.671a7.157,7.157,0,0,1-1.928,3.378c-.212.177-.531.37-.832.082a.376.376,0,0,1-.052-.551c1.019-.975,1.229-2.333,1.729-3.555a.684.684,0,0,1,.848-.492C640.774,220.665,640.549,221.046,640.592,221.671Z" transform="translate(-2307.996 3783.783)" fill="#ec7d66"/>
        <path id="Trazado_1170713" data-name="Trazado 1170713" d="M572.717,362.852a6.763,6.763,0,0,0-.745,4.6c.449,3.284.015,6.6-.246,9.894-.063.79-1.012,1.257-1.128,2.135a7.129,7.129,0,0,0,.2,2.76c.1.4.075.887-.479.978a.8.8,0,0,1-.992-.738,2.565,2.565,0,0,1-.038-.618,9.469,9.469,0,0,0-1.2-5.125,15.768,15.768,0,0,1-1.285-7.666,1.1,1.1,0,0,1,.423-.96,1.987,1.987,0,0,0,.824-2.018c-.023-1.3,1.567-3.1,2.842-3.111C571.43,362.979,571.985,362.881,572.717,362.852Z" transform="translate(-2263.345 3694.124)" fill="#fdfefe"/>
        <path id="Trazado_1170714" data-name="Trazado 1170714" d="M562.85,330.655a4.237,4.237,0,0,1,1.63,1.2,1.621,1.621,0,0,0-1.528.843q-2.978,4.567-5.983,9.117c-.144.545.134,1.389-.916,1.291l-.906,1.225a25.427,25.427,0,0,1-3.2,3.641,1.375,1.375,0,0,1,.226-1.782c3.476-4.53,6.25-9.53,9.446-14.249A4.968,4.968,0,0,1,562.85,330.655Z" transform="translate(-2253.845 3714.403)" fill="#eaddc7"/>
        <path id="Trazado_1170715" data-name="Trazado 1170715" d="M581.258,430.139a18.309,18.309,0,0,0-.826-1.893c-.263-.439-.622-.915-1.235-.45-.507.384-.859.172-1.175-.242a1.221,1.221,0,0,1-.006-1.448c.318-.564.645-.222,1.024-.051,1.021.459.945-.5,1.119-.984.248-.691.068-2.006.862-1.889.944.139.437,1.4.451,2.152A19.25,19.25,0,0,1,581.258,430.139Z" transform="translate(-2270.267 3656.131)" fill="#fdfefe"/>
        <path id="Trazado_1170716" data-name="Trazado 1170716" d="M582.781,342.245c-.032.608-.253,1.43-1.187,1.454a1.2,1.2,0,0,1-1.272-1.246,1.592,1.592,0,0,1,1.49-1.651C582.636,340.707,582.795,341.352,582.781,342.245Z" transform="translate(-2271.868 3708.018)" fill="#fdfefe"/>
        <path id="Trazado_1170717" data-name="Trazado 1170717" d="M584.117,354.512c-.168.81-.561,1.154-1.313,1.1-.683-.048-.877-.434-.8-1.025.08-.622.432-1.092,1.073-1.085A1.086,1.086,0,0,1,584.117,354.512Z" transform="translate(-2272.917 3700.012)" fill="#ebdbc7"/>
        <path id="Trazado_1170718" data-name="Trazado 1170718" d="M583.029,471.865a2.191,2.191,0,0,0,.168.257c.544.626.683,1.257.011,1.882a.63.63,0,0,1-1.048-.13c-.458-.721-.8-1.485.269-2.029Z" transform="translate(-2272.749 3625.476)" fill="#e9cdb7"/>
        <path id="Trazado_1170719" data-name="Trazado 1170719" d="M563.446,362.089c.6-.222.508-.934.916-1.291.232.328.647.537.631,1.025-.019.563.111,1.261-.646,1.386C563.537,363.343,563.467,362.692,563.446,362.089Z" transform="translate(-2261.239 3695.417)" fill="#fdfefe"/>
        <path id="Trazado_1170720" data-name="Trazado 1170720" d="M578.714,418.724c.773.888.447,1.879.432,3.177C578.307,420.714,578.683,419.693,578.714,418.724Z" transform="translate(-2270.786 3658.933)" fill="#fdfefe"/>
        <path id="Trazado_1170721" data-name="Trazado 1170721" d="M578.333,350.526c-.118.409-.445.366-.743.355-.535-.021-.67-.373-.65-.831.014-.329.108-.674.519-.5A1.468,1.468,0,0,1,578.333,350.526Z" transform="translate(-2269.737 3702.531)" fill="#fdfefe"/>
        <path id="Trazado_1170722" data-name="Trazado 1170722" d="M572.069,437.738a3,3,0,0,1,.272,2.534A3,3,0,0,1,572.069,437.738Z" transform="translate(-2266.576 3646.957)" fill="#fdfefe"/>
        <path id="Trazado_1170723" data-name="Trazado 1170723" d="M585.751,368.192c-.294-.087-.352-.333-.361-.582-.011-.314.061-.623.458-.617.309,0,.42.249.37.519S586.1,368.1,585.751,368.192Z" transform="translate(-2275.06 3691.516)" fill="#fdfefe"/>
        <path id="Trazado_1170724" data-name="Trazado 1170724" d="M248.251,521.095c-7.966.017-15.933.081-23.9.039-9.26-.049-18.523.224-27.779-.279a6.56,6.56,0,0,1-2.278-.387c3.137-2.245,3.144-2.467.2-4.881-1.462-1.2-3.357-1.783-4.62-3.265q-.027-25.42-.054-50.838-.018-17.025-.033-34.049c0-.724.032-1.451.092-2.173a3.642,3.642,0,0,1,3.135-3.5c3.47-.186,6.943-.017,10.413-.094a1.164,1.164,0,0,1,1.3,1.041,11.716,11.716,0,0,0,.386,1.662,1.955,1.955,0,0,0,1.655,1.452,33.065,33.065,0,0,0,4.335.288,73.538,73.538,0,0,1,12.107.057c3.679.34,7.343-.385,11.027-.28,1.956.056,3.895.523,5.882.076,1.8-.4,2.249-.7,2.659-2.522.135-.6.116-1.255.69-1.671l.543.017c1.669-.286,3.362.057,5.033-.191,1.763.007,3.528-.031,5.289.03,2.937.1,4.248,1.343,4.459,4.245a29.1,29.1,0,0,1,.031,4.041,3.117,3.117,0,0,0,1.58,3.078c2.214,1.5,2.145,1.547.513,3.742a10.325,10.325,0,0,0-2.014,2.922c-.373.513-.214,1.1-.215,1.657-.017,20.873-.061,41.745.015,62.618a19.181,19.181,0,0,1-1.641,7.955c-.713,1.622-2.423,2.015-3.7,2.916-.656.463-1.415.837-2.069,1.335s-1.633.9-1.475,1.82a2.8,2.8,0,0,0,2.008,2.173,5.547,5.547,0,0,1,.692.332,2.568,2.568,0,0,1-2.63.643A3.741,3.741,0,0,0,248.251,521.095Z" transform="translate(-2025.894 3657.126)" fill="#fefefe"/>
        <path id="Trazado_1170725" data-name="Trazado 1170725" d="M248.96,418.922c-.01.362-.014.725-.03,1.088-.121,2.721-.812,3.355-3.484,3.755a44.059,44.059,0,0,1-4.952-.032c-7.143.283-14.286-.093-21.427.008-1.962.028-3.92.04-5.881-.013-2.374-.064-3.388-.884-3.41-3.224-.012-1.286-.485-1.536-1.639-1.522-3.21.038-6.422-.037-9.632-.068,2.447-.489,4.916-.1,7.372-.189a14.549,14.549,0,0,1,2.318.029c1.126.142,1.753-.223,1.789-1.406.185.356.486.254.8.245,11.99-.352,23.982-.067,35.973-.17.647-.006,1.36.222,1.911-.354C249.117,417.632,248.853,418.306,248.96,418.922Z" transform="translate(-2031.383 3659.976)" fill="#d3bba4"/>
        <path id="Trazado_1170726" data-name="Trazado 1170726" d="M341.313,421.472c-1.662.485-3.354.169-5.033.191A18.541,18.541,0,0,1,341.313,421.472Z" transform="translate(-2118.16 3657.251)" fill="#d3bba4"/>
        <path id="Trazado_1170727" data-name="Trazado 1170727" d="M637.16,470.073c0,2.33-.009,4.659,0,6.989,0,.626-.022,1.1-.883,1.083-3.622-.059-7.246,0-10.866-.113-2.247-.068-3.15-1.584-2.134-3.621a83.45,83.45,0,0,1,5.667-9.8c1.812-2.655,4.757-2.6,7.532-2.8.918-.065.65.8.66,1.269C637.186,465.414,637.161,467.744,637.16,470.073Z" transform="translate(-2298.665 3631.794)" fill="#012337"/>
        <path id="Trazado_1170728" data-name="Trazado 1170728" d="M673.937,467.823c-1.717,3.238-3.762,6.275-5.752,9.345-.193.3-.348.621-.52.932l-.292.337c-1.243.1-1.668-.4-1.645-1.7.078-4.4.05-8.8-.014-13.2-.018-1.257.226-1.6,1.632-1.5C671.111,462.3,672.916,464.557,673.937,467.823Z" transform="translate(-2325.65 3631.665)" fill="#011f30"/>
        <path id="Trazado_1170729" data-name="Trazado 1170729" d="M347.726,686.244l4.266-.636a14.312,14.312,0,0,0,4.89-1.808c.837.485.837.485.177,1.792-.345.631-.934.679-1.57.723-2.334.162-4.666.364-7,.551C349.111,685.582,347.742,686.744,347.726,686.244Z" transform="translate(-2125.369 3491.978)" fill="#565759"/>
        <path id="Trazado_1170730" data-name="Trazado 1170730" d="M402.454,660.228c.646,1.837.332,3.726.3,5.6-.482.217-.357,1.328-1.083.971-.567-.28-.406-1.036-.287-1.683a16.675,16.675,0,0,0,.483-3.8C401.842,660.849,401.828,660.355,402.454,660.228Z" transform="translate(-2159.091 3506.823)" fill="#f1876f"/>
        <path id="Trazado_1170731" data-name="Trazado 1170731" d="M372.64,680.084c-.112-.592.556-1.261-.176-1.792,1.083-1.477,2.747-2.2,4.213-3.237C375.15,676.609,374.54,678.861,372.64,680.084Z" transform="translate(-2140.95 3497.485)" fill="#e87861"/>
        <path id="Trazado_1170732" data-name="Trazado 1170732" d="M179.937,677.342c-.549.812-.268,1.7-.228,2.562-1.735-1.661-2.826-3.8-4.273-5.725C177.279,674.783,178.5,676.213,179.937,677.342Z" transform="translate(-2016.854 3498.037)" fill="#ec7d65"/>
        <path id="Trazado_1170733" data-name="Trazado 1170733" d="M283.164,822.36c-.044.253-.11.529-.393.571-.326.048-.4-.248-.452-.49a.366.366,0,0,1,.3-.448A.432.432,0,0,1,283.164,822.36Z" transform="translate(-2084.167 3404.947)" fill="#f8e2c8"/>
        <path id="Trazado_1170734" data-name="Trazado 1170734" d="M241.874,473.952H219.182c-.415,0-.829,0-1.243-.016-.326-.014-.636-.1-.646-.5a.62.62,0,0,1,.552-.649,7.4,7.4,0,0,1,1.236-.076q22.925-.007,45.849-.006a8.044,8.044,0,0,1,.931.034c.391.046.716.23.719.668,0,.507-.405.534-.773.539-.932.013-1.865.009-2.8.009Z" transform="translate(-2043.217 3624.936)" fill="#e0dcd3"/>
        <path id="Trazado_1170735" data-name="Trazado 1170735" d="M242.238,491.893h22.687c.362,0,.725,0,1.088.009.322.009.666.064.706.448a.651.651,0,0,1-.641.733,9.745,9.745,0,0,1-1.24.048q-22.765.005-45.529-.008c-.657,0-1.781.349-1.8-.626-.015-1.036,1.116-.579,1.727-.581C226.906,491.881,234.572,491.892,242.238,491.893Z" transform="translate(-2043.356 3612.897)" fill="#e1ddd2"/>
        <path id="Trazado_1170736" data-name="Trazado 1170736" d="M241.8,566.414H219.575c-.414,0-.829,0-1.243-.01-.489-.017-1.011-.1-.992-.72.018-.594.569-.466.959-.507a4.562,4.562,0,0,1,.466,0q23.077,0,46.155.006a8.573,8.573,0,0,1,.931.03c.383.042.739.183.7.651-.031.365-.344.5-.667.525-.412.033-.828.033-1.242.033q-11.422,0-22.844,0S241.8,566.415,241.8,566.414Z" transform="translate(-2043.246 3566.696)" fill="#e3ded1"/>
        <path id="Trazado_1170737" data-name="Trazado 1170737" d="M242.085,520.5h22.69c.362,0,.726-.008,1.087.013s.778.1.8.559c.028.568-.439.625-.862.653-.361.024-.725.012-1.088.012q-22.69,0-45.38-.014c-.656,0-1.779.363-1.806-.609-.029-1.057,1.106-.588,1.713-.591C226.854,520.493,234.47,520.506,242.085,520.5Z" transform="translate(-2043.364 3594.876)" fill="#dfdcd2"/>
        <path id="Trazado_1170738" data-name="Trazado 1170738" d="M242.089,604.293l-22.532,0a13.915,13.915,0,0,1-1.4-.042c-.312-.032-.638-.163-.577-.568.049-.328.366-.3.615-.328.975-.1,1.95-.261,2.925-.266,5.283-.026,10.567-.013,15.85-.013l27.3,0c.311,0,.623-.021.932.006.58.051,1.49-.21,1.5.641.013.966-.945.557-1.462.559C257.525,604.3,249.807,604.3,242.089,604.293Z" transform="translate(-2043.395 3542.83)" fill="#e1dcd0"/>
        <path id="Trazado_1170739" data-name="Trazado 1170739" d="M242.088,593.767h22.7c.415,0,.83,0,1.244.013.324.009.665.074.7.455a.65.65,0,0,1-.651.724,12.276,12.276,0,0,1-1.4.049c-11.248,0-22.5.194-33.742-.1-4.04-.105-8.049.313-12.072.1-.525-.028-1.352.188-1.331-.629.021-.789.844-.592,1.371-.593q11.585-.02,23.17-.009S242.088,593.77,242.088,593.767Z" transform="translate(-2043.377 3548.685)" fill="#e2ddd6"/>
        <path id="Trazado_1170740" data-name="Trazado 1170740" d="M278.748,639.237c.518-.409,1.09-.128,1.636-.119,2.173.037,4.349.036,6.518.158,1.218.068,1.729-.205,1.97-1.568a6.188,6.188,0,0,1,6.182-4.871,6.121,6.121,0,0,1,5.818,4.884,6.146,6.146,0,0,1-11.205,4.571,2.876,2.876,0,0,0-3.005-1.581c-2.631,0-5.257.411-7.889.087A1.266,1.266,0,0,1,278.748,639.237Z" transform="translate(-2081.762 3524.076)" fill="#09273a"/>
        <path id="Trazado_1170741" data-name="Trazado 1170741" d="M241.917,613.115l22.842,0c.414,0,.829,0,1.242.02.2.012.432.028.486.289a.456.456,0,0,1-.4.559,5.391,5.391,0,0,1-1.833.236c-3.7-.638-7.4.205-11.127-.007-3.571-.2-7.223.127-10.841.135-7.647.018-15.293.009-22.94.01-.363,0-.726.007-1.088-.009-.5-.021-1-.151-.952-.76.05-.572.6-.467.991-.469,3.108-.011,6.216-.009,9.324-.01Z" transform="translate(-2043.224 3536.498)" fill="#e6ddd3"/>
        <path id="Trazado_1170742" data-name="Trazado 1170742" d="M241.787,575.6h-22.7c-.415,0-.83,0-1.244-.019-.275-.013-.528-.135-.558-.432a.6.6,0,0,1,.493-.689,8.32,8.32,0,0,1,1.388-.1c5.132,0,10.277-.218,15.392.08,3.613.21,7.212.057,10.815.154,3.46.093,6.921-.358,10.392-.234,3.256.116,6.514.183,9.77.29.36.012.979-.181.914.475-.051.517-.612.467-1.019.469-2.385.008-4.769,0-7.154,0Z" transform="translate(-2043.206 3560.958)" fill="#dedbd0"/>
        <path id="Trazado_1170743" data-name="Trazado 1170743" d="M241.933,502.507H219.695c-.311,0-.623.014-.933-.008-.492-.036-1.252.125-1.247-.562.006-.859.777-.368,1.206-.383,11.737-.418,23.48-.329,35.219-.23,3.772.032,7.548.228,11.325.247.424,0,1.122-.187,1.119.465s-.7.463-1.125.464Q253.6,502.517,241.933,502.507Z" transform="translate(-2043.357 3606.96)" fill="#dfdcd2"/>
        <path id="Trazado_1170744" data-name="Trazado 1170744" d="M241.842,556.37h-22.69c-.363,0-.725,0-1.088-.01-.318-.009-.681-.045-.705-.437s.32-.476.647-.5a30.455,30.455,0,0,1,3.08-.3c11.748.375,23.5.3,35.251.269,2.883-.009,5.767-.483,8.648.023.518.091,1.432-.317,1.472.355.053.895-.916.582-1.457.584Q253.42,556.388,241.842,556.37Z" transform="translate(-2043.258 3573.024)" fill="#dfdad0"/>
        <path id="Trazado_1170745" data-name="Trazado 1170745" d="M242.355,531.075H220.435c-.415,0-.83.018-1.243-.007-.595-.037-1.521.1-1.515-.648.007-.848.962-.576,1.514-.553,13.67.566,27.345.131,41.016.262,1.913.018,3.826,0,5.738.011.291,0,.7-.07.763.334.071.493-.36.562-.721.591-.412.033-.828.02-1.243.02H242.355A.093.093,0,0,0,242.355,531.075Z" transform="translate(-2043.458 3588.969)" fill="#dedbd3"/>
        <path id="Trazado_1170746" data-name="Trazado 1170746" d="M242.12,483.6H219.264c-.363,0-.726.009-1.088-.013-.246-.015-.568.011-.6-.335-.041-.393.264-.534.583-.573a8.989,8.989,0,0,1,1.086-.04q22.934,0,45.868.022c.551,0,1.548-.361,1.557.452s-.989.466-1.534.468C257.461,483.608,249.79,483.6,242.12,483.6Z" transform="translate(-2043.39 3618.711)" fill="#dedac9"/>
        <path id="Trazado_1170747" data-name="Trazado 1170747" d="M242.569,511.949q-11.272,0-22.543,0c-.363,0-.727.015-1.088-.006-.395-.024-.929.063-.882-.568.039-.525.463-.608.921-.578,6.364.424,12.736.131,19.1.174,8.965.06,17.931.025,26.9.031.363,0,.727-.016,1.088.011.4.03.946,0,.883.586-.053.487-.571.342-.9.343q-5.83.019-11.66.01Z" transform="translate(-2043.696 3600.946)" fill="#d7d4c6"/>
        <path id="Trazado_1170748" data-name="Trazado 1170748" d="M242.126,585.5q-11.5,0-23,0c-.362,0-.726.007-1.087-.019-.2-.014-.43-.047-.469-.31a.457.457,0,0,1,.428-.536,7.765,7.765,0,0,1,1.234-.084q22.926-.006,45.852,0a.9.9,0,0,1,.155,0c.511.089,1.38-.235,1.355.564-.021.668-.846.369-1.307.37Q253.706,585.51,242.126,585.5Z" transform="translate(-2043.385 3554.494)" fill="#dbd8cf"/>
        <path id="Trazado_1170749" data-name="Trazado 1170749" d="M240.364,650.128q.013.781.025,1.562a3.533,3.533,0,0,0-1.961-.315q-9.622,0-19.243,0c-.362,0-.724,0-1.086-.011-.266-.01-.56-.066-.55-.395a.533.533,0,0,1,.53-.474c.462-.046.929-.052,1.394-.052q9.466,0,18.933,0A3.366,3.366,0,0,0,240.364,650.128Z" transform="translate(-2043.378 3513.185)" fill="#e7e4d6"/>
        <path id="Trazado_1170750" data-name="Trazado 1170750" d="M314.4,636.443a4.86,4.86,0,0,1,4.91,4.926,4.916,4.916,0,1,1-9.821-.388A4.764,4.764,0,0,1,314.4,636.443Z" transform="translate(-2101.288 3521.805)" fill="#f0f8f9"/>
      </g>
    </g>
  </g>
</svg>
