<svg xmlns="http://www.w3.org/2000/svg" xmlns:xlink="http://www.w3.org/1999/xlink" width="108" height="108" viewBox="0 0 108 108">
  <defs>
    <filter id="Trazado_904820" x="0" y="0" width="108" height="108" filterUnits="userSpaceOnUse">
      <feOffset dy="3" input="SourceAlpha"/>
      <feGaussianBlur stdDeviation="3" result="blur"/>
      <feFlood flood-opacity="0.161"/>
      <feComposite operator="in" in2="blur"/>
      <feComposite in="SourceGraphic"/>
    </filter>
  </defs>
  <g id="Grupo_1223856" data-name="Grupo 1223856" transform="translate(-719 -455)">
    <g id="Grupo_1215980" data-name="Grupo 1215980" transform="translate(728 461)">
      <g id="Grupo_1209015" data-name="Grupo 1209015" transform="translate(0 0)">
        <g id="Grupo_1207774" data-name="Grupo 1207774">
          <g id="Grupo_1206630" data-name="Grupo 1206630">
            <g id="Grupo_1185091" data-name="Grupo 1185091">
              <g id="Grupo_1179560" data-name="Grupo 1179560">
                <g id="Grupo_1173787" data-name="Grupo 1173787">
                  <g id="Grupo_1171910" data-name="Grupo 1171910">
                    <g id="Grupo_1167341" data-name="Grupo 1167341">
                      <g id="Grupo_1166792" data-name="Grupo 1166792">
                        <g transform="matrix(1, 0, 0, 1, -9, -6)" filter="url(#Trazado_904820)">
                          <g id="Trazado_904820-2" data-name="Trazado 904820" transform="translate(9 6)" fill="#f7f5f3">
                            <path d="M 44.99999618530273 88.50006866455078 C 39.12687301635742 88.50006866455078 33.43022155761719 87.35014343261719 28.06829643249512 85.08222961425781 C 22.88852119445801 82.89136505126953 18.23629570007324 79.75465393066406 14.24084663391113 75.75919342041016 C 10.24540901184082 71.76374053955078 7.108683586120605 67.11151885986328 4.917821407318115 61.93174362182617 C 2.649921178817749 56.56980514526367 1.499996185302734 50.87315368652344 1.499996185302734 45.00003051757812 C 1.499996185302734 39.12690734863281 2.649921178817749 33.43025588989258 4.917821407318115 28.06831741333008 C 7.108683586120605 22.88854217529297 10.24540901184082 18.23631858825684 14.24084663391113 14.24086761474609 C 18.23629570007324 10.24541759490967 22.88852119445801 7.10869312286377 28.06829643249512 4.917842864990234 C 33.43022155761719 2.649930477142334 39.12687301635742 1.500005483627319 44.99999618530273 1.500005483627319 C 50.87311935424805 1.500005483627319 56.56977081298828 2.649930477142334 61.93169784545898 4.917842864990234 C 67.11147308349609 7.10869312286377 71.76369476318359 10.24541759490967 75.75914764404297 14.24086761474609 C 79.75458526611328 18.23631858825684 82.89131164550781 22.88854217529297 85.08216857910156 28.06831741333008 C 87.35007476806641 33.43025588989258 88.5 39.12690734863281 88.5 45.00003051757812 C 88.5 50.87315368652344 87.35007476806641 56.56980514526367 85.08216857910156 61.93174362182617 C 82.89131164550781 67.11151885986328 79.75458526611328 71.76374053955078 75.75914764404297 75.75919342041016 C 71.76369476318359 79.75465393066406 67.11147308349609 82.89136505126953 61.93169784545898 85.08222961425781 C 56.56977081298828 87.35014343261719 50.87311935424805 88.50006866455078 44.99999618530273 88.50006866455078 Z" stroke="none"/>
                            <path d="M 44.99999618530273 3 C 39.32870864868164 3 33.82865142822266 4.110061645507812 28.65262603759766 6.299346923828125 C 23.65165710449219 8.414573669433594 19.15968322753906 11.44334411621094 15.301513671875 15.30152893066406 C 11.44333648681641 19.15969848632812 8.414566040039062 23.65167236328125 6.299339294433594 28.65264511108398 C 4.110054016113281 33.82868576049805 2.999992370605469 39.32874298095703 2.999992370605469 45.00003051757812 C 2.999992370605469 50.67131805419922 4.110054016113281 56.1713752746582 6.299339294433594 61.34741592407227 C 8.414566040039062 66.348388671875 11.44333648681641 70.84036254882812 15.301513671875 74.69853210449219 C 19.15968322753906 78.55671691894531 23.65165710449219 81.58548736572266 28.65262603759766 83.70071411132812 C 33.82865142822266 85.88999938964844 39.32870864868164 87.00006103515625 44.99999618530273 87.00006103515625 C 50.67128372192383 87.00006103515625 56.17134094238281 85.88999938964844 61.34736633300781 83.70071411132812 C 66.34834289550781 81.58548736572266 70.84030914306641 78.55671691894531 74.69847869873047 74.69853210449219 C 78.55665588378906 70.84036254882812 81.58542633056641 66.348388671875 83.70065307617188 61.34741592407227 C 85.88993835449219 56.1713752746582 87 50.67131805419922 87 45.00003051757812 C 87 39.32874298095703 85.88993835449219 33.82868576049805 83.70065307617188 28.65264511108398 C 81.58542633056641 23.65167236328125 78.55665588378906 19.15969848632812 74.69847869873047 15.30152893066406 C 70.84030914306641 11.44334411621094 66.34834289550781 8.414573669433594 61.34736633300781 6.299346923828125 C 56.17134094238281 4.110061645507812 50.67128372192383 3 44.99999618530273 3 M 44.99999618530273 0 C 69.85281372070312 0 90 20.14720153808594 90 45.00003051757812 C 90 69.85285949707031 69.85281372070312 90.00006103515625 44.99999618530273 90.00006103515625 C 20.14717864990234 90.00006103515625 -7.62939453125e-06 69.85285949707031 -7.62939453125e-06 45.00003051757812 C -7.62939453125e-06 20.14720153808594 20.14717864990234 0 44.99999618530273 0 Z" stroke="none" fill="#bca78f"/>
                          </g>
                        </g>
                      </g>
                    </g>
                  </g>
                </g>
              </g>
            </g>
          </g>
        </g>
      </g>
    </g>
    <g id="asesor" transform="translate(731.324 461.866)">
      <g id="Grupo_1223855" data-name="Grupo 1223855" transform="translate(1.795 17.106)">
        <g id="Grupo_1223839" data-name="Grupo 1223839" transform="translate(0 49.167)">
          <path id="Trazado_1170529" data-name="Trazado 1170529" d="M55.214,356.692v10.682H9V356.692a10.726,10.726,0,0,1,10.709-10.679H44.5A10.727,10.727,0,0,1,55.214,356.692Z" transform="translate(-9 -346.013)" fill="#cce4ff" fill-rule="evenodd"/>
        </g>
        <g id="Grupo_1223840" data-name="Grupo 1223840" transform="translate(12.207 45.047)">
          <path id="Trazado_1170530" data-name="Trazado 1170530" d="M89.1,323.1l6.366,4.814L100,323.1l-5.8-4.119Z" transform="translate(-89.103 -318.979)" fill="#9dc6fb" fill-rule="evenodd"/>
        </g>
        <g id="Grupo_1223841" data-name="Grupo 1223841" transform="translate(23.109 45.047)">
          <path id="Trazado_1170531" data-name="Trazado 1170531" d="M171.534,323.1l-6.366,4.814-4.531-4.814,5.8-4.119Z" transform="translate(-160.637 -318.979)" fill="#9dc6fb" fill-rule="evenodd"/>
        </g>
        <g id="Grupo_1223842" data-name="Grupo 1223842" transform="translate(19.178 55.127)">
          <path id="Trazado_1170532" data-name="Trazado 1170532" d="M140.945,400.527l1.763-3.34-.753-6.033-.749-6.029h-4.86l-.749,6.029-.749,6.033,1.759,3.34Z" transform="translate(-134.847 -385.125)" fill="#fe646f" fill-rule="evenodd"/>
        </g>
        <g id="Grupo_1223843" data-name="Grupo 1223843" transform="translate(20.08 49.166)">
          <path id="Trazado_1170533" data-name="Trazado 1170533" d="M143.791,351.97h2.428l.6-2.745-3.029-3.216-3.029,3.216.6,2.745Z" transform="translate(-140.762 -346.009)" fill="red" fill-rule="evenodd"/>
        </g>
        <g id="Grupo_1223844" data-name="Grupo 1223844" transform="translate(10.985 17.08)">
          <path id="Trazado_1170534" data-name="Trazado 1170534" d="M93.569,166.373c6.875,0,12.484-6.94,12.484-15.454s-5.609-15.458-12.484-15.458S81.085,142.4,81.085,150.919,86.694,166.373,93.569,166.373Z" transform="translate(-81.085 -135.461)" fill="#ffcebf" fill-rule="evenodd"/>
        </g>
        <path id="Trazado_1170535" data-name="Trazado 1170535" d="M433.6,366.306a.887.887,0,0,0-.671-.306H421.718a.884.884,0,0,0-.876,1.013,6.639,6.639,0,0,0,12.96,0A.882.882,0,0,0,433.6,366.306Z" transform="translate(-358.071 -313.787)" fill="#31a7fb"/>
        <g id="Grupo_1223845" data-name="Grupo 1223845" transform="translate(55.636 34.268)">
          <path id="Trazado_1170536" data-name="Trazado 1170536" d="M374.081,248.246h3.433V277.42h-3.433Z" transform="translate(-374.081 -248.246)" fill="#64b9fc" fill-rule="evenodd"/>
        </g>
        <g id="Grupo_1223846" data-name="Grupo 1223846" transform="translate(44.423 37.542)">
          <path id="Trazado_1170537" data-name="Trazado 1170537" d="M302.455,273.616a1.944,1.944,0,1,0-1.951-1.946A1.95,1.95,0,0,0,302.455,273.616Z" transform="translate(-300.504 -269.729)" fill="#31a7fb" fill-rule="evenodd"/>
        </g>
        <g id="Grupo_1223847" data-name="Grupo 1223847" transform="translate(67.923 37.388)">
          <path id="Trazado_1170538" data-name="Trazado 1170538" d="M456.657,272.609a1.944,1.944,0,1,0-1.947-1.946A1.953,1.953,0,0,0,456.657,272.609Z" transform="translate(-454.71 -268.722)" fill="#31a7fb" fill-rule="evenodd"/>
        </g>
        <g id="Grupo_1223848" data-name="Grupo 1223848" transform="translate(54.11 31.036)">
          <path id="Trazado_1170539" data-name="Trazado 1170539" d="M367.306,233.5a3.232,3.232,0,1,0-3.241-3.232A3.244,3.244,0,0,0,367.306,233.5Z" transform="translate(-364.065 -227.037)" fill="#31a7fb" fill-rule="evenodd"/>
        </g>
        <g id="Grupo_1223849" data-name="Grupo 1223849" transform="translate(52.231 63.438)">
          <path id="Trazado_1170540" data-name="Trazado 1170540" d="M351.735,439.656h10.244v3.684H351.735Z" transform="translate(-351.735 -439.656)" fill="#31a7fb" fill-rule="evenodd"/>
        </g>
        <g id="Grupo_1223850" data-name="Grupo 1223850" transform="translate(48.729 67.121)">
          <path id="Trazado_1170541" data-name="Trazado 1170541" d="M328.758,463.828H346v3.684H328.758Z" transform="translate(-328.758 -463.828)" fill="#64b9fc" fill-rule="evenodd"/>
        </g>
        <g id="Grupo_1223851" data-name="Grupo 1223851" transform="translate(43.564 0)">
          <path id="Trazado_1170542" data-name="Trazado 1170542" d="M312.521,23.861a13.942,13.942,0,0,1-4.968,27.352l-10.041,2.046,1.094-6.452a13.866,13.866,0,0,1-3.26-13.082A14.034,14.034,0,0,1,312.521,23.861Z" transform="translate(-294.864 -23.382)" fill="#64b9fc" fill-rule="evenodd"/>
        </g>
        <g id="Grupo_1223852" data-name="Grupo 1223852" transform="translate(22.491 17.084)">
          <path id="Trazado_1170543" data-name="Trazado 1170543" d="M157.566,135.487c6.895,0,12.484,6.92,12.484,15.454s-5.589,15.454-12.484,15.454c-.329,0-.653-.016-.978-.044,6.442-.615,11.51-7.279,11.51-15.41s-5.068-14.795-11.51-15.41C156.913,135.5,157.237,135.487,157.566,135.487Z" transform="translate(-156.588 -135.487)" fill="#ffb09e" fill-rule="evenodd"/>
        </g>
        <g id="Grupo_1223853" data-name="Grupo 1223853" transform="translate(6.278 10.946)">
          <path id="Trazado_1170544" data-name="Trazado 1170544" d="M55.028,119.009c-10.8-8.586-2.191-24.511,12.928-23.772,9.451.463,17.436,6.153,15.645,16.557-.893,3.748-2.215,6.1-3.874,7.371.188-7.036-1.326-10.588-3.53-13.312a13.7,13.7,0,0,1-8.954,4.655C57.936,109.2,54.194,112.3,55.028,119.009Z" transform="translate(-50.196 -95.212)" fill="#407093" fill-rule="evenodd"/>
        </g>
        <path id="Trazado_1170545" data-name="Trazado 1170545" d="M281.059,367.148a.869.869,0,0,0-.657-.3H269.421a.866.866,0,0,0-.858.992,6.5,6.5,0,0,0,12.7,0A.865.865,0,0,0,281.059,367.148Z" transform="translate(-228.999 -314.506)" fill="#31a7fb"/>
        <g id="Grupo_1223854" data-name="Grupo 1223854" transform="translate(52.891 0.001)">
          <path id="Trazado_1170546" data-name="Trazado 1170546" d="M364.4,23.866a13.929,13.929,0,0,1-.862,27.142,13.952,13.952,0,0,0-7.468-26.81,14.044,14.044,0,0,1,8.33-.332Z" transform="translate(-356.066 -23.388)" fill="#31a7fb" fill-rule="evenodd"/>
        </g>
      </g>
      <path id="Trazado_1170547" data-name="Trazado 1170547" d="M78.129,69.332a1,1,0,0,0-.758-.347h-.978l-3.51-10.429A2.967,2.967,0,1,0,68.9,54.183l-2.572-1.337-.013-.007a5.522,5.522,0,0,0-2.7-.643,4.277,4.277,0,1,0-8.266,0,5.539,5.539,0,0,0-2.711.649l-2.572,1.337a2.967,2.967,0,1,0-3.989,4.373L43.3,66.791A11.7,11.7,0,0,0,37.39,65.2H36.23l-2.962-2.4q.488-.436.946-.928a17.878,17.878,0,0,0,4.42-9.609c1.78-1.53,3.076-4.077,3.954-7.768,0-.021.009-.041.013-.062a14.245,14.245,0,0,0-2.645-11.66c-2.97-3.7-8.111-6-14.106-6.292a19.532,19.532,0,0,0-11.507,2.91A16.434,16.434,0,0,0,7.73,37.322C5.678,42.754,7.2,48.246,11.787,52.093a17.616,17.616,0,0,0,5.056,10.388L13.486,65.2H12.325A11.839,11.839,0,0,0,.5,77.024V87.85a1,1,0,0,0,1,1H48.216a1,1,0,0,0,1-1V77.024c0-.369-.017-.74-.052-1.109a7.126,7.126,0,0,0,6.067-5.783,1,1,0,0,0-.99-1.147H53.26L49.751,58.557a2.968,2.968,0,0,0,1.13-2.329c0-.072-.006-.142-.011-.212l2.671-1.389a2.8,2.8,0,0,1,3.2.117V79.665H54.3a1,1,0,0,0-1,1V83.4H50.76a1,1,0,0,0-1,1v3.734a1,1,0,0,0,1,1H68.191a1,1,0,0,0,1-1V84.4a1,1,0,0,0-1-1H65.655V80.665a1,1,0,0,0-1-1H62.213V54.74a2.809,2.809,0,0,1,3.194-.117l2.676,1.392c-.005.07-.011.141-.011.212a2.968,2.968,0,0,0,1.13,2.329L65.69,68.985h-.978a1,1,0,0,0-.99,1.147,7.495,7.495,0,0,0,14.639,0,1,1,0,0,0-.232-.8ZM47.912,55.26a.969.969,0,0,1,.325,1.882l-.017,0-.021.009a.962.962,0,0,1-.594-.006l-.006,0-.005,0a.969.969,0,0,1,.318-1.885ZM34.254,66.173l-4.7,3.565-.887-.945-.038-.041-2.6-2.773a11.8,11.8,0,0,0,5.61-1.926Zm-7.746,5.068h-3.3l-.323-1.478,1.975-2.1,1.972,2.1ZM9.6,38.029c1.909-5.055,7.645-9.965,16.149-9.549,5.424.267,10.032,2.288,12.644,5.545,2.16,2.694,2.914,6.072,2.24,10.039a17.065,17.065,0,0,1-1.946,5.054,20.573,20.573,0,0,0-2.008-8.8,16.825,16.825,0,0,0-1.77-2.7,1,1,0,0,0-1.531-.033,12.765,12.765,0,0,1-8.294,4.369c-5.275-.723-8.921-.1-11.146,1.892a7.379,7.379,0,0,0-2.3,5.32A10.638,10.638,0,0,1,9.6,38.029Zm4.124,13.454c0-.014,0-.028,0-.042-.047-.414-.081-.834-.1-1.259-.069-2.2.473-3.79,1.654-4.85,1.239-1.111,3.227-1.669,5.933-1.669a27,27,0,0,1,3.731.288,1.019,1.019,0,0,0,.26,0,14.906,14.906,0,0,0,8.837-4.159,14.935,14.935,0,0,1,.868,1.444c1.339,2.607,1.91,5.92,1.795,10.423-.888,7.042-5.815,12.347-11.475,12.347-5.811,0-10.675-5.409-11.5-12.525Zm4.692,12.3a11.927,11.927,0,0,0,5.34,2.131L21.1,68.738a1.025,1.025,0,0,0-.071.075l-.869.925-4.7-3.565ZM2.5,77.024A9.836,9.836,0,0,1,12.325,67.2H13.5l6.167,4.677A1,1,0,0,0,21,71.764l.218-.232.165.756L19.894,84.345a1,1,0,0,0,.107.588l1.007,1.916H2.5Zm20.769,9.825-1.351-2.57,1.367-11.038H26.43L27.8,84.28l-1.354,2.57Zm23.947,0H28.709l1.009-1.915a1,1,0,0,0,.108-.59l-.761-6.115-.736-5.942.165-.756.218.232a1,1,0,0,0,1.334.112L36.212,67.2H37.39a9.718,9.718,0,0,1,5.254,1.535l-.084.251h-.982a1,1,0,0,0-.989,1.149,7.184,7.184,0,0,0,6.57,5.845,9.963,9.963,0,0,1,.057,1.045Zm.7-12.834a5.445,5.445,0,0,1-5.006-3.029H52.917a5.437,5.437,0,0,1-5,3.029Zm-3.241-5.03L47.91,59.36l3.239,9.625Zm14.8-20.165A2.276,2.276,0,1,1,57.2,51.1a2.279,2.279,0,0,1,2.276-2.276ZM67.19,87.133H51.76V85.4H67.19ZM63.655,83.4H55.3V81.666h8.355Zm-4.913-3.734V55.309a4.217,4.217,0,0,0,1.47,0V79.665Zm12.3-24.4a.969.969,0,0,1,.318,1.885l-.005,0-.006,0a.961.961,0,0,1-.594.006l-.02-.009-.017,0a.969.969,0,0,1,.325-1.882Zm0,4.1,3.239,9.626H67.8Zm0,14.656a5.438,5.438,0,0,1-5-3.029H76.046A5.438,5.438,0,0,1,71.042,74.015ZM46.355,46.746a1,1,0,0,0,1.187,1.146l9.859-2.02a14.976,14.976,0,1,0-10.036-5.115ZM46.149,27.6A12.988,12.988,0,0,1,58.657,17.98a12.973,12.973,0,1,1-1.216,25.888,1,1,0,0,0-.3.016L48.57,45.64l.847-5.025a1,1,0,0,0-.253-.846A12.907,12.907,0,0,1,46.149,27.6Zm3.9-1.474a1,1,0,0,1,1-1h15.69a1,1,0,1,1,0,2H51.047A1,1,0,0,1,50.047,26.124Zm0,4.759a1,1,0,0,1,1-1h15.69a1,1,0,1,1,0,2H51.047A1,1,0,0,1,50.047,30.883Zm0,4.759a1,1,0,0,1,1-1h15.69a1,1,0,0,1,0,2H51.047A1,1,0,0,1,50.047,35.642Z" transform="translate(0)"/>
    </g>
  </g>
</svg>
