<svg xmlns="http://www.w3.org/2000/svg" width="85.658" height="94.999" viewBox="0 0 85.658 94.999">
  <g id="Grupo_1223895" data-name="Grupo 1223895" transform="translate(-179.342 -2324)">
    <g id="Grupo_1215635" data-name="Grupo 1215635" transform="translate(10.378 627.158)">
      <g id="Grupo_1210476" data-name="Grupo 1210476" transform="translate(168.964 1696.842)">
        <g id="Grupo_1210475" data-name="Grupo 1210475" transform="translate(0)">
          <g id="Grupo_1209741" data-name="Grupo 1209741" transform="translate(0)">
            <g id="Grupo_1178144" data-name="Grupo 1178144">
              <g id="Grupo_1177896" data-name="Grupo 1177896">
                <g id="Grupo_1176881" data-name="Grupo 1176881">
                  <g id="Grupo_1175148" data-name="Grupo 1175148">
                    <g id="Grupo_1173798" data-name="Grupo 1173798">
                      <g id="Grupo_1171925" data-name="Grupo 1171925">
                        <g id="Grupo_1164524" data-name="Grupo 1164524">
                          <g id="Grupo_1144123" data-name="Grupo 1144123">
                            <g id="Trazado_978624" data-name="Trazado 978624">
                              <path id="Trazado_1162090" data-name="Trazado 1162090" d="M42.967,84.434A41.478,41.478,0,0,1,26.826,4.758,41.478,41.478,0,0,1,59.107,81.176,41.206,41.206,0,0,1,42.967,84.434Z" transform="translate(-0.138 -0.138)" fill="#cfd7c8"/>
                              <path id="Trazado_1162091" data-name="Trazado 1162091" d="M42.829,2.725A40.116,40.116,0,0,0,27.22,79.783,40.116,40.116,0,0,0,58.439,5.875a39.851,39.851,0,0,0-15.61-3.151m0-2.725A42.829,42.829,0,1,1,0,42.829,42.829,42.829,0,0,1,42.829,0Z" fill="#899e78"/>
                            </g>
                          </g>
                        </g>
                      </g>
                    </g>
                  </g>
                </g>
              </g>
            </g>
          </g>
        </g>
      </g>
    </g>
    <g id="obediente_15_" data-name="obediente (15)" transform="translate(176.257 2337.42)">
      <g id="Grupo_1223885" data-name="Grupo 1223885" transform="translate(11.364 1.195)">
        <g id="Grupo_1223883" data-name="Grupo 1223883">
          <g id="Grupo_1223880" data-name="Grupo 1223880" transform="translate(0 31.22)">
            <g id="Grupo_1223873" data-name="Grupo 1223873" transform="translate(0 0)">
              <path id="Trazado_1170574" data-name="Trazado 1170574" d="M39.225,204.157l2.87,4.971a.478.478,0,0,0,.414.239H62.175a.478.478,0,0,0,.414-.239l2.87-4.971a.478.478,0,0,0-.414-.717H39.639a.478.478,0,0,0-.414.717Z" transform="translate(-39.16 -203.44)" fill="#fed402"/>
            </g>
            <g id="Grupo_1223879" data-name="Grupo 1223879">
              <g id="Grupo_1223874" data-name="Grupo 1223874" transform="translate(42.737 0)">
                <path id="Trazado_1170575" data-name="Trazado 1170575" d="M307.447,204.157l2.87,4.971a.478.478,0,0,0,.414.239H330.4a.478.478,0,0,0,.414-.239l2.87-4.971a.478.478,0,0,0-.414-.717H307.861A.478.478,0,0,0,307.447,204.157Z" transform="translate(-307.382 -203.44)" fill="#fed402"/>
              </g>
              <g id="Grupo_1223875" data-name="Grupo 1223875" transform="translate(0 0)">
                <path id="Trazado_1170576" data-name="Trazado 1170576" d="M39.225,204.157l2.87,4.971a.478.478,0,0,0,.414.239H62.175a.478.478,0,0,0,.414-.239l2.87-4.971a.478.478,0,0,0-.414-.717H39.639a.478.478,0,0,0-.414.717Z" transform="translate(-39.16 -203.44)" fill="#ca6e59"/>
              </g>
              <g id="Grupo_1223876" data-name="Grupo 1223876" transform="translate(0)">
                <path id="Trazado_1170577" data-name="Trazado 1170577" d="M48.848,209.127l-2.87-4.971a.478.478,0,0,1,.414-.717H39.639a.478.478,0,0,0-.414.717l2.87,4.971a.478.478,0,0,0,.414.239h6.753A.478.478,0,0,1,48.848,209.127Z" transform="translate(-39.161 -203.439)" fill="#bb5d4c"/>
              </g>
              <g id="Grupo_1223877" data-name="Grupo 1223877" transform="translate(42.737 0)">
                <path id="Trazado_1170578" data-name="Trazado 1170578" d="M307.447,204.157l2.87,4.971a.478.478,0,0,0,.414.239H330.4a.478.478,0,0,0,.414-.239l2.87-4.971a.478.478,0,0,0-.414-.717H307.861A.478.478,0,0,0,307.447,204.157Z" transform="translate(-307.382 -203.44)" fill="#ca6e59"/>
              </g>
              <g id="Grupo_1223878" data-name="Grupo 1223878" transform="translate(42.737)">
                <path id="Trazado_1170579" data-name="Trazado 1170579" d="M317.9,209.127l-2.87-4.971a.478.478,0,0,1,.414-.717h-7.587a.478.478,0,0,0-.414.717l2.87,4.971a.478.478,0,0,0,.414.239h7.587A.478.478,0,0,1,317.9,209.127Z" transform="translate(-307.383 -203.439)" fill="#bb5d4c"/>
              </g>
            </g>
          </g>
          <path id="Trazado_1170580" data-name="Trazado 1170580" d="M242.35,133.135V103.92a.8.8,0,0,0-.8-.8h-4.791a.8.8,0,0,0-.8.8v29.216h6.384Z" transform="translate(-204.608 -87.887)" fill="#bb5d4c"/>
          <path id="Trazado_1170581" data-name="Trazado 1170581" d="M238.669,133.135V103.92a.8.8,0,0,1,.8-.8h-2.7a.8.8,0,0,0-.8.8v29.216h2.7Z" transform="translate(-204.608 -87.887)" fill="#a44f3e"/>
          <g id="Grupo_1223881" data-name="Grupo 1223881" transform="translate(30.089 0)">
            <circle id="Elipse_14528" data-name="Elipse 14528" cx="4.461" cy="4.461" r="4.461" fill="#883f2e"/>
          </g>
          <g id="Grupo_1223882" data-name="Grupo 1223882" transform="translate(30.089)">
            <path id="Trazado_1170582" data-name="Trazado 1170582" d="M231.989,11.961a4.459,4.459,0,0,1,2.469-3.991,4.461,4.461,0,1,0,0,7.982A4.459,4.459,0,0,1,231.989,11.961Z" transform="translate(-228.005 -7.5)" fill="#6d3326"/>
          </g>
        </g>
        <g id="Grupo_1223884" data-name="Grupo 1223884" transform="translate(6.141 45.248)">
          <path id="Trazado_1170583" data-name="Trazado 1170583" d="M224.152,298.332v-3.66a3.187,3.187,0,0,0-3.187-3.187h-8.523a3.187,3.187,0,0,0-3.187,3.187v3.66Z" transform="translate(-188.295 -291.485)" fill="#883f2e"/>
          <path id="Trazado_1170584" data-name="Trazado 1170584" d="M214.632,298.332v-3.66a3.187,3.187,0,0,1,3.187-3.187h-5.377a3.187,3.187,0,0,0-3.187,3.187v3.66Z" transform="translate(-188.294 -291.485)" fill="#6d3326"/>
          <path id="Trazado_1170585" data-name="Trazado 1170585" d="M198.2,341.715v-4.527a2.731,2.731,0,0,0-2.731-2.731H173.9a2.731,2.731,0,0,0-2.731,2.731v4.527Z" transform="translate(-156.279 -327.61)" fill="#bb5d4c"/>
          <path id="Trazado_1170586" data-name="Trazado 1170586" d="M177.892,341.715v-4.527a2.731,2.731,0,0,1,2.731-2.731H173.9a2.731,2.731,0,0,0-2.731,2.731v4.527Z" transform="translate(-156.28 -327.61)" fill="#a44f3e"/>
          <path id="Trazado_1170587" data-name="Trazado 1170587" d="M81.959,379.006a4.256,4.256,0,0,0-4.256,4.256v8.086a4.256,4.256,0,0,0,4.256,4.256h1.725V384.326h8.7V395.6h48.731v-16.6Z" transform="translate(-77.703 -365.061)" fill="#fff3de"/>
        </g>
      </g>
      <g id="Grupo_1223894" data-name="Grupo 1223894" transform="translate(7.291 60.388)">
        <g id="Grupo_1223889" data-name="Grupo 1223889" transform="translate(0)">
          <g id="Grupo_1223886" data-name="Grupo 1223886">
            <path id="Trazado_1170588" data-name="Trazado 1170588" d="M28.066,395.6a4.256,4.256,0,0,1-4.256-4.256v-8.086a4.256,4.256,0,0,1,4.256-4.256H21.9a8.3,8.3,0,1,0,0,16.6h6.171Z" transform="translate(-13.596 -379.006)" fill="#3675bb"/>
          </g>
          <g id="Grupo_1223887" data-name="Grupo 1223887">
            <path id="Trazado_1170589" data-name="Trazado 1170589" d="M17.627,387.305a8.3,8.3,0,0,1,8.3-8.3H21.9a8.3,8.3,0,1,0,0,16.6h4.031A8.3,8.3,0,0,1,17.627,387.305Z" transform="translate(-13.596 -379.006)" fill="#2b68b6"/>
          </g>
          <g id="Grupo_1223888" data-name="Grupo 1223888" transform="translate(10.214 0.006)">
            <path id="Trazado_1170590" data-name="Trazado 1170590" d="M83.684,390.97a4.251,4.251,0,0,1-1.95-3.576v-8.086c0-.09,0-.178.009-.266a4.256,4.256,0,0,0-4.04,4.251v8.086a4.256,4.256,0,0,0,4.256,4.256h1.725Z" transform="translate(-77.703 -379.041)" fill="#ffe5c2"/>
            <path id="Trazado_1170591" data-name="Trazado 1170591" d="M169.857,458.174h48.731v3.984H169.857Z" transform="translate(-155.174 -445.565)" fill="#ffe5c2"/>
          </g>
        </g>
        <g id="Grupo_1223893" data-name="Grupo 1223893" transform="translate(16.195 5.32)">
          <g id="Grupo_1223890" data-name="Grupo 1223890">
            <path id="Trazado_1170592" data-name="Trazado 1170592" d="M123.942,426.592v-14.2h-8.7v14.2a.478.478,0,0,0,.75.393l3.6-2.492,3.6,2.492A.478.478,0,0,0,123.942,426.592Z" transform="translate(-115.24 -412.395)" fill="#fb2b3a"/>
          </g>
          <g id="Grupo_1223892" data-name="Grupo 1223892" transform="translate(0)">
            <g id="Grupo_1223891" data-name="Grupo 1223891">
              <path id="Trazado_1170593" data-name="Trazado 1170593" d="M119.246,412.395H115.24v14.2a.478.478,0,0,0,.75.393l3.256-2.253Z" transform="translate(-115.24 -412.395)" fill="#e41f2d"/>
            </g>
          </g>
        </g>
      </g>
      <path id="Trazado_1170594" data-name="Trazado 1170594" d="M84.537,75.792H82.115V61.583h2.423a1.2,1.2,0,1,0,0-2.39H60.625V56.021A3.93,3.93,0,0,0,56.7,52.1H54.557V49.63A4.386,4.386,0,0,0,50.3,45.252V25.971a1.2,1.2,0,1,0-2.39,0V45.248H43.917V17.626h3.994v2.769a1.2,1.2,0,1,0,2.39,0V17.228a1.994,1.994,0,0,0-1.992-1.992h-1.2V11.183a5.672,5.672,0,0,0,4.332-4.332H66.087V9.03L54.4,31.232a1.67,1.67,0,0,0-1.272,2.5L56,38.7a1.678,1.678,0,0,0,1.449.837H68.7a1.2,1.2,0,1,0,0-2.39H57.864L55.822,33.61H78.744L76.7,37.147H74.276a1.2,1.2,0,0,0,0,2.39h2.84a1.677,1.677,0,0,0,1.449-.837l2.87-4.971a1.67,1.67,0,0,0-1.272-2.5L68.478,9.03V6.851h4.473a1.2,1.2,0,1,0,0-2.39H51.442a5.655,5.655,0,0,0-11.055,0H18.878a1.2,1.2,0,0,0,0,2.39h4.473V9.03l-11.684,22.2a1.67,1.67,0,0,0-1.272,2.5h0l2.87,4.971a1.678,1.678,0,0,0,1.449.836H34.379a1.677,1.677,0,0,0,1.449-.837l2.87-4.971a1.67,1.67,0,0,0-1.272-2.5L25.741,9.03V6.851H40.387a5.672,5.672,0,0,0,4.332,4.332v4.053h-1.2a1.994,1.994,0,0,0-1.992,1.992V45.251a4.386,4.386,0,0,0-4.256,4.378V52.1H35.129A3.931,3.931,0,0,0,31.2,56.021v3.172H15.59a9.494,9.494,0,1,0,0,18.988h6.7V79.9a1.673,1.673,0,0,0,2.625,1.376l2.921-2.022,2.921,2.022A1.673,1.673,0,0,0,33.384,79.9V78.181H84.537a1.195,1.195,0,1,0,0-2.39ZM66.088,31.22H57.11l8.978-17.058Zm2.39-17.058L77.455,31.22H68.478Zm-45.127,0V31.22H14.373ZM33.964,37.147H15.127L13.085,33.61H36.007Zm.754-5.927H25.741V14.162Zm7.93-25.564a3.266,3.266,0,1,1,3.266,3.266A3.269,3.269,0,0,1,42.649,5.656ZM39.661,49.63a1.994,1.994,0,0,1,1.992-1.992h8.523a1.994,1.994,0,0,1,1.992,1.992V52.1H39.661ZM15.59,75.792a7.1,7.1,0,1,1,0-14.208h1.663a5.419,5.419,0,0,0-.943,3.061v8.086a5.418,5.418,0,0,0,.943,3.061Zm15.4,2.745-2.476-1.713a1.2,1.2,0,0,0-1.36,0l-2.476,1.713V66.9h6.312ZM79.725,64.513H53.894a1.2,1.2,0,1,0,0,2.39H79.725v3.568H53.894a1.2,1.2,0,1,0,0,2.39H79.725v2.93H33.384V66.9H43.467a1.2,1.2,0,1,0,0-2.39H21.761a1.2,1.2,0,1,0,0,2.39h.53v8.888h-.53A3.064,3.064,0,0,1,18.7,72.731V64.645a3.064,3.064,0,0,1,3.061-3.061H40.975a1.2,1.2,0,1,0,0-2.39H33.593V56.021a1.538,1.538,0,0,1,1.536-1.536H56.7a1.538,1.538,0,0,1,1.536,1.536v3.172H46.551a1.2,1.2,0,0,0,0,2.39H79.725Z"/>
    </g>
  </g>
</svg>
