<svg xmlns="http://www.w3.org/2000/svg" xmlns:xlink="http://www.w3.org/1999/xlink" width="113" height="113" viewBox="0 0 113 113">
  <defs>
    <filter id="Trazado_982547" x="0" y="0" width="113" height="113" filterUnits="userSpaceOnUse">
      <feOffset dy="3" input="SourceAlpha"/>
      <feGaussianBlur stdDeviation="3" result="blur"/>
      <feFlood flood-opacity="0.161"/>
      <feComposite operator="in" in2="blur"/>
      <feComposite in="SourceGraphic"/>
    </filter>
  </defs>
  <g id="Grupo_1224481" data-name="Grupo 1224481" transform="translate(-324 -5204.238)">
    <g id="Grupo_1223642" data-name="Grupo 1223642" transform="translate(-0.999 4033.138)">
      <g id="Grupo_1211239" data-name="Grupo 1211239" transform="translate(-0.001 -10382)">
        <g id="Grupo_1210099" data-name="Grupo 1210099" transform="translate(0 4024.292)">
          <g id="Grupo_1208705" data-name="Grupo 1208705" transform="translate(-1.454 3213.429)">
            <g id="Grupo_1148633" data-name="Grupo 1148633" transform="translate(71.408 600.047)">
              <g id="Grupo_1148525" data-name="Grupo 1148525" transform="translate(264.046 3721.333)">
                <g transform="matrix(1, 0, 0, 1, -9, -6)" filter="url(#Trazado_982547)">
                  <g id="Trazado_982547-2" data-name="Trazado 982547" transform="translate(9 6)" fill="#f9e3d4">
                    <path d="M 47.5 93.5 C 41.28937149047852 93.5 35.26533508300781 92.28397369384766 29.59518623352051 89.88570404052734 C 24.11771965026855 87.56893157958984 19.19813346862793 84.25196075439453 14.97309303283691 80.02691650390625 C 10.74804019927979 75.80186462402344 7.431066513061523 70.88229370117188 5.114293098449707 65.40481567382812 C 2.716026782989502 59.73468017578125 1.5 53.71062850952148 1.5 47.5 C 1.5 41.28937149047852 2.716026782989502 35.26533508300781 5.114293098449707 29.59518623352051 C 7.431066513061523 24.11771965026855 10.74804019927979 19.19813346862793 14.97309303283691 14.97309303283691 C 19.19813346862793 10.74804019927979 24.11771965026855 7.431066513061523 29.59518623352051 5.114293098449707 C 35.26533508300781 2.716026782989502 41.28937149047852 1.5 47.5 1.5 C 53.71062850952148 1.5 59.73468017578125 2.716026782989502 65.40481567382812 5.114293098449707 C 70.88229370117188 7.431066513061523 75.80186462402344 10.74804019927979 80.02691650390625 14.97309303283691 C 84.25196075439453 19.19813346862793 87.56893157958984 24.11771965026855 89.88570404052734 29.59518623352051 C 92.28397369384766 35.26533508300781 93.5 41.28937149047852 93.5 47.5 C 93.5 53.71062850952148 92.28397369384766 59.73468017578125 89.88570404052734 65.40481567382812 C 87.56893157958984 70.88229370117188 84.25196075439453 75.80186462402344 80.02691650390625 80.02691650390625 C 75.80186462402344 84.25196075439453 70.88229370117188 87.56893157958984 65.40481567382812 89.88570404052734 C 59.73468017578125 92.28397369384766 53.71062850952148 93.5 47.5 93.5 Z" stroke="none"/>
                    <path d="M 47.5 3 C 41.49121475219727 3 35.66376876831055 4.176155090332031 30.17950439453125 6.495796203613281 C 24.88084411621094 8.736953735351562 20.12152099609375 11.94598388671875 16.03375244140625 16.03375244140625 C 11.94598388671875 20.12152099609375 8.736953735351562 24.88084411621094 6.495796203613281 30.17950439453125 C 4.176155090332031 35.66376876831055 3 41.49121475219727 3 47.5 C 3 53.50878524780273 4.176155090332031 59.33623123168945 6.495796203613281 64.82049560546875 C 8.736953735351562 70.11915588378906 11.94598388671875 74.87847900390625 16.03375244140625 78.96624755859375 C 20.12152099609375 83.05401611328125 24.88084411621094 86.26304626464844 30.17950439453125 88.50419616699219 C 35.66376876831055 90.82384490966797 41.49121475219727 92 47.5 92 C 53.50878524780273 92 59.33623123168945 90.82384490966797 64.82049560546875 88.50419616699219 C 70.11915588378906 86.26304626464844 74.87847900390625 83.05401611328125 78.96624755859375 78.96624755859375 C 83.05401611328125 74.87847900390625 86.26304626464844 70.11915588378906 88.50419616699219 64.82049560546875 C 90.82384490966797 59.33623123168945 92 53.50878524780273 92 47.5 C 92 41.49121475219727 90.82384490966797 35.66376876831055 88.50419616699219 30.17950439453125 C 86.26304626464844 24.88084411621094 83.05401611328125 20.12152099609375 78.96624755859375 16.03375244140625 C 74.87847900390625 11.94598388671875 70.11915588378906 8.736953735351562 64.82049560546875 6.495796203613281 C 59.33623123168945 4.176155090332031 53.50878524780273 3 47.5 3 M 47.5 0 C 73.7335205078125 0 95 21.2664794921875 95 47.5 C 95 73.7335205078125 73.7335205078125 95 47.5 95 C 21.2664794921875 95 0 73.7335205078125 0 47.5 C 0 21.2664794921875 21.2664794921875 0 47.5 0 Z" stroke="none" fill="#eca675"/>
                  </g>
                </g>
              </g>
            </g>
          </g>
        </g>
      </g>
    </g>
    <g id="presidente_1_" data-name="presidente (1)" transform="translate(297.361 5220.849)">
      <g id="Grupo_1224479" data-name="Grupo 1224479" transform="translate(50.262 1.236)">
        <path id="Trazado_1172323" data-name="Trazado 1172323" d="M56.529,250.587V270.9a1.7,1.7,0,0,0,1.7,1.7h62.348a1.7,1.7,0,0,0,1.7-1.7V250.587a4.95,4.95,0,0,0-3.338-4.682L99.955,239.36a2.157,2.157,0,0,1-1.454-2.039V226.843H80.312v10.478a2.157,2.157,0,0,1-1.454,2.039L59.867,245.9a4.95,4.95,0,0,0-3.338,4.682Z" transform="translate(-56.529 -190.69)" fill="#685e68"/>
        <path id="Trazado_1172324" data-name="Trazado 1172324" d="M309.07,245.9l-18.991-6.544a2.157,2.157,0,0,1-1.454-2.039V226.842h-4.45v13.115A2.157,2.157,0,0,0,285.629,242l18.991,6.544a4.95,4.95,0,0,1,3.338,4.682V270.9a1.7,1.7,0,0,1-1.7,1.7h4.45a1.7,1.7,0,0,0,1.7-1.7V250.586A4.951,4.951,0,0,0,309.07,245.9Z" transform="translate(-246.654 -190.69)" fill="#554e56"/>
        <path id="Trazado_1172325" data-name="Trazado 1172325" d="M143.268,314.223l8.121,14.5h20.765l8.121-14.5a.725.725,0,0,0,.025-.659l-2.75-5.924a.727.727,0,0,1,.114-.785l2.519-2.863a.718.718,0,0,0,.146-.7l-1.828-5.684-6.182-2.129a2.154,2.154,0,0,1-1.368-1.442H152.591a2.154,2.154,0,0,1-1.368,1.442l-6.182,2.129-1.828,5.684a.718.718,0,0,0,.146.7l2.519,2.863a.727.727,0,0,1,.114.785l-2.75,5.924A.725.725,0,0,0,143.268,314.223Z" transform="translate(-128.894 -246.81)" fill="#554e56"/>
        <path id="Trazado_1172326" data-name="Trazado 1172326" d="M176.773,296.344l9.368,30.732h7.38l9.368-30.732-2.51-.865a2.154,2.154,0,0,1-1.368-1.442H180.651a2.154,2.154,0,0,1-1.368,1.442Z" transform="translate(-156.954 -246.81)" fill="#d3dee5"/>
        <path id="Trazado_1172327" data-name="Trazado 1172327" d="M227.055,346.894l1.586,5.2h6.369l1.586-5.2-2.423-24.875h-4.695Z" transform="translate(-198.949 -270.179)" fill="#685e68"/>
        <path id="Trazado_1172328" data-name="Trazado 1172328" d="M218.875,320.116l2.33,6.015a2.226,2.226,0,0,0,2.076,1.422h3.426a2.227,2.227,0,0,0,2.076-1.422l2.33-6.015Z" transform="translate(-192.117 -268.59)" fill="#554e56"/>
        <path id="Trazado_1172329" data-name="Trazado 1172329" d="M176.773,296.344l2.51-.865a2.156,2.156,0,0,0,1.368-1.442h18.361a2.157,2.157,0,0,0,1.368,1.442l2.51.865-3.313,10.867-8.437-8.889h-2.617l-8.437,8.889Z" transform="translate(-156.954 -246.81)" fill="#e8edf2"/>
        <path id="Trazado_1172330" data-name="Trazado 1172330" d="M292.589,296.345l-2.51-.865a2.157,2.157,0,0,1-1.368-1.442h-4.537v2.04a2.157,2.157,0,0,0,1.454,2.039l5.81,2Z" transform="translate(-246.653 -246.811)" fill="#d3dee5"/>
        <path id="Trazado_1172331" data-name="Trazado 1172331" d="M198.236,238.607l6.375,5.447a2.324,2.324,0,0,0,1.507.555H209.4a2.323,2.323,0,0,0,1.507-.555l6.375-5.447a2.146,2.146,0,0,1-.427-1.287V226.842H198.663V237.32A2.146,2.146,0,0,1,198.236,238.607Z" transform="translate(-174.88 -190.69)" fill="#ffa78f"/>
        <path id="Trazado_1172332" data-name="Trazado 1172332" d="M288.624,237.32V226.842h-4.45v13.115a2.157,2.157,0,0,0,1.1,1.878l3.779-3.228A2.144,2.144,0,0,1,288.624,237.32Z" transform="translate(-246.653 -190.69)" fill="#f78d7c"/>
        <path id="Trazado_1172333" data-name="Trazado 1172333" d="M215.827,239.156a11.712,11.712,0,0,0,3.187-2.3V226.843H200.826V236.86a11.712,11.712,0,0,0,3.187,2.3A16.692,16.692,0,0,0,215.827,239.156Z" transform="translate(-177.043 -190.69)" fill="#f78d7c"/>
        <path id="Trazado_1172334" data-name="Trazado 1172334" d="M168.151,13.65a2.5,2.5,0,0,1-1.121-.907c-3.764-5.551-12.288-6.164-18.4-4.283-5.722,1.759-12.271,8.391-12.271,15.745V39.6H175.8V25.036a12.3,12.3,0,0,0-7.644-11.386Z" transform="translate(-123.198 -7.5)" fill="#685e68"/>
        <path id="Trazado_1172335" data-name="Trazado 1172335" d="M226.011,39.6h7.222V25.036a12.3,12.3,0,0,0-7.644-11.386,2.5,2.5,0,0,1-1.121-.907c-3.764-5.551-12.288-6.164-18.4-4.283-.31.1-.622.208-.936.331,11.072.337,24.739,7.8,20.884,29.911Z" transform="translate(-180.635 -7.5)" fill="#554e56"/>
        <g id="Grupo_1224478" data-name="Grupo 1224478" transform="translate(12.649 27.529)">
          <path id="Trazado_1172336" data-name="Trazado 1172336" d="M141.016,178.194c-.759-3.737-5.225-4.9-7.048-2.19-2.487,3.7,2.123,10.077,7.048,6.758Z" transform="translate(-133.272 -174.521)" fill="#f78d7c"/>
          <path id="Trazado_1172337" data-name="Trazado 1172337" d="M331.831,178.194c.759-3.737,5.211-4.9,7.034-2.19,2.487,3.7-2.109,10.077-7.034,6.758Z" transform="translate(-299.104 -174.521)" fill="#f78d7c"/>
        </g>
        <path id="Trazado_1172338" data-name="Trazado 1172338" d="M195.526,84.659a4.216,4.216,0,0,1,4.216,4.216v17.741c0,4.489-5.508,9.852-7.925,10.824a16.691,16.691,0,0,1-11.814,0c-2.417-.972-7.925-6.336-7.925-10.824V93.65a3.542,3.542,0,0,1,3.542-3.542h7.374a14.09,14.09,0,0,0,10.022-4.8,1.75,1.75,0,0,1,1.365-.65h1.147Z" transform="translate(-153.032 -71.941)" fill="#ffa78f"/>
        <path id="Trazado_1172339" data-name="Trazado 1172339" d="M220.246,340.046H239.47l15.548-26.93-16.032-5.525Z" transform="translate(-193.262 -258.129)" fill="#fe646f"/>
        <path id="Trazado_1172340" data-name="Trazado 1172340" d="M321.758,311.07l14.25,4.911a4.935,4.935,0,0,1,1.6.92l2.185-3.785-16.032-5.525Z" transform="translate(-278.042 -258.129)" fill="#e25269"/>
        <path id="Trazado_1172341" data-name="Trazado 1172341" d="M220.246,340.046h9.612L247,310.353l-8.015-2.762Z" transform="translate(-193.262 -258.129)" fill="#8795de"/>
        <path id="Trazado_1172342" data-name="Trazado 1172342" d="M321.758,311.07l8.015,2.762,2.008-3.478-8.015-2.762Z" transform="translate(-278.042 -258.129)" fill="#6c7fd8"/>
        <path id="Trazado_1172343" data-name="Trazado 1172343" d="M307.668,370.83c.545-3.443,3.53-3.443,4.075,0a.947.947,0,0,0,.788.788c3.443.545,3.443,3.53,0,4.075a.947.947,0,0,0-.788.788c-.545,3.443-3.53,3.443-4.075,0a.947.947,0,0,0-.788-.788c-3.443-.545-3.443-3.53,0-4.075A.947.947,0,0,0,307.668,370.83Z" transform="translate(-263.46 -308.789)" fill="#fed402"/>
      </g>
      <g id="Grupo_1224480" data-name="Grupo 1224480" transform="translate(49.025 0)">
        <path id="Trazado_1172344" data-name="Trazado 1172344" d="M113.082,55.28,94.089,48.734a.919.919,0,0,1-.62-.87V44.958c.483-.481.956-1,1.4-1.529a16.189,16.189,0,0,0,2.677-4.337,5.62,5.62,0,0,0,.9.075,5.922,5.922,0,0,0,4.618-2.333,6.373,6.373,0,0,0,1.03-6.569v-11.5a13.493,13.493,0,0,0-8.409-12.53,1.269,1.269,0,0,1-.567-.457A13.535,13.535,0,0,0,86,.331a23.318,23.318,0,0,0-10.67.68,19.684,19.684,0,0,0-8.863,6.161,17.02,17.02,0,0,0-4.28,10.767V30.266a6.372,6.372,0,0,0,1.028,6.556,5.936,5.936,0,0,0,4.633,2.345,5.645,5.645,0,0,0,.891-.073,16.194,16.194,0,0,0,2.676,4.335c.443.534.915,1.048,1.4,1.529v2.906a.919.919,0,0,1-.622.87L53.2,55.28a6.188,6.188,0,0,0-4.172,5.852V81.45a2.942,2.942,0,0,0,2.939,2.939h62.351a2.942,2.942,0,0,0,2.939-2.939V61.132A6.189,6.189,0,0,0,113.082,55.28ZM89,81.916l5.7-9.87a2.812,2.812,0,0,0,1.811.7c1.206,0,2.752-.9,3.223-3.421,2.52-.471,3.421-2.017,3.421-3.223,0-1.168-.846-2.656-3.189-3.176l4.6-7.967L110.2,56.9,95.756,81.916Zm-9.611,0L96.548,52.2l5.634,1.942L98.569,60.4a2.872,2.872,0,0,0-2.062-.937c-1.206,0-2.752.9-3.223,3.421-2.52.471-3.421,2.017-3.421,3.223s.9,2.752,3.421,3.223c.01.056.022.11.033.164L86.144,81.916Zm-5.906,0-7.64-13.643,2.641-5.688a1.962,1.962,0,0,0-.308-2.12l-2.327-2.646L67.4,53l1.875-.646,8.408,27.575-1.147,1.986H73.481Zm6.29-5.609,1.449-14.88c.069,0,.137.008.206.008,0,0,3.563,0,3.632-.008l.477,4.9ZM87.66,62.644l-.23-2.366a3.42,3.42,0,0,0,.651-1.055l.235-.605,1.038,1.094ZM86,56.174l.436.459-.657,1.7a1,1,0,0,1-.924.632H81.427a1,1,0,0,1-.924-.633l-.657-1.7.435-.459a3.559,3.559,0,0,0,1.219.216h3.278A3.559,3.559,0,0,0,86,56.174Zm-8.035,2.443.234.6a3.425,3.425,0,0,0,.651,1.055L77.74,71.654l-2.954-9.69ZM95.691,68.734a2.178,2.178,0,0,0-1.816-1.816c-1.175-.186-1.539-.664-1.539-.817s.365-.63,1.539-.817a2.178,2.178,0,0,0,1.816-1.816c.186-1.175.664-1.539.817-1.539s.63.365.817,1.539a2.178,2.178,0,0,0,1.816,1.816c1.175.186,1.539.664,1.539.817s-.365.63-1.539.817a2.178,2.178,0,0,0-1.816,1.816c-.186,1.175-.664,1.539-.817,1.539S95.877,69.909,95.691,68.734ZM94.167,51.376l-3.523,6.1L88.035,54.73l4.623-3.95a3.365,3.365,0,0,0,.627.292Zm6.975-16.1a3.57,3.57,0,0,1-2.977,1.4,7.115,7.115,0,0,0,.044-.773V30.541a2.388,2.388,0,0,1,3.439.4,3.78,3.78,0,0,1-.506,4.344ZM68.355,8.763a17.408,17.408,0,0,1,7.7-5.389,20.774,20.774,0,0,1,9.5-.611c2.358.429,5.576,1.541,7.518,4.4a3.716,3.716,0,0,0,1.677,1.359,11.03,11.03,0,0,1,6.875,10.242v9.092a4.922,4.922,0,0,0-3.415-.058V18.167a5.458,5.458,0,0,0-5.452-5.452H91.609a2.973,2.973,0,0,0-2.328,1.111,12.852,12.852,0,0,1-9.059,4.339H72.848a4.783,4.783,0,0,0-4.778,4.778V27.8a4.94,4.94,0,0,0-3.415.06V17.938a14.559,14.559,0,0,1,3.7-9.175ZM65.137,35.271a3.777,3.777,0,0,1-.506-4.335,2.391,2.391,0,0,1,3.439-.4v5.368a7.1,7.1,0,0,0,.044.774,3.587,3.587,0,0,1-2.977-1.411Zm5.6,2,0-.013a5.406,5.406,0,0,1-.187-1.351V22.943a2.308,2.308,0,0,1,2.306-2.306h7.374a15.34,15.34,0,0,0,10.985-5.261.511.511,0,0,1,.4-.188h1.147a2.983,2.983,0,0,1,2.98,2.98V35.909c0,3.859-5.077,8.844-7.15,9.678a15.38,15.38,0,0,1-10.893,0c-1.836-.738-6.023-4.73-6.96-8.314ZM76.771,47.88a17.982,17.982,0,0,0,12.736,0A8.028,8.028,0,0,0,91,47.045v.819a3.384,3.384,0,0,0,.141.962l-5.656,4.832a1.084,1.084,0,0,1-.7.259H81.5a1.084,1.084,0,0,1-.7-.259L75.14,48.827a3.384,3.384,0,0,0,.141-.962v-.819A8.03,8.03,0,0,0,76.771,47.88Zm-3.78,3.193a3.377,3.377,0,0,0,.629-.293l4.623,3.95-4.287,4.516-2.347-7.7ZM51.5,81.45V61.132A3.716,3.716,0,0,1,54,57.618l10.474-3.61-1.07,3.326a1.961,1.961,0,0,0,.393,1.9l2.3,2.614-2.611,5.624a1.965,1.965,0,0,0,.069,1.781l7.091,12.664H51.964A.467.467,0,0,1,51.5,81.45Zm63.284,0a.467.467,0,0,1-.466.466h-15.7l13.961-24.182a3.716,3.716,0,0,1,2.208,3.4Z" transform="translate(-49.025 0)"/>
        <path id="Trazado_1172345" data-name="Trazado 1172345" d="M204.538,173.514a1.236,1.236,0,0,0,1.236-1.236v-1.546a1.236,1.236,0,1,0-2.472,0v1.546A1.236,1.236,0,0,0,204.538,173.514Z" transform="translate(-177.874 -141.558)"/>
        <path id="Trazado_1172346" data-name="Trazado 1172346" d="M195.621,141.378a1.236,1.236,0,1,0,1.584-1.9,4.018,4.018,0,0,0-5.579,0,1.236,1.236,0,1,0,1.584,1.9A1.609,1.609,0,0,1,195.621,141.378Z" transform="translate(-167.751 -115.55)"/>
        <path id="Trazado_1172347" data-name="Trazado 1172347" d="M294.934,169.494a1.236,1.236,0,0,0-1.236,1.236v1.546a1.236,1.236,0,0,0,2.472,0V170.73A1.236,1.236,0,0,0,294.934,169.494Z" transform="translate(-253.37 -141.558)"/>
        <path id="Trazado_1172348" data-name="Trazado 1172348" d="M283.608,141.379a1.609,1.609,0,0,1,2.41,0,1.236,1.236,0,1,0,1.584-1.9,4.018,4.018,0,0,0-5.579,0,1.236,1.236,0,1,0,1.585,1.9Z" transform="translate(-243.249 -115.551)"/>
        <path id="Trazado_1172349" data-name="Trazado 1172349" d="M232.527,223.211a8.12,8.12,0,0,0,6.468,0,1.236,1.236,0,0,0-.952-2.281,5.656,5.656,0,0,1-4.563,0,1.236,1.236,0,0,0-.952,2.281Z" transform="translate(-201.647 -184.435)"/>
      </g>
    </g>
  </g>
</svg>
