<svg xmlns="http://www.w3.org/2000/svg" xmlns:xlink="http://www.w3.org/1999/xlink" width="113" height="113" viewBox="0 0 113 113">
  <defs>
    <filter id="Trazado_982547" x="0" y="0" width="113" height="113" filterUnits="userSpaceOnUse">
      <feOffset dy="3" input="SourceAlpha"/>
      <feGaussianBlur stdDeviation="3" result="blur"/>
      <feFlood flood-opacity="0.161"/>
      <feComposite operator="in" in2="blur"/>
      <feComposite in="SourceGraphic"/>
    </filter>
  </defs>
  <g id="Grupo_1224490" data-name="Grupo 1224490" transform="translate(-742.045 -5174.238)">
    <g id="Grupo_1223643" data-name="Grupo 1223643" transform="translate(0 4003.138)">
      <g id="Grupo_1211241" data-name="Grupo 1211241" transform="translate(-0.001 -10382)">
        <g id="Grupo_1210100" data-name="Grupo 1210100" transform="translate(0 4024.292)">
          <g id="Grupo_1208706" data-name="Grupo 1208706" transform="translate(-1.454 3213.429)">
            <g id="Grupo_1148634" data-name="Grupo 1148634" transform="translate(488.454 600.047)">
              <g id="Grupo_1148525" data-name="Grupo 1148525" transform="translate(264.046 3721.333)">
                <g transform="matrix(1, 0, 0, 1, -9, -6)" filter="url(#Trazado_982547)">
                  <g id="Trazado_982547-2" data-name="Trazado 982547" transform="translate(9 6)" fill="#f9e3d4">
                    <path d="M 47.5 93.5 C 41.28937149047852 93.5 35.26533508300781 92.28397369384766 29.59518623352051 89.88570404052734 C 24.11771965026855 87.56893157958984 19.19813346862793 84.25196075439453 14.97309303283691 80.02691650390625 C 10.74804019927979 75.80186462402344 7.431066513061523 70.88229370117188 5.114293098449707 65.40481567382812 C 2.716026782989502 59.73468017578125 1.5 53.71062850952148 1.5 47.5 C 1.5 41.28937149047852 2.716026782989502 35.26533508300781 5.114293098449707 29.59518623352051 C 7.431066513061523 24.11771965026855 10.74804019927979 19.19813346862793 14.97309303283691 14.97309303283691 C 19.19813346862793 10.74804019927979 24.11771965026855 7.431066513061523 29.59518623352051 5.114293098449707 C 35.26533508300781 2.716026782989502 41.28937149047852 1.5 47.5 1.5 C 53.71062850952148 1.5 59.73468017578125 2.716026782989502 65.40481567382812 5.114293098449707 C 70.88229370117188 7.431066513061523 75.80186462402344 10.74804019927979 80.02691650390625 14.97309303283691 C 84.25196075439453 19.19813346862793 87.56893157958984 24.11771965026855 89.88570404052734 29.59518623352051 C 92.28397369384766 35.26533508300781 93.5 41.28937149047852 93.5 47.5 C 93.5 53.71062850952148 92.28397369384766 59.73468017578125 89.88570404052734 65.40481567382812 C 87.56893157958984 70.88229370117188 84.25196075439453 75.80186462402344 80.02691650390625 80.02691650390625 C 75.80186462402344 84.25196075439453 70.88229370117188 87.56893157958984 65.40481567382812 89.88570404052734 C 59.73468017578125 92.28397369384766 53.71062850952148 93.5 47.5 93.5 Z" stroke="none"/>
                    <path d="M 47.5 3 C 41.49121475219727 3 35.66376876831055 4.176155090332031 30.17950439453125 6.495796203613281 C 24.88084411621094 8.736953735351562 20.12152099609375 11.94598388671875 16.03375244140625 16.03375244140625 C 11.94598388671875 20.12152099609375 8.736953735351562 24.88084411621094 6.495796203613281 30.17950439453125 C 4.176155090332031 35.66376876831055 3 41.49121475219727 3 47.5 C 3 53.50878524780273 4.176155090332031 59.33623123168945 6.495796203613281 64.82049560546875 C 8.736953735351562 70.11915588378906 11.94598388671875 74.87847900390625 16.03375244140625 78.96624755859375 C 20.12152099609375 83.05401611328125 24.88084411621094 86.26304626464844 30.17950439453125 88.50419616699219 C 35.66376876831055 90.82384490966797 41.49121475219727 92 47.5 92 C 53.50878524780273 92 59.33623123168945 90.82384490966797 64.82049560546875 88.50419616699219 C 70.11915588378906 86.26304626464844 74.87847900390625 83.05401611328125 78.96624755859375 78.96624755859375 C 83.05401611328125 74.87847900390625 86.26304626464844 70.11915588378906 88.50419616699219 64.82049560546875 C 90.82384490966797 59.33623123168945 92 53.50878524780273 92 47.5 C 92 41.49121475219727 90.82384490966797 35.66376876831055 88.50419616699219 30.17950439453125 C 86.26304626464844 24.88084411621094 83.05401611328125 20.12152099609375 78.96624755859375 16.03375244140625 C 74.87847900390625 11.94598388671875 70.11915588378906 8.736953735351562 64.82049560546875 6.495796203613281 C 59.33623123168945 4.176155090332031 53.50878524780273 3 47.5 3 M 47.5 0 C 73.7335205078125 0 95 21.2664794921875 95 47.5 C 95 73.7335205078125 73.7335205078125 95 47.5 95 C 21.2664794921875 95 0 73.7335205078125 0 47.5 C 0 21.2664794921875 21.2664794921875 0 47.5 0 Z" stroke="none" fill="#eca675"/>
                  </g>
                </g>
              </g>
            </g>
          </g>
        </g>
      </g>
    </g>
    <g id="alcalde_2_" data-name="alcalde (2)" transform="translate(758.905 5195.958)">
      <g id="Grupo_1224488" data-name="Grupo 1224488" transform="translate(1.161 0.801)">
        <path id="Trazado_1172351" data-name="Trazado 1172351" d="M141.638,322.876v-6.914a10.26,10.26,0,0,0-10.26-10.26h-29.5c-5.667,0-11.543,4.594-11.543,10.26v6.913Z" transform="translate(-77.508 -259.167)" fill="#26a6fe"/>
        <path id="Trazado_1172352" data-name="Trazado 1172352" d="M141.637,315.963a10.26,10.26,0,0,0-10.26-10.26h-3.559a10.26,10.26,0,0,1,10.258,10.26v6.914h3.561Z" transform="translate(-77.507 -259.168)" fill="#0593fc"/>
        <path id="Trazado_1172353" data-name="Trazado 1172353" d="M156.6,322.877v-1.783l3.983-1.991a.641.641,0,0,0,0-1.147l-3.523-1.762a.642.642,0,0,1-.335-.729l2.44-9.761h25.653l2.44,9.761a.641.641,0,0,1-.335.729l-3.523,1.762a.641.641,0,0,0,0,1.147l3.983,1.992v1.783Z" transform="translate(-133.514 -259.168)" fill="#0593fc"/>
        <g id="Grupo_1224483" data-name="Grupo 1224483" transform="translate(57.44)">
          <path id="Trazado_1172354" data-name="Trazado 1172354" d="M445.081,118.551l6.065-4.044a2.565,2.565,0,0,0,1.011-2.946l-7.076-21.229H443.3v28.218Z" transform="translate(-433.26 -77.147)" fill="#0593fc"/>
          <path id="Trazado_1172355" data-name="Trazado 1172355" d="M424.729,80.891V50.94l-1.493-9.068h-1.569V99.509h5.13V90.554Z" transform="translate(-414.976 -36.189)" fill="#eaf6ff"/>
          <path id="Trazado_1172356" data-name="Trazado 1172356" d="M435.361,43.265V41.872H431.8V99.509h3.561V85.289l-2.069-19.24Z" transform="translate(-423.54 -36.189)" fill="#d8ecfe"/>
          <path id="Trazado_1172357" data-name="Trazado 1172357" d="M386.717,131.936l1.493-23.13-1.493-8.37L378.8,121.021a5.13,5.13,0,0,0,1.584,5.848Z" transform="translate(-378.457 -85.685)" fill="#26a6fe"/>
          <path id="Trazado_1172358" data-name="Trazado 1172358" d="M431.8,58.545v31.5l3.561,2.849V50.87l-.827.565Z" transform="translate(-423.54 -43.794)" fill="#0593fc"/>
          <circle id="Elipse_14531" data-name="Elipse 14531" cx="3.848" cy="3.848" r="3.848" transform="translate(5.04 0.762) rotate(-5.682)" fill="#fff"/>
          <path id="Trazado_1172359" data-name="Trazado 1172359" d="M428.514,7.5a3.828,3.828,0,0,0-1.781.437,3.847,3.847,0,0,1,0,6.821A3.848,3.848,0,1,0,428.514,7.5Z" transform="translate(-419.258 -7.142)" fill="#eaf6ff"/>
        </g>
        <path id="Trazado_1172360" data-name="Trazado 1172360" d="M118.765,461.534H57.2v5.414a1.239,1.239,0,0,0,1.239,1.239h59.088a1.239,1.239,0,0,0,1.239-1.239Z" transform="translate(-49.504 -390.87)" fill="#596c76"/>
        <path id="Trazado_1172361" data-name="Trazado 1172361" d="M425.038,461.533v5.414a1.239,1.239,0,0,1-1.239,1.239h3.561a1.239,1.239,0,0,0,1.239-1.239v-5.414h-3.561Z" transform="translate(-359.338 -390.869)" fill="#465a61"/>
        <path id="Trazado_1172362" data-name="Trazado 1172362" d="M223.6,350.88V349.1l3.479-5.937v-1.281l-6.487-3.043-6.487,3.077v1.247l3.479,5.936v1.783Z" transform="translate(-182.116 -287.171)" fill="#d8ecfe"/>
        <path id="Trazado_1172363" data-name="Trazado 1172363" d="M57.2,461.534h61.565v5.107H57.2Z" transform="translate(-49.504 -390.87)" fill="#465a61"/>
        <g id="Grupo_1224485" data-name="Grupo 1224485" transform="translate(20.522 0.36)">
          <path id="Trazado_1172364" data-name="Trazado 1172364" d="M183.818,25.36l2.87-2.87V16.479l-6.327-8.021L174.736,7.5h-7.878a5.13,5.13,0,0,0-5.13,5.13h0a5.13,5.13,0,0,0-5.13,5.13v8.92h27.474Z" transform="translate(-154.032 -7.501)" fill="#bb5d4c"/>
          <path id="Trazado_1172365" data-name="Trazado 1172365" d="M170.815,123.467h2.565a2.565,2.565,0,0,1,2.565,2.565v5.131a2.565,2.565,0,0,1-2.565,2.565H142.6a2.565,2.565,0,0,1-2.565-2.565v-5.131a2.565,2.565,0,0,1,2.565-2.565h28.217Z" transform="translate(-140.032 -105.51)" fill="#ffdcd5"/>
          <path id="Trazado_1172366" data-name="Trazado 1172366" d="M335.958,123.467H332.4a2.565,2.565,0,0,1,2.565,2.565v5.131a2.565,2.565,0,0,1-2.565,2.565h3.561a2.565,2.565,0,0,0,2.565-2.565v-5.131A2.565,2.565,0,0,0,335.958,123.467Z" transform="translate(-302.611 -105.51)" fill="#ffc4bd"/>
          <path id="Trazado_1172367" data-name="Trazado 1172367" d="M206.3,230.346v15.936l7.7.863,7.7-.863V230.35Z" transform="translate(-196.037 -195.84)" fill="#ffdcd5"/>
          <path id="Trazado_1172368" data-name="Trazado 1172368" d="M282.7,246.69l3.561-.4V230.357H282.7Z" transform="translate(-260.607 -195.849)" fill="#ffc4bd"/>
          <path id="Trazado_1172369" data-name="Trazado 1172369" d="M198.818,72.929V70.862l-3.26-7.194H177.014l-3.848,7.194V83.189A12.825,12.825,0,0,0,190.128,95.33l.687-1.879h2.872a12.806,12.806,0,0,0,5.131-10.261l-1-5.432Z" transform="translate(-168.035 -54.971)" fill="#ffdcd5"/>
          <path id="Trazado_1172370" data-name="Trazado 1172370" d="M255.846,63.667h-.3V83.188a12.826,12.826,0,0,1-11.045,12.7,12.815,12.815,0,0,0,14.607-12.7V70.861Z" transform="translate(-228.323 -54.97)" fill="#ffc4bd"/>
          <g id="Grupo_1224484" data-name="Grupo 1224484" transform="translate(4.203 7.401)">
            <path id="Trazado_1172371" data-name="Trazado 1172371" d="M173.232,73.379a5.13,5.13,0,0,1-5.13,5.13h-.928V70.273h6.059Z" transform="translate(-167.173 -67.955)" fill="#bb5d4c"/>
            <path id="Trazado_1172372" data-name="Trazado 1172372" d="M309.833,78.412l1.623-1.623V70.273H305.7v3.106A5.132,5.132,0,0,0,309.833,78.412Z" transform="translate(-284.249 -67.955)" fill="#bb5d4c"/>
            <path id="Trazado_1172373" data-name="Trazado 1172373" d="M183.815,55.3h22.354v5.425H183.815Z" transform="translate(-181.238 -55.3)" fill="#bb5d4c"/>
          </g>
          <path id="Trazado_1172374" data-name="Trazado 1172374" d="M276.394,17.762v7.6a5.152,5.152,0,0,0,1,.1h2.565v-7.7A10.261,10.261,0,0,0,269.694,7.5h-3.561A10.261,10.261,0,0,1,276.394,17.762Z" transform="translate(-246.607 -7.501)" fill="#a44f3e"/>
        </g>
        <g id="Grupo_1224486" data-name="Grupo 1224486" transform="translate(25.652 43.969)">
          <path id="Trazado_1172375" data-name="Trazado 1172375" d="M178.3,289.134l-5.13,2.566,4.481,8.961a1.283,1.283,0,0,0,1.859.494l6.487-4.324Z" transform="translate(-173.167 -289.134)" fill="#fff"/>
          <path id="Trazado_1172376" data-name="Trazado 1172376" d="M263.7,289.134l5.13,2.566-4.481,8.961a1.283,1.283,0,0,1-1.859.494L256,296.83Z" transform="translate(-243.175 -289.134)" fill="#fff"/>
          <path id="Trazado_1172377" data-name="Trazado 1172377" d="M290.352,298.359l-4.339,8.677a1.282,1.282,0,0,1-1.853.5l2.126,1.417a1.282,1.282,0,0,0,1.859-.494l4.481-8.961Z" transform="translate(-266.974 -296.931)" fill="#eaf6ff"/>
        </g>
        <path id="Trazado_1172378" data-name="Trazado 1172378" d="M78.9,239.435H76.331a2.565,2.565,0,1,0,0,5.131H78.9a2.565,2.565,0,1,0,0-5.131Z" transform="translate(-63.505 -203.161)" fill="#596c76"/>
        <path id="Trazado_1172379" data-name="Trazado 1172379" d="M29.2,379.663h-5.13v-6.457a1.239,1.239,0,0,1,1.239-1.239h2.653a1.239,1.239,0,0,1,1.239,1.239Z" transform="translate(-21.502 -315.172)" fill="#596c76"/>
        <path id="Trazado_1172380" data-name="Trazado 1172380" d="M90.179,239.435H87.614a2.578,2.578,0,0,0-.5.049,2.565,2.565,0,0,1,0,5.032,2.575,2.575,0,0,0,.5.049h2.565a2.565,2.565,0,1,0,0-5.131Z" transform="translate(-74.788 -203.161)" fill="#465a61"/>
        <path id="Trazado_1172381" data-name="Trazado 1172381" d="M32.241,371.967H29.588a1.233,1.233,0,0,0-.454.087,1.238,1.238,0,0,1,.785,1.152v6.457H33.48v-6.457A1.239,1.239,0,0,0,32.241,371.967Z" transform="translate(-25.784 -315.172)" fill="#465a61"/>
        <g id="Grupo_1224487" data-name="Grupo 1224487" transform="translate(0 61.926)">
          <path id="Trazado_1172382" data-name="Trazado 1172382" d="M113.635,433.234H62.33L57.2,436.38l5.13,2.759h51.3l5.13-3.146Z" transform="translate(-49.504 -428.878)" fill="#596c76"/>
          <path id="Trazado_1172383" data-name="Trazado 1172383" d="M398.667,433.234v5.9h3.561l5.13-3.146-5.13-2.759Z" transform="translate(-338.098 -428.878)" fill="#465a61"/>
          <path id="Trazado_1172384" data-name="Trazado 1172384" d="M65.892,433.234H62.33L57.2,436.38l5.13,2.759h3.561Z" transform="translate(-49.504 -428.878)" fill="#465a61"/>
          <path id="Trazado_1172385" data-name="Trazado 1172385" d="M429.449,439.139h-7.783v-5.9h10.261v3.427A2.477,2.477,0,0,1,429.449,439.139Z" transform="translate(-357.535 -428.878)" fill="#8d9ca8"/>
          <path id="Trazado_1172386" data-name="Trazado 1172386" d="M451.41,433.234v3.427a2.477,2.477,0,0,1-2.477,2.478h3.561a2.477,2.477,0,0,0,2.478-2.478v-3.427Z" transform="translate(-380.58 -428.878)" fill="#596c76"/>
          <path id="Trazado_1172387" data-name="Trazado 1172387" d="M34.328,439.139H26.544a2.478,2.478,0,0,1-2.477-2.478v-3.427H34.328v5.9Z" transform="translate(-21.502 -428.878)" fill="#8d9ca8"/>
          <path id="Trazado_1172388" data-name="Trazado 1172388" d="M83.218,410.231H8.739A1.239,1.239,0,0,1,7.5,408.993V406.34A1.239,1.239,0,0,1,8.739,405.1H83.218a1.239,1.239,0,0,1,1.239,1.239v2.653A1.239,1.239,0,0,1,83.218,410.231Z" transform="translate(-7.5 -405.101)" fill="#eaf6ff"/>
          <path id="Trazado_1172389" data-name="Trazado 1172389" d="M477.061,405.1H473.5a1.239,1.239,0,0,1,1.239,1.239v2.653a1.239,1.239,0,0,1-1.239,1.239h3.561a1.239,1.239,0,0,0,1.239-1.239V406.34A1.239,1.239,0,0,0,477.061,405.1Z" transform="translate(-401.343 -405.101)" fill="#d8ecfe"/>
        </g>
      </g>
      <g id="Grupo_1224489" data-name="Grupo 1224489" transform="translate(0 0)">
        <path id="Trazado_1172390" data-name="Trazado 1172390" d="M216.53,152.7a1.161,1.161,0,0,0,1.161-1.161v-1.283a1.161,1.161,0,1,0-2.323,0v1.283A1.161,1.161,0,0,0,216.53,152.7Z" transform="translate(-182.021 -126.011)"/>
        <path id="Trazado_1172391" data-name="Trazado 1172391" d="M282.8,152.7a1.161,1.161,0,0,0,1.161-1.161v-1.283a1.161,1.161,0,1,0-2.323,0v1.283A1.161,1.161,0,0,0,282.8,152.7Z" transform="translate(-238.027 -126.011)"/>
        <path id="Trazado_1172392" data-name="Trazado 1172392" d="M237.541,194.121a3.741,3.741,0,0,0,3.226-1.862,1.161,1.161,0,1,0-2.009-1.165,1.4,1.4,0,0,1-2.432,0,1.161,1.161,0,1,0-2.01,1.165,3.741,3.741,0,0,0,3.226,1.862Z" transform="translate(-197.901 -161.015)"/>
        <path id="Trazado_1172393" data-name="Trazado 1172393" d="M76.88,61.566h-5.3V42.827l5.548-3.7A3.735,3.735,0,0,0,78.6,34.849L71.584,13.8V8.353a5.009,5.009,0,1,0-7.453,0V19.416L60.952,27.68a1.161,1.161,0,1,0,2.168.834l6.141-15.967V47.485l-8.008-6.407a3.955,3.955,0,0,1-1.225-4.524l1.087-2.827a1.161,1.161,0,0,0-2.168-.834L57.86,35.72A6.269,6.269,0,0,0,59.8,42.892l4.329,3.463V50.7a11.409,11.409,0,0,0-9.1-4.528H52.74L48.5,44.053V40.2a13.974,13.974,0,0,0,5.082-9.657h1.452a3.731,3.731,0,0,0,3.727-3.727v-5.13a3.733,3.733,0,0,0-2.565-3.54v-6.72A11.435,11.435,0,0,0,44.77,0H34.51a6.3,6.3,0,0,0-6.2,5.223,6.3,6.3,0,0,0-5.223,6.2v6.721a3.732,3.732,0,0,0-2.565,3.54v5.13a3.731,3.731,0,0,0,3.727,3.727H25.7A13.975,13.975,0,0,0,30.783,40.2v3.856l-4.243,2.122H25.531a13.584,13.584,0,0,0-8.65,3.283A10.728,10.728,0,0,0,12.826,57.6v3.969H10.018v-2.73a2.4,2.4,0,0,0-2.4-2.4H7.453V48.889a3.957,3.957,0,0,1,.667-2.2l3.064-4.6a3.718,3.718,0,0,0,2.8,1.276h2.565a3.726,3.726,0,1,0,0-7.453H13.988A3.732,3.732,0,0,0,10.28,39.26L6.187,45.4a6.272,6.272,0,0,0-1.057,3.49v7.546H4.966a2.4,2.4,0,0,0-2.4,2.4v2.73H2.4a2.4,2.4,0,0,0-2.4,2.4v2.653a2.4,2.4,0,0,0,2.4,2.4h.165v1.492A3.643,3.643,0,0,0,6.2,74.149H7.7v2.73a2.4,2.4,0,0,0,2.4,2.4h4.06a1.161,1.161,0,0,0,0-2.323H10.1a.077.077,0,0,1-.077-.077v-2.73H69.261v2.73a.078.078,0,0,1-.077.077H19.575a1.161,1.161,0,0,0,0,2.323H69.184a2.4,2.4,0,0,0,2.4-2.4v-2.73h1.492a3.643,3.643,0,0,0,3.639-3.639V69.019h.165a2.4,2.4,0,0,0,2.4-2.4V63.966a2.4,2.4,0,0,0-2.4-2.4ZM13.988,38.236h2.565a1.4,1.4,0,1,1,0,2.808H13.988a1.4,1.4,0,1,1,0-2.808ZM76.4,35.583a1.407,1.407,0,0,1-.553,1.612l-4.26,2.84V21.144Zm-8.54-33.26A2.687,2.687,0,1,1,65.171,5.01a2.69,2.69,0,0,1,2.687-2.687Zm-1.4,7.494a4.99,4.99,0,0,0,1.293.2l-1.293,3.361Zm2.808,40.642V61.566H66.453V48.213ZM64.131,57.6v3.969H55.305l-2.808-1.4,2.593-1.3a1.792,1.792,0,0,0,.943-2.049L53.954,48.5h1.078a9.11,9.11,0,0,1,9.1,9.1ZM37.3,61.566l-2.589-4.417,4.931-3.287,4.931,3.287-2.589,4.417Zm-8.547-3.016L25.6,56.974l1.578-6.311,3.077,6.153a2.443,2.443,0,0,0,2.185,1.351c.057,0,.113,0,.169-.006l2,3.4H29.077a1.8,1.8,0,0,0-.325-3.016Zm17.918-.389c.056,0,.113.006.169.006a2.443,2.443,0,0,0,2.185-1.351L52.1,50.663l1.578,6.311-3.15,1.575a1.8,1.8,0,0,0-.325,3.016H44.674Zm.277-2.383a.121.121,0,0,1-.176.047l-5.308-3.538,6.1-6.1,3.343,1.672Zm9.489-28.964a1.405,1.405,0,0,1-1.4,1.4h-1.4V20.279h1.4a1.405,1.405,0,0,1,1.4,1.4ZM29.377,7.453h0a1.161,1.161,0,0,0,1.161-1.161A3.974,3.974,0,0,1,34.51,2.323H44.77a9.11,9.11,0,0,1,9.1,9.1v6.534H52.463a3.976,3.976,0,0,1-3.793-2.81,1.161,1.161,0,0,0-.052-2.32H30.662a1.161,1.161,0,0,0-.051,2.32,3.976,3.976,0,0,1-3.794,2.81H25.41V11.422a3.973,3.973,0,0,1,3.967-3.969Zm-6.532,19.36v-5.13a1.405,1.405,0,0,1,1.4-1.4h1.4v7.938h-1.4a1.406,1.406,0,0,1-1.4-1.4Zm5.131,2.566V20.17A6.307,6.307,0,0,0,33,15.149H46.284A6.307,6.307,0,0,0,51.3,20.17v9.209h0a11.665,11.665,0,1,1-23.329,0ZM39.64,43.366a13.9,13.9,0,0,0,6.534-1.623v2.546L39.64,50.824l-6.535-6.535V41.743a13.9,13.9,0,0,0,6.535,1.624Zm-7.925,2.817,6.1,6.1-5.308,3.538a.121.121,0,0,1-.176-.047l-3.961-7.922ZM15.149,57.6c0-5.051,5.422-8.983,10.176-9.094l-2.078,8.313a1.792,1.792,0,0,0,.943,2.049l2.593,1.3-2.808,1.4H15.149ZM4.888,58.835a.077.077,0,0,1,.077-.077H7.618a.077.077,0,0,1,.077.077v2.73H4.888ZM6.2,71.826A1.318,1.318,0,0,1,4.888,70.51V69.019h7.938v2.808Zm57.927-2.808v2.808H15.149V69.019ZM74.392,70.51a1.318,1.318,0,0,1-1.316,1.316H66.453V69.019h7.938Zm2.565-3.892a.078.078,0,0,1-.077.077H2.4a.077.077,0,0,1-.077-.077V63.966a.077.077,0,0,1,.077-.077H76.88a.078.078,0,0,1,.077.077Z" transform="translate(0 0)"/>
      </g>
    </g>
  </g>
</svg>
