<svg xmlns="http://www.w3.org/2000/svg" width="85.658" height="86" viewBox="0 0 85.658 86">
  <g id="Grupo_1223909" data-name="Grupo 1223909" transform="translate(-179.342 -894)">
    <g id="Grupo_1215635" data-name="Grupo 1215635" transform="translate(10.378 -802.842)">
      <g id="Grupo_1210476" data-name="Grupo 1210476" transform="translate(168.964 1696.842)">
        <g id="Grupo_1210475" data-name="Grupo 1210475" transform="translate(0)">
          <g id="Grupo_1209741" data-name="Grupo 1209741" transform="translate(0)">
            <g id="Grupo_1178144" data-name="Grupo 1178144">
              <g id="Grupo_1177896" data-name="Grupo 1177896">
                <g id="Grupo_1176881" data-name="Grupo 1176881">
                  <g id="Grupo_1175148" data-name="Grupo 1175148">
                    <g id="Grupo_1173798" data-name="Grupo 1173798">
                      <g id="Grupo_1171925" data-name="Grupo 1171925">
                        <g id="Grupo_1164524" data-name="Grupo 1164524">
                          <g id="Grupo_1144123" data-name="Grupo 1144123">
                            <g id="Trazado_978624" data-name="Trazado 978624">
                              <path id="Trazado_1162090" data-name="Trazado 1162090" d="M42.967,84.434A41.478,41.478,0,0,1,26.826,4.758,41.478,41.478,0,0,1,59.107,81.176,41.206,41.206,0,0,1,42.967,84.434Z" transform="translate(-0.138 -0.138)" fill="#cfd7c8"/>
                              <path id="Trazado_1162091" data-name="Trazado 1162091" d="M42.829,2.725A40.116,40.116,0,0,0,27.22,79.783,40.116,40.116,0,0,0,58.439,5.875a39.851,39.851,0,0,0-15.61-3.151m0-2.725A42.829,42.829,0,1,1,0,42.829,42.829,42.829,0,0,1,42.829,0Z" fill="#899e78"/>
                            </g>
                          </g>
                        </g>
                      </g>
                    </g>
                  </g>
                </g>
              </g>
            </g>
          </g>
        </g>
      </g>
    </g>
    <g id="juez_3_" data-name="juez (3)" transform="translate(186.146 907.758)">
      <path id="Trazado_1170751" data-name="Trazado 1170751" d="M47,12.464h4.6V22H47Z" transform="translate(6.261 1.709)" fill="#955a21"/>
      <path id="Trazado_1170752" data-name="Trazado 1170752" d="M14.063,45.784a4.063,4.063,0,0,1-2.873-6.936L20.342,29.7l11.491-2.3V24.326h6.894V27.4l11.491,2.3,4.6,16.087Z" transform="translate(0.745 3.477)" fill="#5a5b5d"/>
      <path id="Trazado_1170753" data-name="Trazado 1170753" d="M46.28,28.429,45.024,13.991l-.246-2.831A10.027,10.027,0,0,0,34.789,2h-2.3A10.025,10.025,0,0,0,22.5,11.158l-.246,2.833L21,28.429Z" transform="translate(2.385 0.149)" fill="#955a21"/>
      <path id="Trazado_1170754" data-name="Trazado 1170754" d="M44.576,13.991l-.246-2.831A10.027,10.027,0,0,0,34.342,2h-2.3a10,10,0,0,0-3.691.7A9.982,9.982,0,0,0,25.5,8.859l-.246,2.834L24,26.13H45.632Z" transform="translate(2.832 0.149)" fill="#ab692a"/>
      <path id="Trazado_1170755" data-name="Trazado 1170755" d="M41.087,19.342a8.043,8.043,0,0,1-16.087,0V11.3h4.154A32.136,32.136,0,0,0,41.086,9Z" transform="translate(2.981 1.193)" fill="#deb2ae"/>
      <path id="Trazado_1170756" data-name="Trazado 1170756" d="M25.6,12H23.873a2.873,2.873,0,0,0,0,5.745H25.6" transform="translate(2.385 1.64)" fill="#deb2ae"/>
      <path id="Trazado_1170757" data-name="Trazado 1170757" d="M39,12h1.724a2.873,2.873,0,0,1,0,5.745H39" transform="translate(5.068 1.64)" fill="#deb2ae"/>
      <path id="Trazado_1170758" data-name="Trazado 1170758" d="M8,47H63.155V65.385H8Z" transform="translate(0.447 6.857)" fill="#ab692a"/>
      <g id="Grupo_1223908" data-name="Grupo 1223908" transform="translate(8.447 57.304)">
        <path id="Trazado_1170759" data-name="Trazado 1170759" d="M8,50H63.155v2.3H8Z" transform="translate(-8 -50)" fill="#b4b5b9"/>
        <path id="Trazado_1170760" data-name="Trazado 1170760" d="M26,64.193V55H39.789v9.193" transform="translate(-5.317 -49.255)" fill="#b4b5b9"/>
        <path id="Trazado_1170761" data-name="Trazado 1170761" d="M12,64.193V55H23.491v9.193" transform="translate(-7.404 -49.255)" fill="#b4b5b9"/>
        <path id="Trazado_1170762" data-name="Trazado 1170762" d="M42,64.193V55H53.491v9.193" transform="translate(-2.932 -49.255)" fill="#b4b5b9"/>
      </g>
      <path id="Trazado_1170763" data-name="Trazado 1170763" d="M54.193,40.938V26H45V40.938a4.6,4.6,0,1,0,9.193,0Z" transform="translate(5.963 3.727)" fill="#424344"/>
      <path id="Trazado_1170764" data-name="Trazado 1170764" d="M46,26.894V23.447a3.447,3.447,0,1,1,6.894,0v3.447" transform="translate(6.112 2.832)" fill="#fbe2d9"/>
      <path id="Trazado_1170765" data-name="Trazado 1170765" d="M38.491,44.7,36.6,31.6H28.889L27,44.7Z" transform="translate(3.28 4.562)" fill="#dcdddf"/>
      <ellipse id="Elipse_14529" data-name="Elipse 14529" cx="4.734" cy="4.261" rx="4.734" ry="4.261" transform="translate(50.953 5.961)" fill="#dc8039"/>
      <circle id="Elipse_14530" data-name="Elipse 14530" cx="2.367" cy="2.367" r="2.367" transform="translate(52.847 7.855)" fill="#955a21"/>
      <path id="Trazado_1170766" data-name="Trazado 1170766" d="M30.148,27,33.6,33.893,21.3,28.771" transform="translate(2.429 3.876)" fill="#b4b5b9"/>
      <path id="Trazado_1170767" data-name="Trazado 1170767" d="M35.447,27,32,33.893l12.3-5.123" transform="translate(4.025 3.876)" fill="#b4b5b9"/>
      <path id="Trazado_1170768" data-name="Trazado 1170768" d="M25,12.3v6.894a8.043,8.043,0,1,0,16.087,0V10a32.137,32.137,0,0,1-11.933,2.3Z" transform="translate(2.981 1.342)" fill="#fbe2d9"/>
      <path id="Trazado_1170769" data-name="Trazado 1170769" d="M35.894,24.32V27.4l-3.447,6.894L29,27.4V24.32A8,8,0,0,0,35.894,24.32Z" transform="translate(3.578 3.476)" fill="#deb2ae"/>
      <path id="Trazado_1170770" data-name="Trazado 1170770" d="M29,26.386v.706l3.447,6.894,3.447-6.894v-.706a8.774,8.774,0,0,1-6.894,0Z" transform="translate(3.578 3.784)" fill="#fbe2d9"/>
      <path id="Trazado_1170771" data-name="Trazado 1170771" d="M23,37h2.3a3.447,3.447,0,0,1,0,6.894H23" transform="translate(2.683 5.367)" fill="#fbe2d9"/>
      <path id="Trazado_1170772" data-name="Trazado 1170772" d="M25.043,44.193h-2.3V37.3H17V35h6.894a1.149,1.149,0,0,1,1.149,1.149Z" transform="translate(1.789 5.068)" fill="#77787c"/>
      <path id="Trazado_1170773" data-name="Trazado 1170773" d="M6,43H65.752v4.6H6Z" transform="translate(0.149 6.261)" fill="#955a21"/>
      <path id="Trazado_1170774" data-name="Trazado 1170774" d="M10.3,45.3H65.453V43H8A2.3,2.3,0,0,0,10.3,45.3Z" transform="translate(0.447 6.261)" fill="#ab692a"/>
      <path id="Trazado_1170775" data-name="Trazado 1170775" d="M6,43H65.752v4.6H6Z" transform="translate(0.149 6.261)" fill="#955a21"/>
      <path id="Trazado_1170776" data-name="Trazado 1170776" d="M13,55H23.342v8.043H13Z" transform="translate(1.193 8.05)" fill="#dcdddf"/>
      <path id="Trazado_1170777" data-name="Trazado 1170777" d="M27,55H39.64v8.043H27Z" transform="translate(3.28 8.05)" fill="#dcdddf"/>
      <path id="Trazado_1170778" data-name="Trazado 1170778" d="M43,55H53.342v8.043H43Z" transform="translate(5.665 8.05)" fill="#dcdddf"/>
      <path id="Trazado_1170779" data-name="Trazado 1170779" d="M64.752,72.242V55.006H65.9a1.149,1.149,0,0,0,1.149-1.149v-4.6A1.149,1.149,0,0,0,65.9,48.112H60.125A5.686,5.686,0,0,0,61.3,44.665V29.727a1.149,1.149,0,0,0-1.149-1.149v-2.3a4.554,4.554,0,0,0-1.149-3.011v-8.51a5.745,5.745,0,1,0-6.894,0v8.513a4.553,4.553,0,0,0-1.149,3.007v2.3a1.149,1.149,0,0,0-1.149,1.149v2.045l-9.193-1.839v-.207h8.043a1.149,1.149,0,0,0,1.149-1.249l-.83-9.537a3.962,3.962,0,0,0-.467-5.367l-.206-2.361A11.114,11.114,0,0,0,37.174,1h-2.3A11.11,11.11,0,0,0,23.744,11.206l-.206,2.364a3.962,3.962,0,0,0-.467,5.367l-.835,9.541a1.149,1.149,0,0,0,1.149,1.249h8.043v.208L20.857,32.048a1.149,1.149,0,0,0-.587.314l-9.151,9.152a5.205,5.205,0,0,0-.63,6.6H6.149A1.149,1.149,0,0,0,5,49.261v4.6a1.149,1.149,0,0,0,1.149,1.149H7.3V72.242H9.6V59.6H62.453v12.64ZM52.112,44.665V30.876h6.894V44.665a3.447,3.447,0,0,1-6.894,0ZM55.559,6.745a3.447,3.447,0,1,1-3.447,3.447A3.447,3.447,0,0,1,55.559,6.745Zm0,9.193a5.745,5.745,0,0,0,1.149-.115v6.025a4.605,4.605,0,0,0-1.149-.164,4.51,4.51,0,0,0-1.149.163V15.823A5.745,5.745,0,0,0,55.559,15.938Zm-2.3,10.342a2.3,2.3,0,1,1,4.6,0v2.3h-4.6ZM50.993,48.112H42.765l-1.62-11.231,7.3-3.039,1.379.275V44.665A5.686,5.686,0,0,0,50.993,48.112Zm-24.16-4.6h1.149a2.3,2.3,0,0,1,0,4.6H26.832Zm5.745,2.3A4.561,4.561,0,0,0,32.2,44l.9-6.2,2.475,1.034h.009a1.132,1.132,0,0,0,.888,0h.009L38.952,37.8l1.494,10.319h-8.5a4.549,4.549,0,0,0,.635-2.3Zm3.447-18.385a6.9,6.9,0,0,1-6.894-6.894V13.64h3a33.117,33.117,0,0,0,10.784-1.795v8.689A6.9,6.9,0,0,1,36.025,27.429Zm0,2.3a9.138,9.138,0,0,0,2.3-.3V30.6l-2.3,4.6-2.3-4.6v-1.18a9.139,9.139,0,0,0,2.3.3ZM44.4,33.034,38.438,35.52l1.673-3.346Zm-2.318-5.605a9.165,9.165,0,0,0,3.132-6.894h.575a3.945,3.945,0,0,0,1.008-.144l.611,7.038Zm3.132-12.64h.575a1.724,1.724,0,1,1,0,3.447h-.575ZM26.028,11.406A8.827,8.827,0,0,1,34.876,3.3h2.3a8.829,8.829,0,0,1,8.848,8.11l.1,1.115c-.111-.008-.211-.032-.326-.032h-.575v-2.3a1.149,1.149,0,0,0-1.577-1.067,30.805,30.805,0,0,1-11.506,2.217H27.981a1.149,1.149,0,0,0-1.149,1.149h-.575c-.115,0-.215.024-.323.032Zm.8,6.83h-.575a1.724,1.724,0,0,1,0-3.447h.575ZM25.25,20.391a3.945,3.945,0,0,0,1.008.144h.575a9.165,9.165,0,0,0,3.132,6.894H24.639Zm6.692,11.784,1.67,3.346-5.969-2.487ZM11.894,45.2a2.9,2.9,0,0,1,.854-2.06l8.905-8.906,1.953-.391,7.3,3.039-.711,4.93a4.534,4.534,0,0,0-2.21-.593H26.832a1.149,1.149,0,0,0-1.149-1.149H18.789v2.3h5.745v5.745H14.808A2.917,2.917,0,0,1,11.894,45.2ZM7.3,50.41H64.752v2.3H7.3ZM9.6,57.3v-2.3H62.453v2.3Z" transform="translate(0 0)"/>
      <path id="Trazado_1170780" data-name="Trazado 1170780" d="M41.087,64.342V55.149A1.149,1.149,0,0,0,39.938,54H26.149A1.149,1.149,0,0,0,25,55.149v9.193h2.3V56.3H38.789v8.043Z" transform="translate(2.981 7.901)"/>
      <path id="Trazado_1170781" data-name="Trazado 1170781" d="M24.789,64.342V55.149A1.149,1.149,0,0,0,23.64,54H12.149A1.149,1.149,0,0,0,11,55.149v9.193h2.3V56.3h9.193v8.043Z" transform="translate(0.894 7.901)"/>
      <path id="Trazado_1170782" data-name="Trazado 1170782" d="M54.789,64.342V55.149A1.149,1.149,0,0,0,53.64,54H42.149A1.149,1.149,0,0,0,41,55.149v9.193h2.3V56.3h9.193v8.043Z" transform="translate(5.367 7.901)"/>
    </g>
  </g>
</svg>
