<svg xmlns="http://www.w3.org/2000/svg" width="610" height="448.624" viewBox="0 0 610 448.624">
  <g id="Grupo_1223783" data-name="Grupo 1223783" transform="translate(-495 -382)">
    <g id="OBJECTS" transform="translate(466.51 278.577)">
      <g id="Grupo_1223766" data-name="Grupo 1223766" transform="translate(28.49 103.423)">
        <g id="Grupo_1223736" data-name="Grupo 1223736" transform="translate(0 111.039)">
          <rect id="Rectángulo_421611" data-name="Rectángulo 421611" width="191.382" height="89.386" transform="translate(0 248.199)" fill="#ffa761"/>
          <path id="Trazado_1170303" data-name="Trazado 1170303" d="M290.194,283.005H169.447L28.49,310.13H219.872Z" transform="translate(-28.49 -61.931)" fill="#cf874f"/>
          <path id="Trazado_1170304" data-name="Trazado 1170304" d="M225.108,339.955H104.7V276.25a60.2,60.2,0,0,1,60.2-60.2h0a60.2,60.2,0,0,1,60.2,60.2v63.705Z" transform="translate(36.243 -118.803)" fill="#ffa761"/>
          <text id="_1" data-name="1" transform="translate(171.439 97)" fill="#ffa761" font-size="93" font-family="Roboto-Bold, Roboto" font-weight="700"><tspan x="0" y="0">1</tspan></text>
        </g>
        <g id="Grupo_1223743" data-name="Grupo 1223743" transform="translate(418.618)">
          <rect id="Rectángulo_421614" data-name="Rectángulo 421614" width="191.382" height="89.386" transform="translate(0 359.238)" fill="#ffd146"/>
          <path id="Trazado_1170311" data-name="Trazado 1170311" d="M375.7,283.005H254.951l-.1,27.125H446.229Z" transform="translate(-254.847 49.108)" fill="#cfa939"/>
          <path id="Trazado_1170312" data-name="Trazado 1170312" d="M375.3,390.917H254.891V216.25a60.2,60.2,0,0,1,60.2-60.2h0a60.2,60.2,0,0,1,60.2,60.2Z" transform="translate(-254.81 -58.726)" fill="#ffd146"/>
          <text id="_3" data-name="3" transform="translate(31.614 97)" fill="#ffd146" font-size="93" font-family="Roboto-Bold, Roboto" font-weight="700"><tspan x="0" y="0">3</tspan></text>
        </g>
        <g id="Grupo_1223752" data-name="Grupo 1223752" transform="translate(209.31 55.25)">
          <rect id="Rectángulo_421619" data-name="Rectángulo 421619" width="191.382" height="89.386" transform="translate(0 303.988)" fill="#00bbbd"/>
          <path id="Trazado_1170326" data-name="Trazado 1170326" d="M332.946,283.005H212.2L141.669,310.13h191.38Z" transform="translate(-141.669 -6.142)" fill="#008b8d"/>
          <path id="Trazado_1170327" data-name="Trazado 1170327" d="M300.421,365.436H180.016V246.25a60.2,60.2,0,0,1,60.2-60.2h0a60.2,60.2,0,0,1,60.2,60.2V365.436Z" transform="translate(-109.098 -88.495)" fill="#00bbbd"/>
          <text id="_2" data-name="2" transform="translate(102.681 97)" fill="#00bbbd" font-size="93" font-family="Roboto-Bold, Roboto" font-weight="700"><tspan x="0" y="0">2</tspan></text>
        </g>
      </g>
    </g>
    <path id="Trazado_1178818" data-name="Trazado 1178818" d="M18.834,19H11.328V6.4h2.839V16.7h4.667Zm9.512-3.709H22.474q.141,1.96,2.47,1.96a4.822,4.822,0,0,0,2.61-.7v2a6.858,6.858,0,0,1-3.243.668,4.565,4.565,0,0,1-3.384-1.208,4.566,4.566,0,0,1-1.2-3.371,4.816,4.816,0,0,1,1.3-3.551,4.334,4.334,0,0,1,3.2-1.31,3.933,3.933,0,0,1,3.045,1.169,4.5,4.5,0,0,1,1.077,3.173ZM25.77,13.586q0-1.934-1.564-1.934a1.494,1.494,0,0,0-1.156.554,2.513,2.513,0,0,0-.593,1.38Zm13.054,4.386a5.092,5.092,0,0,1-1.45,3.88,5.877,5.877,0,0,1-4.2,1.375,6.659,6.659,0,0,1-2.883-.519V20.371a5.521,5.521,0,0,0,2.8.809,3.02,3.02,0,0,0,2.18-.743,2.665,2.665,0,0,0,.773-2.017v-.712h-.035a3.1,3.1,0,0,1-2.8,1.512,3.372,3.372,0,0,1-2.733-1.213,4.919,4.919,0,0,1-1.011-3.252,5.478,5.478,0,0,1,1.125-3.63A3.673,3.673,0,0,1,33.55,9.78a2.733,2.733,0,0,1,2.461,1.266h.035V10h2.777Zm-2.742-3.3v-.712a2.188,2.188,0,0,0-.505-1.455,1.635,1.635,0,0,0-1.314-.6,1.7,1.7,0,0,0-1.45.721,3.389,3.389,0,0,0-.527,2.03,2.86,2.86,0,0,0,.5,1.78,1.633,1.633,0,0,0,1.371.655,1.7,1.7,0,0,0,1.393-.664A2.721,2.721,0,0,0,36.082,14.676Zm6.471-6.1A1.622,1.622,0,0,1,41.4,8.159a1.345,1.345,0,0,1-.448-1.024,1.3,1.3,0,0,1,.448-1.02,1.88,1.88,0,0,1,2.307,0,1.3,1.3,0,0,1,.444,1.02,1.34,1.34,0,0,1-.444,1.037A1.65,1.65,0,0,1,42.552,8.576ZM43.923,19H41.146V10h2.777Zm1.751-.237v-2.25a5.913,5.913,0,0,0,1.367.615,4.531,4.531,0,0,0,1.288.2,2.762,2.762,0,0,0,1.165-.2.653.653,0,0,0,.426-.615.569.569,0,0,0-.193-.439,1.8,1.8,0,0,0-.5-.308,5.635,5.635,0,0,0-.664-.237q-.36-.105-.694-.237a6.653,6.653,0,0,1-.945-.435,2.731,2.731,0,0,1-.686-.541,2.125,2.125,0,0,1-.422-.712,2.841,2.841,0,0,1-.145-.958,2.466,2.466,0,0,1,.33-1.3,2.692,2.692,0,0,1,.879-.892,4.016,4.016,0,0,1,1.257-.51,6.553,6.553,0,0,1,1.472-.163,8.168,8.168,0,0,1,1.213.092,9.053,9.053,0,0,1,1.213.268v2.145a4.383,4.383,0,0,0-1.129-.461,4.764,4.764,0,0,0-1.182-.154,2.619,2.619,0,0,0-.514.048,1.693,1.693,0,0,0-.426.141.783.783,0,0,0-.29.237.546.546,0,0,0-.105.33.609.609,0,0,0,.158.422,1.374,1.374,0,0,0,.413.3,4.078,4.078,0,0,0,.567.229q.312.1.62.207a8.056,8.056,0,0,1,1,.422,3.2,3.2,0,0,1,.769.536,2.105,2.105,0,0,1,.492.721,2.884,2.884,0,0,1-.176,2.351,2.78,2.78,0,0,1-.923.923,4.185,4.185,0,0,1-1.327.519,7.357,7.357,0,0,1-1.56.163A8.042,8.042,0,0,1,45.674,18.763ZM56.961,19H54.184V5.676h2.777Zm9.828,0H64.161V17.708h-.035a2.933,2.933,0,0,1-2.681,1.512,2.8,2.8,0,0,1-2.061-.743,2.661,2.661,0,0,1-.751-1.982q0-2.619,3.1-3.023l2.443-.325q0-1.477-1.6-1.477a5.46,5.46,0,0,0-3.059.958V10.536a6.881,6.881,0,0,1,1.586-.527,8.339,8.339,0,0,1,1.833-.229q3.85,0,3.85,3.841Zm-2.61-3.656v-.606l-1.635.211q-1.354.176-1.354,1.222a1.01,1.01,0,0,0,.33.778,1.266,1.266,0,0,0,.892.3,1.644,1.644,0,0,0,1.274-.541A1.952,1.952,0,0,0,64.179,15.344Zm10.25,3.551a4.105,4.105,0,0,1-1.854.325q-2.936,0-2.936-3.05V12.048H68.179V10h1.459V8.058l2.769-.791V10h2.021v2.048H72.407v3.639q0,1.406,1.116,1.406a1.882,1.882,0,0,0,.905-.255ZM77.4,8.576a1.622,1.622,0,0,1-1.151-.417A1.345,1.345,0,0,1,75.8,7.135a1.3,1.3,0,0,1,.448-1.02,1.88,1.88,0,0,1,2.307,0A1.3,1.3,0,0,1,79,7.135a1.34,1.34,0,0,1-.444,1.037A1.65,1.65,0,0,1,77.4,8.576ZM78.772,19H75.995V10h2.777Zm10.909-9-3.349,9H83.168l-3.19-9h2.971l1.564,5.546a8.1,8.1,0,0,1,.308,1.6h.035a9.078,9.078,0,0,1,.325-1.547l1.6-5.6Zm8.4,9H95.457V17.708h-.035a2.933,2.933,0,0,1-2.681,1.512,2.8,2.8,0,0,1-2.061-.743,2.661,2.661,0,0,1-.751-1.982q0-2.619,3.1-3.023l2.443-.325q0-1.477-1.6-1.477a5.46,5.46,0,0,0-3.059.958V10.536a6.881,6.881,0,0,1,1.586-.527,8.339,8.339,0,0,1,1.833-.229q3.85,0,3.85,3.841Zm-2.61-3.656v-.606l-1.635.211q-1.354.176-1.354,1.222a1.01,1.01,0,0,0,.33.778,1.266,1.266,0,0,0,.892.3,1.644,1.644,0,0,0,1.274-.541A1.952,1.952,0,0,0,95.475,15.344Z" transform="translate(533.267 776.671)" fill="#0b0a0a"/>
    <path id="Trazado_1178819" data-name="Trazado 1178819" d="M25.867,19H18.308V6.4h7.269V8.708h-4.43v2.8h4.122v2.3H21.147V16.7h4.72ZM29.024,8.576a1.622,1.622,0,0,1-1.151-.417,1.345,1.345,0,0,1-.448-1.024,1.3,1.3,0,0,1,.448-1.02,1.88,1.88,0,0,1,2.307,0,1.3,1.3,0,0,1,.444,1.02,1.34,1.34,0,0,1-.444,1.037A1.65,1.65,0,0,1,29.024,8.576Zm1.371,10.266a4.892,4.892,0,0,1-.976,3.19,3.421,3.421,0,0,1-2.812,1.2,3.889,3.889,0,0,1-1.327-.264v-2.18a2.163,2.163,0,0,0,1.028.325q1.31,0,1.31-2.057V10h2.777Zm10.426-3.551H34.95q.141,1.96,2.47,1.96a4.822,4.822,0,0,0,2.61-.7v2a6.858,6.858,0,0,1-3.243.668A4.565,4.565,0,0,1,33.4,18.011a4.566,4.566,0,0,1-1.2-3.371,4.816,4.816,0,0,1,1.3-3.551,4.334,4.334,0,0,1,3.2-1.31,3.933,3.933,0,0,1,3.045,1.169,4.5,4.5,0,0,1,1.077,3.173Zm-2.575-1.705q0-1.934-1.564-1.934a1.494,1.494,0,0,0-1.156.554,2.513,2.513,0,0,0-.593,1.38ZM49.3,18.675a5.492,5.492,0,0,1-2.716.545,4.593,4.593,0,0,1-3.357-1.257,4.341,4.341,0,0,1-1.283-3.243A4.782,4.782,0,0,1,43.314,11.1,5.083,5.083,0,0,1,46.992,9.78a4.72,4.72,0,0,1,2.3.422v2.355a3.166,3.166,0,0,0-1.942-.65,2.559,2.559,0,0,0-1.894.7,2.607,2.607,0,0,0-.7,1.929,2.565,2.565,0,0,0,.668,1.876,2.455,2.455,0,0,0,1.837.681,3.666,3.666,0,0,0,2.03-.65ZM59.668,19H56.9V17.629h-.044A3.141,3.141,0,0,1,54.1,19.22q-3.129,0-3.129-3.788V10h2.769v5.186q0,1.907,1.512,1.907a1.5,1.5,0,0,0,1.2-.523A2.109,2.109,0,0,0,56.9,15.15V10h2.769Zm7.78-.105a4.105,4.105,0,0,1-1.854.325q-2.936,0-2.936-3.05V12.048H61.2V10h1.459V8.058l2.769-.791V10h2.021v2.048H65.427v3.639q0,1.406,1.116,1.406a1.882,1.882,0,0,0,.905-.255ZM70.421,8.576a1.622,1.622,0,0,1-1.151-.417,1.345,1.345,0,0,1-.448-1.024,1.3,1.3,0,0,1,.448-1.02,1.88,1.88,0,0,1,2.307,0,1.3,1.3,0,0,1,.444,1.02,1.34,1.34,0,0,1-.444,1.037A1.65,1.65,0,0,1,70.421,8.576ZM71.792,19H69.014V10h2.777ZM82.7,10l-3.349,9H76.188L73,10h2.971l1.564,5.546a8.1,8.1,0,0,1,.308,1.6h.035A9.078,9.078,0,0,1,78.2,15.6L79.8,10Zm8.4,9H88.477V17.708h-.035a2.933,2.933,0,0,1-2.681,1.512,2.8,2.8,0,0,1-2.061-.743,2.661,2.661,0,0,1-.751-1.982q0-2.619,3.1-3.023l2.443-.325q0-1.477-1.6-1.477a5.46,5.46,0,0,0-3.059.958V10.536a6.881,6.881,0,0,1,1.586-.527,8.339,8.339,0,0,1,1.833-.229q3.85,0,3.85,3.841Zm-2.61-3.656v-.606l-1.635.211q-1.354.176-1.354,1.222a1.01,1.01,0,0,0,.33.778,1.266,1.266,0,0,0,.892.3A1.644,1.644,0,0,0,88,16.71,1.952,1.952,0,0,0,88.495,15.344Z" transform="translate(745.5 776.671)" fill="#0b0a0a"/>
    <path id="Trazado_1178820" data-name="Trazado 1178820" d="M29.331,14a5.723,5.723,0,0,1-1.173,3.876,4.266,4.266,0,0,1-3.4,1.345,4.835,4.835,0,0,1-1.837-.343V16.214a2.637,2.637,0,0,0,1.635.554q1.942,0,1.942-2.883V6.4h2.83Zm11.041,5H37.6V17.629h-.044a3.141,3.141,0,0,1-2.751,1.591q-3.129,0-3.129-3.788V10h2.769v5.186q0,1.907,1.512,1.907a1.5,1.5,0,0,0,1.2-.523A2.109,2.109,0,0,0,37.6,15.15V10h2.769Zm11.146,0H48.74V17.761h-.035a3.114,3.114,0,0,1-2.786,1.459A3.412,3.412,0,0,1,43.2,18.029,4.93,4.93,0,0,1,42.175,14.7a5.366,5.366,0,0,1,1.134-3.577A3.7,3.7,0,0,1,46.28,9.78a2.527,2.527,0,0,1,2.426,1.248h.035V5.676h2.777Zm-2.725-4.377v-.677a2.13,2.13,0,0,0-.51-1.459,1.8,1.8,0,0,0-2.769.145A3.367,3.367,0,0,0,45,14.623a2.914,2.914,0,0,0,.5,1.828,1.779,1.779,0,0,0,2.764-.035A2.821,2.821,0,0,0,48.793,14.623Zm6.471-6.047a1.622,1.622,0,0,1-1.151-.417,1.345,1.345,0,0,1-.448-1.024,1.3,1.3,0,0,1,.448-1.02,1.88,1.88,0,0,1,2.307,0,1.3,1.3,0,0,1,.444,1.02,1.34,1.34,0,0,1-.444,1.037A1.65,1.65,0,0,1,55.264,8.576ZM56.635,19H53.857V10h2.777Zm9.16-.325a5.492,5.492,0,0,1-2.716.545,4.593,4.593,0,0,1-3.357-1.257,4.341,4.341,0,0,1-1.283-3.243A4.782,4.782,0,0,1,59.814,11.1,5.083,5.083,0,0,1,63.492,9.78a4.72,4.72,0,0,1,2.3.422v2.355a3.166,3.166,0,0,0-1.942-.65,2.559,2.559,0,0,0-1.894.7,2.607,2.607,0,0,0-.7,1.929,2.565,2.565,0,0,0,.668,1.876,2.455,2.455,0,0,0,1.837.681,3.666,3.666,0,0,0,2.03-.65Zm3.227-10.1a1.622,1.622,0,0,1-1.151-.417,1.345,1.345,0,0,1-.448-1.024,1.3,1.3,0,0,1,.448-1.02,1.88,1.88,0,0,1,2.307,0,1.3,1.3,0,0,1,.444,1.02,1.34,1.34,0,0,1-.444,1.037A1.65,1.65,0,0,1,69.022,8.576ZM70.393,19H67.616V10h2.777Zm9.828,0H77.593V17.708h-.035a2.933,2.933,0,0,1-2.681,1.512,2.8,2.8,0,0,1-2.061-.743,2.661,2.661,0,0,1-.751-1.982q0-2.619,3.1-3.023l2.443-.325q0-1.477-1.6-1.477a5.46,5.46,0,0,0-3.059.958V10.536a6.881,6.881,0,0,1,1.586-.527,8.339,8.339,0,0,1,1.833-.229q3.85,0,3.85,3.841Zm-2.61-3.656v-.606l-1.635.211q-1.354.176-1.354,1.222a1.01,1.01,0,0,0,.33.778,1.266,1.266,0,0,0,.892.3,1.644,1.644,0,0,0,1.274-.541A1.952,1.952,0,0,0,77.611,15.344ZM85.2,19H82.42V5.676H85.2Z" transform="translate(954.5 776.671)" fill="#0b0a0a"/>
    <g id="prerogatives_4849769" transform="translate(666 642.668)">
      <g id="Grupo_1223776" data-name="Grupo 1223776" transform="translate(0.893 0.893)">
        <path id="Trazado_1170332" data-name="Trazado 1170332" d="M103,324.636,91.15,327.6H53.2V312.449H81.679L103,316.419a7.664,7.664,0,0,0,0,8.217Z" transform="translate(-47.76 -276.132)" fill="#f9f6f9"/>
        <path id="Trazado_1170333" data-name="Trazado 1170333" d="M103,316.419a7.66,7.66,0,0,0-1.043,2.594H53.2v-6.564H81.679Z" transform="translate(-47.76 -276.132)" fill="#dddaec"/>
        <path id="Trazado_1170334" data-name="Trazado 1170334" d="M63.715,316.03H17.538a10.044,10.044,0,0,1,0-20.089H63.715a2.967,2.967,0,0,1,0,5.934H37.087L24.549,303.93l-5.142-2.055H17.538a4.11,4.11,0,0,0,0,8.22H63.715a2.967,2.967,0,0,1,0,5.934Z" transform="translate(-7.494 -261.59)" fill="#756e78"/>
        <path id="Trazado_1170335" data-name="Trazado 1170335" d="M21.378,316.026H17.544a10.044,10.044,0,0,1,0-20.089h3.834a10.044,10.044,0,0,0,0,20.089Z" transform="translate(-7.499 -261.587)" fill="#665e66"/>
        <path id="Trazado_1170336" data-name="Trazado 1170336" d="M127.559,345.778v16.406a2.492,2.492,0,0,1-4.03,1.961l-3.113-2.442a2.49,2.49,0,0,0-3.077,0l-3.113,2.442a2.493,2.493,0,0,1-4.03-1.961V345.778Z" transform="translate(-97.965 -305.492)" fill="#c14098"/>
        <path id="Trazado_1170337" data-name="Trazado 1170337" d="M110.2,345.778h17.362v6.937H110.2Z" transform="translate(-97.966 -305.492)" fill="#aa3684"/>
        <g id="Grupo_1223775" data-name="Grupo 1223775" transform="translate(11.916)">
          <path id="Trazado_1170338" data-name="Trazado 1170338" d="M240.443,42.888h-5.087V14.077a2.538,2.538,0,0,1,2.538-2.538h.01a2.538,2.538,0,0,1,2.538,2.538Z" transform="translate(-220.136 -11.058)" fill="#f6e781"/>
          <path id="Trazado_1170339" data-name="Trazado 1170339" d="M237.9,42.888h-2.544V12.81a1.272,1.272,0,0,1,2.544,0V42.888Z" transform="translate(-220.136 -11.057)" fill="#ffd064"/>
          <path id="Trazado_1170340" data-name="Trazado 1170340" d="M128.521,20.95h24.586a3.362,3.362,0,1,0,0-6.724h-5.541a6.752,6.752,0,0,0-13.5,0h-5.541a3.362,3.362,0,1,0,0,6.724Z" transform="translate(-123.05 -7.502)" fill="#f6e781"/>
          <path id="Trazado_1170341" data-name="Trazado 1170341" d="M129.355,67.325a3.34,3.34,0,0,0,.99,2.377,3.376,3.376,0,0,0,2.387.985h-4.211a3.376,3.376,0,0,1-2.387-.985,3.359,3.359,0,0,1,2.387-5.74h4.211A3.37,3.37,0,0,0,129.355,67.325Z" transform="translate(-123.049 -57.239)" fill="#ffd064"/>
          <path id="Trazado_1170342" data-name="Trazado 1170342" d="M208.882,7.835a6.73,6.73,0,0,0-4.646,6.39h-4.211a6.759,6.759,0,0,1,8.857-6.39Z" transform="translate(-189.012 -7.501)" fill="#ffd064"/>
          <path id="Trazado_1170343" data-name="Trazado 1170343" d="M107.558,177.255a5.47,5.47,0,0,0,10.941,0Z" transform="translate(-107.557 -157.039)" fill="#f6e781"/>
          <path id="Trazado_1170344" data-name="Trazado 1170344" d="M114.591,182.482a5.519,5.519,0,0,1-1.568.227,5.459,5.459,0,0,1-5.471-5.447h3.138a5.453,5.453,0,0,0,3.9,5.22Z" transform="translate(-107.552 -157.045)" fill="#ffd064"/>
          <path id="Trazado_1170345" data-name="Trazado 1170345" d="M314.007,177.255a5.47,5.47,0,0,0,10.94,0Z" transform="translate(-289.42 -157.039)" fill="#f6e781"/>
          <path id="Trazado_1170346" data-name="Trazado 1170346" d="M321.046,182.475a5.52,5.52,0,0,1-1.568.227,5.459,5.459,0,0,1-5.471-5.447h3.138A5.453,5.453,0,0,0,321.046,182.475Z" transform="translate(-289.42 -157.039)" fill="#ffd064"/>
          <path id="Trazado_1170347" data-name="Trazado 1170347" d="M185.307,258.648h-16.5a2.521,2.521,0,0,1,0-5.042h16.5a2.521,2.521,0,1,1,0,5.042Z" transform="translate(-159.296 -224.297)" fill="#f6e781"/>
          <g id="Grupo_1223774" data-name="Grupo 1223774" transform="translate(6.995 4.167)">
            <path id="Trazado_1170348" data-name="Trazado 1170348" d="M175.589,258.648h-6.777a2.521,2.521,0,0,1,0-5.042h6.777a2.521,2.521,0,1,0,0,5.042Z" transform="translate(-166.291 -228.464)" fill="#ffd064"/>
            <circle id="Elipse_14526" data-name="Elipse 14526" cx="2.621" cy="2.621" r="2.621" transform="translate(8.148)" fill="#ffd064"/>
          </g>
        </g>
      </g>
      <g id="Grupo_1223777" data-name="Grupo 1223777" transform="translate(0 0)">
        <path id="Trazado_1170349" data-name="Trazado 1170349" d="M57.114,48.505h-.467a6.811,6.811,0,0,1,0-6.433h.467a3.86,3.86,0,1,0,0-7.721H41.821a3.413,3.413,0,0,0-3-5.042H34.01V15.236h7.113l-4.413,5.3h0a.89.89,0,0,0-.207.571,6.363,6.363,0,0,0,12.727,0,.89.89,0,0,0-.207-.571h0l-4.644-5.58a4.263,4.263,0,0,0,2.756-3.979,4.262,4.262,0,0,0-4.268-4.255h-4.7a7.649,7.649,0,0,0-15.186,0H20.066a.893.893,0,0,0,0,1.786h3.755a.893.893,0,0,0,.893-.893,5.859,5.859,0,0,1,11.717,0,.893.893,0,0,0,.893.893h5.541a2.473,2.473,0,0,1,1.756.724,2.446,2.446,0,0,1,.726,1.744,2.479,2.479,0,0,1-2.482,2.47H18.28a2.474,2.474,0,0,1-1.757-.724,2.448,2.448,0,0,1-.726-1.746,2.476,2.476,0,0,1,1.214-2.121A.893.893,0,1,0,16.1,7.32a4.27,4.27,0,0,0-2.092,3.659,4.262,4.262,0,0,0,2.755,3.981l-4.642,5.578h0a.89.89,0,0,0-.207.571,6.363,6.363,0,0,0,12.727,0,.89.89,0,0,0-.207-.571h0l-4.413-5.3h7.112V29.309h-4.81a3.413,3.413,0,0,0-3,5.042H10.937a10.937,10.937,0,0,0,0,21.874h1.294v1.359a3.382,3.382,0,0,0,5.475,2.664l3.112-2.441a1.6,1.6,0,0,1,1.974,0L25.9,60.249a3.385,3.385,0,0,0,5.475-2.664V56.226H48.827a.893.893,0,0,0,0-1.786H31.379V50.291H57.114a2.074,2.074,0,1,1,0,4.148H52.4a.893.893,0,0,0,0,1.786h4.714a3.86,3.86,0,1,0,0-7.721ZM42.866,15.933l3.565,4.284H39.3Zm0,9.731A4.579,4.579,0,0,1,38.377,22h8.977A4.579,4.579,0,0,1,42.866,25.664ZM18.28,15.933l3.565,4.284h-7.13Zm0,9.731A4.579,4.579,0,0,1,13.791,22h8.977A4.579,4.579,0,0,1,18.28,25.664ZM28.922,15.236h3.3V29.309h-3.3ZM20.7,32.724A1.63,1.63,0,0,1,22.325,31.1h16.5a1.628,1.628,0,0,1,0,3.256h-16.5A1.63,1.63,0,0,1,20.7,32.724ZM10.937,54.44a9.151,9.151,0,0,1,0-18.3H57.114a2.074,2.074,0,1,1,0,4.148H10.937a5,5,0,0,0,0,10.006h1.294v4.148H10.937Zm1.294-5.934H10.937a3.217,3.217,0,0,1,0-6.433h1.294ZM28.694,59.023a1.568,1.568,0,0,1-1.687-.18L23.895,56.4a3.378,3.378,0,0,0-4.179,0L16.6,58.843a1.6,1.6,0,0,1-2.586-1.258V55.337s0,0,0,0,0,0,0,0V42.072H29.593V57.585a1.568,1.568,0,0,1-.9,1.438Zm2.686-16.951h23.3a8.622,8.622,0,0,0,0,6.433h-23.3Z" transform="translate(0 0)"/>
        <path id="Trazado_1170350" data-name="Trazado 1170350" d="M230.725,42.019a3.514,3.514,0,1,0-3.514-3.514A3.518,3.518,0,0,0,230.725,42.019Zm0-5.241A1.727,1.727,0,1,1,229,38.506,1.729,1.729,0,0,1,230.725,36.778Z" transform="translate(-200.152 -30.825)"/>
      </g>
    </g>
    <g id="diplomat_4849759" transform="translate(763.361 642.668)">
      <g id="Grupo_1223778" data-name="Grupo 1223778" transform="translate(47.614 0.893)">
        <path id="Trazado_1170351" data-name="Trazado 1170351" d="M366.991,257.894a1.893,1.893,0,0,1,1.893,1.893v25.658H365.1V259.787A1.893,1.893,0,0,1,366.991,257.894Z" transform="translate(-328.075 -228.074)" fill="#756e78"/>
        <path id="Trazado_1170352" data-name="Trazado 1170352" d="M367.936,258.15a1.89,1.89,0,0,0-.946,1.639v25.659H365.1V259.789a1.892,1.892,0,0,1,2.839-1.639Z" transform="translate(-328.074 -228.076)" fill="#665e66"/>
        <path id="Trazado_1170353" data-name="Trazado 1170353" d="M376.13,280.251v10.574a1.552,1.552,0,0,1-2.245,1.389l-6.9-3.441-1.893-.944V273.787l1.893.944,8.285,4.133A1.55,1.55,0,0,1,376.13,280.251Z" transform="translate(-328.071 -242.074)" fill="#c14098"/>
        <path id="Trazado_1170354" data-name="Trazado 1170354" d="M366.986,274.731v14.042l-1.893-.944V273.787Z" transform="translate(-328.071 -242.074)" fill="#aa3684"/>
        <path id="Trazado_1170355" data-name="Trazado 1170355" d="M100.085,329.027v9.76l-27.337,0a2.829,2.829,0,0,1-2.829-2.829v-6.928a12.644,12.644,0,0,1,12.644-12.643h4.878A12.643,12.643,0,0,1,100.085,329.027Z" transform="translate(-68.05 -279.598)" fill="#665e66"/>
        <path id="Trazado_1170356" data-name="Trazado 1170356" d="M73.912,329.022v6.927a2.829,2.829,0,0,0,2.829,2.829H72.747a2.828,2.828,0,0,1-2.828-2.829v-6.927a12.644,12.644,0,0,1,12.643-12.643h3.994A12.644,12.644,0,0,0,73.912,329.022Z" transform="translate(-68.05 -279.594)" fill="#544f57"/>
        <path id="Trazado_1170357" data-name="Trazado 1170357" d="M201.717,335.487a3.644,3.644,0,1,1,3.948,3.631l.311.716a5.313,5.313,0,0,1-1.361,6.1l-7.338,6.47S201.717,336.276,201.717,335.487Z" transform="translate(-180.241 -293.216)" fill="#756e78"/>
        <path id="Trazado_1170358" data-name="Trazado 1170358" d="M106.09,335.487a3.644,3.644,0,1,0-3.948,3.631l-.311.716a5.313,5.313,0,0,0,1.361,6.1l7.338,6.47S106.09,336.276,106.09,335.487Z" transform="translate(-93.492 -293.216)" fill="#756e78"/>
        <path id="Trazado_1170359" data-name="Trazado 1170359" d="M153.226,329.117l5.246,15.178,5.246-15.178-3.149-6.479h-5.582Z" transform="translate(-141.436 -285.108)" fill="#dddaec"/>
        <path id="Trazado_1170360" data-name="Trazado 1170360" d="M177.322,401.161v.531l-3.12,9.024-3.12-9.024v-.531a3.12,3.12,0,1,1,6.24,0Z" transform="translate(-157.165 -351.53)" fill="#c14098"/>
        <path id="Trazado_1170361" data-name="Trazado 1170361" d="M105.722,452.09h10.816l1.867-3.542-1.867-3.542H105.722Z" transform="translate(-99.589 -392.902)" fill="#665e66"/>
        <path id="Trazado_1170362" data-name="Trazado 1170362" d="M181.766,351.25a2.1,2.1,0,0,1-2.1-2.1v-2.132a2.1,2.1,0,1,1,4.194,0v2.132A2.1,2.1,0,0,1,181.766,351.25Z" transform="translate(-164.729 -304.739)" fill="#c14098"/>
        <path id="Trazado_1170363" data-name="Trazado 1170363" d="M146.1,272.628l-.966-.966-5.676-5.676-5.676,5.676-.966.966a4.014,4.014,0,1,0,5.676,5.676l.966-.966.966.966a4.014,4.014,0,1,0,5.676-5.676Z" transform="translate(-122.416 -235.202)" fill="#f9f6f9"/>
        <path id="Trazado_1170364" data-name="Trazado 1170364" d="M79.209,7.5H73.963A13.591,13.591,0,0,0,60.372,21.093V32.876H92.8V21.093A13.591,13.591,0,0,0,79.209,7.5Z" transform="translate(-59.64 -7.502)" fill="#c6865c"/>
        <path id="Trazado_1170365" data-name="Trazado 1170365" d="M82.3,7.854A13.6,13.6,0,0,0,71.8,21.093V33.5H60.372V21.093A13.591,13.591,0,0,1,73.963,7.5h5.245a13.652,13.652,0,0,1,3.09.352Z" transform="translate(-59.64 -7.502)" fill="#be694f"/>
        <path id="Trazado_1170366" data-name="Trazado 1170366" d="M84.3,196.14H58.042a3.818,3.818,0,1,1,0-7.635H84.3a3.818,3.818,0,0,1,0,7.635Z" transform="translate(-54.224 -166.949)" fill="#eaac9d"/>
        <path id="Trazado_1170367" data-name="Trazado 1170367" d="M120.513,102.647v11.913a11.882,11.882,0,1,1-23.764.149V102.647c0-.033,0-5.973,0-6.006A22.852,22.852,0,0,0,120.513,102.647Z" transform="translate(-91.685 -86.025)" fill="#ffddce"/>
        <path id="Trazado_1170368" data-name="Trazado 1170368" d="M112.171,126.056a11.752,11.752,0,0,1-3.45.544,11.882,11.882,0,0,1-11.972-11.882V96.651a22.847,22.847,0,0,0,7.1,5.091v12.976A11.886,11.886,0,0,0,112.171,126.056Z" transform="translate(-91.685 -86.034)" fill="#ffcbbe"/>
        <path id="Trazado_1170369" data-name="Trazado 1170369" d="M200.085,448.55a3.541,3.541,0,0,1-3.542,3.542v-7.084a3.542,3.542,0,0,1,3.542,3.542Z" transform="translate(-179.594 -392.904)" fill="#ffddce"/>
        <path id="Trazado_1170370" data-name="Trazado 1170370" d="M320.839,467.857H307.078a2.182,2.182,0,1,0,0,4.363h13.761a2.182,2.182,0,1,0,0-4.363Z" transform="translate(-275.043 -413.032)" fill="#c6865c"/>
        <path id="Trazado_1170371" data-name="Trazado 1170371" d="M310.288,471.584a2.174,2.174,0,0,0,1.543.64h-4.753a2.182,2.182,0,0,1,0-4.364h4.753a2.182,2.182,0,0,0-1.543,3.724Z" transform="translate(-275.043 -413.035)" fill="#be694f"/>
      </g>
      <g id="Grupo_1223779" data-name="Grupo 1223779" transform="translate(46.721 0)">
        <path id="Trazado_1170372" data-name="Trazado 1170372" d="M93.031,51.833a2.445,2.445,0,0,0,3.536-2.188V39.071a2.431,2.431,0,0,0-1.354-2.188l-5.9-2.941V32.606a2.786,2.786,0,1,0-5.572,0V54.826h-3.2v-4.5a13.437,13.437,0,0,0-3.973-9.579,4.547,4.547,0,0,0-3.113-2.059,12.971,12.971,0,0,0,3.787-7.707h.446a4.706,4.706,0,0,0,3.978-7.23V14.484A14.5,14.5,0,0,0,67.184,0H61.938A14.475,14.475,0,0,0,49.523,7.022a.893.893,0,0,0,1.53.921A12.609,12.609,0,0,1,61.938,1.786h5.246a12.712,12.712,0,0,1,12.7,12.7V22.1a4.681,4.681,0,0,0-2.192-.543h-.353V17.515a.893.893,0,0,0-1.166-.85,21.3,21.3,0,0,1-16.6-1.162,21.993,21.993,0,0,1-6.209-4.575.893.893,0,0,0-1.57.575c0,.039,0,5.954,0,6.013v4.041h-.354a4.691,4.691,0,0,0-2.192.538V14.484A12.737,12.737,0,0,1,49.724,11a.893.893,0,0,0-1.718-.489,14.526,14.526,0,0,0-.552,3.974v9.257a4.712,4.712,0,0,0,3.978,7.236h.43a12.673,12.673,0,0,0,3.7,7.666l.081.078a4.54,4.54,0,0,0-2.525,1.5,13.541,13.541,0,0,0-4.526,10.1V57.25a3.726,3.726,0,0,0,3.721,3.722l36.056,0a.893.893,0,0,0,0-1.786H79.65a1.288,1.288,0,1,1,0-2.576H93.411a1.287,1.287,0,0,1,.91,2.2,1.276,1.276,0,0,1-.91.377h-1.47a.893.893,0,0,0,0,1.786h1.47a3.074,3.074,0,1,0,0-6.149H89.316V49.98ZM77.689,23.343a2.924,2.924,0,1,1,0,5.849h-.353V23.343ZM48.507,26.269a2.923,2.923,0,0,1,2.924-2.926h.354v5.849h-.354A2.927,2.927,0,0,1,48.507,26.269Zm46.273,12.8V49.645a.658.658,0,0,1-.952.589L85.53,46.1V34.05l8.886,4.432A.655.655,0,0,1,94.781,39.071Zm-8.25-7.465a1,1,0,0,1,1,1v.444l-1.871-.933a1,1,0,0,1,.872-.511ZM75.486,43.165a2.764,2.764,0,0,1-2.521,2.74.893.893,0,0,0-.745,1.247l.312.716A4.407,4.407,0,0,1,71.4,52.941l-2.6,2.29a4.437,4.437,0,0,0-.952-1.667l2.765-8a4.888,4.888,0,0,0,2.7-5.09,2.756,2.756,0,0,1,2.174,2.69ZM57.815,40.43a12.663,12.663,0,0,0,6.265,1.912c-.021.018-.041.036-.061.055l-.963.966a3.121,3.121,0,0,1-4.414,0A3.14,3.14,0,0,1,57.815,40.43ZM71.453,40.3a3.142,3.142,0,0,1,.122.859,3.12,3.12,0,0,1-5.326,2.207l-.966-.967a.891.891,0,0,0-.07-.063,12.573,12.573,0,0,0,6.24-2.037Zm-6,13.748a2.649,2.649,0,0,1,0,4.987ZM67.848,48.1a3.976,3.976,0,0,0-.907-.871,2.984,2.984,0,0,0,.623-1.245,4.96,4.96,0,0,0,.892.082l.1,0Zm-3.2-1.588h-.014a1.205,1.205,0,0,1-1.19-1.192,4.959,4.959,0,0,0,.871-.692l.333-.333.334.335a4.952,4.952,0,0,0,.869.692,1.205,1.205,0,0,1-1.189,1.192Zm-3.8-.447a4.959,4.959,0,0,0,.892-.082,2.984,2.984,0,0,0,.624,1.247,4.046,4.046,0,0,0-.908.871l-.705-2.039Zm1.992,6.04-.415-1.2v-.38A2.229,2.229,0,0,1,64.637,48.3h.028a2.224,2.224,0,0,1,2.212,2.227v.381l-.542,1.569a4.409,4.409,0,0,0-1.772-.37ZM53.572,29.577V17.515c0-.035,0-2.178,0-3.893a25.183,25.183,0,0,0,5.122,3.441,23.2,23.2,0,0,0,16.855,1.648V29.428a11.093,11.093,0,0,1-10.9,11.137A10.989,10.989,0,0,1,53.572,29.577Zm2.418,10.9a4.913,4.913,0,0,0,2.7,5.091L60.949,52.1H57.17a4.393,4.393,0,0,1-.4-4.235l.312-.717a.893.893,0,0,0-.745-1.247,2.751,2.751,0,0,1-.348-5.431ZM50.377,57.25V50.322a11.75,11.75,0,0,1,1.761-6.185,4.586,4.586,0,0,0,2.884,3.29,6.17,6.17,0,0,0,.112,4.676H53.747a.893.893,0,1,0,0,1.786H63.67v5.3H52.312A1.938,1.938,0,0,1,50.377,57.25Zm27.1-1.523a3.072,3.072,0,0,0-.615,3.461H75.038v-3.5a.893.893,0,0,0-1.786,0v3.5H68.12a4.418,4.418,0,0,0,.764-1.648l3.7-3.259a6.188,6.188,0,0,0,1.7-6.853,4.589,4.589,0,0,0,2.837-3.1,11.671,11.671,0,0,1,1.638,5.994v4.634a3.072,3.072,0,0,0-1.283.77Zm10.056-.9h-2V48.091l2,1Z" transform="translate(-46.721 0)"/>
        <path id="Trazado_1170373" data-name="Trazado 1170373" d="M160.739,181.544a.893.893,0,0,0,.893-.893v-2.69a.893.893,0,0,0-1.786,0v2.69A.893.893,0,0,0,160.739,181.544Z" transform="translate(-146.374 -155.98)"/>
        <path id="Trazado_1170374" data-name="Trazado 1170374" d="M219.082,181.544a.893.893,0,0,0,.893-.893v-2.69a.893.893,0,0,0-1.786,0v2.69A.893.893,0,0,0,219.082,181.544Z" transform="translate(-197.768 -155.98)"/>
        <path id="Trazado_1170375" data-name="Trazado 1170375" d="M163.69,257.422a5.868,5.868,0,0,0,4.176-1.73.893.893,0,0,0-1.263-1.263,4.12,4.12,0,0,1-5.827,0,.893.893,0,0,0-1.263,1.263A5.867,5.867,0,0,0,163.69,257.422Z" transform="translate(-145.851 -223.898)"/>
      </g>
    </g>
    <g id="balance_4849960" transform="translate(943.036 613.585)">
      <g id="Grupo_1223782" data-name="Grupo 1223782" transform="translate(1.008 30.092)">
        <g id="Grupo_1223780" data-name="Grupo 1223780" transform="translate(0.107 0.977)">
          <circle id="Elipse_14527" data-name="Elipse 14527" cx="11.977" cy="11.977" r="11.977" fill="#b1e4f9"/>
          <path id="Trazado_1170376" data-name="Trazado 1170376" d="M23.194,67.461a11.977,11.977,0,1,1,0-23.237,11.98,11.98,0,0,0,0,23.237Z" transform="translate(-8.298 -43.866)" fill="#90d8f9"/>
        </g>
        <path id="Trazado_1170377" data-name="Trazado 1170377" d="M378.832,47.833c-1.573-.556-3.642-1.017-4.238-1.953a1.09,1.09,0,0,1-.1-.762,1.369,1.369,0,0,1,.872-1.083,2.9,2.9,0,0,1,2.672.394,2.468,2.468,0,0,0,3.157-3.795,7.373,7.373,0,0,0-2.635-1.37v-.205a2.468,2.468,0,0,0-4.936,0v.358a6.271,6.271,0,0,0-3.981,4.787,5.651,5.651,0,0,0,1.9,5.56,20.424,20.424,0,0,0,5.639,2.723,1.647,1.647,0,0,1,1.237,1.969,2.344,2.344,0,0,1-2.344,1.992,4.374,4.374,0,0,1-3.238-.837,2.468,2.468,0,0,0-2.7,4.131,8.947,8.947,0,0,0,3.489,1.484v.236a2.468,2.468,0,1,0,4.936,0v-.516a7.31,7.31,0,0,0,4.727-5.672,6.572,6.572,0,0,0-4.46-7.441Z" transform="translate(-320.45 -36.59)" fill="#b3e59f"/>
        <path id="Trazado_1170378" data-name="Trazado 1170378" d="M122.368,224.421a2.687,2.687,0,0,0-2.687,2.687v6.471a2.1,2.1,0,0,1-2.1,2.1H84.92a2.1,2.1,0,0,1-2.1-2.1v-6.471a2.687,2.687,0,0,0-5.374,0v6.471a7.482,7.482,0,0,0,7.474,7.474h32.661a7.482,7.482,0,0,0,7.474-7.474v-6.471A2.687,2.687,0,0,0,122.368,224.421Z" transform="translate(-68.048 -199.185)" fill="#f6e781"/>
        <g id="Grupo_1223781" data-name="Grupo 1223781" transform="translate(9.397 25.236)">
          <path id="Trazado_1170379" data-name="Trazado 1170379" d="M381.146,233.58v-6.471a2.683,2.683,0,0,1,1.25-2.268,2.684,2.684,0,0,0-4.125,2.268v6.471a2.1,2.1,0,0,1-2.1,2.1h2.875A2.1,2.1,0,0,0,381.146,233.58Z" transform="translate(-336.035 -224.422)" fill="#ffd064"/>
          <path id="Trazado_1170380" data-name="Trazado 1170380" d="M80.316,233.58v-6.471a2.683,2.683,0,0,1,1.25-2.268,2.684,2.684,0,0,0-4.125,2.268v6.471a7.482,7.482,0,0,0,7.474,7.474H87.79A7.482,7.482,0,0,1,80.316,233.58Z" transform="translate(-77.441 -224.422)" fill="#ffd064"/>
        </g>
        <path id="Trazado_1170381" data-name="Trazado 1170381" d="M230.554,223.286a4.229,4.229,0,0,0-4.229,4.229v20.054h8.458V227.515A4.229,4.229,0,0,0,230.554,223.286Z" transform="translate(-196.925 -198.203)" fill="#756e78"/>
        <path id="Trazado_1170382" data-name="Trazado 1170382" d="M232.329,223.678a4.229,4.229,0,0,0-2.452,3.837V247.57h-3.554V227.515a4.23,4.23,0,0,1,6.005-3.837Z" transform="translate(-196.924 -198.204)" fill="#665e66"/>
        <path id="Trazado_1170383" data-name="Trazado 1170383" d="M195.178,373.142h-13.71a3.435,3.435,0,1,0,0,6.871l6.855,3.435,6.855-3.435a3.435,3.435,0,1,0,0-6.871Z" transform="translate(-155.121 -327.925)" fill="#f6e781"/>
        <path id="Trazado_1170384" data-name="Trazado 1170384" d="M185.772,379.008a3.425,3.425,0,0,0,2.428,1.005l-2.73,2.006-4-2.006a3.435,3.435,0,1,1,0-6.87H188.2a3.435,3.435,0,0,0-2.428,5.865Z" transform="translate(-155.12 -327.926)" fill="#ffd064"/>
        <path id="Trazado_1170385" data-name="Trazado 1170385" d="M168.376,424.28H144.818a3.435,3.435,0,0,0,0,6.871h23.558a3.435,3.435,0,0,0,0-6.871Z" transform="translate(-123.395 -372.192)" fill="#f6e781"/>
        <path id="Trazado_1170386" data-name="Trazado 1170386" d="M151.316,430.146a3.425,3.425,0,0,0,2.428,1.005h-8.926a3.435,3.435,0,1,1,0-6.87h8.926a3.435,3.435,0,0,0-2.428,5.865Z" transform="translate(-123.394 -372.193)" fill="#ffd064"/>
        <path id="Trazado_1170387" data-name="Trazado 1170387" d="M25.592,220.263H13.577a4.2,4.2,0,0,1-3.97-2.822L7.5,211.386H31.669l-2.107,6.055a4.2,4.2,0,0,1-3.97,2.822Z" transform="translate(-7.5 -187.901)" fill="#756e78"/>
        <path id="Trazado_1170388" data-name="Trazado 1170388" d="M20.473,220.263H13.581a4.2,4.2,0,0,1-3.97-2.821L7.5,211.386H14.4l2.107,6.055A4.2,4.2,0,0,0,20.473,220.263Z" transform="translate(-7.503 -187.901)" fill="#665e66"/>
        <path id="Trazado_1170389" data-name="Trazado 1170389" d="M342.7,220.262H330.688a4.2,4.2,0,0,1-3.97-2.822l-2.107-6.055H348.78l-2.107,6.055A4.2,4.2,0,0,1,342.7,220.262Z" transform="translate(-282.006 -187.901)" fill="#756e78"/>
        <path id="Trazado_1170390" data-name="Trazado 1170390" d="M337.584,220.263h-6.892a4.2,4.2,0,0,1-3.97-2.821l-2.107-6.055h6.891l2.107,6.055A4.2,4.2,0,0,0,337.584,220.263Z" transform="translate(-282.009 -187.901)" fill="#665e66"/>
      </g>
      <path id="Trazado_1170391" data-name="Trazado 1170391" d="M68.6,52.992a1.008,1.008,0,0,0-.821-.424H63.29a8.279,8.279,0,0,0,1.553-3.627,8.367,8.367,0,0,0,.113-1.2,1.008,1.008,0,1,0-2.015-.039,6.316,6.316,0,0,1-.086.906,6.247,6.247,0,0,1-2.38,3.959H51.513q-.131-.081-.264-.168a1.461,1.461,0,0,1,1.6-2.446,5.343,5.343,0,0,0,3.8,1,3.363,3.363,0,0,0,3.33-2.832,2.649,2.649,0,0,0-1.9-3.087,19.61,19.61,0,0,1-5.354-2.566A4.653,4.653,0,0,1,51.2,37.891a5.232,5.232,0,0,1,3.333-4.025,1.008,1.008,0,0,0,.664-.947V32.56a1.46,1.46,0,1,1,2.921,0v.2a1.008,1.008,0,0,0,.725.967,6.439,6.439,0,0,1,2.273,1.177,1.46,1.46,0,1,1-1.868,2.246,3.882,3.882,0,0,0-3.608-.584,2.355,2.355,0,0,0-1.572,1.865,2.062,2.062,0,0,0,.24,1.49c.666,1.042,2.154,1.518,3.729,2.021.36.115.7.224,1.02.337a5.914,5.914,0,0,1,2.913,2.156,1.008,1.008,0,0,0,1.652-1.155,7.916,7.916,0,0,0-3.891-2.9c-.349-.123-.72-.242-1.079-.357a7.914,7.914,0,0,1-2.609-1.138.407.407,0,0,1,.008-.087c.01-.053.071-.271.173-.3a1.926,1.926,0,0,1,1.739.206A3.476,3.476,0,0,0,62.4,33.36a8.177,8.177,0,0,0-2.314-1.333,3.476,3.476,0,0,0-6.9.217,7.257,7.257,0,0,0-3.976,5.274,6.656,6.656,0,0,0,2.267,6.541,21.268,21.268,0,0,0,5.927,2.881c.573.2.646.454.579.849a1.339,1.339,0,0,1-1.358,1.153,3.439,3.439,0,0,1-2.68-.674,3.478,3.478,0,0,0-5.089,4.3H43.613a1.008,1.008,0,0,0-.952,1.339l2.107,6.055a5.216,5.216,0,0,0,4.922,3.5h1.942v1.025a1.094,1.094,0,0,1-1.092,1.092H39.874V59.4a5.237,5.237,0,0,0-10.474,0v6.174H17.879a1.094,1.094,0,0,1-1.092-1.092V63.461H19.1a5.216,5.216,0,0,0,4.922-3.5l2.107-6.055a1.008,1.008,0,0,0-.952-1.339H21.92a12.985,12.985,0,1,0-17.656,0H1.008a1.008,1.008,0,0,0-.952,1.339l2.107,6.055a5.216,5.216,0,0,0,4.922,3.5H9.4v1.024a8.509,8.509,0,0,0,6.216,8.174,1.008,1.008,0,1,0,.539-1.942,6.488,6.488,0,0,1-4.74-6.232V63.461h3.359v1.025a3.111,3.111,0,0,0,3.108,3.108H29.4v3.359H19.894a1.008,1.008,0,1,0,0,2.015H29.4V74.3H27.355a4.44,4.44,0,0,0-3.718,6.871H22.431a4.443,4.443,0,0,0,0,8.886H45.989a4.443,4.443,0,1,0,0-8.886H44.783A4.44,4.44,0,0,0,41.065,74.3H39.874V72.967H50.54a8.491,8.491,0,0,0,8.482-8.482V63.461H61.7a5.216,5.216,0,0,0,4.922-3.5l2.107-6.055a1.008,1.008,0,0,0-.13-.915Zm-50.962-.424a14.578,14.578,0,0,0,.986-2.346,10.949,10.949,0,0,1,1.608,1.15,11,11,0,0,1-1.7,1.2Zm-6.732,0a10.765,10.765,0,0,1-1.525-3.2,11.07,11.07,0,0,1,7.413,0,10.759,10.759,0,0,1-1.524,3.2ZM4.545,49.921A10.963,10.963,0,0,1,2.17,44.054h4.34a24.509,24.509,0,0,0,.509,4.157A12.941,12.941,0,0,0,4.545,49.921Zm.031-13.779a12.935,12.935,0,0,0,2.449,1.685,24.46,24.46,0,0,0-.513,4.21H2.171a10.916,10.916,0,0,1,2.4-5.9Zm19.438,5.9H19.672a24.468,24.468,0,0,0-.513-4.21,12.943,12.943,0,0,0,2.449-1.686,10.916,10.916,0,0,1,2.405,5.9ZM21.64,49.921a12.945,12.945,0,0,0-2.476-1.711,24.529,24.529,0,0,0,.508-4.157h4.342a10.964,10.964,0,0,1-2.374,5.868Zm-3.984-7.883H8.527a22.645,22.645,0,0,1,.383-3.4,13.137,13.137,0,0,0,8.362,0A22.623,22.623,0,0,1,17.656,42.038Zm.96-6.218a15.344,15.344,0,0,0-.656-1.669,11.594,11.594,0,0,0-.668-1.236A10.989,10.989,0,0,1,20.2,34.7a10.934,10.934,0,0,1-1.58,1.122Zm-1.837.857a11.065,11.065,0,0,1-7.375,0c.9-2.863,2.341-4.6,3.688-4.6s2.788,1.737,3.688,4.6ZM8.224,34.151a15.374,15.374,0,0,0-.656,1.669A10.945,10.945,0,0,1,5.988,34.7a10.985,10.985,0,0,1,2.9-1.783,11.569,11.569,0,0,0-.668,1.236Zm.3,9.9h9.129a22.988,22.988,0,0,1-.374,3.344,13.145,13.145,0,0,0-8.381,0,22.956,22.956,0,0,1-.374-3.344ZM5.949,51.372a10.934,10.934,0,0,1,1.607-1.149,14.584,14.584,0,0,0,.986,2.346h-.9a11,11,0,0,1-1.7-1.2ZM4.067,59.3,2.425,54.584H23.759L22.118,59.3A3.2,3.2,0,0,1,19.1,61.445H7.085A3.2,3.2,0,0,1,4.067,59.3Zm44.35,26.315a2.43,2.43,0,0,1-2.428,2.428H22.431a2.428,2.428,0,0,1,0-4.855H45.989A2.431,2.431,0,0,1,48.417,85.615Zm-4.924-6.871a2.43,2.43,0,0,1-2.428,2.428H27.355a2.428,2.428,0,1,1,0-4.855h13.71A2.43,2.43,0,0,1,43.492,78.744ZM31.415,59.4a3.222,3.222,0,0,1,6.444,0V74.3H31.415Zm25.592,5.081a6.474,6.474,0,0,1-6.466,6.466H39.874V67.593H50.54a3.111,3.111,0,0,0,3.108-3.108V63.461h3.359ZM64.723,59.3A3.2,3.2,0,0,1,61.7,61.445H49.69A3.2,3.2,0,0,1,46.672,59.3L45.03,54.584H66.364Z"/>
    </g>
  </g>
</svg>
