<svg xmlns="http://www.w3.org/2000/svg" xmlns:xlink="http://www.w3.org/1999/xlink" width="113" height="113" viewBox="0 0 113 113">
  <defs>
    <filter id="Trazado_982547" x="0" y="0" width="113" height="113" filterUnits="userSpaceOnUse">
      <feOffset dy="3" input="SourceAlpha"/>
      <feGaussianBlur stdDeviation="3" result="blur"/>
      <feFlood flood-opacity="0.161"/>
      <feComposite operator="in" in2="blur"/>
      <feComposite in="SourceGraphic"/>
    </filter>
  </defs>
  <g id="Grupo_1224506" data-name="Grupo 1224506" transform="translate(-1162.499 -5174.238)">
    <g id="Grupo_1223644" data-name="Grupo 1223644" transform="translate(0 4003.138)">
      <g id="Grupo_1211243" data-name="Grupo 1211243" transform="translate(-0.001 -10382)">
        <g id="Grupo_1210101" data-name="Grupo 1210101" transform="translate(0 4024.292)">
          <g id="Grupo_1208707" data-name="Grupo 1208707" transform="translate(-1.454 3213.429)">
            <g id="Grupo_1148635" data-name="Grupo 1148635" transform="translate(908.908 600.047)">
              <g id="Grupo_1148525" data-name="Grupo 1148525" transform="translate(264.046 3721.333)">
                <g transform="matrix(1, 0, 0, 1, -9, -6)" filter="url(#Trazado_982547)">
                  <g id="Trazado_982547-2" data-name="Trazado 982547" transform="translate(9 6)" fill="#f9e3d4">
                    <path d="M 47.5 93.5 C 41.28937149047852 93.5 35.26533508300781 92.28397369384766 29.59518623352051 89.88570404052734 C 24.11771965026855 87.56893157958984 19.19813346862793 84.25196075439453 14.97309303283691 80.02691650390625 C 10.74804019927979 75.80186462402344 7.431066513061523 70.88229370117188 5.114293098449707 65.40481567382812 C 2.716026782989502 59.73468017578125 1.5 53.71062850952148 1.5 47.5 C 1.5 41.28937149047852 2.716026782989502 35.26533508300781 5.114293098449707 29.59518623352051 C 7.431066513061523 24.11771965026855 10.74804019927979 19.19813346862793 14.97309303283691 14.97309303283691 C 19.19813346862793 10.74804019927979 24.11771965026855 7.431066513061523 29.59518623352051 5.114293098449707 C 35.26533508300781 2.716026782989502 41.28937149047852 1.5 47.5 1.5 C 53.71062850952148 1.5 59.73468017578125 2.716026782989502 65.40481567382812 5.114293098449707 C 70.88229370117188 7.431066513061523 75.80186462402344 10.74804019927979 80.02691650390625 14.97309303283691 C 84.25196075439453 19.19813346862793 87.56893157958984 24.11771965026855 89.88570404052734 29.59518623352051 C 92.28397369384766 35.26533508300781 93.5 41.28937149047852 93.5 47.5 C 93.5 53.71062850952148 92.28397369384766 59.73468017578125 89.88570404052734 65.40481567382812 C 87.56893157958984 70.88229370117188 84.25196075439453 75.80186462402344 80.02691650390625 80.02691650390625 C 75.80186462402344 84.25196075439453 70.88229370117188 87.56893157958984 65.40481567382812 89.88570404052734 C 59.73468017578125 92.28397369384766 53.71062850952148 93.5 47.5 93.5 Z" stroke="none"/>
                    <path d="M 47.5 3 C 41.49121475219727 3 35.66376876831055 4.176155090332031 30.17950439453125 6.495796203613281 C 24.88084411621094 8.736953735351562 20.12152099609375 11.94598388671875 16.03375244140625 16.03375244140625 C 11.94598388671875 20.12152099609375 8.736953735351562 24.88084411621094 6.495796203613281 30.17950439453125 C 4.176155090332031 35.66376876831055 3 41.49121475219727 3 47.5 C 3 53.50878524780273 4.176155090332031 59.33623123168945 6.495796203613281 64.82049560546875 C 8.736953735351562 70.11915588378906 11.94598388671875 74.87847900390625 16.03375244140625 78.96624755859375 C 20.12152099609375 83.05401611328125 24.88084411621094 86.26304626464844 30.17950439453125 88.50419616699219 C 35.66376876831055 90.82384490966797 41.49121475219727 92 47.5 92 C 53.50878524780273 92 59.33623123168945 90.82384490966797 64.82049560546875 88.50419616699219 C 70.11915588378906 86.26304626464844 74.87847900390625 83.05401611328125 78.96624755859375 78.96624755859375 C 83.05401611328125 74.87847900390625 86.26304626464844 70.11915588378906 88.50419616699219 64.82049560546875 C 90.82384490966797 59.33623123168945 92 53.50878524780273 92 47.5 C 92 41.49121475219727 90.82384490966797 35.66376876831055 88.50419616699219 30.17950439453125 C 86.26304626464844 24.88084411621094 83.05401611328125 20.12152099609375 78.96624755859375 16.03375244140625 C 74.87847900390625 11.94598388671875 70.11915588378906 8.736953735351562 64.82049560546875 6.495796203613281 C 59.33623123168945 4.176155090332031 53.50878524780273 3 47.5 3 M 47.5 0 C 73.7335205078125 0 95 21.2664794921875 95 47.5 C 95 73.7335205078125 73.7335205078125 95 47.5 95 C 21.2664794921875 95 0 73.7335205078125 0 47.5 C 0 21.2664794921875 21.2664794921875 0 47.5 0 Z" stroke="none" fill="#eca675"/>
                  </g>
                </g>
              </g>
            </g>
          </g>
        </g>
      </g>
    </g>
    <g id="ley_25_" data-name="ley (25)" transform="translate(1171.5 5183.016)">
      <g id="Grupo_1224497" data-name="Grupo 1224497" transform="translate(18.255 63.257)">
        <g id="Grupo_1224492" data-name="Grupo 1224492" transform="translate(0 4.475)">
          <path id="Trazado_1172394" data-name="Trazado 1172394" d="M163.154,359.968a14.247,14.247,0,0,0,3.42,9.383H115.019a1.631,1.631,0,0,1-1.331-.681,16.609,16.609,0,0,1,0-17.4,1.631,1.631,0,0,1,1.331-.681h51.556A14.248,14.248,0,0,0,163.154,359.968Z" transform="translate(-111.226 -350.585)" fill="#fb3a82"/>
          <path id="Trazado_1172395" data-name="Trazado 1172395" d="M126.958,350.587,112.42,366.335a16.474,16.474,0,0,1-1.19-6.365,14.89,14.89,0,0,1,2.462-8.7,1.629,1.629,0,0,1,1.331-.681Z" transform="translate(-111.229 -350.587)" fill="#fb1466"/>
          <path id="Trazado_1172396" data-name="Trazado 1172396" d="M197.719,359.968a14.247,14.247,0,0,0,3.42,9.383H148.8s-3.009-3.046-3.009-9.383,3.009-9.383,3.009-9.383h52.34A14.248,14.248,0,0,0,197.719,359.968Z" transform="translate(-140.118 -350.585)" fill="#e0d3ce"/>
          <g id="Grupo_1224491" data-name="Grupo 1224491" transform="translate(5.673 0)">
            <path id="Trazado_1172397" data-name="Trazado 1172397" d="M155.846,350.587l-10,10.834c-.034-.463-.054-.947-.054-1.451,0-6.337,3.008-9.383,3.008-9.383Z" transform="translate(-145.79 -350.587)" fill="#cdbfbb"/>
            <path id="Trazado_1172398" data-name="Trazado 1172398" d="M430.6,359.974a14.245,14.245,0,0,0,3.42,9.382h-6.2a14.578,14.578,0,0,1,0-18.764h6.2A14.241,14.241,0,0,0,430.6,359.974Z" transform="translate(-378.672 -350.591)" fill="#cdbfbb"/>
          </g>
        </g>
        <g id="Grupo_1224496" data-name="Grupo 1224496" transform="translate(7.063)">
          <g id="Grupo_1224494" data-name="Grupo 1224494" transform="translate(0)">
            <path id="Trazado_1172399" data-name="Trazado 1172399" d="M211.742,326.042a2.723,2.723,0,0,1-2.723,2.723H156.983a2.724,2.724,0,0,1,0-5.447h52.036A2.724,2.724,0,0,1,211.742,326.042Z" transform="translate(-154.26 -323.317)" fill="#fb3a82"/>
            <g id="Grupo_1224493" data-name="Grupo 1224493">
              <path id="Trazado_1172400" data-name="Trazado 1172400" d="M167.057,323.317l-5.027,5.447h-5.047a2.724,2.724,0,0,1,0-5.447Z" transform="translate(-154.26 -323.317)" fill="#fb1466"/>
              <path id="Trazado_1172401" data-name="Trazado 1172401" d="M463.72,326.044A2.726,2.726,0,0,1,461,328.769h-5.282a2.724,2.724,0,0,0,0-5.448H461A2.724,2.724,0,0,1,463.72,326.044Z" transform="translate(-406.237 -323.32)" fill="#fb1466"/>
            </g>
          </g>
          <g id="Grupo_1224495" data-name="Grupo 1224495" transform="translate(0 22.269)">
            <path id="Trazado_1172402" data-name="Trazado 1172402" d="M209.017,464.443H156.98a2.724,2.724,0,0,1,0-5.447h52.036a2.724,2.724,0,0,1,0,5.447Z" transform="translate(-154.257 -458.996)" fill="#fb3a82"/>
            <path id="Trazado_1172403" data-name="Trazado 1172403" d="M463.72,461.723A2.722,2.722,0,0,1,461,464.445h-5.282a2.723,2.723,0,0,0,0-5.445H461A2.724,2.724,0,0,1,463.72,461.723Z" transform="translate(-406.236 -458.999)" fill="#fb1466"/>
          </g>
        </g>
      </g>
      <g id="Grupo_1224505" data-name="Grupo 1224505" transform="translate(-0.001 12.193)">
        <g id="Grupo_1224500" data-name="Grupo 1224500" transform="translate(1.231 32.528)">
          <g id="Grupo_1224498" data-name="Grupo 1224498" transform="translate(0 10.418)">
            <path id="Trazado_1172404" data-name="Trazado 1172404" d="M43.352,278.254l-4.4-4.4L9.025,301.487a4.74,4.74,0,1,0,6.7,6.7Z" transform="translate(-7.5 -273.857)" fill="#873f30"/>
            <path id="Trazado_1172405" data-name="Trazado 1172405" d="M16.775,315.21a4.741,4.741,0,0,1-6.7,0,4.693,4.693,0,0,1-1.156-1.889,4.732,4.732,0,0,0,4.81-1.152c.045-.045.091-.094.135-.14L41.493,282.1l3.045,3.045L16.907,315.072C16.863,315.119,16.819,315.165,16.775,315.21Z" transform="translate(-8.685 -280.744)" fill="#6c3328"/>
          </g>
          <path id="Trazado_1172406" data-name="Trazado 1172406" d="M200.76,210.382l-10.124,12.077,4.136,4.136,12.077-10.124Z" transform="translate(-160.579 -210.382)" fill="#873f30"/>
          <path id="Trazado_1172407" data-name="Trazado 1172407" d="M209.057,210.382l-3.272,3.9.982.982a1.85,1.85,0,0,1,0,2.616l-6.205,6.205,2.507,2.507,12.077-10.124Z" transform="translate(-168.875 -210.382)" fill="#6c3328"/>
          <g id="Grupo_1224499" data-name="Grupo 1224499" transform="translate(26.707 9.604)">
            <path id="Trazado_1172408" data-name="Trazado 1172408" d="M175.107,277.988l-4.015-4.015a2.972,2.972,0,0,1,4.2-4.2l4.015,4.015a2.972,2.972,0,0,1-4.2,4.2Z" transform="translate(-170.222 -268.899)" fill="#ba5d4f"/>
            <path id="Trazado_1172409" data-name="Trazado 1172409" d="M188.687,287.369a2.972,2.972,0,0,1-4.2,0l-3.043-3.043a2.972,2.972,0,0,0,4.2-4.2l3.043,3.043a2.971,2.971,0,0,1,0,4.2Z" transform="translate(-179.6 -278.281)" fill="#a34f41"/>
          </g>
        </g>
        <g id="Grupo_1224501" data-name="Grupo 1224501" transform="translate(32.663 4.925)">
          <path id="Trazado_1172410" data-name="Trazado 1172410" d="M0,0H12.609V19.8H0Z" transform="translate(13.996 0) rotate(45)" fill="#ba5d4f"/>
          <path id="Trazado_1172411" data-name="Trazado 1172411" d="M0,0H12.609V19.8H0Z" transform="translate(28.442 42.449) rotate(-135)" fill="#a34f41"/>
        </g>
        <g id="Grupo_1224504" data-name="Grupo 1224504" transform="translate(0 0)">
          <path id="Trazado_1172412" data-name="Trazado 1172412" d="M177.67,40.455l-.31-.31a3.007,3.007,0,0,1,0-4.252l15.319-15.319a3.007,3.007,0,0,1,4.252,0l.31.31a3.007,3.007,0,0,1,0,4.252L181.923,40.455a3.007,3.007,0,0,1-4.252,0Z" transform="translate(-147.515 -18.463)" fill="#873f30"/>
          <path id="Trazado_1172413" data-name="Trazado 1172413" d="M349.124,211.909l.31.31a3.007,3.007,0,0,0,4.252,0L369.005,196.9a3.007,3.007,0,0,0,0-4.252l-.31-.31a3.007,3.007,0,0,0-4.252,0l-15.319,15.319A3.007,3.007,0,0,0,349.124,211.909Z" transform="translate(-291.087 -162.035)" fill="#6c3328"/>
          <g id="Grupo_1224503" data-name="Grupo 1224503">
            <path id="Trazado_1172414" data-name="Trazado 1172414" d="M0,0H14.16V29.9H0Z" transform="translate(59.442 10.565) rotate(45)" fill="#fcc16d"/>
            <path id="Trazado_1172415" data-name="Trazado 1172415" d="M0,0H29.9V7.167H0Z" transform="translate(43.243 36.658) rotate(-45)" fill="#fca62f"/>
            <path id="Trazado_1172416" data-name="Trazado 1172416" d="M246.436,68.036l-2.453-1a2.255,2.255,0,0,0-2.448.493L224.313,84.749a2.256,2.256,0,0,0-.493,2.448l1,2.453a1.5,1.5,0,0,0,2.455.494L246.93,70.491A1.5,1.5,0,0,0,246.436,68.036Z" transform="translate(-186.945 -57.893)" fill="#873f30"/>
            <path id="Trazado_1172417" data-name="Trazado 1172417" d="M310.969,132.57l1,2.453a2.255,2.255,0,0,1-.493,2.448l-17.222,17.222a2.256,2.256,0,0,1-2.448.493l-2.453-1a1.5,1.5,0,0,1-.494-2.455l19.653-19.653A1.5,1.5,0,0,1,310.969,132.57Z" transform="translate(-241.083 -112.032)" fill="#6c3328"/>
            <g id="Grupo_1224502" data-name="Grupo 1224502">
              <path id="Trazado_1172418" data-name="Trazado 1172418" d="M80.077,84.294h-.916a12.731,12.731,0,0,1-1.06-2.021,1.231,1.231,0,0,0-2.275.942c.152.368.322.726.5,1.079H28.041a3.939,3.939,0,0,0-1.073.149,14.309,14.309,0,0,1-1.809-7.329c0-.537.024-1.066.07-1.584H48.813a1.231,1.231,0,1,0,0-2.462H26.266l2.892-3.133H76.321a15.366,15.366,0,0,0-1.185,3.133H58.956a1.231,1.231,0,0,0,0,2.462H74.705c-.048.5-.076,1.005-.078,1.515a1.231,1.231,0,0,0,1.226,1.236h.005a1.231,1.231,0,0,0,1.231-1.226,13.172,13.172,0,0,1,2.07-7.12h.918a3.954,3.954,0,0,0,0-7.909H64.689l14.1-14.1a4.238,4.238,0,0,0,0-5.993l-.31-.31a4.236,4.236,0,0,0-5.775-.2l-2.179-2.179.742-.742a3.478,3.478,0,0,0,.762-3.784l-1-2.453a2.728,2.728,0,0,0-1.98-1.643L67.332,28.91a1.231,1.231,0,0,0-1.741,1.741l.842.842-19.4,19.4-5.705-5.705,19.4-19.4.755.755A1.231,1.231,0,1,0,63.225,24.8L61.6,23.178A2.729,2.729,0,0,0,59.957,21.2h0l-2.453-1a3.479,3.479,0,0,0-3.784.762l-.742.742L50.8,19.519a4.236,4.236,0,0,0-.2-5.775l-.31-.31a4.238,4.238,0,0,0-5.993,0L28.975,28.753a4.238,4.238,0,0,0,0,5.993l.31.31a4.236,4.236,0,0,0,5.775.2l2.179,2.179-.742.742a3.478,3.478,0,0,0-.762,3.784l1,2.453a2.727,2.727,0,0,0,1.952,1.637l-6.172,7.363a4.205,4.205,0,0,0-5.555,5.332l-2.8,2.584a1.231,1.231,0,0,0,1.67,1.809l2.587-2.388L31.469,63.8,8.548,88.631A3.509,3.509,0,1,1,3.59,83.674l17.98-16.6a1.231,1.231,0,0,0-1.67-1.809L1.92,81.865A5.97,5.97,0,0,0,5.966,92.222h.123A5.92,5.92,0,0,0,10.357,90.3l7.377-7.992a14.187,14.187,0,0,0,1.979,4.22,2.866,2.866,0,0,0,2.334,1.2h2.074A3.948,3.948,0,0,0,28.041,92.2H80.077a3.954,3.954,0,1,0,0-7.909Zm1.492-18.313a1.494,1.494,0,0,1-1.493,1.493H31.431l2.046-2.217a4.207,4.207,0,0,0,4.2-.769h42.4a1.494,1.494,0,0,1,1.492,1.493ZM44.434,51.775,37.306,57.75l-2.834-2.834,5.975-7.128Zm-5.37,10.252a4.227,4.227,0,0,0-.257-2.322l7.362-6.172a2.728,2.728,0,0,0,1.637,1.952l2.453,1a3.479,3.479,0,0,0,3.784-.762l.742-.742,2.179,2.179a4.246,4.246,0,0,0-.49,4.864H39.064Zm36.418-19.18a1.764,1.764,0,0,1,1.256.52l.31.31a1.776,1.776,0,0,1,0,2.511L61.728,61.506a1.776,1.776,0,0,1-2.511,0l-.31-.31a1.778,1.778,0,0,1,0-2.511L74.226,43.366a1.763,1.763,0,0,1,1.256-.52Zm-4.528.31L58.7,55.413l-2.171-2.171L68.783,40.985Zm-22.305,9.6L68.3,33.108a.259.259,0,0,1,.188-.08.3.3,0,0,1,.058.006.262.262,0,0,1,.2.164l1,2.453a1.021,1.021,0,0,1-.224,1.112L52.3,53.984a1.022,1.022,0,0,1-1.112.224l-2.453-1a.273.273,0,0,1-.09-.445ZM32.281,33.836a1.763,1.763,0,0,1-1.256-.52l-.31-.31a1.776,1.776,0,0,1,0-2.511L46.035,15.176a1.776,1.776,0,0,1,2.511,0l.31.31a1.776,1.776,0,0,1,0,2.511L33.537,33.316a1.766,1.766,0,0,1-1.256.52Zm4.528-.31L49.066,21.268l2.171,2.171L38.98,35.7Zm1.429,6.394L55.46,22.7a1.022,1.022,0,0,1,1.112-.224l2.453,1a.272.272,0,0,1,.089.445L39.461,43.574a.272.272,0,0,1-.445-.09l-1-2.453A1.022,1.022,0,0,1,38.238,39.92ZM29.168,57.3a1.741,1.741,0,0,1,2.972-1.231l4.015,4.015a1.741,1.741,0,1,1-2.462,2.462l-4.015-4.015a1.73,1.73,0,0,1-.51-1.231ZM21.72,85.1a12.418,12.418,0,0,1-1.971-4.975l2.951-3.2c0,.061,0,.122,0,.183a17.079,17.079,0,0,0,1.909,8.152H22.048A.4.4,0,0,1,21.72,85.1Zm58.357,4.638H28.041a1.493,1.493,0,1,1,0-2.985H80.077a1.493,1.493,0,1,1,0,2.985Z" transform="translate(0.001 -12.193)"/>
              <path id="Trazado_1172419" data-name="Trazado 1172419" d="M203.558,417.166a1.231,1.231,0,1,0,0,2.462h28.677a1.231,1.231,0,0,0,0-2.462Z" transform="translate(-169.12 -350.699)"/>
            </g>
          </g>
        </g>
      </g>
    </g>
  </g>
</svg>
