<svg xmlns="http://www.w3.org/2000/svg" xmlns:xlink="http://www.w3.org/1999/xlink" width="103" height="103" viewBox="0 0 103 103">
  <defs>
    <filter id="Trazado_978624" x="0" y="0" width="103" height="103" filterUnits="userSpaceOnUse">
      <feOffset dy="3" input="SourceAlpha"/>
      <feGaussianBlur stdDeviation="3" result="blur"/>
      <feFlood flood-opacity="0.161"/>
      <feComposite operator="in" in2="blur"/>
      <feComposite in="SourceGraphic"/>
    </filter>
  </defs>
  <g id="Grupo_1224521" data-name="Grupo 1224521" transform="translate(-199 -6258)">
    <g id="Grupo_1223645" data-name="Grupo 1223645" transform="translate(208 6264)">
      <g id="Grupo_1214665" data-name="Grupo 1214665">
        <g id="Grupo_1180764" data-name="Grupo 1180764">
          <g id="Grupo_1179463" data-name="Grupo 1179463">
            <g id="Grupo_1144531" data-name="Grupo 1144531">
              <g transform="matrix(1, 0, 0, 1, -9, -6)" filter="url(#Trazado_978624)">
                <g id="Trazado_978624-2" data-name="Trazado 978624" transform="translate(9 6)" fill="#f2f4f0">
                  <path d="M 42.5 83.5 C 36.96437835693359 83.5 31.59512901306152 82.41617584228516 26.54141235351562 80.27863311767578 C 21.65934181213379 78.21369171142578 17.27447128295898 75.25723266601562 13.50862312316895 71.49137878417969 C 9.742764472961426 67.72553253173828 6.786305904388428 63.34066009521484 4.721364498138428 58.45858764648438 C 2.583823442459106 53.40486907958984 1.5 48.03562164306641 1.5 42.5 C 1.5 36.96437835693359 2.583823442459106 31.59512901306152 4.721364498138428 26.54141235351562 C 6.786305904388428 21.65934181213379 9.742764472961426 17.27447128295898 13.50862312316895 13.50862312316895 C 17.27447128295898 9.742764472961426 21.65934181213379 6.786305904388428 26.54141235351562 4.721364498138428 C 31.59512901306152 2.583823442459106 36.96437835693359 1.5 42.5 1.5 C 48.03562164306641 1.5 53.40486907958984 2.583823442459106 58.45858764648438 4.721364498138428 C 63.34066009521484 6.786305904388428 67.72553253173828 9.742764472961426 71.49137878417969 13.50862312316895 C 75.25723266601562 17.27447128295898 78.21369171142578 21.65934181213379 80.27863311767578 26.54141235351562 C 82.41617584228516 31.59512901306152 83.5 36.96437835693359 83.5 42.5 C 83.5 48.03562164306641 82.41617584228516 53.40486907958984 80.27863311767578 58.45858764648438 C 78.21369171142578 63.34066009521484 75.25723266601562 67.72553253173828 71.49137878417969 71.49137878417969 C 67.72553253173828 75.25723266601562 63.34066009521484 78.21369171142578 58.45858764648438 80.27863311767578 C 53.40486907958984 82.41617584228516 48.03562164306641 83.5 42.5 83.5 Z" stroke="none"/>
                  <path d="M 42.5 3 C 37.16621398925781 3 31.99356079101562 4.043960571289062 27.125732421875 6.102882385253906 C 22.42246627807617 8.092185974121094 18.19785308837891 10.94070434570312 14.56928253173828 14.56928253173828 C 10.94070434570312 18.19785308837891 8.092185974121094 22.42246627807617 6.102882385253906 27.125732421875 C 4.043960571289062 31.99356079101562 3 37.16621398925781 3 42.5 C 3 47.83378601074219 4.043960571289062 53.00643920898438 6.102882385253906 57.87425231933594 C 8.092185974121094 62.57753372192383 10.94070434570312 66.80213165283203 14.56928253173828 70.43071746826172 C 18.19786834716797 74.05929565429688 22.42246627807617 76.90781402587891 27.125732421875 78.89711761474609 C 31.99356079101562 80.95603942871094 37.16621398925781 82 42.5 82 C 47.83378601074219 82 53.00642395019531 80.95603942871094 57.87425231933594 78.89711761474609 C 62.57753372192383 76.90781402587891 66.80213165283203 74.05929565429688 70.43071746826172 70.43071746826172 C 74.05929565429688 66.80213165283203 76.90781402587891 62.57753372192383 78.89711761474609 57.87425231933594 C 80.95603942871094 53.00642395019531 82 47.83378601074219 82 42.5 C 82 37.16621398925781 80.95603942871094 31.99356079101562 78.89711761474609 27.125732421875 C 76.90781402587891 22.42246627807617 74.05929565429688 18.19786834716797 70.43071746826172 14.56928253173828 C 66.80213165283203 10.94070434570312 62.57753372192383 8.092185974121094 57.87425231933594 6.102882385253906 C 53.00643920898438 4.043960571289062 47.83378601074219 3 42.5 3 M 42.5 0 C 65.97209167480469 0 85 19.02789306640625 85 42.5 C 85 65.97209167480469 65.97209167480469 85 42.5 85 C 19.02789306640625 85 0 65.97209167480469 0 42.5 C 0 19.02789306640625 19.02789306640625 0 42.5 0 Z" stroke="none" fill="#4a5641"/>
                </g>
              </g>
            </g>
          </g>
        </g>
      </g>
    </g>
    <g id="ley_26_" data-name="ley (26)" transform="translate(220 6278)">
      <g id="Grupo_1224519" data-name="Grupo 1224519">
        <g id="Grupo_1224507" data-name="Grupo 1224507">
          <path id="Trazado_1172420" data-name="Trazado 1172420" d="M58,49,34.8,60.13a8.734,8.734,0,0,1-7.6,0L4,49A86.648,86.648,0,0,0,8.04,32.94,7.732,7.732,0,0,0,9,33a7.986,7.986,0,0,0,3.17-.65A89.128,89.128,0,0,1,8.91,46.92l20.02,9.61a4.539,4.539,0,0,0,1.62.44,3.39,3.39,0,0,0,.9,0,4.539,4.539,0,0,0,1.62-.44l20.02-9.61a89.127,89.127,0,0,1-3.26-14.57A7.986,7.986,0,0,0,53,33a7.732,7.732,0,0,0,.96-.06A86.649,86.649,0,0,0,58,49Z" fill="#aab2bd"/>
        </g>
        <g id="Grupo_1224508" data-name="Grupo 1224508">
          <path id="Trazado_1172421" data-name="Trazado 1172421" d="M53.09,46.92,33.07,56.53a4.539,4.539,0,0,1-1.62.44,3.086,3.086,0,0,0,2.36-1.8A37,37,0,0,0,37,40.15V23h3a1,1,0,0,0,1-1V20a1,1,0,0,0-1-1H34V12.19A5.956,5.956,0,0,0,36.65,9H52L45,25a8.014,8.014,0,0,0,2.34,5.66,8.189,8.189,0,0,0,2.49,1.69A89.128,89.128,0,0,0,53.09,46.92Z" fill="#ccd1d9"/>
        </g>
        <g id="Grupo_1224509" data-name="Grupo 1224509">
          <path id="Trazado_1172422" data-name="Trazado 1172422" d="M30.55,56.97a4.539,4.539,0,0,1-1.62-.44L8.91,46.92a89.128,89.128,0,0,0,3.26-14.57,8.189,8.189,0,0,0,2.49-1.69A8.014,8.014,0,0,0,17,25L10,9H25.35A5.956,5.956,0,0,0,28,12.19V19H22a1,1,0,0,0-1,1v2a1,1,0,0,0,1,1h3V40.15a36.621,36.621,0,0,0,.81,7.68,37,37,0,0,0,2.38,7.34A3.086,3.086,0,0,0,30.55,56.97Z" fill="#ccd1d9"/>
        </g>
        <g id="Grupo_1224510" data-name="Grupo 1224510">
          <path id="Trazado_1172423" data-name="Trazado 1172423" d="M34,12.19V19H28V12.19a5.961,5.961,0,0,0,6,0Z" fill="#b27946"/>
        </g>
        <g id="Grupo_1224511" data-name="Grupo 1224511">
          <path id="Trazado_1172424" data-name="Trazado 1172424" d="M41,20v2a1,1,0,0,1-1,1H22a1,1,0,0,1-1-1V20a1,1,0,0,1,1-1H40A1,1,0,0,1,41,20Z" fill="#d3a06c"/>
        </g>
        <g id="Grupo_1224512" data-name="Grupo 1224512">
          <path id="Trazado_1172425" data-name="Trazado 1172425" d="M37,23l-6,6-6-6Z" fill="#fcd770"/>
        </g>
        <g id="Grupo_1224513" data-name="Grupo 1224513">
          <path id="Trazado_1172426" data-name="Trazado 1172426" d="M31,29l-6-6V40.15a36.621,36.621,0,0,0,.81,7.68,37,37,0,0,0,2.38,7.34,3.086,3.086,0,0,0,2.36,1.8,3.39,3.39,0,0,0,.9,0,3.086,3.086,0,0,0,2.36-1.8A37,37,0,0,0,37,40.15V23Z" fill="#ffeaa7"/>
        </g>
        <g id="Grupo_1224514" data-name="Grupo 1224514">
          <path id="Trazado_1172427" data-name="Trazado 1172427" d="M52,9H36.65a5.889,5.889,0,0,0,0-4H57a2,2,0,0,1,0,4H52Z" fill="#b27946"/>
        </g>
        <g id="Grupo_1224515" data-name="Grupo 1224515">
          <path id="Trazado_1172428" data-name="Trazado 1172428" d="M5,5H25.35a5.889,5.889,0,0,0,0,4H5A2,2,0,0,1,5,5Z" fill="#b27946"/>
        </g>
        <g id="Grupo_1224516" data-name="Grupo 1224516">
          <path id="Trazado_1172429" data-name="Trazado 1172429" d="M36.65,5a5.889,5.889,0,0,1,0,4A5.956,5.956,0,0,1,34,12.19a5.961,5.961,0,0,1-6,0A5.956,5.956,0,0,1,25.35,9a5.889,5.889,0,0,1,0-4,5.99,5.99,0,0,1,11.3,0ZM33,7a2,2,0,1,0-2,2A2.006,2.006,0,0,0,33,7Z" fill="#d3a06c"/>
        </g>
        <g id="Grupo_1224517" data-name="Grupo 1224517">
          <path id="Trazado_1172430" data-name="Trazado 1172430" d="M45,25H61a7.982,7.982,0,0,1-7.04,7.94A7.732,7.732,0,0,1,53,33a7.986,7.986,0,0,1-3.17-.65,8.189,8.189,0,0,1-2.49-1.69A8.014,8.014,0,0,1,45,25Z" fill="#fcd770"/>
        </g>
        <g id="Grupo_1224518" data-name="Grupo 1224518">
          <path id="Trazado_1172431" data-name="Trazado 1172431" d="M1,25H17a8.014,8.014,0,0,1-2.34,5.66,8.189,8.189,0,0,1-2.49,1.69A7.986,7.986,0,0,1,9,33a7.732,7.732,0,0,1-.96-.06A7.982,7.982,0,0,1,1,25Z" fill="#fcd770"/>
        </g>
      </g>
      <g id="Grupo_1224520" data-name="Grupo 1224520">
        <path id="Trazado_1172432" data-name="Trazado 1172432" d="M55.529,10H57a3,3,0,0,0,0-6H37.315a6.985,6.985,0,0,0-12.63,0H5a3,3,0,0,0,0,6H6.471L0,24.791V25a9.008,9.008,0,0,0,6.884,8.738A85.058,85.058,0,0,1,3.058,48.664l-.3.848L26.764,61.036a9.789,9.789,0,0,0,8.472,0L59.245,49.512l-.3-.848a85.058,85.058,0,0,1-3.826-14.926A9.008,9.008,0,0,0,62,25v-.209Zm-6.6,23.014a90.821,90.821,0,0,0,2.954,13.379l-16.659,8A37.735,37.735,0,0,0,38,40.151V24h2a2,2,0,0,0,2-2V20a2,2,0,0,0-2-2H35V12.736A7.037,7.037,0,0,0,37.315,10H50.471L44,24.791V25a9,9,0,0,0,4.924,8.014ZM18,25v-.209L11.529,10H24.685A7.037,7.037,0,0,0,27,12.736V18H22a2,2,0,0,0-2,2v2a2,2,0,0,0,2,2h2V40.151a37.716,37.716,0,0,0,2.782,14.238l-16.66-8a90.693,90.693,0,0,0,2.954-13.379A9,9,0,0,0,18,25Zm13,2.586L27.414,24h7.172Zm-5-2.172,4,4V55.725a2.06,2.06,0,0,1-.9-.959A35.745,35.745,0,0,1,26,40.151Zm6,30.311V29.414l4-4V40.151a35.767,35.767,0,0,1-3.1,14.615,2.057,2.057,0,0,1-.9.959ZM22,22V20H40v2Zm7-4v-4.3a6.927,6.927,0,0,0,4,0V18Zm23.654-8h.693l6.125,14H46.529ZM57,6a1,1,0,0,1,0,2H37.92A7.026,7.026,0,0,0,38,7a7.026,7.026,0,0,0-.08-1ZM31,2a5,5,0,1,1-5,5A5.006,5.006,0,0,1,31,2ZM4,7A1,1,0,0,1,5,6H24.08A7.026,7.026,0,0,0,24,7a7.026,7.026,0,0,0,.08,1H5A1,1,0,0,1,4,7Zm5.346,3,6.125,14H2.529L8.654,10ZM2.076,26H15.925A7,7,0,0,1,2.076,26ZM56.76,48.486,34.371,59.233a7.934,7.934,0,0,1-6.741,0L5.24,48.486A87,87,0,0,0,8.87,33.993c.044,0,.086.007.13.007a9.011,9.011,0,0,0,1.928-.213,88.783,88.783,0,0,1-2.97,12.836l-.258.826,20.794,9.98a5.787,5.787,0,0,0,5.011,0L54.3,47.45l-.258-.826a88.844,88.844,0,0,1-2.97-12.836A9.076,9.076,0,0,0,53,34c.044,0,.086-.006.13-.007A86.948,86.948,0,0,0,56.76,48.486ZM53,32a7.007,7.007,0,0,1-6.924-6H59.925A7.009,7.009,0,0,1,53,32Z"/>
        <path id="Trazado_1172433" data-name="Trazado 1172433" d="M31,10a3,3,0,1,0-3-3A3,3,0,0,0,31,10Zm0-4a1,1,0,1,1-1,1A1,1,0,0,1,31,6Z"/>
      </g>
    </g>
  </g>
</svg>
