<svg xmlns="http://www.w3.org/2000/svg" xmlns:xlink="http://www.w3.org/1999/xlink" width="103" height="103" viewBox="0 0 103 103">
  <defs>
    <filter id="Trazado_978624" x="0" y="0" width="103" height="103" filterUnits="userSpaceOnUse">
      <feOffset dy="3" input="SourceAlpha"/>
      <feGaussianBlur stdDeviation="3" result="blur"/>
      <feFlood flood-opacity="0.161"/>
      <feComposite operator="in" in2="blur"/>
      <feComposite in="SourceGraphic"/>
    </filter>
  </defs>
  <g id="Grupo_1223905" data-name="Grupo 1223905" transform="translate(-193 -5497)">
    <g id="Grupo_1223346" data-name="Grupo 1223346" transform="translate(202 5503)">
      <g id="Grupo_1215982" data-name="Grupo 1215982">
        <g id="Grupo_1214665" data-name="Grupo 1214665">
          <g id="Grupo_1180764" data-name="Grupo 1180764">
            <g id="Grupo_1179463" data-name="Grupo 1179463">
              <g id="Grupo_1144531" data-name="Grupo 1144531">
                <g transform="matrix(1, 0, 0, 1, -9, -6)" filter="url(#Trazado_978624)">
                  <g id="Trazado_978624-2" data-name="Trazado 978624" transform="translate(9 6)" fill="#f2f4f0">
                    <path d="M 42.5 83.5 C 36.96437835693359 83.5 31.59512901306152 82.41617584228516 26.54141235351562 80.27863311767578 C 21.65934181213379 78.21369171142578 17.27447128295898 75.25723266601562 13.50862312316895 71.49137878417969 C 9.742764472961426 67.72553253173828 6.786305904388428 63.34066009521484 4.721364498138428 58.45858764648438 C 2.583823442459106 53.40486907958984 1.5 48.03562164306641 1.5 42.5 C 1.5 36.96437835693359 2.583823442459106 31.59512901306152 4.721364498138428 26.54141235351562 C 6.786305904388428 21.65934181213379 9.742764472961426 17.27447128295898 13.50862312316895 13.50862312316895 C 17.27447128295898 9.742764472961426 21.65934181213379 6.786305904388428 26.54141235351562 4.721364498138428 C 31.59512901306152 2.583823442459106 36.96437835693359 1.5 42.5 1.5 C 48.03562164306641 1.5 53.40486907958984 2.583823442459106 58.45858764648438 4.721364498138428 C 63.34066009521484 6.786305904388428 67.72553253173828 9.742764472961426 71.49137878417969 13.50862312316895 C 75.25723266601562 17.27447128295898 78.21369171142578 21.65934181213379 80.27863311767578 26.54141235351562 C 82.41617584228516 31.59512901306152 83.5 36.96437835693359 83.5 42.5 C 83.5 48.03562164306641 82.41617584228516 53.40486907958984 80.27863311767578 58.45858764648438 C 78.21369171142578 63.34066009521484 75.25723266601562 67.72553253173828 71.49137878417969 71.49137878417969 C 67.72553253173828 75.25723266601562 63.34066009521484 78.21369171142578 58.45858764648438 80.27863311767578 C 53.40486907958984 82.41617584228516 48.03562164306641 83.5 42.5 83.5 Z" stroke="none"/>
                    <path d="M 42.5 3 C 37.16621398925781 3 31.99356079101562 4.043960571289062 27.125732421875 6.102882385253906 C 22.42246627807617 8.092185974121094 18.19785308837891 10.94070434570312 14.56928253173828 14.56928253173828 C 10.94070434570312 18.19785308837891 8.092185974121094 22.42246627807617 6.102882385253906 27.125732421875 C 4.043960571289062 31.99356079101562 3 37.16621398925781 3 42.5 C 3 47.83378601074219 4.043960571289062 53.00643920898438 6.102882385253906 57.87425231933594 C 8.092185974121094 62.57753372192383 10.94070434570312 66.80213165283203 14.56928253173828 70.43071746826172 C 18.19786834716797 74.05929565429688 22.42246627807617 76.90781402587891 27.125732421875 78.89711761474609 C 31.99356079101562 80.95603942871094 37.16621398925781 82 42.5 82 C 47.83378601074219 82 53.00642395019531 80.95603942871094 57.87425231933594 78.89711761474609 C 62.57753372192383 76.90781402587891 66.80213165283203 74.05929565429688 70.43071746826172 70.43071746826172 C 74.05929565429688 66.80213165283203 76.90781402587891 62.57753372192383 78.89711761474609 57.87425231933594 C 80.95603942871094 53.00642395019531 82 47.83378601074219 82 42.5 C 82 37.16621398925781 80.95603942871094 31.99356079101562 78.89711761474609 27.125732421875 C 76.90781402587891 22.42246627807617 74.05929565429688 18.19786834716797 70.43071746826172 14.56928253173828 C 66.80213165283203 10.94070434570312 62.57753372192383 8.092185974121094 57.87425231933594 6.102882385253906 C 53.00643920898438 4.043960571289062 47.83378601074219 3 42.5 3 M 42.5 0 C 65.97209167480469 0 85 19.02789306640625 85 42.5 C 85 65.97209167480469 65.97209167480469 85 42.5 85 C 19.02789306640625 85 0 65.97209167480469 0 42.5 C 0 19.02789306640625 19.02789306640625 0 42.5 0 Z" stroke="none" fill="#4a5641"/>
                  </g>
                </g>
              </g>
            </g>
          </g>
        </g>
      </g>
    </g>
    <g id="ley_24_" data-name="ley (24)" transform="translate(202.001 5498.13)">
      <g id="Grupo_1223863" data-name="Grupo 1223863" transform="translate(17.718 61.756)">
        <g id="Grupo_1223858" data-name="Grupo 1223858" transform="translate(0 4.344)">
          <path id="Trazado_1170548" data-name="Trazado 1170548" d="M161.628,359.692a13.828,13.828,0,0,0,3.32,9.107h-50.04a1.583,1.583,0,0,1-1.292-.661,16.12,16.12,0,0,1,0-16.891,1.583,1.583,0,0,1,1.292-.661h50.04A13.829,13.829,0,0,0,161.628,359.692Z" transform="translate(-111.226 -350.585)" fill="#fb3a82"/>
          <path id="Trazado_1170549" data-name="Trazado 1170549" d="M126.5,350.587l-14.111,15.285a15.991,15.991,0,0,1-1.155-6.178,14.453,14.453,0,0,1,2.39-8.446,1.581,1.581,0,0,1,1.292-.661Z" transform="translate(-111.229 -350.587)" fill="#fb1466"/>
          <path id="Trazado_1170550" data-name="Trazado 1170550" d="M196.193,359.692a13.828,13.828,0,0,0,3.32,9.107h-50.8s-2.92-2.957-2.92-9.107,2.92-9.107,2.92-9.107h50.8A13.829,13.829,0,0,0,196.193,359.692Z" transform="translate(-140.285 -350.585)" fill="#e0d3ce"/>
          <g id="Grupo_1223857" data-name="Grupo 1223857" transform="translate(5.506 0)">
            <path id="Trazado_1170551" data-name="Trazado 1170551" d="M155.55,350.587,145.843,361.1c-.033-.449-.053-.919-.053-1.408,0-6.151,2.92-9.107,2.92-9.107Z" transform="translate(-145.79 -350.587)" fill="#cdbfbb"/>
            <path id="Trazado_1170552" data-name="Trazado 1170552" d="M430.419,359.7a13.827,13.827,0,0,0,3.32,9.106h-6.02a14.149,14.149,0,0,1,0-18.213h6.02A13.823,13.823,0,0,0,430.419,359.7Z" transform="translate(-380.016 -350.591)" fill="#cdbfbb"/>
          </g>
        </g>
        <g id="Grupo_1223862" data-name="Grupo 1223862" transform="translate(6.855)">
          <g id="Grupo_1223860" data-name="Grupo 1223860" transform="translate(0)">
            <path id="Trazado_1170553" data-name="Trazado 1170553" d="M210.052,325.961a2.643,2.643,0,0,1-2.643,2.643H156.9a2.644,2.644,0,0,1,0-5.287h50.507A2.644,2.644,0,0,1,210.052,325.961Z" transform="translate(-154.26 -323.317)" fill="#fb3a82"/>
            <g id="Grupo_1223859" data-name="Grupo 1223859">
              <path id="Trazado_1170554" data-name="Trazado 1170554" d="M166.681,323.317,161.8,328.6h-4.9a2.644,2.644,0,0,1,0-5.287Z" transform="translate(-154.26 -323.317)" fill="#fb1466"/>
              <path id="Trazado_1170555" data-name="Trazado 1170555" d="M463.485,325.964a2.646,2.646,0,0,1-2.645,2.645h-5.127a2.644,2.644,0,0,0,0-5.288h5.127A2.644,2.644,0,0,1,463.485,325.964Z" transform="translate(-407.691 -323.32)" fill="#fb1466"/>
            </g>
          </g>
          <g id="Grupo_1223861" data-name="Grupo 1223861" transform="translate(0 21.614)">
            <path id="Trazado_1170556" data-name="Trazado 1170556" d="M207.407,464.283H156.9a2.643,2.643,0,0,1,0-5.287h50.506a2.643,2.643,0,1,1,0,5.287Z" transform="translate(-154.257 -458.996)" fill="#fb3a82"/>
            <path id="Trazado_1170557" data-name="Trazado 1170557" d="M463.485,461.643a2.642,2.642,0,0,1-2.645,2.643h-5.127a2.643,2.643,0,1,0,0-5.285h5.127A2.644,2.644,0,0,1,463.485,461.643Z" transform="translate(-407.691 -458.999)" fill="#fb1466"/>
          </g>
        </g>
      </g>
      <g id="Grupo_1223871" data-name="Grupo 1223871" transform="translate(-0.001 12.193)">
        <g id="Grupo_1223866" data-name="Grupo 1223866" transform="translate(1.195 31.572)">
          <g id="Grupo_1223864" data-name="Grupo 1223864" transform="translate(0 10.112)">
            <path id="Trazado_1170558" data-name="Trazado 1170558" d="M42.3,278.125l-4.268-4.268L8.98,300.675a4.6,4.6,0,1,0,6.5,6.5Z" transform="translate(-7.5 -273.857)" fill="#873f30"/>
            <path id="Trazado_1170559" data-name="Trazado 1170559" d="M16.544,314.236a4.6,4.6,0,0,1-6.5,0A4.555,4.555,0,0,1,8.918,312.4a4.593,4.593,0,0,0,4.668-1.118c.044-.044.088-.091.131-.136L40.536,282.1l2.955,2.955L16.672,314.1C16.63,314.148,16.587,314.193,16.544,314.236Z" transform="translate(-8.692 -280.784)" fill="#6c3328"/>
          </g>
          <path id="Trazado_1170560" data-name="Trazado 1170560" d="M200.463,210.382,190.636,222.1l4.014,4.014,11.722-9.827Z" transform="translate(-161.462 -210.382)" fill="#873f30"/>
          <path id="Trazado_1170561" data-name="Trazado 1170561" d="M208.808,210.382l-3.175,3.788.953.953a1.8,1.8,0,0,1,0,2.54l-6.023,6.023L203,226.118l11.722-9.827Z" transform="translate(-169.807 -210.382)" fill="#6c3328"/>
          <g id="Grupo_1223865" data-name="Grupo 1223865" transform="translate(25.922 9.322)">
            <path id="Trazado_1170562" data-name="Trazado 1170562" d="M174.964,277.721l-3.9-3.9a2.885,2.885,0,0,1,4.08-4.08l3.9,3.9a2.885,2.885,0,0,1-4.08,4.08Z" transform="translate(-170.222 -268.899)" fill="#ba5d4f"/>
            <path id="Trazado_1170563" data-name="Trazado 1170563" d="M188.474,287.156a2.885,2.885,0,0,1-4.08,0l-2.954-2.954a2.885,2.885,0,0,0,4.08-4.08l2.954,2.954A2.884,2.884,0,0,1,188.474,287.156Z" transform="translate(-179.654 -278.335)" fill="#a34f41"/>
          </g>
        </g>
        <g id="Grupo_1223867" data-name="Grupo 1223867" transform="translate(31.703 4.78)">
          <path id="Trazado_1170564" data-name="Trazado 1170564" d="M0,0H12.238V19.214H0Z" transform="translate(13.584 0) rotate(45)" fill="#ba5d4f"/>
          <path id="Trazado_1170565" data-name="Trazado 1170565" d="M0,0H12.238V19.214H0Z" transform="translate(27.606 41.201) rotate(-135)" fill="#a34f41"/>
        </g>
        <g id="Grupo_1223870" data-name="Grupo 1223870" transform="translate(0 0)">
          <path id="Trazado_1170566" data-name="Trazado 1170566" d="M177.635,39.845l-.3-.3a2.918,2.918,0,0,1,0-4.127L192.2,20.549a2.918,2.918,0,0,1,4.127,0l.3.3a2.918,2.918,0,0,1,0,4.127L181.763,39.845A2.919,2.919,0,0,1,177.635,39.845Z" transform="translate(-148.366 -18.499)" fill="#873f30"/>
          <path id="Trazado_1170567" data-name="Trazado 1170567" d="M349.1,211.308l.3.3a2.918,2.918,0,0,0,4.127,0l14.869-14.869a2.918,2.918,0,0,0,0-4.127l-.3-.3a2.918,2.918,0,0,0-4.127,0L349.1,207.18A2.919,2.919,0,0,0,349.1,211.308Z" transform="translate(-292.768 -162.9)" fill="#6c3328"/>
          <g id="Grupo_1223869" data-name="Grupo 1223869">
            <path id="Trazado_1170568" data-name="Trazado 1170568" d="M0,0H13.744V29.018H0Z" transform="translate(57.695 10.254) rotate(45)" fill="#fcc16d"/>
            <path id="Trazado_1170569" data-name="Trazado 1170569" d="M0,0H29.018V6.956H0Z" transform="translate(41.972 35.58) rotate(-45)" fill="#fca62f"/>
            <path id="Trazado_1170570" data-name="Trazado 1170570" d="M245.766,68l-2.381-.973a2.189,2.189,0,0,0-2.376.478L224.293,84.223a2.189,2.189,0,0,0-.478,2.376l.973,2.381a1.459,1.459,0,0,0,2.383.48l19.075-19.075A1.459,1.459,0,0,0,245.766,68Z" transform="translate(-188.024 -58.156)" fill="#873f30"/>
            <path id="Trazado_1170571" data-name="Trazado 1170571" d="M310.306,132.543l.973,2.381a2.189,2.189,0,0,1-.478,2.376l-16.716,16.716a2.189,2.189,0,0,1-2.376.478l-2.381-.973a1.459,1.459,0,0,1-.48-2.383l19.075-19.075A1.459,1.459,0,0,1,310.306,132.543Z" transform="translate(-242.474 -112.608)" fill="#6c3328"/>
            <g id="Grupo_1223868" data-name="Grupo 1223868">
              <path id="Trazado_1170572" data-name="Trazado 1170572" d="M77.723,82.175h-.889A12.356,12.356,0,0,1,75.8,80.213a1.195,1.195,0,1,0-2.208.914c.148.357.313.7.487,1.048H27.216a3.823,3.823,0,0,0-1.041.145,13.889,13.889,0,0,1-1.756-7.113c0-.521.023-1.035.068-1.538H47.378a1.195,1.195,0,0,0,0-2.39H25.493L28.3,68.238H74.078a14.914,14.914,0,0,0-1.15,3.041h-15.7a1.195,1.195,0,1,0,0,2.39H72.509c-.047.486-.074.976-.076,1.47a1.2,1.2,0,0,0,1.19,1.2h.005a1.2,1.2,0,0,0,1.195-1.19,12.784,12.784,0,0,1,2.009-6.911h.891a3.838,3.838,0,1,0,0-7.676H62.788L76.471,46.878a4.113,4.113,0,0,0,0-5.817l-.3-.3a4.111,4.111,0,0,0-5.606-.2L68.45,38.449l.72-.72a3.376,3.376,0,0,0,.74-3.673l-.973-2.381a2.648,2.648,0,0,0-1.922-1.595l-1.662-1.662a1.195,1.195,0,0,0-1.69,1.69l.818.818L45.651,49.755l-5.537-5.537,18.83-18.829.733.733a1.195,1.195,0,1,0,1.69-1.69l-1.577-1.577a2.649,2.649,0,0,0-1.595-1.922h0l-2.38-.973a3.377,3.377,0,0,0-3.673.739l-.72.72L49.3,19.3a4.111,4.111,0,0,0-.2-5.605l-.3-.3a4.113,4.113,0,0,0-5.817,0L28.123,28.266a4.113,4.113,0,0,0,0,5.817l.3.3a4.111,4.111,0,0,0,5.606.2l2.115,2.115-.72.72a3.376,3.376,0,0,0-.739,3.673l.973,2.38a2.647,2.647,0,0,0,1.895,1.589L31.562,52.2a4.082,4.082,0,0,0-5.392,5.175l-2.717,2.508a1.195,1.195,0,0,0,1.621,1.756l2.511-2.318,2.96,2.96L8.3,86.384a3.405,3.405,0,1,1-4.812-4.812l17.451-16.11a1.195,1.195,0,0,0-1.621-1.756L1.864,79.817A5.795,5.795,0,0,0,5.79,89.869h.12a5.746,5.746,0,0,0,4.142-1.863l7.161-7.757a13.77,13.77,0,0,0,1.921,4.1A2.782,2.782,0,0,0,21.4,85.508h2.013a3.832,3.832,0,0,0,3.8,4.343H77.723a3.838,3.838,0,1,0,0-7.676ZM79.171,64.4a1.45,1.45,0,0,1-1.449,1.449H30.507L32.493,63.7a4.083,4.083,0,0,0,4.075-.746H77.723A1.45,1.45,0,0,1,79.171,64.4ZM43.127,50.611l-6.918,5.8-2.751-2.75,5.8-6.918Zm-5.212,9.95a4.1,4.1,0,0,0-.249-2.254l7.146-5.991A2.648,2.648,0,0,0,46.4,54.212l2.381.973a3.377,3.377,0,0,0,3.673-.739l.72-.72L55.29,55.84a4.121,4.121,0,0,0-.476,4.721h-16.9ZM73.262,41.945a1.713,1.713,0,0,1,1.219.5l.3.3a1.723,1.723,0,0,1,0,2.437L59.913,60.057a1.723,1.723,0,0,1-2.437,0l-.3-.3a1.726,1.726,0,0,1,0-2.438L72.044,42.45A1.711,1.711,0,0,1,73.262,41.945Zm-4.395.3-11.9,11.9-2.107-2.107,11.9-11.9Zm-21.65,9.322L66.293,32.493a.251.251,0,0,1,.183-.078.292.292,0,0,1,.057.006.254.254,0,0,1,.193.159l.973,2.381a.991.991,0,0,1-.217,1.079L50.765,52.756a.992.992,0,0,1-1.079.217L47.305,52a.265.265,0,0,1-.087-.432ZM31.332,33.2a1.712,1.712,0,0,1-1.219-.5l-.3-.3a1.724,1.724,0,0,1,0-2.437L44.682,15.088a1.724,1.724,0,0,1,2.437,0l.3.3a1.724,1.724,0,0,1,0,2.438L32.551,32.695a1.714,1.714,0,0,1-1.219.5Zm4.394-.3L47.623,21l2.107,2.107-11.9,11.9ZM37.114,39.1,53.83,22.388a.992.992,0,0,1,1.079-.217l2.38.973a.264.264,0,0,1,.087.432L38.3,42.651a.264.264,0,0,1-.432-.087L36.9,40.183A.992.992,0,0,1,37.114,39.1Zm-8.8,16.867A1.69,1.69,0,0,1,31.2,54.777l3.9,3.9a1.69,1.69,0,0,1-2.39,2.39l-3.9-3.9a1.679,1.679,0,0,1-.5-1.2Zm-7.23,26.988a12.053,12.053,0,0,1-1.914-4.828l2.864-3.1c0,.059,0,.118,0,.177a16.577,16.577,0,0,0,1.853,7.912H21.4A.389.389,0,0,1,21.081,82.959Zm56.642,4.5H27.216a1.449,1.449,0,1,1,0-2.9H77.723a1.449,1.449,0,1,1,0,2.9Z" transform="translate(0.001 -12.193)"/>
              <path id="Trazado_1170573" data-name="Trazado 1170573" d="M203.522,417.166a1.195,1.195,0,1,0,0,2.39h27.834a1.195,1.195,0,0,0,0-2.39Z" transform="translate(-170.096 -352.653)"/>
            </g>
          </g>
        </g>
      </g>
    </g>
  </g>
</svg>
