<svg xmlns="http://www.w3.org/2000/svg" xmlns:xlink="http://www.w3.org/1999/xlink" width="103" height="103" viewBox="0 0 103 103">
  <defs>
    <filter id="Trazado_978624" x="0" y="0" width="103" height="103" filterUnits="userSpaceOnUse">
      <feOffset dy="3" input="SourceAlpha"/>
      <feGaussianBlur stdDeviation="3" result="blur"/>
      <feFlood flood-opacity="0.161"/>
      <feComposite operator="in" in2="blur"/>
      <feComposite in="SourceGraphic"/>
    </filter>
  </defs>
  <g id="Grupo_1224534" data-name="Grupo 1224534" transform="translate(-612 -7752)">
    <g id="Grupo_1223708" data-name="Grupo 1223708" transform="translate(621 7758)">
      <g id="Grupo_1214665" data-name="Grupo 1214665">
        <g id="Grupo_1180764" data-name="Grupo 1180764">
          <g id="Grupo_1179463" data-name="Grupo 1179463">
            <g id="Grupo_1144531" data-name="Grupo 1144531">
              <g transform="matrix(1, 0, 0, 1, -9, -6)" filter="url(#Trazado_978624)">
                <g id="Trazado_978624-2" data-name="Trazado 978624" transform="translate(9 6)" fill="#fcf5f0">
                  <path d="M 42.5 83.5 C 36.96437835693359 83.5 31.59512901306152 82.41617584228516 26.54141235351562 80.27863311767578 C 21.65934181213379 78.21369171142578 17.27447128295898 75.25723266601562 13.50862312316895 71.49137878417969 C 9.742764472961426 67.72553253173828 6.786305904388428 63.34066009521484 4.721364498138428 58.45858764648438 C 2.583823442459106 53.40486907958984 1.5 48.03562164306641 1.5 42.5 C 1.5 36.96437835693359 2.583823442459106 31.59512901306152 4.721364498138428 26.54141235351562 C 6.786305904388428 21.65934181213379 9.742764472961426 17.27447128295898 13.50862312316895 13.50862312316895 C 17.27447128295898 9.742764472961426 21.65934181213379 6.786305904388428 26.54141235351562 4.721364498138428 C 31.59512901306152 2.583823442459106 36.96437835693359 1.5 42.5 1.5 C 48.03562164306641 1.5 53.40486907958984 2.583823442459106 58.45858764648438 4.721364498138428 C 63.34066009521484 6.786305904388428 67.72553253173828 9.742764472961426 71.49137878417969 13.50862312316895 C 75.25723266601562 17.27447128295898 78.21369171142578 21.65934181213379 80.27863311767578 26.54141235351562 C 82.41617584228516 31.59512901306152 83.5 36.96437835693359 83.5 42.5 C 83.5 48.03562164306641 82.41617584228516 53.40486907958984 80.27863311767578 58.45858764648438 C 78.21369171142578 63.34066009521484 75.25723266601562 67.72553253173828 71.49137878417969 71.49137878417969 C 67.72553253173828 75.25723266601562 63.34066009521484 78.21369171142578 58.45858764648438 80.27863311767578 C 53.40486907958984 82.41617584228516 48.03562164306641 83.5 42.5 83.5 Z" stroke="none"/>
                  <path d="M 42.5 3 C 37.16621398925781 3 31.99356079101562 4.043960571289062 27.125732421875 6.102882385253906 C 22.42246627807617 8.092185974121094 18.19785308837891 10.94070434570312 14.56928253173828 14.56928253173828 C 10.94070434570312 18.19785308837891 8.092185974121094 22.42246627807617 6.102882385253906 27.125732421875 C 4.043960571289062 31.99356079101562 3 37.16621398925781 3 42.5 C 3 47.83378601074219 4.043960571289062 53.00643920898438 6.102882385253906 57.87425231933594 C 8.092185974121094 62.57753372192383 10.94070434570312 66.80213165283203 14.56928253173828 70.43071746826172 C 18.19786834716797 74.05929565429688 22.42246627807617 76.90781402587891 27.125732421875 78.89711761474609 C 31.99356079101562 80.95603942871094 37.16621398925781 82 42.5 82 C 47.83378601074219 82 53.00642395019531 80.95603942871094 57.87425231933594 78.89711761474609 C 62.57753372192383 76.90781402587891 66.80213165283203 74.05929565429688 70.43071746826172 70.43071746826172 C 74.05929565429688 66.80213165283203 76.90781402587891 62.57753372192383 78.89711761474609 57.87425231933594 C 80.95603942871094 53.00642395019531 82 47.83378601074219 82 42.5 C 82 37.16621398925781 80.95603942871094 31.99356079101562 78.89711761474609 27.125732421875 C 76.90781402587891 22.42246627807617 74.05929565429688 18.19786834716797 70.43071746826172 14.56928253173828 C 66.80213165283203 10.94070434570312 62.57753372192383 8.092185974121094 57.87425231933594 6.102882385253906 C 53.00643920898438 4.043960571289062 47.83378601074219 3 42.5 3 M 42.5 0 C 65.97209167480469 0 85 19.02789306640625 85 42.5 C 85 65.97209167480469 65.97209167480469 85 42.5 85 C 19.02789306640625 85 0 65.97209167480469 0 42.5 C 0 19.02789306640625 19.02789306640625 0 42.5 0 Z" stroke="none" fill="#eca675"/>
                </g>
              </g>
            </g>
          </g>
        </g>
      </g>
    </g>
    <g id="ley_27_" data-name="ley (27)" transform="translate(618.093 7758)">
      <g id="Grupo_1224532" data-name="Grupo 1224532" transform="translate(1.465 1.465)">
        <g id="Grupo_1224522" data-name="Grupo 1224522" transform="translate(0 76.167)">
          <path id="Trazado_1178194" data-name="Trazado 1178194" d="M95.884,425.465v2.929a1.464,1.464,0,0,1-1.465,1.465H60.731l-.309.619a9.48,9.48,0,0,1-16.958,0l-.309-.619H9.465A1.464,1.464,0,0,1,8,428.394v-2.929A1.464,1.464,0,0,1,9.465,424H46.083A5.859,5.859,0,1,0,57.8,424H94.42A1.464,1.464,0,0,1,95.884,425.465Z" transform="translate(-8 -424)" fill="#aab2bd"/>
        </g>
        <g id="Grupo_1224523" data-name="Grupo 1224523" transform="translate(4.394 70.308)">
          <path id="Trazado_1178195" data-name="Trazado 1178195" d="M111.1,392v5.859H77.407a5.859,5.859,0,1,1-11.718,0H32V392H63.338a9.87,9.87,0,0,1,8.21,4.394,9.846,9.846,0,0,1,2.929-2.862c.2-.13.412-.251.624-.364A9.854,9.854,0,0,1,79.758,392Z" transform="translate(-32 -392)" fill="#e6e9ed"/>
        </g>
        <g id="Grupo_1224524" data-name="Grupo 1224524" transform="translate(58.59 49.801)">
          <path id="Trazado_1178196" data-name="Trazado 1178196" d="M342.647,280h14.647a5.86,5.86,0,0,1-5.859,5.859H333.859A5.857,5.857,0,0,1,328,280Z" transform="translate(-328 -280)" fill="#cf9e76"/>
        </g>
        <g id="Grupo_1224525" data-name="Grupo 1224525" transform="translate(0 49.801)">
          <path id="Trazado_1178197" data-name="Trazado 1178197" d="M22.647,280H37.295a5.857,5.857,0,0,1-5.859,5.859H13.859A5.86,5.86,0,0,1,8,280Z" transform="translate(-8 -280)" fill="#cf9e76"/>
        </g>
        <g id="Grupo_1224526" data-name="Grupo 1224526" transform="translate(70.308 23.436)">
          <path id="Trazado_1178198" data-name="Trazado 1178198" d="M394.929,136A2.93,2.93,0,1,1,392,138.929,2.929,2.929,0,0,1,394.929,136Z" transform="translate(-392 -136)" fill="#fcd770"/>
        </g>
        <g id="Grupo_1224527" data-name="Grupo 1224527" transform="translate(11.718 23.436)">
          <path id="Trazado_1178199" data-name="Trazado 1178199" d="M74.929,136A2.93,2.93,0,1,1,72,138.929,2.929,2.929,0,0,1,74.929,136Z" transform="translate(-72 -136)" fill="#fcd770"/>
        </g>
        <g id="Grupo_1224528" data-name="Grupo 1224528" transform="translate(41.013 17.577)">
          <path id="Trazado_1178200" data-name="Trazado 1178200" d="M237.859,112.788v45.475a9.846,9.846,0,0,0-2.929,2.862A9.846,9.846,0,0,0,232,158.263V104h5.859Z" transform="translate(-232 -104)" fill="#b27946"/>
        </g>
        <g id="Grupo_1224529" data-name="Grupo 1224529" transform="translate(29.295)">
          <path id="Trazado_1178201" data-name="Trazado 1178201" d="M197.295,10.929V22.647a2.929,2.929,0,0,1-2.929,2.929H170.929A2.929,2.929,0,0,1,168,22.647V10.929A2.929,2.929,0,0,1,170.929,8h23.436A2.929,2.929,0,0,1,197.295,10.929Z" transform="translate(-168 -8)" fill="#d3a06c"/>
        </g>
        <g id="Grupo_1224530" data-name="Grupo 1224530" transform="translate(58.59)">
          <path id="Trazado_1178202" data-name="Trazado 1178202" d="M333.859,10.929V22.647a2.929,2.929,0,0,1-5.859,0V10.929a2.929,2.929,0,0,1,5.859,0Z" transform="translate(-328 -8)" fill="#cf9e76"/>
        </g>
        <g id="Grupo_1224531" data-name="Grupo 1224531" transform="translate(23.436)">
          <path id="Trazado_1178203" data-name="Trazado 1178203" d="M141.859,10.929V22.647a2.929,2.929,0,1,1-5.859,0V10.929a2.929,2.929,0,1,1,5.859,0Z" transform="translate(-136 -8)" fill="#cf9e76"/>
        </g>
      </g>
      <g id="Grupo_1224533" data-name="Grupo 1224533">
        <path id="Trazado_1178204" data-name="Trazado 1178204" d="M87.884,416H49.8v1.465a4.394,4.394,0,1,1-8.788,0V416H2.929A2.933,2.933,0,0,0,0,418.929v2.93a2.933,2.933,0,0,0,2.929,2.929H35.716a10.945,10.945,0,0,0,19.383,0H87.884a2.933,2.933,0,0,0,2.929-2.929v-2.93A2.933,2.933,0,0,0,87.884,416Zm0,5.859H53.29l-.714,1.428a8.015,8.015,0,0,1-14.338,0l-.714-1.428H2.929v-2.93h35.3a7.325,7.325,0,0,0,14.353,0h35.3Z" transform="translate(0 -339.833)"/>
        <path id="Trazado_1178205" data-name="Trazado 1178205" d="M78.138,30.564a4.393,4.393,0,1,0-7.579-4.2H49.8V20.506h7.324a4.376,4.376,0,0,0,2.929-1.123,4.391,4.391,0,0,0,7.324-3.272V4.394a4.391,4.391,0,0,0-7.324-3.272A4.376,4.376,0,0,0,57.125,0H33.689A4.376,4.376,0,0,0,30.76,1.123a4.391,4.391,0,0,0-7.324,3.272V16.112a4.391,4.391,0,0,0,7.324,3.272,4.376,4.376,0,0,0,2.929,1.123h7.324v5.859H20.254a4.393,4.393,0,1,0-7.579,4.2L0,50.846v.42A7.332,7.332,0,0,0,7.324,58.59H24.9a7.332,7.332,0,0,0,7.324-7.324v-.42L19.548,30.564a4.389,4.389,0,0,0,.706-1.269H41.013V70.97a11.342,11.342,0,0,0-3.817-.662H5.859v2.929H37.2a8.387,8.387,0,0,1,6.992,3.742l1.219,1.828,1.219-1.828a8.388,8.388,0,0,1,6.992-3.742H84.955V70.308H53.618a11.342,11.342,0,0,0-3.817.662V29.295H70.56a4.389,4.389,0,0,0,.706,1.269L58.59,50.846v.42a7.332,7.332,0,0,0,7.324,7.324H83.49a7.332,7.332,0,0,0,7.324-7.324v-.42Zm-62.026-4.2a1.465,1.465,0,1,1-1.465,1.465A1.466,1.466,0,0,1,16.112,26.365ZM14.647,49.8H4.108l10.54-16.864Zm2.929-16.864L28.117,49.8H17.577ZM24.9,55.66H7.324a4.4,4.4,0,0,1-4.139-2.929H29.039A4.4,4.4,0,0,1,24.9,55.66ZM62.984,2.929a1.466,1.466,0,0,1,1.465,1.465V16.112a1.465,1.465,0,0,1-2.929,0V4.394A1.466,1.466,0,0,1,62.984,2.929ZM27.83,17.577a1.466,1.466,0,0,1-1.465-1.465V4.394a1.465,1.465,0,0,1,2.929,0V16.112A1.466,1.466,0,0,1,27.83,17.577Zm4.394-1.465V4.394a1.466,1.466,0,0,1,1.465-1.465H57.125A1.466,1.466,0,0,1,58.59,4.394V16.112a1.466,1.466,0,0,1-1.465,1.465H33.689A1.466,1.466,0,0,1,32.224,16.112ZM45.407,73.827a11.3,11.3,0,0,0-1.465-1.292V20.506h2.929V72.535A11.313,11.313,0,0,0,45.407,73.827ZM73.237,49.8H62.7l10.54-16.864Zm2.929-16.864L86.706,49.8H76.167ZM74.7,26.365a1.465,1.465,0,1,1-1.465,1.465A1.466,1.466,0,0,1,74.7,26.365ZM83.49,55.66H65.913a4.4,4.4,0,0,1-4.139-2.929H87.629A4.4,4.4,0,0,1,83.49,55.66Z"/>
      </g>
    </g>
  </g>
</svg>
