<svg xmlns="http://www.w3.org/2000/svg" xmlns:xlink="http://www.w3.org/1999/xlink" width="400" height="242" viewBox="0 0 400 242">
  <defs>
    <clipPath id="clip-path">
      <rect id="Rectángulo_421762" data-name="Rectángulo 421762" width="400" height="242" transform="translate(180 5816)" fill="#fff" stroke="#707070" stroke-width="1"/>
    </clipPath>
  </defs>
  <g id="Enmascarar_grupo_1153346" data-name="Enmascarar grupo 1153346" transform="translate(-180 -5816)" clip-path="url(#clip-path)">
    <g id="Grupo_1224854" data-name="Grupo 1224854" transform="translate(180 5816)">
      <rect id="Rectángulo_421750" data-name="Rectángulo 421750" width="170" height="243" transform="translate(198.379)" fill="#cfd7c8"/>
      <g id="OBJECTS" transform="translate(40 14.34)">
        <g id="Grupo_1224853" data-name="Grupo 1224853">
          <g id="Grupo_1224829" data-name="Grupo 1224829" transform="translate(23.616 5.406)">
            <g id="Grupo_1224814" data-name="Grupo 1224814" transform="translate(216.225 91.873)">
              <path id="Trazado_1178655" data-name="Trazado 1178655" d="M145.626,176.467H128.6c-1.816,0-3.3,2.726-3.3,6.06v.005c0,3.333,1.485,6.06,3.3,6.06h17.026c1.815,0,3.3-2.727,3.3-6.06v-.005C148.928,179.192,147.442,176.467,145.626,176.467Z" transform="translate(-125.299 -175.663)" fill="#c08329" fill-rule="evenodd"/>
              <rect id="Rectángulo_421751" data-name="Rectángulo 421751" width="11.368" height="90.202" transform="translate(6.13)" fill="#c08329"/>
              <g id="Grupo_1224813" data-name="Grupo 1224813" transform="translate(6.13 12.928)">
                <g id="Grupo_1224812" data-name="Grupo 1224812">
                  <rect id="Rectángulo_421752" data-name="Rectángulo 421752" width="11.368" height="1.365" fill="#a16733"/>
                </g>
              </g>
              <path id="Trazado_1178656" data-name="Trazado 1178656" d="M148.926,281.733H125.3v-.092a4.425,4.425,0,0,1,4.558-4.278h14.51a4.425,4.425,0,0,1,4.558,4.278Z" transform="translate(-125.298 -191.531)" fill="#c08329" fill-rule="evenodd"/>
              <line id="Línea_825" data-name="Línea 825" y2="70.322" transform="translate(15.789 15.511)" fill="none" stroke="#2a1510" stroke-linecap="round" stroke-linejoin="round" stroke-miterlimit="10" stroke-width="1"/>
              <line id="Línea_826" data-name="Línea 826" y2="70.322" transform="translate(13.252 15.511)" fill="none" stroke="#2a1510" stroke-linecap="round" stroke-linejoin="round" stroke-miterlimit="10" stroke-width="1"/>
              <line id="Línea_827" data-name="Línea 827" y2="70.322" transform="translate(10.714 15.511)" fill="none" stroke="#2a1510" stroke-linecap="round" stroke-linejoin="round" stroke-miterlimit="10" stroke-width="1"/>
              <line id="Línea_828" data-name="Línea 828" y2="70.322" transform="translate(8.175 15.511)" fill="none" stroke="#2a1510" stroke-linecap="round" stroke-linejoin="round" stroke-miterlimit="10" stroke-width="1"/>
            </g>
            <g id="Grupo_1224817" data-name="Grupo 1224817" transform="translate(170.268 91.873)">
              <path id="Trazado_1178657" data-name="Trazado 1178657" d="M200.159,176.467H183.133c-1.816,0-3.3,2.726-3.3,6.06v.005c0,3.333,1.485,6.06,3.3,6.06h17.026c1.815,0,3.3-2.727,3.3-6.06v-.005C203.461,179.192,201.975,176.467,200.159,176.467Z" transform="translate(-179.832 -175.663)" fill="#c08329" fill-rule="evenodd"/>
              <rect id="Rectángulo_421753" data-name="Rectángulo 421753" width="11.368" height="90.202" transform="translate(6.13)" fill="#c08329"/>
              <g id="Grupo_1224816" data-name="Grupo 1224816" transform="translate(6.13 12.928)">
                <g id="Grupo_1224815" data-name="Grupo 1224815">
                  <rect id="Rectángulo_421754" data-name="Rectángulo 421754" width="11.368" height="1.365" fill="#a16733"/>
                </g>
              </g>
              <path id="Trazado_1178658" data-name="Trazado 1178658" d="M203.46,281.733H179.832v-.092a4.425,4.425,0,0,1,4.558-4.278H198.9a4.425,4.425,0,0,1,4.559,4.278Z" transform="translate(-179.832 -191.531)" fill="#c08329" fill-rule="evenodd"/>
              <line id="Línea_829" data-name="Línea 829" y2="70.322" transform="translate(15.79 15.511)" fill="none" stroke="#2a1510" stroke-linecap="round" stroke-linejoin="round" stroke-miterlimit="10" stroke-width="1"/>
              <line id="Línea_830" data-name="Línea 830" y2="70.322" transform="translate(13.251 15.511)" fill="none" stroke="#2a1510" stroke-linecap="round" stroke-linejoin="round" stroke-miterlimit="10" stroke-width="1"/>
              <line id="Línea_831" data-name="Línea 831" y2="70.322" transform="translate(10.714 15.511)" fill="none" stroke="#2a1510" stroke-linecap="round" stroke-linejoin="round" stroke-miterlimit="10" stroke-width="1"/>
              <line id="Línea_832" data-name="Línea 832" y2="70.322" transform="translate(8.175 15.511)" fill="none" stroke="#2a1510" stroke-linecap="round" stroke-linejoin="round" stroke-miterlimit="10" stroke-width="1"/>
            </g>
            <g id="Grupo_1224820" data-name="Grupo 1224820" transform="translate(124.312 91.873)">
              <path id="Trazado_1178659" data-name="Trazado 1178659" d="M254.692,176.467H237.666c-1.816,0-3.3,2.726-3.3,6.06v.005c0,3.333,1.485,6.06,3.3,6.06h17.026c1.815,0,3.3-2.727,3.3-6.06v-.005C257.994,179.192,256.508,176.467,254.692,176.467Z" transform="translate(-234.365 -175.663)" fill="#c08329" fill-rule="evenodd"/>
              <rect id="Rectángulo_421755" data-name="Rectángulo 421755" width="11.368" height="90.202" transform="translate(6.13)" fill="#c08329"/>
              <g id="Grupo_1224819" data-name="Grupo 1224819" transform="translate(6.13 12.928)">
                <g id="Grupo_1224818" data-name="Grupo 1224818">
                  <rect id="Rectángulo_421756" data-name="Rectángulo 421756" width="11.368" height="1.365" fill="#a16733"/>
                </g>
              </g>
              <path id="Trazado_1178660" data-name="Trazado 1178660" d="M257.993,281.733H234.365v-.092a4.425,4.425,0,0,1,4.558-4.278h14.51a4.425,4.425,0,0,1,4.559,4.278Z" transform="translate(-234.365 -191.531)" fill="#c08329" fill-rule="evenodd"/>
              <line id="Línea_833" data-name="Línea 833" y2="70.322" transform="translate(15.789 15.511)" fill="none" stroke="#2a1510" stroke-linecap="round" stroke-linejoin="round" stroke-miterlimit="10" stroke-width="1"/>
              <line id="Línea_834" data-name="Línea 834" y2="70.322" transform="translate(13.252 15.511)" fill="none" stroke="#2a1510" stroke-linecap="round" stroke-linejoin="round" stroke-miterlimit="10" stroke-width="1"/>
              <line id="Línea_835" data-name="Línea 835" y2="70.322" transform="translate(10.714 15.511)" fill="none" stroke="#2a1510" stroke-linecap="round" stroke-linejoin="round" stroke-miterlimit="10" stroke-width="1"/>
              <line id="Línea_836" data-name="Línea 836" y2="70.322" transform="translate(8.175 15.511)" fill="none" stroke="#2a1510" stroke-linecap="round" stroke-linejoin="round" stroke-miterlimit="10" stroke-width="1"/>
            </g>
            <g id="Grupo_1224823" data-name="Grupo 1224823" transform="translate(78.355 91.873)">
              <path id="Trazado_1178661" data-name="Trazado 1178661" d="M309.225,176.467H292.2c-1.816,0-3.3,2.726-3.3,6.06v.005c0,3.333,1.485,6.06,3.3,6.06h17.026c1.815,0,3.3-2.727,3.3-6.06v-.005C312.527,179.192,311.041,176.467,309.225,176.467Z" transform="translate(-288.898 -175.663)" fill="#c08329" fill-rule="evenodd"/>
              <rect id="Rectángulo_421757" data-name="Rectángulo 421757" width="11.368" height="90.202" transform="translate(6.13)" fill="#c08329"/>
              <g id="Grupo_1224822" data-name="Grupo 1224822" transform="translate(6.13 12.928)">
                <g id="Grupo_1224821" data-name="Grupo 1224821">
                  <rect id="Rectángulo_421758" data-name="Rectángulo 421758" width="11.368" height="1.365" fill="#a16733"/>
                </g>
              </g>
              <path id="Trazado_1178662" data-name="Trazado 1178662" d="M312.525,281.733H288.9v-.092a4.425,4.425,0,0,1,4.558-4.278h14.51a4.424,4.424,0,0,1,4.558,4.278v.092Z" transform="translate(-288.897 -191.531)" fill="#c08329" fill-rule="evenodd"/>
              <line id="Línea_837" data-name="Línea 837" y2="70.322" transform="translate(15.79 15.511)" fill="none" stroke="#2a1510" stroke-linecap="round" stroke-linejoin="round" stroke-miterlimit="10" stroke-width="1"/>
              <line id="Línea_838" data-name="Línea 838" y2="70.322" transform="translate(13.252 15.511)" fill="none" stroke="#2a1510" stroke-linecap="round" stroke-linejoin="round" stroke-miterlimit="10" stroke-width="1"/>
              <line id="Línea_839" data-name="Línea 839" y2="70.322" transform="translate(10.713 15.511)" fill="none" stroke="#2a1510" stroke-linecap="round" stroke-linejoin="round" stroke-miterlimit="10" stroke-width="1"/>
              <line id="Línea_840" data-name="Línea 840" y2="70.322" transform="translate(8.175 15.511)" fill="none" stroke="#2a1510" stroke-linecap="round" stroke-linejoin="round" stroke-miterlimit="10" stroke-width="1"/>
            </g>
            <g id="Grupo_1224826" data-name="Grupo 1224826" transform="translate(32.398 91.873)">
              <path id="Trazado_1178663" data-name="Trazado 1178663" d="M363.758,176.467H346.732c-1.816,0-3.3,2.726-3.3,6.06v.005c0,3.333,1.485,6.06,3.3,6.06h17.026c1.815,0,3.3-2.727,3.3-6.06v-.005C367.06,179.192,365.574,176.467,363.758,176.467Z" transform="translate(-343.431 -175.663)" fill="#c08329" fill-rule="evenodd"/>
              <rect id="Rectángulo_421759" data-name="Rectángulo 421759" width="11.368" height="90.202" transform="translate(6.13)" fill="#c08329"/>
              <g id="Grupo_1224825" data-name="Grupo 1224825" transform="translate(6.13 12.928)">
                <g id="Grupo_1224824" data-name="Grupo 1224824">
                  <rect id="Rectángulo_421760" data-name="Rectángulo 421760" width="11.368" height="1.365" fill="#a16733"/>
                </g>
              </g>
              <path id="Trazado_1178664" data-name="Trazado 1178664" d="M367.058,281.733H343.43v-.092a4.425,4.425,0,0,1,4.558-4.278H362.5a4.425,4.425,0,0,1,4.559,4.278v.092Z" transform="translate(-343.43 -191.531)" fill="#c08329" fill-rule="evenodd"/>
              <line id="Línea_841" data-name="Línea 841" y2="70.322" transform="translate(15.79 15.511)" fill="none" stroke="#2a1510" stroke-linecap="round" stroke-linejoin="round" stroke-miterlimit="10" stroke-width="1"/>
              <line id="Línea_842" data-name="Línea 842" y2="70.322" transform="translate(13.252 15.511)" fill="none" stroke="#2a1510" stroke-linecap="round" stroke-linejoin="round" stroke-miterlimit="10" stroke-width="1"/>
              <line id="Línea_843" data-name="Línea 843" y2="70.322" transform="translate(10.714 15.511)" fill="none" stroke="#2a1510" stroke-linecap="round" stroke-linejoin="round" stroke-miterlimit="10" stroke-width="1"/>
              <line id="Línea_844" data-name="Línea 844" y2="70.322" transform="translate(8.175 15.511)" fill="none" stroke="#2a1510" stroke-linecap="round" stroke-linejoin="round" stroke-miterlimit="10" stroke-width="1"/>
            </g>
            <path id="Trazado_1178665" data-name="Trazado 1178665" d="M332.348,180.989H121.1V167.526H336.327v9.483A3.979,3.979,0,0,1,332.348,180.989Z" transform="translate(-92.933 -82.384)" fill="#a16733" fill-rule="evenodd"/>
            <path id="Trazado_1178666" data-name="Trazado 1178666" d="M336.733,169.373h-218.9V147.722H340.594v17.79A3.861,3.861,0,0,1,336.733,169.373Z" transform="translate(-94.453 -79.269)" fill="#c08329" fill-rule="evenodd"/>
            <path id="Trazado_1178667" data-name="Trazado 1178667" d="M335.333,304.07H114.77V282.548H328.829a6.5,6.5,0,0,1,6.5,6.5Z" transform="translate(-86.607 -100.473)" fill="#a16733" fill-rule="evenodd"/>
            <path id="Trazado_1178668" data-name="Trazado 1178668" d="M348.516,318.713H106.282V298.521h235.39a6.843,6.843,0,0,1,6.843,6.844v13.348Z" transform="translate(-92.636 -102.985)" fill="#c08329" fill-rule="evenodd"/>
            <rect id="Rectángulo_421761" data-name="Rectángulo 421761" width="269.527" height="13.461" transform="translate(0 208.998)" fill="#a16733"/>
            <path id="Trazado_1178669" data-name="Trazado 1178669" d="M117.837,135.874l103.794-61.7H236.8l103.794,61.7v9.016H117.837Z" transform="translate(-94.453 -67.703)" fill="#a16733" fill-rule="evenodd"/>
            <g id="Grupo_1224827" data-name="Grupo 1224827" transform="translate(18.667)">
              <path id="Trazado_1178670" data-name="Trazado 1178670" d="M228.335,66.5l114.12,67.838a4.04,4.04,0,0,1,1.975,3.472h0a4.039,4.039,0,0,1-6.1,3.472L228.335,75.894l-116.1,69.012v-9.4Z" transform="translate(-112.239 -66.495)" fill="#c08329" fill-rule="evenodd"/>
            </g>
            <g id="Grupo_1224828" data-name="Grupo 1224828" transform="translate(42.024 16.362)">
              <path id="Trazado_1178671" data-name="Trazado 1178671" d="M139.966,142.352l185.469-1.318L232.7,85.911l-.411.249Zm154.62-9.992-123.75.88,61.873-37.663Z" transform="translate(-139.966 -85.911)" fill="#c08329"/>
            </g>
          </g>
          <g id="Grupo_1224836" data-name="Grupo 1224836" transform="translate(91.704 53.139)">
            <g id="Grupo_1224834" data-name="Grupo 1224834">
              <g id="Grupo_1224830" data-name="Grupo 1224830">
                <path id="Trazado_1178672" data-name="Trazado 1178672" d="M200.091,123.136H304.232V291.609H170.883V152.344Z" transform="translate(-170.883 -123.136)" fill="#f0e4cc"/>
                <path id="Trazado_1178673" data-name="Trazado 1178673" d="M323.666,152.344H294.458l29.208-29.208Z" transform="translate(-294.458 -123.136)" fill="#fffdf8"/>
              </g>
              <g id="Grupo_1224833" data-name="Grupo 1224833" transform="translate(95.126 7.248)">
                <g id="Grupo_1224831" data-name="Grupo 1224831" transform="translate(0 12.23)">
                  <path id="Trazado_1178674" data-name="Trazado 1178674" d="M193.721,146.249l8.612,16.78-4.328-.293-2.775,3.939-8.612-16.78Z" transform="translate(-177.371 -146.249)" fill="#4747b3"/>
                  <path id="Trazado_1178675" data-name="Trazado 1178675" d="M206.2,146.249l-8.611,16.78,4.327-.293,2.776,3.939,8.611-16.78Z" transform="translate(-197.592 -146.249)" fill="#4747b3"/>
                </g>
                <g id="Grupo_1224832" data-name="Grupo 1224832" transform="translate(3.005)">
                  <circle id="Elipse_14532" data-name="Elipse 14532" cx="9.476" cy="9.476" r="9.476" fill="#4b4bbd"/>
                  <path id="Trazado_1178676" data-name="Trazado 1178676" d="M191.727,141.53l2.516,1.84-.954,2.967,3.117.008.97,2.963,2.527-1.828,2.527,1.828.97-2.964,3.117-.008-.954-2.967,2.516-1.839-2.516-1.84.955-2.967-3.118-.008-.969-2.963L199.9,135.58l-2.527-1.828-.969,2.963-3.118.008.955,2.967Z" transform="translate(-190.428 -132.054)" fill="#d13a3a"/>
                </g>
              </g>
            </g>
            <g id="Grupo_1224835" data-name="Grupo 1224835" transform="translate(10.692 47.008)">
              <line id="Línea_845" data-name="Línea 845" x1="111.966" fill="none" stroke="#2a1510" stroke-linecap="round" stroke-linejoin="round" stroke-miterlimit="10" stroke-width="1"/>
              <line id="Línea_846" data-name="Línea 846" x1="111.966" transform="translate(0 4.371)" fill="none" stroke="#2a1510" stroke-linecap="round" stroke-linejoin="round" stroke-miterlimit="10" stroke-width="1"/>
              <line id="Línea_847" data-name="Línea 847" x1="111.966" transform="translate(0 8.743)" fill="none" stroke="#2a1510" stroke-linecap="round" stroke-linejoin="round" stroke-miterlimit="10" stroke-width="1"/>
              <line id="Línea_848" data-name="Línea 848" x1="111.966" transform="translate(0 13.114)" fill="none" stroke="#2a1510" stroke-linecap="round" stroke-linejoin="round" stroke-miterlimit="10" stroke-width="1"/>
              <line id="Línea_849" data-name="Línea 849" x1="111.966" transform="translate(0 17.485)" fill="none" stroke="#2a1510" stroke-linecap="round" stroke-linejoin="round" stroke-miterlimit="10" stroke-width="1"/>
              <line id="Línea_850" data-name="Línea 850" x1="111.966" transform="translate(0 21.856)" fill="none" stroke="#2a1510" stroke-linecap="round" stroke-linejoin="round" stroke-miterlimit="10" stroke-width="1"/>
              <line id="Línea_851" data-name="Línea 851" x1="111.966" transform="translate(0 26.228)" fill="none" stroke="#2a1510" stroke-linecap="round" stroke-linejoin="round" stroke-miterlimit="10" stroke-width="1"/>
              <line id="Línea_852" data-name="Línea 852" x1="111.966" transform="translate(0 30.599)" fill="none" stroke="#2a1510" stroke-linecap="round" stroke-linejoin="round" stroke-miterlimit="10" stroke-width="1"/>
              <line id="Línea_853" data-name="Línea 853" x1="111.966" transform="translate(0 34.97)" fill="none" stroke="#2a1510" stroke-linecap="round" stroke-linejoin="round" stroke-miterlimit="10" stroke-width="1"/>
              <line id="Línea_854" data-name="Línea 854" x1="111.966" transform="translate(0 39.341)" fill="none" stroke="#2a1510" stroke-linecap="round" stroke-linejoin="round" stroke-miterlimit="10" stroke-width="1"/>
              <line id="Línea_855" data-name="Línea 855" x1="111.966" transform="translate(0 43.713)" fill="none" stroke="#2a1510" stroke-linecap="round" stroke-linejoin="round" stroke-miterlimit="10" stroke-width="1"/>
              <line id="Línea_856" data-name="Línea 856" x1="111.966" transform="translate(0 48.085)" fill="none" stroke="#2a1510" stroke-linecap="round" stroke-linejoin="round" stroke-miterlimit="10" stroke-width="1"/>
              <line id="Línea_857" data-name="Línea 857" x1="111.966" transform="translate(0 52.456)" fill="none" stroke="#2a1510" stroke-linecap="round" stroke-linejoin="round" stroke-miterlimit="10" stroke-width="1"/>
              <line id="Línea_858" data-name="Línea 858" x1="111.966" transform="translate(0 56.827)" fill="none" stroke="#2a1510" stroke-linecap="round" stroke-linejoin="round" stroke-miterlimit="10" stroke-width="1"/>
              <line id="Línea_859" data-name="Línea 859" x1="111.966" transform="translate(0 61.198)" fill="none" stroke="#2a1510" stroke-linecap="round" stroke-linejoin="round" stroke-miterlimit="10" stroke-width="1"/>
              <line id="Línea_860" data-name="Línea 860" x1="111.966" transform="translate(0 65.57)" fill="none" stroke="#2a1510" stroke-linecap="round" stroke-linejoin="round" stroke-miterlimit="10" stroke-width="1"/>
              <line id="Línea_861" data-name="Línea 861" x1="111.966" transform="translate(0 69.941)" fill="none" stroke="#2a1510" stroke-linecap="round" stroke-linejoin="round" stroke-miterlimit="10" stroke-width="1"/>
              <line id="Línea_862" data-name="Línea 862" x1="111.966" transform="translate(0 74.312)" fill="none" stroke="#2a1510" stroke-linecap="round" stroke-linejoin="round" stroke-miterlimit="10" stroke-width="1"/>
              <line id="Línea_863" data-name="Línea 863" x1="111.966" transform="translate(0 78.683)" fill="none" stroke="#2a1510" stroke-linecap="round" stroke-linejoin="round" stroke-miterlimit="10" stroke-width="1"/>
              <line id="Línea_864" data-name="Línea 864" x1="111.966" transform="translate(0 83.055)" fill="none" stroke="#2a1510" stroke-linecap="round" stroke-linejoin="round" stroke-miterlimit="10" stroke-width="1"/>
              <line id="Línea_865" data-name="Línea 865" x1="111.966" transform="translate(0 87.426)" fill="none" stroke="#2a1510" stroke-linecap="round" stroke-linejoin="round" stroke-miterlimit="10" stroke-width="1"/>
              <line id="Línea_866" data-name="Línea 866" x1="111.966" transform="translate(0 91.797)" fill="none" stroke="#2a1510" stroke-linecap="round" stroke-linejoin="round" stroke-miterlimit="10" stroke-width="1"/>
            </g>
          </g>
          <g id="Grupo_1224843" data-name="Grupo 1224843">
            <g id="Grupo_1224839" data-name="Grupo 1224839" transform="translate(162.685)">
              <g id="Grupo_1224837" data-name="Grupo 1224837" transform="translate(0 135.095)" opacity="0.5">
                <path id="Trazado_1178677" data-name="Trazado 1178677" d="M81.324,311.1a106.19,106.19,0,0,0,19.979,5.125,113.471,113.471,0,0,0,20.641,1.221,108.607,108.607,0,0,0,74.242-32.381,113.591,113.591,0,0,0,13.147-15.96,106.211,106.211,0,0,0,9.834-18.131A114.468,114.468,0,0,1,81.324,311.1Z" transform="translate(-81.324 -238.681)" fill="#6c301e"/>
                <path id="Trazado_1178678" data-name="Trazado 1178678" d="M75.584,261.713A17.994,17.994,0,0,0,87.27,240.772c-.667,1.6-1.171,3.3-1.837,4.906a15.1,15.1,0,0,0,.126-9.291l-4.114,7.175.69-4.923C76.516,244.97,74.566,253.309,75.584,261.713Z" transform="translate(55.202 -236.386)" fill="#c08329"/>
                <path id="Trazado_1178679" data-name="Trazado 1178679" d="M70.861,279.282a17.993,17.993,0,0,0,23.207-6.042c-1.617.626-3.2,1.439-4.814,2.065a15.1,15.1,0,0,0,6.8-6.335l-8.028,1.991,4.033-2.906C83.6,268.376,76.228,272.735,70.861,279.282Z" transform="translate(50.606 -241.367)" fill="#c08329"/>
                <path id="Trazado_1178680" data-name="Trazado 1178680" d="M100.686,276.775a17.993,17.993,0,0,0,.307-23.978c.176,1.726.544,3.463.72,5.189a15.1,15.1,0,0,0-4.312-8.231l-.2,8.268q-.868-2.328-1.736-4.658C93.534,261.607,95.789,269.868,100.686,276.775Z" transform="translate(21.089 -238.488)" fill="#c08329"/>
                <path id="Trazado_1178681" data-name="Trazado 1178681" d="M84.155,295.247a17.992,17.992,0,0,0,23.957-1.063c-1.712.275-3.427.741-5.139,1.015a15.1,15.1,0,0,0,7.971-4.775l-8.266.271,4.552-2C98.889,287.242,90.77,289.965,84.155,295.247Z" transform="translate(24.512 -244.551)" fill="#c08329"/>
                <path id="Trazado_1178682" data-name="Trazado 1178682" d="M109.375,291.948a17.994,17.994,0,0,0,5.307-23.386c-.188,1.724-.191,3.5-.379,5.225a15.1,15.1,0,0,0-2.5-8.95l-1.924,8.044-.726-4.917C105.548,275.621,106.029,284.171,109.375,291.948Z" transform="translate(-0.429 -240.86)" fill="#c08329"/>
                <path id="Trazado_1178683" data-name="Trazado 1178683" d="M100.848,308.855a17.993,17.993,0,0,0,23.818,2.787c-1.734,0-3.5.182-5.235.179a15.1,15.1,0,0,0,8.633-3.437l-8.2-1.057,4.813-1.245C116.675,303.312,108.224,304.7,100.848,308.855Z" transform="translate(-6.675 -247.12)" fill="#c08329"/>
                <path id="Trazado_1178684" data-name="Trazado 1178684" d="M121.978,305.2a18,18,0,0,0,8.983-22.236c-.462,1.672-.749,3.425-1.211,5.1a15.1,15.1,0,0,0-1.033-9.235q-1.594,3.816-3.187,7.632.035-2.485.072-4.97C120.814,288.468,119.919,296.985,121.978,305.2Z" transform="translate(-27.551 -243.06)" fill="#c08329"/>
                <path id="Trazado_1178685" data-name="Trazado 1178685" d="M120.211,318.764a17.994,17.994,0,0,0,23.192,6.1c-1.717-.246-3.492-.31-5.209-.557a15.1,15.1,0,0,0,9.03-2.192l-7.974-2.2,4.94-.558C136.658,315.5,128.1,315.685,120.211,318.764Z" transform="translate(-42.153 -248.978)" fill="#c08329"/>
                <path id="Trazado_1178686" data-name="Trazado 1178686" d="M137.5,314.982a17.992,17.992,0,0,0,12.012-20.755c-.691,1.591-1.222,3.286-1.914,4.876a15.107,15.107,0,0,0,.272-9.289l-4.226,7.109q.384-2.456.768-4.911C138.695,298.257,136.614,306.563,137.5,314.982Z" transform="translate(-59.212 -244.789)" fill="#c08329"/>
                <path id="Trazado_1178687" data-name="Trazado 1178687" d="M141.008,324.489a17.994,17.994,0,0,0,21.6,10.424c-1.638-.571-3.368-.973-5.006-1.543a15.1,15.1,0,0,0,9.283-.425l-7.407-3.681,4.955.4C157.777,324.427,149.337,322.975,141.008,324.489Z" transform="translate(-79.337 -250.153)" fill="#c08329"/>
                <path id="Trazado_1178688" data-name="Trazado 1178688" d="M152.773,320.843a17.993,17.993,0,0,0,15.761-18.074c-.983,1.429-1.828,2.991-2.811,4.42a15.1,15.1,0,0,0,2.044-9.065l-5.508,6.17,1.693-4.674C157.146,304.654,153.514,312.41,152.773,320.843Z" transform="translate(-90.906 -246.095)" fill="#c08329"/>
                <path id="Trazado_1178689" data-name="Trazado 1178689" d="M160.231,328.038a17.994,17.994,0,0,0,20.472,12.49c-1.574-.728-3.256-1.3-4.831-2.026a15.1,15.1,0,0,0,9.279.487l-7.01-4.39,4.892.882C176.925,329.619,168.668,327.347,160.231,328.038Z" transform="translate(-113.807 -250.781)" fill="#c08329"/>
                <path id="Trazado_1178690" data-name="Trazado 1178690" d="M168.875,324.6a17.994,17.994,0,0,0,17.456-16.443c-1.118,1.326-2.113,2.8-3.231,4.123a15.1,15.1,0,0,0,2.923-8.821l-6.086,5.6,2.143-4.486C174.813,308.919,170.439,316.281,168.875,324.6Z" transform="translate(-122.271 -246.935)" fill="#c08329"/>
                <path id="Trazado_1178691" data-name="Trazado 1178691" d="M182.224,328.648a16.526,16.526,0,0,0,17.134,13.841c-1.346-.853-2.809-1.574-4.155-2.427a13.871,13.871,0,0,0,8.391,1.562l-5.854-4.842,4.349,1.392C197.234,332.1,189.99,329.036,182.224,328.648Z" transform="translate(-150.784 -250.896)" fill="#c08329"/>
                <path id="Trazado_1178692" data-name="Trazado 1178692" d="M185.841,325.906a16.527,16.527,0,0,0,17.877-12.869c-1.178,1.073-2.261,2.293-3.439,3.365a13.868,13.868,0,0,0,3.724-7.68l-6.217,4.366,2.492-3.826C193.138,312.343,188.268,318.519,185.841,325.906Z" transform="translate(-154.24 -247.762)" fill="#c08329"/>
                <path id="Trazado_1178693" data-name="Trazado 1178693" d="M203.444,327.16A13.791,13.791,0,0,0,216.083,340.5c-1.019-.855-2.148-1.613-3.167-2.468a11.572,11.572,0,0,0,6.766,2.221l-4.306-4.653,3.443,1.632C215.476,331.677,209.823,328.341,203.444,327.16Z" transform="translate(-184.755 -250.662)" fill="#c08329"/>
                <path id="Trazado_1178694" data-name="Trazado 1178694" d="M202.454,325.313a13.791,13.791,0,0,0,16.209-8.663c-1.093.757-2.124,1.646-3.217,2.4a11.579,11.579,0,0,0,3.93-5.94l-5.625,2.923,2.484-2.888C209.991,314.9,205.279,319.472,202.454,325.313Z" transform="translate(-183.615 -248.453)" fill="#c08329"/>
              </g>
              <g id="Grupo_1224838" data-name="Grupo 1224838" transform="translate(50.237)" opacity="0.5">
                <path id="Trazado_1178695" data-name="Trazado 1178695" d="M152.922,201.348a106.168,106.168,0,0,0,2.376-20.489,113.491,113.491,0,0,0-1.582-20.617,111.185,111.185,0,0,0-14.372-38.665,111.179,111.179,0,0,0-27.753-30.517A113.573,113.573,0,0,0,94,80.193,106.137,106.137,0,0,0,74.705,72.9a113.523,113.523,0,0,1,18.957,7.951,113.454,113.454,0,0,1,17.22,11.131,112.168,112.168,0,0,1,41.693,68.463,116.389,116.389,0,0,1,.346,40.9Z" transform="translate(-62.127 -62.096)" fill="#6c301e"/>
                <path id="Trazado_1178696" data-name="Trazado 1178696" d="M180.343,77.269a17.994,17.994,0,0,0-22.33-8.745c1.677.443,3.432.713,5.109,1.156a15.1,15.1,0,0,0-9.223,1.132l7.665,3.105-4.971-.019C163.628,78.61,172.154,79.414,180.343,77.269Z" transform="translate(-153.9 -61.232)" fill="#c08329"/>
                <path id="Trazado_1178697" data-name="Trazado 1178697" d="M150.395,83.647A17.993,17.993,0,0,0,141.27,61.47c.839,1.518,1.859,2.972,2.7,4.49a15.1,15.1,0,0,0-7.2-5.88q1.53,3.843,3.057,7.685l-3.425-3.6C137.866,72.5,143.182,79.216,150.395,83.647Z" transform="translate(-110.218 -60.08)" fill="#c08329"/>
                <path id="Trazado_1178698" data-name="Trazado 1178698" d="M163.545,87.025a17.993,17.993,0,0,0-23.8,2.939c1.685-.408,3.357-1.007,5.044-1.415a15.1,15.1,0,0,0-7.572,5.386l8.22-.919-4.381,2.35C149.484,96.162,157.364,92.81,163.545,87.025Z" transform="translate(-123.042 -63.813)" fill="#c08329"/>
                <path id="Trazado_1178699" data-name="Trazado 1178699" d="M127.021,96.211a17.993,17.993,0,0,0-4.293-23.593c.5,1.66,1.2,3.3,1.7,4.954a15.1,15.1,0,0,0-5.81-7.253q.693,4.077,1.386,8.154l-2.6-4.239C117.1,82.695,120.893,90.371,127.021,96.211Z" transform="translate(-72.451 -61.69)" fill="#c08329"/>
                <path id="Trazado_1178700" data-name="Trazado 1178700" d="M147.3,99.594a17.992,17.992,0,0,0-23.889-2.1c1.734-.047,3.494-.284,5.228-.331a15.107,15.107,0,0,0-8.53,3.686l8.23.818-4.774,1.384C131.641,105.594,140.048,103.962,147.3,99.594Z" transform="translate(-92.38 -65.402)" fill="#c08329"/>
                <path id="Trazado_1178701" data-name="Trazado 1178701" d="M106.537,111.291a17.994,17.994,0,0,0-.459-23.977c.232,1.719.654,3.444.886,5.163a15.1,15.1,0,0,0-4.574-8.089q.032,4.135.062,8.271l-1.884-4.6C98.9,96.361,101.423,104.545,106.537,111.291Z" transform="translate(-39.069 -63.903)" fill="#c08329"/>
                <path id="Trazado_1178702" data-name="Trazado 1178702" d="M131.83,114.471a17.994,17.994,0,0,0-23.245-5.893c1.719.231,3.495.28,5.213.511a15.1,15.1,0,0,0-9.01,2.273l7.993,2.125-4.934.6C115.412,117.887,123.972,117.621,131.83,114.471Z" transform="translate(-63.998 -67.388)" fill="#c08329"/>
                <path id="Trazado_1178703" data-name="Trazado 1178703" d="M90.033,128.887a17.994,17.994,0,0,0,2.908-23.8c-.012,1.734.164,3.5.153,5.236a15.094,15.094,0,0,0-3.394-8.651q-.55,4.1-1.1,8.2-.611-2.409-1.22-4.819C84.571,113.034,85.916,121.491,90.033,128.887Z" transform="translate(-12.408 -66.62)" fill="#c08329"/>
                <path id="Trazado_1178704" data-name="Trazado 1178704" d="M119.063,131.745a17.994,17.994,0,0,0-22.189-9.1c1.669.47,3.421.767,5.09,1.236a15.1,15.1,0,0,0-9.24.987l7.616,3.226-4.97-.1C102.329,132.823,110.84,133.761,119.063,131.745Z" transform="translate(-41.064 -69.76)" fill="#c08329"/>
                <path id="Trazado_1178705" data-name="Trazado 1178705" d="M76.282,147.506A17.995,17.995,0,0,0,83.688,124.7c-.344,1.7-.508,3.469-.852,5.168a15.1,15.1,0,0,0-1.676-9.139q-1.324,3.917-2.646,7.837-.138-2.481-.276-4.964C73.952,130.9,73.655,139.458,76.282,147.506Z" transform="translate(8.068 -69.618)" fill="#c08329"/>
                <path id="Trazado_1178706" data-name="Trazado 1178706" d="M109.274,149.712a17.995,17.995,0,0,0-20.04-13.171c1.549.78,3.211,1.407,4.76,2.188a15.1,15.1,0,0,0-9.258-.8l6.858,4.622-4.86-1.045C92.642,147.57,100.818,150.119,109.274,149.712Z" transform="translate(-24.543 -72.075)" fill="#c08329"/>
                <path id="Trazado_1178707" data-name="Trazado 1178707" d="M67.678,165.077A17.994,17.994,0,0,0,77.284,143.1c-.508,1.659-.846,3.4-1.354,5.061a15.1,15.1,0,0,0-.772-9.26l-3.4,7.539q.106-2.483.212-4.966C66.988,148.322,65.853,156.81,67.678,165.077Z" transform="translate(21.627 -72.477)" fill="#c08329"/>
                <path id="Trazado_1178708" data-name="Trazado 1178708" d="M102.119,166.866a17.994,17.994,0,0,0-18.652-15.072c1.465.929,3.057,1.715,4.522,2.644a15.1,15.1,0,0,0-9.135-1.7l6.372,5.273-4.734-1.517C85.778,163.1,93.664,166.442,102.119,166.866Z" transform="translate(-12.432 -74.5)" fill="#c08329"/>
                <path id="Trazado_1178709" data-name="Trazado 1178709" d="M62.589,183.22a16.526,16.526,0,0,0,11.4-18.849c-.663,1.449-1.18,3-1.843,4.445a13.867,13.867,0,0,0,.413-8.525l-4.006,6.454.791-4.5C63.98,167.881,61.924,175.473,62.589,183.22Z" transform="translate(29.233 -75.84)" fill="#c08329"/>
                <path id="Trazado_1178710" data-name="Trazado 1178710" d="M95.366,184.265A16.528,16.528,0,0,0,80.2,168.292c1.222,1.022,2.577,1.93,3.8,2.952a13.868,13.868,0,0,0-8.113-2.651l5.167,5.57-4.128-1.952C80.941,178.87,87.719,182.86,95.366,184.265Z" transform="translate(-3.177 -77.098)" fill="#c08329"/>
                <path id="Trazado_1178711" data-name="Trazado 1178711" d="M62.065,199.358A13.792,13.792,0,0,0,73.577,185.03c-.709,1.125-1.308,2.347-2.017,3.472a11.576,11.576,0,0,0,1.285-7l-4.027,4.9q.576-1.815,1.152-3.631C64.913,186.826,62.372,192.877,62.065,199.358Z" transform="translate(30.24 -79.175)" fill="#c08329"/>
                <path id="Trazado_1178712" data-name="Trazado 1178712" d="M89.639,199.635a13.79,13.79,0,0,0-10.776-14.889c.9.981,1.918,1.881,2.816,2.862a11.571,11.571,0,0,0-6.417-3.09l3.657,5.178-3.2-2.071C78.3,193.576,83.47,197.626,89.639,199.635Z" transform="translate(3.004 -79.65)" fill="#c08329"/>
              </g>
            </g>
            <g id="Grupo_1224842" data-name="Grupo 1224842" transform="translate(0)">
              <g id="Grupo_1224840" data-name="Grupo 1224840" transform="translate(7.413 136.781)" opacity="0.59">
                <path id="Trazado_1178713" data-name="Trazado 1178713" d="M392.952,311.1a106.19,106.19,0,0,1-19.979,5.125,113.471,113.471,0,0,1-20.641,1.221,108.607,108.607,0,0,1-74.242-32.381,113.594,113.594,0,0,1-13.147-15.96,106.212,106.212,0,0,1-9.834-18.131A114.468,114.468,0,0,0,392.952,311.1Z" transform="translate(-246.293 -238.681)" fill="#6c301e"/>
                <path id="Trazado_1178714" data-name="Trazado 1178714" d="M422.107,261.713a17.994,17.994,0,0,1-11.685-20.941c.667,1.6,1.171,3.3,1.837,4.906a15.1,15.1,0,0,1-.126-9.291l4.114,7.175-.69-4.923C421.176,244.97,423.125,253.309,422.107,261.713Z" transform="translate(-406.234 -236.386)" fill="#c08329"/>
                <path id="Trazado_1178715" data-name="Trazado 1178715" d="M424.437,279.282a17.993,17.993,0,0,1-23.207-6.042c1.617.626,3.2,1.439,4.814,2.065a15.1,15.1,0,0,1-6.8-6.335l8.028,1.991-4.033-2.906C411.7,268.376,419.07,272.735,424.437,279.282Z" transform="translate(-399.244 -241.367)" fill="#c08329"/>
                <path id="Trazado_1178716" data-name="Trazado 1178716" d="M397.328,276.775a17.993,17.993,0,0,1-.307-23.978c-.176,1.726-.544,3.463-.72,5.189a15.1,15.1,0,0,1,4.312-8.231q.1,4.135.2,8.268.868-2.328,1.736-4.658C404.48,261.607,402.225,269.868,397.328,276.775Z" transform="translate(-372.444 -238.488)" fill="#c08329"/>
                <path id="Trazado_1178717" data-name="Trazado 1178717" d="M410.846,295.247a17.992,17.992,0,0,1-23.957-1.063c1.712.275,3.427.741,5.139,1.015a15.1,15.1,0,0,1-7.971-4.775l8.266.271-4.552-2C396.111,287.242,404.23,289.965,410.846,295.247Z" transform="translate(-372.854 -244.551)" fill="#c08329"/>
                <path id="Trazado_1178718" data-name="Trazado 1178718" d="M388.707,291.948a17.993,17.993,0,0,1-5.307-23.386c.188,1.724.191,3.5.379,5.225a15.1,15.1,0,0,1,2.5-8.95l1.924,8.044.726-4.917C392.534,275.621,392.054,284.171,388.707,291.948Z" transform="translate(-350.993 -240.86)" fill="#c08329"/>
                <path id="Trazado_1178719" data-name="Trazado 1178719" d="M394.073,308.855a17.993,17.993,0,0,1-23.818,2.787c1.734,0,3.5.182,5.235.179a15.1,15.1,0,0,1-8.633-3.437l8.2-1.057-4.813-1.245C378.247,303.312,386.7,304.7,394.073,308.855Z" transform="translate(-341.587 -247.12)" fill="#c08329"/>
                <path id="Trazado_1178720" data-name="Trazado 1178720" d="M375.957,305.2a17.995,17.995,0,0,1-8.984-22.236c.462,1.672.749,3.425,1.211,5.1a15.1,15.1,0,0,1,1.033-9.235q1.594,3.816,3.187,7.632-.035-2.485-.072-4.97C377.121,288.468,378.016,296.985,375.957,305.2Z" transform="translate(-323.725 -243.06)" fill="#c08329"/>
                <path id="Trazado_1178721" data-name="Trazado 1178721" d="M374.747,318.764a17.994,17.994,0,0,1-23.192,6.1c1.717-.246,3.491-.31,5.209-.557a15.1,15.1,0,0,1-9.03-2.192l7.974-2.2-4.94-.558C358.3,315.5,366.861,315.685,374.747,318.764Z" transform="translate(-306.145 -248.978)" fill="#c08329"/>
                <path id="Trazado_1178722" data-name="Trazado 1178722" d="M360.154,314.982a17.992,17.992,0,0,1-12.012-20.755c.691,1.591,1.222,3.286,1.914,4.876a15.107,15.107,0,0,1-.272-9.289l4.226,7.109q-.384-2.456-.768-4.911C358.959,298.257,361.039,306.563,360.154,314.982Z" transform="translate(-291.782 -244.789)" fill="#c08329"/>
                <path id="Trazado_1178723" data-name="Trazado 1178723" d="M354.164,324.489a17.994,17.994,0,0,1-21.6,10.424c1.638-.571,3.368-.973,5.006-1.543a15.1,15.1,0,0,1-9.283-.425l7.407-3.681-4.955.4C337.395,324.427,345.835,322.975,354.164,324.489Z" transform="translate(-269.176 -250.153)" fill="#c08329"/>
                <path id="Trazado_1178724" data-name="Trazado 1178724" d="M344.285,320.843a17.993,17.993,0,0,1-15.761-18.074c.983,1.429,1.828,2.991,2.811,4.42a15.1,15.1,0,0,1-2.044-9.065l5.508,6.17-1.693-4.674C339.913,304.654,343.544,312.41,344.285,320.843Z" transform="translate(-259.494 -246.095)" fill="#c08329"/>
                <path id="Trazado_1178725" data-name="Trazado 1178725" d="M335.118,328.038a17.994,17.994,0,0,1-20.472,12.49c1.574-.728,3.256-1.3,4.831-2.026a15.1,15.1,0,0,1-9.279.487l7.01-4.39-4.892.882C318.425,329.619,326.681,327.347,335.118,328.038Z" transform="translate(-234.884 -250.781)" fill="#c08329"/>
                <path id="Trazado_1178726" data-name="Trazado 1178726" d="M327.867,324.6a17.994,17.994,0,0,1-17.456-16.443c1.118,1.326,2.113,2.8,3.231,4.123a15.1,15.1,0,0,1-2.923-8.821l6.086,5.6-2.143-4.486C321.93,308.919,326.3,316.281,327.867,324.6Z" transform="translate(-227.812 -246.935)" fill="#c08329"/>
                <path id="Trazado_1178727" data-name="Trazado 1178727" d="M313.788,328.648a16.527,16.527,0,0,1-17.134,13.841c1.346-.853,2.809-1.574,4.155-2.427a13.871,13.871,0,0,1-8.391,1.562l5.854-4.842-4.349,1.392C298.778,332.1,306.022,329.036,313.788,328.648Z" transform="translate(-198.569 -250.896)" fill="#c08329"/>
                <path id="Trazado_1178728" data-name="Trazado 1178728" d="M310.77,325.906a16.527,16.527,0,0,1-17.877-12.869c1.178,1.073,2.261,2.293,3.439,3.365a13.869,13.869,0,0,1-3.724-7.68l6.217,4.366-2.492-3.826C303.473,312.343,308.343,318.519,310.77,325.906Z" transform="translate(-195.711 -247.762)" fill="#c08329"/>
                <path id="Trazado_1178729" data-name="Trazado 1178729" d="M293.525,327.16A13.791,13.791,0,0,1,280.885,340.5c1.019-.855,2.148-1.613,3.167-2.468a11.572,11.572,0,0,1-6.766,2.221l4.306-4.653-3.443,1.632C281.492,331.677,287.144,328.341,293.525,327.16Z" transform="translate(-165.554 -250.662)" fill="#c08329"/>
                <path id="Trazado_1178730" data-name="Trazado 1178730" d="M294.388,325.313a13.791,13.791,0,0,1-16.209-8.663c1.093.757,2.124,1.646,3.217,2.4a11.579,11.579,0,0,1-3.931-5.94l5.625,2.923-2.484-2.888C286.851,314.9,291.563,319.472,294.388,325.313Z" transform="translate(-166.568 -248.453)" fill="#c08329"/>
              </g>
              <g id="Grupo_1224841" data-name="Grupo 1224841" opacity="0.69">
                <path id="Trazado_1178731" data-name="Trazado 1178731" d="M332.036,201.348a106.168,106.168,0,0,1-2.376-20.489,113.492,113.492,0,0,1,1.582-20.617,108.61,108.61,0,0,1,42.125-69.182,113.573,113.573,0,0,1,17.591-10.868A106.136,106.136,0,0,1,410.253,72.9a114.478,114.478,0,0,0-78.217,128.446Z" transform="translate(-318.995 -62.096)" fill="#6c301e"/>
                <path id="Trazado_1178732" data-name="Trazado 1178732" d="M314.722,77.269a17.994,17.994,0,0,1,22.33-8.745c-1.677.443-3.432.713-5.109,1.156a15.1,15.1,0,0,1,9.223,1.132L333.5,73.917l4.971-.019C331.438,78.61,322.912,79.414,314.722,77.269Z" transform="translate(-237.33 -61.232)" fill="#c08329"/>
                <path id="Trazado_1178733" data-name="Trazado 1178733" d="M346.806,83.647a17.994,17.994,0,0,1,9.125-22.177c-.839,1.518-1.859,2.972-2.7,4.49a15.1,15.1,0,0,1,7.2-5.88q-1.53,3.843-3.057,7.685l3.424-3.6C359.334,72.5,354.018,79.216,346.806,83.647Z" transform="translate(-283.146 -60.08)" fill="#c08329"/>
                <path id="Trazado_1178734" data-name="Trazado 1178734" d="M331.541,87.025a17.993,17.993,0,0,1,23.8,2.939c-1.685-.408-3.357-1.007-5.044-1.415a15.1,15.1,0,0,1,7.573,5.386l-8.22-.919,4.381,2.35C345.6,96.162,337.722,92.81,331.541,87.025Z" transform="translate(-268.208 -63.813)" fill="#c08329"/>
                <path id="Trazado_1178735" data-name="Trazado 1178735" d="M370.689,96.211a17.993,17.993,0,0,1,4.293-23.593c-.5,1.66-1.2,3.3-1.7,4.954a15.1,15.1,0,0,1,5.81-7.253q-.693,4.077-1.386,8.154l2.6-4.239C380.614,82.695,376.818,90.371,370.689,96.211Z" transform="translate(-321.424 -61.69)" fill="#c08329"/>
                <path id="Trazado_1178736" data-name="Trazado 1178736" d="M347.626,99.594a17.992,17.992,0,0,1,23.889-2.1c-1.733-.047-3.494-.284-5.228-.331a15.107,15.107,0,0,1,8.53,3.686l-8.23.818,4.774,1.384C363.285,105.594,354.878,103.962,347.626,99.594Z" transform="translate(-298.711 -65.402)" fill="#c08329"/>
                <path id="Trazado_1178737" data-name="Trazado 1178737" d="M391.443,111.291a17.994,17.994,0,0,1,.459-23.977c-.232,1.719-.654,3.444-.886,5.163a15.1,15.1,0,0,1,4.573-8.089q-.032,4.135-.062,8.271l1.884-4.6C399.074,96.361,396.557,104.545,391.443,111.291Z" transform="translate(-355.075 -63.903)" fill="#c08329"/>
                <path id="Trazado_1178738" data-name="Trazado 1178738" d="M363.124,114.471a17.994,17.994,0,0,1,23.245-5.893c-1.719.231-3.495.28-5.213.511a15.1,15.1,0,0,1,9.01,2.273l-7.993,2.125,4.934.6C379.541,117.887,370.982,117.621,363.124,114.471Z" transform="translate(-327.12 -67.388)" fill="#c08329"/>
                <path id="Trazado_1178739" data-name="Trazado 1178739" d="M408.052,128.887a17.994,17.994,0,0,1-2.908-23.8c.012,1.734-.164,3.5-.152,5.236a15.1,15.1,0,0,1,3.394-8.651q.55,4.1,1.1,8.2.611-2.409,1.22-4.819C413.514,113.034,412.169,121.491,408.052,128.887Z" transform="translate(-381.841 -66.62)" fill="#c08329"/>
                <path id="Trazado_1178740" data-name="Trazado 1178740" d="M376.022,131.745a17.994,17.994,0,0,1,22.189-9.1c-1.669.47-3.421.767-5.09,1.236a15.1,15.1,0,0,1,9.24.987l-7.616,3.226,4.97-.1C392.757,132.823,384.245,133.761,376.022,131.745Z" transform="translate(-350.185 -69.76)" fill="#c08329"/>
                <path id="Trazado_1178741" data-name="Trazado 1178741" d="M421.739,147.506a17.995,17.995,0,0,1-7.407-22.809c.344,1.7.508,3.469.852,5.168a15.1,15.1,0,0,1,1.676-9.139q1.323,3.917,2.646,7.837.138-2.481.276-4.964C424.068,130.9,424.366,139.458,421.739,147.506Z" transform="translate(-402.254 -69.618)" fill="#c08329"/>
                <path id="Trazado_1178742" data-name="Trazado 1178742" d="M386.146,149.712a17.995,17.995,0,0,1,20.04-13.171c-1.549.78-3.211,1.407-4.76,2.188a15.1,15.1,0,0,1,9.258-.8l-6.858,4.622,4.86-1.045C402.777,147.57,394.6,150.119,386.146,149.712Z" transform="translate(-367.041 -72.075)" fill="#c08329"/>
                <path id="Trazado_1178743" data-name="Trazado 1178743" d="M430.211,165.077A17.994,17.994,0,0,1,420.6,143.1c.508,1.659.846,3.4,1.354,5.061a15.1,15.1,0,0,1,.772-9.26l3.4,7.539q-.106-2.483-.212-4.966C430.9,148.322,432.036,156.81,430.211,165.077Z" transform="translate(-415.681 -72.477)" fill="#c08329"/>
                <path id="Trazado_1178744" data-name="Trazado 1178744" d="M393.54,166.866a17.994,17.994,0,0,1,18.652-15.072c-1.465.929-3.057,1.715-4.523,2.644a15.1,15.1,0,0,1,9.135-1.7l-6.372,5.273,4.734-1.517C409.881,163.1,402,166.442,393.54,166.866Z" transform="translate(-379.392 -74.5)" fill="#c08329"/>
                <path id="Trazado_1178745" data-name="Trazado 1178745" d="M435.21,183.22a16.526,16.526,0,0,1-11.4-18.849c.663,1.449,1.18,3,1.843,4.445a13.867,13.867,0,0,1-.413-8.525l4.006,6.454-.791-4.5C433.819,167.881,435.875,175.473,435.21,183.22Z" transform="translate(-423.197 -75.84)" fill="#c08329"/>
                <path id="Trazado_1178746" data-name="Trazado 1178746" d="M401,184.265a16.528,16.528,0,0,1,15.168-15.973c-1.222,1.022-2.577,1.93-3.8,2.952a13.868,13.868,0,0,1,8.113-2.651l-5.167,5.57,4.128-1.952C415.426,178.87,408.647,182.86,401,184.265Z" transform="translate(-389.353 -77.098)" fill="#c08329"/>
                <path id="Trazado_1178747" data-name="Trazado 1178747" d="M435.783,199.358a13.792,13.792,0,0,1-11.512-14.328c.709,1.125,1.308,2.347,2.016,3.472a11.576,11.576,0,0,1-1.285-7l4.027,4.9q-.576-1.815-1.152-3.631C432.935,186.826,435.476,192.877,435.783,199.358Z" transform="translate(-424.253 -79.175)" fill="#c08329"/>
                <path id="Trazado_1178748" data-name="Trazado 1178748" d="M407.666,199.635a13.79,13.79,0,0,1,10.776-14.889c-.9.981-1.918,1.881-2.816,2.862a11.571,11.571,0,0,1,6.416-3.09l-3.657,5.178,3.2-2.071C419,193.576,413.835,197.626,407.666,199.635Z" transform="translate(-396.473 -79.65)" fill="#c08329"/>
              </g>
            </g>
          </g>
          <g id="Grupo_1224852" data-name="Grupo 1224852" transform="translate(47.832 46.474)">
            <path id="Trazado_1178749" data-name="Trazado 1178749" d="M231.462,277.954c-.868-3.28,2.572-7.955,5.517-7.8q-1.932-23.385-3.862-46.77c-.519-6.291.781-11.73,1.616-17.975-2.271-.348-4.148-2.843-4.145-5.51a5.973,5.973,0,0,1,4.539-5.606c-3.768-1.583-5.651-6.751-5.442-11.406s2.018-8.975,3.6-13.26a146.313,146.313,0,0,0,8.848-51.141,2.01,2.01,0,0,1,.389-1.2l.895-1.22a2.033,2.033,0,0,1,1.639-.83h0a2.033,2.033,0,0,1,1.639.83l.895,1.22a2.01,2.01,0,0,1,.388,1.2,146.31,146.31,0,0,0,8.848,51.141c1.577,4.285,3.386,8.605,3.6,13.26s-1.675,9.824-5.442,11.406a5.973,5.973,0,0,1,4.539,5.606c0,2.666-1.873,5.162-4.145,5.51.834,6.245,2.135,11.684,1.616,17.975q-1.93,23.385-3.862,46.77c2.945-.151,6.386,4.524,5.518,7.8,2.194.69,4.811,4.69,3.653,6.965H227.811C226.651,282.643,229.269,278.643,231.462,277.954Z" transform="translate(-133.09 -115.227)" fill="#6c301e"/>
            <g id="Grupo_1224846" data-name="Grupo 1224846" transform="translate(23.643 7.348)">
              <g id="Grupo_1224844" data-name="Grupo 1224844" transform="translate(82.028)">
                <path id="Trazado_1178750" data-name="Trazado 1178750" d="M149.411,142.718a251.3,251.3,0,0,0,26.258-2.385c8.781-1.435,17.6-3.747,25.837-8.072a56.643,56.643,0,0,1,5.77-2.832,11.459,11.459,0,0,1,5.56-.882,11.769,11.769,0,0,1,5.34,2.338c1.719,1.267,3.363,2.886,5.157,4.438a29.851,29.851,0,0,0,2.826,2.193l.766.467a6.431,6.431,0,0,0,.782.431l.8.394c.272.115.552.21.828.314a7.347,7.347,0,0,0,3.52.5,6.05,6.05,0,0,0,3.358-1.449,6.154,6.154,0,0,0,1.923-3.519,5.758,5.758,0,0,0-.6-4.017,3.16,3.16,0,0,0-3.055-1.559,3.056,3.056,0,0,0-1.577.616,2.836,2.836,0,0,0-1,1.5,2.633,2.633,0,0,1,1.078-1.343,2.779,2.779,0,0,1,1.51-.41,2.826,2.826,0,0,1,2.532,1.6,4.775,4.775,0,0,1,.225,3.342,4.441,4.441,0,0,1-4.473,3.449,6.01,6.01,0,0,1-2.832-.735c-.232-.118-.465-.225-.694-.35l-.668-.422a5.45,5.45,0,0,1-.654-.454l-.64-.485a28.931,28.931,0,0,1-2.423-2.3c-1.573-1.643-3.117-3.495-4.948-5.152a15.408,15.408,0,0,0-6.484-3.643,14.684,14.684,0,0,0-7.275.28,57.4,57.4,0,0,0-6.433,2.334c-7.9,3.141-16.3,4.4-24.716,4.828a244.124,244.124,0,0,1-25.6-.533c-2.7-.15-4.991,2.309-5.118,5.492s1.958,5.886,4.657,6.036C149.1,142.726,149.261,142.725,149.411,142.718Z" transform="translate(-144.287 -123.946)" fill="#6c301e"/>
                <path id="Trazado_1178751" data-name="Trazado 1178751" d="M149.188,130.685a3.5,3.5,0,0,0-1.085,1.823,3.021,3.021,0,0,0,.293,2.169,1.707,1.707,0,0,0,1.664.9,1.9,1.9,0,0,0,1.385-1.946,1.839,1.839,0,0,0-1.506-1.817,1.153,1.153,0,0,0-.833.26,1.17,1.17,0,0,0-.4.879,2.974,2.974,0,0,1,2.559-2.726A2.178,2.178,0,0,0,149.188,130.685Z" transform="translate(-60.629 -124.919)" fill="#6c301e"/>
              </g>
              <g id="Grupo_1224845" data-name="Grupo 1224845" transform="translate(0)">
                <path id="Trazado_1178752" data-name="Trazado 1178752" d="M330.463,142.718a251.3,251.3,0,0,1-26.258-2.385c-8.781-1.435-17.6-3.747-25.837-8.072a56.567,56.567,0,0,0-5.771-2.832,11.459,11.459,0,0,0-5.559-.882,11.769,11.769,0,0,0-5.34,2.338c-1.719,1.267-3.362,2.886-5.157,4.438a30.069,30.069,0,0,1-2.826,2.193l-.766.467a6.306,6.306,0,0,1-.782.431l-.8.394c-.272.115-.552.21-.827.314a7.347,7.347,0,0,1-3.52.5,6.048,6.048,0,0,1-3.358-1.449,6.154,6.154,0,0,1-1.923-3.519,5.758,5.758,0,0,1,.6-4.017,3.16,3.16,0,0,1,3.055-1.559,3.056,3.056,0,0,1,1.577.616,2.836,2.836,0,0,1,1,1.5,2.633,2.633,0,0,0-1.078-1.343,2.779,2.779,0,0,0-1.51-.41,2.826,2.826,0,0,0-2.532,1.6,4.775,4.775,0,0,0-.225,3.342,4.441,4.441,0,0,0,4.473,3.449,6.01,6.01,0,0,0,2.832-.735c.232-.118.465-.225.694-.35l.668-.422a5.453,5.453,0,0,0,.654-.454l.64-.485a28.931,28.931,0,0,0,2.423-2.3c1.573-1.643,3.117-3.495,4.948-5.152a15.408,15.408,0,0,1,6.484-3.643,14.684,14.684,0,0,1,7.275.28,57.4,57.4,0,0,1,6.433,2.334c7.9,3.141,16.3,4.4,24.716,4.828a244.123,244.123,0,0,0,25.6-.533c2.7-.15,4.991,2.309,5.118,5.492s-1.958,5.886-4.657,6.036C330.772,142.726,330.613,142.725,330.463,142.718Z" transform="translate(-241.622 -123.946)" fill="#6c301e"/>
                <path id="Trazado_1178753" data-name="Trazado 1178753" d="M347.581,130.685a3.5,3.5,0,0,1,1.085,1.823,3.021,3.021,0,0,1-.293,2.169,1.707,1.707,0,0,1-1.664.9,1.9,1.9,0,0,1-1.385-1.946,1.839,1.839,0,0,1,1.506-1.817,1.153,1.153,0,0,1,.833.26,1.173,1.173,0,0,1,.4.879,2.974,2.974,0,0,0-2.559-2.726A2.179,2.179,0,0,1,347.581,130.685Z" transform="translate(-342.175 -124.919)" fill="#6c301e"/>
              </g>
            </g>
            <g id="Grupo_1224847" data-name="Grupo 1224847" transform="translate(98.954 6.665)">
              <circle id="Elipse_14533" data-name="Elipse 14533" cx="13.007" cy="13.007" r="13.007" fill="#6c301e"/>
              <circle id="Elipse_14534" data-name="Elipse 14534" cx="7.482" cy="7.482" r="7.482" transform="translate(5.525 5.525)" fill="#fbcc34"/>
            </g>
            <path id="Trazado_1178754" data-name="Trazado 1178754" d="M240.915,201.07a10.866,10.866,0,0,1-3.858,5.815,8.2,8.2,0,0,1-6.128,1.567" transform="translate(-114.296 -128.727)" fill="none" stroke="#2a1510" stroke-linecap="round" stroke-linejoin="round" stroke-miterlimit="10" stroke-width="1"/>
            <line id="Línea_867" data-name="Línea 867" x1="17.633" transform="translate(105.052 89.777)" fill="none" stroke="#2a1510" stroke-linecap="round" stroke-linejoin="round" stroke-miterlimit="10" stroke-width="1"/>
            <line id="Línea_868" data-name="Línea 868" x1="22.332" transform="translate(102.959 163.131)" fill="none" stroke="#2a1510" stroke-linecap="round" stroke-linejoin="round" stroke-miterlimit="10" stroke-width="1"/>
            <line id="Línea_869" data-name="Línea 869" x1="9.639" transform="translate(110.273 154.818)" fill="none" stroke="#2a1510" stroke-linecap="round" stroke-linejoin="round" stroke-miterlimit="10" stroke-width="1"/>
            <path id="Trazado_1178755" data-name="Trazado 1178755" d="M232.889,149.15a13.007,13.007,0,1,0,0-26.013" transform="translate(-120.929 -116.471)" fill="none" stroke="#2a1510" stroke-linecap="round" stroke-linejoin="round" stroke-miterlimit="10" stroke-width="1"/>
            <g id="Grupo_1224849" data-name="Grupo 1224849" transform="translate(165.032 20.644)">
              <line id="Línea_870" data-name="Línea 870" y2="58.408" transform="translate(28.031)" fill="none" stroke="#2a1510" stroke-linecap="round" stroke-linejoin="round" stroke-miterlimit="10" stroke-width="1"/>
              <g id="Grupo_1224848" data-name="Grupo 1224848">
                <path id="Trazado_1178756" data-name="Trazado 1178756" d="M147.428,139.723l24.955,60.6h-49.91Z" transform="translate(-119.397 -139.723)" fill="none" stroke="#2a1510" stroke-linecap="round" stroke-linejoin="round" stroke-miterlimit="10" stroke-width="1"/>
                <path id="Trazado_1178757" data-name="Trazado 1178757" d="M174.885,209.031c-1.139,10.338-13.24,11.731-28.031,11.731s-26.891-1.393-28.031-11.731Z" transform="translate(-118.823 -150.623)" fill="#e3ae00"/>
                <path id="Trazado_1178758" data-name="Trazado 1178758" d="M169.42,209.8c-.866,5.832-10.066,6.617-21.312,6.617s-20.446-.785-21.312-6.617Z" transform="translate(-120.077 -150.745)" fill="#fbcc34"/>
              </g>
            </g>
            <g id="Grupo_1224851" data-name="Grupo 1224851" transform="translate(0 20.644)">
              <line id="Línea_871" data-name="Línea 871" y2="58.408" transform="translate(28.031)" fill="none" stroke="#2a1510" stroke-linecap="round" stroke-linejoin="round" stroke-miterlimit="10" stroke-width="1"/>
              <g id="Grupo_1224850" data-name="Grupo 1224850">
                <path id="Trazado_1178759" data-name="Trazado 1178759" d="M343.257,139.723l24.956,60.6H318.3Z" transform="translate(-315.226 -139.723)" fill="none" stroke="#2a1510" stroke-linecap="round" stroke-linejoin="round" stroke-miterlimit="10" stroke-width="1"/>
                <path id="Trazado_1178760" data-name="Trazado 1178760" d="M370.715,209.031c-1.139,10.338-13.24,11.731-28.031,11.731s-26.891-1.393-28.031-11.731Z" transform="translate(-314.653 -150.623)" fill="#e3ae00"/>
                <path id="Trazado_1178761" data-name="Trazado 1178761" d="M365.25,209.8c-.866,5.832-10.066,6.617-21.312,6.617s-20.446-.785-21.312-6.617Z" transform="translate(-315.907 -150.745)" fill="#fbcc34"/>
              </g>
            </g>
          </g>
        </g>
      </g>
    </g>
  </g>
</svg>
