<svg xmlns="http://www.w3.org/2000/svg" width="76.858" height="86.005" viewBox="0 0 76.858 86.005">
  <g id="Grupo_1223903" data-name="Grupo 1223903" transform="translate(-515.844 -3018.848)">
    <rect id="Rectángulo_421638" data-name="Rectángulo 421638" width="53" height="86" transform="translate(539.702 3018.848)" fill="#bca78f"/>
    <g id="libertad_2_" data-name="libertad (2)" transform="translate(515.844 3024.169)">
      <g id="Grupo_1223901" data-name="Grupo 1223901" transform="translate(1.327 1.182)">
        <g id="Grupo_1223898" data-name="Grupo 1223898" transform="translate(9.653)">
          <path id="Trazado_1170595" data-name="Trazado 1170595" d="M120.793,26.246a4.971,4.971,0,0,1,4.979-4.963q.146,0,.289.008c2.525.862,4.256,2.431,4.256,5.075l.074,8.268c0,2.741-1.8,5.053-4.552,5.053-2.129,0-3.53-1.245-4.725-2.7a4.937,4.937,0,0,1-.321-1.756l1.4-5.837-1.4-2.541v-.61Z" transform="translate(-114.651 -19.111)" fill="#d5877a"/>
          <path id="Trazado_1170596" data-name="Trazado 1170596" d="M130.741,26.285l1.875,2.58-1.875,6.407a4.975,4.975,0,0,1-8.488,3.51,5.062,5.062,0,0,1-1.457-3.51V26.895l4.224-1.031a1.367,1.367,0,0,0,1.043-1.328V21.33a4.965,4.965,0,0,1,4.679,4.955Z" transform="translate(-114.653 -19.151)" fill="#c86f5c"/>
          <path id="Trazado_1170597" data-name="Trazado 1170597" d="M168.194,76.49l.067,11.278c-.158,4.538-2.991,13.218-3.047,13.363a16.921,16.921,0,0,0-.9,6.279v28.672a1.184,1.184,0,0,1-1.184,1.184l-7.606,1H143.236l-5.331-.938a1.184,1.184,0,0,1-1.184-1.184V107.792a9.258,9.258,0,0,0-2.24-6.108A7.094,7.094,0,0,0,132.2,99.9l-.868-22.735,18.552-7.4Z" transform="translate(-123.533 -59.95)" fill="#d5877a"/>
          <path id="Trazado_1170598" data-name="Trazado 1170598" d="M324.454,132.876c.055-.144.111-.282.166-.411a36.962,36.962,0,0,0,2.949-13.2l-.067-11.277-4.329-1.638.053,8.968a36.957,36.957,0,0,1-2.949,13.2c-.055.128-.111.266-.166.411a17.544,17.544,0,0,0-1.169,6.36v29.59h4.343V139.236a17.548,17.548,0,0,1,1.169-6.36Z" transform="translate(-281.574 -90.772)" fill="#c86f5c"/>
          <g id="Grupo_1223896" data-name="Grupo 1223896" transform="translate(34.285 4.845)">
            <path id="Trazado_1170599" data-name="Trazado 1170599" d="M301.074,43.206a4.971,4.971,0,0,1,4.979-4.963q.146,0,.289.008c2.525.862,4.256,2.431,4.256,5.075l.074,8.268c0,2.741-1.8,5.053-4.552,5.053-2.129,0-3.53-1.245-4.725-2.7a4.937,4.937,0,0,1-.321-1.756l-1.7-4.491Z" transform="translate(-299.378 -38.243)" fill="#d5877a"/>
            <path id="Trazado_1170600" data-name="Trazado 1170600" d="M321.8,43.244v8.988a4.976,4.976,0,0,1-9.625,1.757,4.96,4.96,0,0,0,4.947-4.963V38.289a4.964,4.964,0,0,1,4.678,4.955Z" transform="translate(-310.16 -38.282)" fill="#c86f5c"/>
          </g>
          <g id="Grupo_1223897" data-name="Grupo 1223897" transform="translate(24.668 2.032)">
            <path id="Trazado_1170601" data-name="Trazado 1170601" d="M239.72,25.357a4.971,4.971,0,0,1,4.979-4.963q.146,0,.289.008c2.525.862,4.256,2.431,4.256,5.075l.074,11.394c0,2.741-1.8,5.053-4.552,5.053-2.129,0-3.53-1.245-4.725-2.7a4.937,4.937,0,0,1-.321-1.756l-1.367-5.521Z" transform="translate(-238.353 -20.394)" fill="#d5877a"/>
            <path id="Trazado_1170602" data-name="Trazado 1170602" d="M258.686,25.395V37.509a4.976,4.976,0,0,1-9.625,1.757,4.96,4.96,0,0,0,4.947-4.963V20.44a4.964,4.964,0,0,1,4.678,4.955Z" transform="translate(-247.374 -20.433)" fill="#c86f5c"/>
          </g>
          <path id="Trazado_1170603" data-name="Trazado 1170603" d="M183.909,12.463A4.971,4.971,0,0,1,188.888,7.5q.146,0,.289.008c2.525.862,4.256,2.431,4.256,5.075l.074,12.644c0,2.741-1.8,5.053-4.552,5.053-2.411-.178-5.015-1.693-5.046-4.454l1.094-8.4L183.909,14.3V12.463Z" transform="translate(-167.821 -7.5)" fill="#d5877a"/>
          <path id="Trazado_1170604" data-name="Trazado 1170604" d="M193.853,12.5V25.868a4.974,4.974,0,0,1-9.947,0V14.345a8.681,8.681,0,0,1,4.037,1.251.807.807,0,0,0,1.232-.685V7.549a4.964,4.964,0,0,1,4.679,4.955Z" transform="translate(-167.818 -7.541)" fill="#c86f5c"/>
          <path id="Trazado_1170605" data-name="Trazado 1170605" d="M92.762,97.145a7.094,7.094,0,0,0-2.276-1.782,14.977,14.977,0,0,1-8.663-13.557l-.009-9.982h0a4.968,4.968,0,0,1,3.923-4.74l10.64-2.6a4.963,4.963,0,1,1,2.109,9.7l-5.769,1.5Z" transform="translate(-81.815 -55.412)" fill="#d5877a"/>
        </g>
        <g id="Grupo_1223900" data-name="Grupo 1223900" transform="translate(0 52.809)">
          <path id="Trazado_1170606" data-name="Trazado 1170606" d="M296.2,342.879l-1.931-.265h-8.256a.316.316,0,0,0-.247.118l-2.411,3.013a.316.316,0,0,0,0,.394l2.409,3.013a.315.315,0,0,0,.247.118H296.2a6.753,6.753,0,0,1,1.264.128c3.952-.019,5.734,2.91,5.8,5.823.071,3-2.507,6.191-5.74,6.123a5.8,5.8,0,0,1-1.213.121H283.3a.316.316,0,0,0-.247.512l2.005,2.526a.316.316,0,0,1,0,.394l-2.183,2.712a.316.316,0,0,0,.246.514h10.795l2.585-.254c4.535,0,7.771-2.428,10.034-6a11.574,11.574,0,0,0,1.823-6.624,12.539,12.539,0,0,0-1.994-6.677A11.468,11.468,0,0,0,296.2,342.879Z" transform="translate(-241.475 -342.614)" fill="#dae6ed"/>
          <path id="Trazado_1170607" data-name="Trazado 1170607" d="M361.029,355.247a12.765,12.765,0,0,1-12.754,12.881h-3.631a12.737,12.737,0,0,0,9.9-4.723.753.753,0,0,0-.582-1.23h-1.2a6.954,6.954,0,0,1-3.277-.826,6.087,6.087,0,0,0-.063-11.946,6.751,6.751,0,0,1,3.247-.832h1.254a.753.753,0,0,0,.578-1.234,12.989,12.989,0,0,0-10.022-4.719h3.631a12.986,12.986,0,0,1,10.923,5.953A12.537,12.537,0,0,1,361.029,355.247Z" transform="translate(-293.435 -342.616)" fill="#c7dae5"/>
          <path id="Trazado_1170608" data-name="Trazado 1170608" d="M94.551,342.613H81.827A12.983,12.983,0,0,0,70.9,348.567c-1.24,1.932-.575,4.217-.6,6.676-.025,2.546-.7,4.925.572,6.928a12.758,12.758,0,0,0,10.786,5.953h9.99a.316.316,0,0,0,.246-.118l2.5-3.108a.316.316,0,0,0,0-.394l-2.317-2.919a.316.316,0,0,0-.247-.119H81.779a6.742,6.742,0,0,1-1.263-.127c-3.448.312-6.009-2.909-6.079-5.82a6.182,6.182,0,0,1,6.014-6.126,5.8,5.8,0,0,1,1.213-.121H94.55a.316.316,0,0,0,.247-.513L92.7,346.139a.316.316,0,0,1,0-.394l2.094-2.619a.316.316,0,0,0-.247-.513Z" transform="translate(-62.298 -342.613)" fill="#dae6ed"/>
          <path id="Trazado_1170609" data-name="Trazado 1170609" d="M74.11,393.167a6.757,6.757,0,0,1-3.249.832H64.472a12.688,12.688,0,0,1-1.969-6.927,12.518,12.518,0,0,1,2-6.676h6.269a6.953,6.953,0,0,1,3.277.826,6.087,6.087,0,0,0,.065,11.946Z" transform="translate(-55.892 -374.441)" fill="#c7dae5"/>
          <g id="Grupo_1223899" data-name="Grupo 1223899" transform="translate(0 9.427)">
            <path id="Trazado_1170610" data-name="Trazado 1170610" d="M35.525,409.092H23.979a3.388,3.388,0,0,1-3.413-3.576,3.329,3.329,0,0,1,3.32-3.082H35.432a3.388,3.388,0,0,1,3.413,3.576A3.329,3.329,0,0,1,35.525,409.092Z" transform="translate(-20.557 -402.434)" fill="#dae6ed"/>
            <path id="Trazado_1170611" data-name="Trazado 1170611" d="M390.3,409.092H378.756a3.388,3.388,0,0,1-3.413-3.576,3.329,3.329,0,0,1,3.32-3.082h11.546a3.388,3.388,0,0,1,3.413,3.576A3.329,3.329,0,0,1,390.3,409.092Z" transform="translate(-319.426 -402.434)" fill="#dae6ed"/>
          </g>
        </g>
      </g>
      <g id="Grupo_1223902" data-name="Grupo 1223902" transform="translate(0 0)">
        <path id="Trazado_1170612" data-name="Trazado 1170612" d="M96.69,25.866a6.178,6.178,0,0,0,4.723-2.2,6.186,6.186,0,0,0,10.417.263,6.176,6.176,0,0,0,8.719,1.075v3.807c0,.527-.011,1.048-.033,1.549a1.182,1.182,0,0,0,1.128,1.233h.053a1.182,1.182,0,0,0,1.18-1.129c.024-.535.036-1.092.036-1.654V20.149s0,0,0-.006V11.079a6.185,6.185,0,0,0-10.283-4.637A6.184,6.184,0,0,0,102.4,3.8a6.188,6.188,0,0,0-11.37-.111A6.242,6.242,0,0,0,80.405,8.083v3.7l-.831.2a6.18,6.18,0,0,0-4.864,5.937l0,2.6a1.182,1.182,0,0,0,1.182,1.18h0a1.182,1.182,0,0,0,1.18-1.183l0-2.516a3.82,3.82,0,0,1,3.018-3.715c.015,0,10.7-2.617,10.717-2.622a3.826,3.826,0,1,1,1.558,7.492l-5.8,1.519a1.182,1.182,0,0,0-.851,1.414l1.262,5.369a1.19,1.19,0,0,0,1.158.911,11.647,11.647,0,0,1,6.937,1.965,12.186,12.186,0,0,1,4.406,6.38,1.182,1.182,0,0,0,2.245-.741,14.485,14.485,0,0,0-5.292-7.572,13.647,13.647,0,0,0-7.363-2.376l-.789-3.354,2.667-.7a6.216,6.216,0,0,0,5.746,3.885ZM116.722,7.253a3.83,3.83,0,0,1,3.826,3.826v9.07a3.826,3.826,0,0,1-7.652,0v-9.07A3.83,3.83,0,0,1,116.722,7.253ZM106.706,4.414a3.83,3.83,0,0,1,3.826,3.826V20.464a3.826,3.826,0,1,1-7.652,0V8.24a3.831,3.831,0,0,1,3.826-3.826ZM82.769,11.206V8.083a3.866,3.866,0,0,1,7.731,0V9.326Zm14.885,2.9a6.232,6.232,0,0,0-4.79-4.747V6.19a3.826,3.826,0,1,1,7.652,0V19.676a3.826,3.826,0,0,1-7.254,1.7A6.2,6.2,0,0,0,97.654,14.1Z" transform="translate(-64.85 0)"/>
        <path id="Trazado_1170613" data-name="Trazado 1170613" d="M47.714,186.88a1.182,1.182,0,0,0-1.065-.67H37.824v-4.149a8.975,8.975,0,0,0-5.152-8.1l-.034-.015a13.993,13.993,0,0,1-8-12.6l0-1.867a1.182,1.182,0,0,0-1.182-1.181h0a1.182,1.182,0,0,0-1.181,1.183l0,1.867A16.364,16.364,0,0,0,31.669,176.1l.033.015a6.6,6.6,0,0,1,3.758,5.943v4.149H32.967a13.789,13.789,0,0,0-5.6,1.177,1.182,1.182,0,1,0,.954,2.163,11.437,11.437,0,0,1,4.646-.976H44.19l-1.121,1.4a1.182,1.182,0,0,0,0,1.476l1.122,1.4H32.967a7.3,7.3,0,0,0-5.7,2.764H22.333a11.444,11.444,0,0,1,1.916-3.061,1.182,1.182,0,1,0-1.783-1.552,13.77,13.77,0,0,0-2.661,4.613H16.96a4.521,4.521,0,0,0-4.493,4.172,4.414,4.414,0,0,0,1.19,3.358,4.649,4.649,0,0,0,3.4,1.48H19.8a14.059,14.059,0,0,0,4.778,6.592,13.777,13.777,0,0,0,8.384,2.817H43.252a1.182,1.182,0,0,0,.921-.441l2.75-3.416a1.182,1.182,0,0,0,0-1.476l-2.564-3.229a1.182,1.182,0,0,0-.926-.447H37.824v-9.81h8.823a1.182,1.182,0,0,0,.923-1.92L45.5,190.714l2.067-2.584A1.182,1.182,0,0,0,47.714,186.88ZM15.389,201.54a2.074,2.074,0,0,1-.564-1.576,2.148,2.148,0,0,1,2.135-1.981H28.485a2.278,2.278,0,0,1,1.664.725,2.074,2.074,0,0,1,.564,1.576,2.148,2.148,0,0,1-2.135,1.981H17.053a2.279,2.279,0,0,1-1.664-.725Zm29.1,7.894-1.8,2.24h-9.72a11.633,11.633,0,0,1-10.631-7.045h4.935a7.3,7.3,0,0,0,5.7,2.764h9.9Zm-9.029-4.406H32.967a4.861,4.861,0,0,1-2.627-.763,4.519,4.519,0,0,0,2.731-3.809,4.414,4.414,0,0,0-1.19-3.358,4.636,4.636,0,0,0-1.566-1.1,4.861,4.861,0,0,1,2.652-.778H35.46Z" transform="translate(-12.405 -133.354)"/>
        <path id="Trazado_1170614" data-name="Trazado 1170614" d="M304.171,249.153H301.42a14.054,14.054,0,0,0-4.778-6.593,13.78,13.78,0,0,0-8.385-2.817h-2.493v-3.19a14.549,14.549,0,0,1,1.167-5.72l.02-.048a38.687,38.687,0,0,0,2.325-7.523,1.182,1.182,0,1,0-2.318-.464,36.345,36.345,0,0,1-2.186,7.071l-.02.049a16.89,16.89,0,0,0-1.352,6.636v3.19h-5.739a1.181,1.181,0,0,0-.923.443l-2.658,3.322a1.181,1.181,0,0,0,0,1.476l2.657,3.323a1.182,1.182,0,0,0,.923.444H283.4v9.81H274.45a1.182,1.182,0,0,0-.926,1.917l1.976,2.489-2.157,2.68a1.182,1.182,0,0,0,.921,1.923h13.994a13.778,13.778,0,0,0,8.384-2.817,14.06,14.06,0,0,0,4.778-6.592h2.845a4.521,4.521,0,0,0,4.493-4.172,4.414,4.414,0,0,0-1.19-3.358A4.651,4.651,0,0,0,304.171,249.153Zm-27.655-4.9,1.713-2.14h10.028a11.631,11.631,0,0,1,10.631,7.045h-4.935a7.3,7.3,0,0,0-5.7-2.764H278.228Zm9.248,4.5h2.493a4.86,4.86,0,0,1,2.627.763,4.52,4.52,0,0,0-2.731,3.809,4.414,4.414,0,0,0,1.19,3.358,4.635,4.635,0,0,0,1.566,1.1,4.861,4.861,0,0,1-2.652.778h-2.493Zm2.493,16.455H276.732l1.2-1.494a1.182,1.182,0,0,0,0-1.476l-1.042-1.312h11.36a7.3,7.3,0,0,0,5.7-2.764h4.935A11.633,11.633,0,0,1,288.257,265.208Zm18.142-11.39a2.148,2.148,0,0,1-2.135,1.981H292.739a2.278,2.278,0,0,1-1.664-.725,2.074,2.074,0,0,1-.564-1.576,2.148,2.148,0,0,1,2.135-1.981h11.525a2.278,2.278,0,0,1,1.664.725A2.074,2.074,0,0,1,306.4,253.818Z" transform="translate(-231.961 -186.889)"/>
        <path id="Trazado_1170615" data-name="Trazado 1170615" d="M434.328,296.213a1.178,1.178,0,0,0,.836-.346l4.365-4.365a1.182,1.182,0,0,0-1.671-1.671l-4.365,4.365a1.182,1.182,0,0,0,.836,2.018Z" transform="translate(-366.802 -243.866)"/>
        <path id="Trazado_1170616" data-name="Trazado 1170616" d="M407.666,271.788a1.181,1.181,0,0,0,1.448-.836l1.071-4a1.182,1.182,0,1,0-2.283-.612l-1.071,4A1.182,1.182,0,0,0,407.666,271.788Z" transform="translate(-344.598 -223.634)"/>
        <path id="Trazado_1170617" data-name="Trazado 1170617" d="M459.541,339.3a1.181,1.181,0,0,0,1.448.836l4-1.071a1.182,1.182,0,1,0-.612-2.283l-4,1.071A1.182,1.182,0,0,0,459.541,339.3Z" transform="translate(-389.003 -283.678)"/>
        <path id="Trazado_1170618" data-name="Trazado 1170618" d="M40.865,295.867a1.182,1.182,0,1,0,1.671-1.671l-4.365-4.365A1.182,1.182,0,0,0,36.5,291.5Z" transform="translate(-32.37 -243.866)"/>
        <path id="Trazado_1170619" data-name="Trazado 1170619" d="M85.667,271.828a1.183,1.183,0,0,0,1.142-1.488l-1.071-4a1.182,1.182,0,1,0-2.283.612l1.071,4A1.182,1.182,0,0,0,85.667,271.828Z" transform="translate(-72.183 -223.634)"/>
        <path id="Trazado_1170620" data-name="Trazado 1170620" d="M13.015,339.067l4,1.071a1.182,1.182,0,0,0,.612-2.283l-4-1.07a1.182,1.182,0,1,0-.612,2.283Z" transform="translate(-12.139 -283.678)"/>
      </g>
    </g>
  </g>
</svg>
