<svg xmlns="http://www.w3.org/2000/svg" xmlns:xlink="http://www.w3.org/1999/xlink" width="103" height="103" viewBox="0 0 103 103">
  <defs>
    <filter id="Trazado_978624" x="0" y="0" width="103" height="103" filterUnits="userSpaceOnUse">
      <feOffset dy="3" input="SourceAlpha"/>
      <feGaussianBlur stdDeviation="3" result="blur"/>
      <feFlood flood-opacity="0.161"/>
      <feComposite operator="in" in2="blur"/>
      <feComposite in="SourceGraphic"/>
    </filter>
  </defs>
  <g id="Grupo_1224476" data-name="Grupo 1224476" transform="translate(-619 -3553)">
    <g id="Grupo_1223637" data-name="Grupo 1223637" transform="translate(628 3559)">
      <g id="Grupo_1214665" data-name="Grupo 1214665">
        <g id="Grupo_1180764" data-name="Grupo 1180764">
          <g id="Grupo_1179463" data-name="Grupo 1179463">
            <g id="Grupo_1144531" data-name="Grupo 1144531">
              <g transform="matrix(1, 0, 0, 1, -9, -6)" filter="url(#Trazado_978624)">
                <g id="Trazado_978624-2" data-name="Trazado 978624" transform="translate(9 6)" fill="#f2f4f0">
                  <path d="M 42.5 83.5 C 36.96437835693359 83.5 31.59512901306152 82.41617584228516 26.54141235351562 80.27863311767578 C 21.65934181213379 78.21369171142578 17.27447128295898 75.25723266601562 13.50862312316895 71.49137878417969 C 9.742764472961426 67.72553253173828 6.786305904388428 63.34066009521484 4.721364498138428 58.45858764648438 C 2.583823442459106 53.40486907958984 1.5 48.03562164306641 1.5 42.5 C 1.5 36.96437835693359 2.583823442459106 31.59512901306152 4.721364498138428 26.54141235351562 C 6.786305904388428 21.65934181213379 9.742764472961426 17.27447128295898 13.50862312316895 13.50862312316895 C 17.27447128295898 9.742764472961426 21.65934181213379 6.786305904388428 26.54141235351562 4.721364498138428 C 31.59512901306152 2.583823442459106 36.96437835693359 1.5 42.5 1.5 C 48.03562164306641 1.5 53.40486907958984 2.583823442459106 58.45858764648438 4.721364498138428 C 63.34066009521484 6.786305904388428 67.72553253173828 9.742764472961426 71.49137878417969 13.50862312316895 C 75.25723266601562 17.27447128295898 78.21369171142578 21.65934181213379 80.27863311767578 26.54141235351562 C 82.41617584228516 31.59512901306152 83.5 36.96437835693359 83.5 42.5 C 83.5 48.03562164306641 82.41617584228516 53.40486907958984 80.27863311767578 58.45858764648438 C 78.21369171142578 63.34066009521484 75.25723266601562 67.72553253173828 71.49137878417969 71.49137878417969 C 67.72553253173828 75.25723266601562 63.34066009521484 78.21369171142578 58.45858764648438 80.27863311767578 C 53.40486907958984 82.41617584228516 48.03562164306641 83.5 42.5 83.5 Z" stroke="none"/>
                  <path d="M 42.5 3 C 37.16621398925781 3 31.99356079101562 4.043960571289062 27.125732421875 6.102882385253906 C 22.42246627807617 8.092185974121094 18.19785308837891 10.94070434570312 14.56928253173828 14.56928253173828 C 10.94070434570312 18.19785308837891 8.092185974121094 22.42246627807617 6.102882385253906 27.125732421875 C 4.043960571289062 31.99356079101562 3 37.16621398925781 3 42.5 C 3 47.83378601074219 4.043960571289062 53.00643920898438 6.102882385253906 57.87425231933594 C 8.092185974121094 62.57753372192383 10.94070434570312 66.80213165283203 14.56928253173828 70.43071746826172 C 18.19786834716797 74.05929565429688 22.42246627807617 76.90781402587891 27.125732421875 78.89711761474609 C 31.99356079101562 80.95603942871094 37.16621398925781 82 42.5 82 C 47.83378601074219 82 53.00642395019531 80.95603942871094 57.87425231933594 78.89711761474609 C 62.57753372192383 76.90781402587891 66.80213165283203 74.05929565429688 70.43071746826172 70.43071746826172 C 74.05929565429688 66.80213165283203 76.90781402587891 62.57753372192383 78.89711761474609 57.87425231933594 C 80.95603942871094 53.00642395019531 82 47.83378601074219 82 42.5 C 82 37.16621398925781 80.95603942871094 31.99356079101562 78.89711761474609 27.125732421875 C 76.90781402587891 22.42246627807617 74.05929565429688 18.19786834716797 70.43071746826172 14.56928253173828 C 66.80213165283203 10.94070434570312 62.57753372192383 8.092185974121094 57.87425231933594 6.102882385253906 C 53.00643920898438 4.043960571289062 47.83378601074219 3 42.5 3 M 42.5 0 C 65.97209167480469 0 85 19.02789306640625 85 42.5 C 85 65.97209167480469 65.97209167480469 85 42.5 85 C 19.02789306640625 85 0 65.97209167480469 0 42.5 C 0 19.02789306640625 19.02789306640625 0 42.5 0 Z" stroke="none" fill="#4a5641"/>
                </g>
              </g>
            </g>
          </g>
        </g>
      </g>
    </g>
    <g id="discurso_3_" data-name="discurso (3)" transform="translate(622.462 3569.913)">
      <g id="Grupo_1224475" data-name="Grupo 1224475" transform="translate(13.939 1.085)">
        <path id="Trazado_1172299" data-name="Trazado 1172299" d="M173.956,46.19H145.777V21.59a14.09,14.09,0,1,1,28.179,0Z" transform="translate(-127.628 -7.5)" fill="#f6df7f"/>
        <path id="Trazado_1172300" data-name="Trazado 1172300" d="M230.318,7.5a14.2,14.2,0,0,0-2.171.166A14.093,14.093,0,0,1,240.066,21.59v24.6h4.341V21.59A14.09,14.09,0,0,0,230.318,7.5Z" transform="translate(-198.079 -7.5)" fill="#efd06f"/>
        <g id="Grupo_1224470" data-name="Grupo 1224470" transform="translate(7.016 26.496)">
          <g id="Grupo_1224468" data-name="Grupo 1224468" transform="translate(42.906)">
            <path id="Trazado_1172301" data-name="Trazado 1172301" d="M372.258,197.51a2.17,2.17,0,0,1-3.07,0l-3.2-3.2a2.17,2.17,0,1,1,3.07-3.07l3.2,3.2A2.17,2.17,0,0,1,372.258,197.51Z" transform="translate(-365.355 -190.607)" fill="#685e68"/>
          </g>
          <g id="Grupo_1224469" data-name="Grupo 1224469">
            <path id="Trazado_1172302" data-name="Trazado 1172302" d="M69.477,197.51a2.17,2.17,0,0,0,3.07,0l3.2-3.2a2.17,2.17,0,1,0-3.07-3.07l-3.2,3.2A2.171,2.171,0,0,0,69.477,197.51Z" transform="translate(-68.841 -190.607)" fill="#685e68"/>
          </g>
        </g>
        <g id="Grupo_1224471" data-name="Grupo 1224471" transform="translate(49.336 0)">
          <path id="Trazado_1172303" data-name="Trazado 1172303" d="M371.414,7.5c-4.835,0-8.754,3.013-8.754,6.729a5.471,5.471,0,0,0,.917,3,.585.585,0,0,1-.084.73l-2.014,2.014a.579.579,0,0,0,.409.988h9.526c4.835,0,8.754-3.013,8.754-6.729S376.249,7.5,371.414,7.5Z" transform="translate(-361.308 -7.5)" fill="#f6df7f"/>
          <path id="Trazado_1172304" data-name="Trazado 1172304" d="M405.488,7.5a11.279,11.279,0,0,0-2.171.209c3.785.742,6.584,3.38,6.584,6.52,0,3.716-3.92,6.729-8.754,6.729h4.341c4.835,0,8.754-3.013,8.754-6.729S410.323,7.5,405.488,7.5Z" transform="translate(-395.382 -7.5)" fill="#efd06f"/>
        </g>
        <g id="Grupo_1224473" data-name="Grupo 1224473" transform="translate(10.176 10.167)">
          <path id="Trazado_1172305" data-name="Trazado 1172305" d="M125.941,205.4l-6.666-1.875a3.086,3.086,0,0,1-2.25-2.971v-1.62h-8.572v1.616a3.086,3.086,0,0,1-2.249,2.97L99.535,205.4a10.971,10.971,0,0,0-8.859,10.743v7.419h15l7.149-2.171,6.983,2.171h15V216.14A10.972,10.972,0,0,0,125.941,205.4Z" transform="translate(-90.676 -181.398)" fill="#7a6d79"/>
          <g id="Grupo_1224472" data-name="Grupo 1224472" transform="translate(22.008 17.533)">
            <path id="Trazado_1172306" data-name="Trazado 1172306" d="M256.025,205.4l-6.666-1.875a3.086,3.086,0,0,1-2.25-2.971v-1.62h-4.341v3.791a3.086,3.086,0,0,0,2.25,2.971l6.666,1.875a10.971,10.971,0,0,1,8.861,10.743v5.247h4.341V216.14a10.971,10.971,0,0,0-8.861-10.743Z" transform="translate(-242.768 -198.931)" fill="#685e68"/>
          </g>
          <path id="Trazado_1172307" data-name="Trazado 1172307" d="M209.018,231.371l-13.832,0-.026.007,1.734,19.926h10.419Z" transform="translate(-180.041 -209.141)" fill="#fff"/>
          <path id="Trazado_1172308" data-name="Trazado 1172308" d="M250.553,231.381l-6.832,0a3.084,3.084,0,0,0,2.112,2.066l4.118,1.159.63-3.215Z" transform="translate(-221.575 -209.151)" fill="#f3f0f3"/>
          <path id="Trazado_1172309" data-name="Trazado 1172309" d="M195.342,203.624a8.821,8.821,0,0,0,13.832,0l-.667.008a3.086,3.086,0,0,1-2.25-2.971v-1.62l-8.283-.114v1.616a3.086,3.086,0,0,1-2.249,2.97Z" transform="translate(-180.197 -181.397)" fill="#ffcebf"/>
          <path id="Trazado_1172310" data-name="Trazado 1172310" d="M248.226,202.926a3.085,3.085,0,0,1-1.117-2.375v-1.62h-4.341v3.791a3.086,3.086,0,0,0,2.25,2.971l1.56.439a8.865,8.865,0,0,0,3.159-2.5l-.378-.106A3.068,3.068,0,0,1,248.226,202.926Z" transform="translate(-220.76 -181.398)" fill="#ffb09e"/>
          <path id="Trazado_1172311" data-name="Trazado 1172311" d="M152.1,105.539h-3.163a3.349,3.349,0,0,0,0,6.7H152.1v-6.7Z" transform="translate(-137.641 -101.52)" fill="#ffb09e"/>
          <path id="Trazado_1172312" data-name="Trazado 1172312" d="M295.706,105.539h3.163a3.349,3.349,0,1,1,0,6.7h-3.163Z" transform="translate(-266.038 -101.52)" fill="#ffcebf"/>
          <path id="Trazado_1172313" data-name="Trazado 1172313" d="M195.14,81.782v5.451a8.873,8.873,0,0,1-9.836,9.4,13.058,13.058,0,0,1-4.226-.608,9.776,9.776,0,0,1-5.49-8.789V81.782A16.344,16.344,0,0,0,184.73,78a1.01,1.01,0,0,1,1.281-.021,18,18,0,0,0,9.128,3.8Z" transform="translate(-163.301 -77.763)" fill="#ffcebf"/>
          <path id="Trazado_1172314" data-name="Trazado 1172314" d="M221.833,80.112a18.017,18.017,0,0,1-3.369-2.12,1.014,1.014,0,0,0-1.285.017,16.458,16.458,0,0,1-1.478,1.105,17.878,17.878,0,0,0,4.286,1.983,4.646,4.646,0,0,1,3.259,4.441v1.7a8.7,8.7,0,0,1-2.17,6.14,9.028,9.028,0,0,1-7.551,2.648,9.976,9.976,0,0,0,3.183.925,9.772,9.772,0,0,0,10.879-9.713V81.789a18.069,18.069,0,0,1-5.755-1.677Z" transform="translate(-195.749 -77.77)" fill="#ffb09e"/>
          <path id="Trazado_1172315" data-name="Trazado 1172315" d="M271.3,237.925l1.7-5.087-4.947-1.392-3.9,19.922h4.026l4.76-10.281a1.013,1.013,0,0,0-.277-1.209l-1.036-.85A1.013,1.013,0,0,1,271.3,237.925Z" transform="translate(-239.047 -209.208)" fill="#685e68"/>
          <path id="Trazado_1172316" data-name="Trazado 1172316" d="M289.64,232.075l-2.236-.629-.63,3.215,2.548.717a11.081,11.081,0,0,1,1.985.593l1.044-3.132Z" transform="translate(-258.398 -209.208)" fill="#554e56"/>
          <path id="Trazado_1172317" data-name="Trazado 1172317" d="M160.8,232.813l1.7,5.089a1.013,1.013,0,0,1-.318,1.1l-1.036.85a1.013,1.013,0,0,0-.277,1.209l4.76,10.281h4.026l-3.9-19.926Z" transform="translate(-150.632 -209.185)" fill="#685e68"/>
        </g>
        <g id="Grupo_1224474" data-name="Grupo 1224474" transform="translate(0 52.327)">
          <path id="Trazado_1172318" data-name="Trazado 1172318" d="M57.812,413.823l-4.439-15.747h54.921l-4.439,15.747a1.013,1.013,0,0,1-.975.738H58.787a1.013,1.013,0,0,1-.975-.738Z" transform="translate(-48.595 -393.886)" fill="#e19974"/>
          <path id="Trazado_1172319" data-name="Trazado 1172319" d="M370.92,398.076l-4.439,15.747a1.013,1.013,0,0,1-.975.738h4.341a1.013,1.013,0,0,0,.975-.738l4.439-15.747Z" transform="translate(-315.562 -393.886)" fill="#dc8758"/>
          <path id="Trazado_1172320" data-name="Trazado 1172320" d="M82.661,377.652H22.525a2.171,2.171,0,0,1-2.171-2.171v-4.19a2.171,2.171,0,0,1,2.171-2.171H82.661a2.171,2.171,0,0,1,2.171,2.171v4.19A2.171,2.171,0,0,1,82.661,377.652Z" transform="translate(-20.355 -369.121)" fill="#f4d7c8"/>
          <path id="Trazado_1172321" data-name="Trazado 1172321" d="M425.279,369.121h-4.341a2.171,2.171,0,0,1,2.171,2.171v4.19a2.171,2.171,0,0,1-2.171,2.171h4.341a2.171,2.171,0,0,0,2.171-2.171v-4.19A2.171,2.171,0,0,0,425.279,369.121Z" transform="translate(-362.973 -369.121)" fill="#ecbba3"/>
        </g>
      </g>
      <path id="Trazado_1172322" data-name="Trazado 1172322" d="M77.722,6.729a1.085,1.085,0,1,0,1.085,1.085A1.085,1.085,0,0,0,77.722,6.729ZM73.381,0c-5.426,0-9.84,3.505-9.84,7.814a6.535,6.535,0,0,0,.876,3.234l-1.739,1.739a1.664,1.664,0,0,0,1.177,2.841h9.526c5.426,0,9.84-3.505,9.84-7.814S78.807,0,73.381,0Zm0,13.457h-8.3l1.149-1.149a1.677,1.677,0,0,0,.226-2.088,4.367,4.367,0,0,1-.742-2.406c0-3.112,3.44-5.643,7.669-5.643S81.051,4.7,81.051,7.814s-3.44,5.643-7.669,5.643Zm2.864,38.87H75.16V39.291a4.672,4.672,0,0,0-1.379-3.327L72.166,34.35a3.279,3.279,0,0,0-.634-3.7l-3.2-3.2a3.256,3.256,0,0,0-4.6,4.6l3.2,3.2a3.248,3.248,0,0,0,3.7.633L72.247,37.5a2.515,2.515,0,0,1,.743,1.791V52.327H69.325V45.995a12.081,12.081,0,0,0-7.973-11.314c0-3.7,0-16.178,0-19.506a15.183,15.183,0,0,0-20.9-14.059,1.085,1.085,0,0,0,.819,2.01,13,13,0,0,1,17.9,11.662,4.406,4.406,0,0,0-2.226-.6h-.918a16.938,16.938,0,0,1-5.357-1.569,16.955,16.955,0,0,1-3.17-2,2.1,2.1,0,0,0-2.656.039,15.28,15.28,0,0,1-3.373,2.153,15.245,15.245,0,0,1-5.128,1.372h-.935a4.405,4.405,0,0,0-2.229.6,13.048,13.048,0,0,1,4.166-9.16A1.085,1.085,0,0,0,35.87,4.037,15.224,15.224,0,0,0,31,15.175c0,4.032.1,15.631,0,19.5A12.081,12.081,0,0,0,23.03,45.993v6.334H19.366V39.29a2.516,2.516,0,0,1,.743-1.791l1.617-1.615a3.25,3.25,0,0,0,3.7-.633l3.2-3.2a3.3,3.3,0,0,0,0-4.6,3.259,3.259,0,0,0-4.6,0l-3.2,3.2a3.269,3.269,0,0,0-.634,3.7l-1.615,1.613a4.672,4.672,0,0,0-1.379,3.327V52.327H16.11a3.259,3.259,0,0,0-3.256,3.256v4.19a3.259,3.259,0,0,0,3.256,3.256h3.01L22.014,73.3a1.086,1.086,0,0,0,1.044.791,1.1,1.1,0,0,0,1.045-1.38l-2.728-9.679H70.98l-2.728,9.679a1.085,1.085,0,0,0,2.089.589l2.894-10.268h3.01A3.259,3.259,0,0,0,79.5,59.772v-4.19a3.259,3.259,0,0,0-3.256-3.255ZM70,33.717a1.086,1.086,0,0,1-1.535,0l-3.2-3.2A1.085,1.085,0,0,1,66.8,28.984l3.2,3.2a1.1,1.1,0,0,1,0,1.535ZM22.358,32.182l3.2-3.2a1.085,1.085,0,1,1,1.535,1.535l-3.2,3.2a1.085,1.085,0,0,1-1.535-1.535Zm44.8,13.813v6.332H61.17V50.174a1.085,1.085,0,1,0-2.171,0v2.153H54.942l4.046-8.74a2.1,2.1,0,0,0-.573-2.5l-1-.819,1.353-4.058C63.445,37.328,67.164,40.774,67.155,45.995Zm-16.5.053a1.085,1.085,0,0,0-1.274.856l-1.063,5.423H44.032L40.91,36.4a9.929,9.929,0,0,0,10.534,0l-1.073,5.476a1.085,1.085,0,0,0,2.13.417l1.458-7.439,2.719.765-1.335,4.007A2.11,2.11,0,0,0,56,41.912l.993.815-4.445,9.6H50.535l.981-5.005a1.085,1.085,0,0,0-.856-1.274ZM37.013,39.626l-1.337-4.01,2.719-.766L41.82,52.327H39.805l-4.445-9.6.993-.815a2.11,2.11,0,0,0,.66-2.286Zm4.114-5.764a4.2,4.2,0,0,0,1.793-2.779,10.867,10.867,0,0,0,6.515,0,4.2,4.2,0,0,0,1.79,2.782,7.728,7.728,0,0,1-10.1,0Zm15.912-17.5a2.263,2.263,0,0,1,2.143,1.924v.671a2.28,2.28,0,0,1-2.147,1.922c0-.141.008-4.363,0-4.517Zm-.255,6.692a4.561,4.561,0,0,0,2.4-.6V34.069c-.424-.1-5.794-1.631-6.174-1.737a2.044,2.044,0,0,1-1.459-2.176A10.9,10.9,0,0,0,56.784,23.054Zm-19.3-6.814a17.393,17.393,0,0,0,4.9-1.459A17.451,17.451,0,0,0,46.2,12.359a19.137,19.137,0,0,0,3.528,2.212,19.079,19.079,0,0,0,5.142,1.641v4.51a8.691,8.691,0,1,1-17.381,0Zm-4.314,2.046a2.263,2.263,0,0,1,2.143-1.924c0,.154,0,4.376,0,4.517a2.271,2.271,0,0,1-2.147-1.922v-.671Zm0,4.164a4.452,4.452,0,0,0,2.4.6,10.894,10.894,0,0,0,5.235,7.1,2.066,2.066,0,0,1-1.458,2.17l-6.175,1.74ZM25.2,45.993c-.015-5.26,3.619-8.513,8.385-9.787l1.353,4.059-1,.819a2.1,2.1,0,0,0-.573,2.5l4.046,8.74H33.355V50.174a1.085,1.085,0,0,0-2.171,0v2.153H25.2ZM77.33,59.773a1.087,1.087,0,0,1-1.085,1.085H16.11a1.087,1.087,0,0,1-1.085-1.085v-4.19A1.086,1.086,0,0,1,16.11,54.5H76.245a1.086,1.086,0,0,1,1.085,1.085ZM69.04,6.729a1.085,1.085,0,1,0,1.085,1.085A1.085,1.085,0,0,0,69.04,6.729Zm4.341,0a1.085,1.085,0,1,0,1.085,1.085A1.085,1.085,0,0,0,73.381,6.729Z"/>
    </g>
  </g>
</svg>
